%TF.GenerationSoftware,KiCad,Pcbnew,9.0.6*%
%TF.CreationDate,2026-01-22T18:20:15-07:00*%
%TF.ProjectId,GEO,47454f2e-6b69-4636-9164-5f7063625858,rev?*%
%TF.SameCoordinates,Original*%
%TF.FileFunction,Soldermask,Top*%
%TF.FilePolarity,Negative*%
%FSLAX46Y46*%
G04 Gerber Fmt 4.6, Leading zero omitted, Abs format (unit mm)*
G04 Created by KiCad (PCBNEW 9.0.6) date 2026-01-22 18:20:15*
%MOMM*%
%LPD*%
G01*
G04 APERTURE LIST*
G04 Aperture macros list*
%AMRoundRect*
0 Rectangle with rounded corners*
0 $1 Rounding radius*
0 $2 $3 $4 $5 $6 $7 $8 $9 X,Y pos of 4 corners*
0 Add a 4 corners polygon primitive as box body*
4,1,4,$2,$3,$4,$5,$6,$7,$8,$9,$2,$3,0*
0 Add four circle primitives for the rounded corners*
1,1,$1+$1,$2,$3*
1,1,$1+$1,$4,$5*
1,1,$1+$1,$6,$7*
1,1,$1+$1,$8,$9*
0 Add four rect primitives between the rounded corners*
20,1,$1+$1,$2,$3,$4,$5,0*
20,1,$1+$1,$4,$5,$6,$7,0*
20,1,$1+$1,$6,$7,$8,$9,0*
20,1,$1+$1,$8,$9,$2,$3,0*%
G04 Aperture macros list end*
%ADD10RoundRect,0.050800X-0.270000X0.282850X-0.270000X-0.282850X0.270000X-0.282850X0.270000X0.282850X0*%
%ADD11R,1.508000X1.508000*%
%ADD12C,1.508000*%
%ADD13R,1.398000X1.398000*%
%ADD14C,1.398000*%
%ADD15R,1.350000X1.350000*%
%ADD16C,1.350000*%
%ADD17RoundRect,0.102000X-0.550000X-0.500000X0.550000X-0.500000X0.550000X0.500000X-0.550000X0.500000X0*%
%ADD18RoundRect,0.100000X-0.225000X-0.100000X0.225000X-0.100000X0.225000X0.100000X-0.225000X0.100000X0*%
%ADD19C,1.358000*%
%ADD20R,1.358000X1.358000*%
%ADD21C,3.200000*%
%ADD22C,2.100000*%
%ADD23R,0.610000X2.000000*%
%ADD24R,2.680000X3.600000*%
%ADD25C,1.905000*%
%ADD26C,1.600000*%
%ADD27O,4.000000X3.000000*%
%ADD28R,1.700000X0.600000*%
%ADD29R,2.700000X1.000000*%
%ADD30RoundRect,0.050800X0.270000X-0.282850X0.270000X0.282850X-0.270000X0.282850X-0.270000X-0.282850X0*%
G04 APERTURE END LIST*
D10*
%TO.C,R4*%
X155539100Y-100485600D03*
X155539100Y-101351200D03*
%TD*%
D11*
%TO.C,SD1*%
X186039100Y-98985600D03*
D12*
X186039100Y-96485630D03*
X186039100Y-93985610D03*
X186039100Y-91485590D03*
X186039100Y-88985620D03*
X186039100Y-86485600D03*
%TD*%
D11*
%TO.C,CO1*%
X167039100Y-86485610D03*
D12*
X167039100Y-88985580D03*
X167039100Y-91485600D03*
X167039100Y-93985620D03*
X167039100Y-96485590D03*
%TD*%
D13*
%TO.C,Clk1*%
X129959100Y-102082600D03*
D14*
X129959100Y-99542600D03*
X129959100Y-97002600D03*
X129959100Y-94462600D03*
X129959100Y-91922600D03*
%TD*%
D15*
%TO.C,J1*%
X172039100Y-101485600D03*
D16*
X170039100Y-101485600D03*
%TD*%
D17*
%TO.C,C1*%
X179039100Y-101485600D03*
X177339100Y-101485600D03*
%TD*%
D18*
%TO.C,U1*%
X161139100Y-100685600D03*
X161139100Y-101335600D03*
X161139100Y-101985600D03*
X163039100Y-101985600D03*
X163039100Y-100685600D03*
%TD*%
D19*
%TO.C,A1*%
X143519100Y-129245600D03*
X119135100Y-80985600D03*
X116595100Y-80985600D03*
X130819100Y-129245600D03*
D20*
X125739100Y-129245600D03*
D19*
X128279100Y-129245600D03*
X194319100Y-124165600D03*
X191779100Y-124165600D03*
X124215100Y-80985600D03*
X140979100Y-129245600D03*
X138439100Y-129245600D03*
X121675100Y-80985600D03*
X189239100Y-129245600D03*
X186699100Y-129245600D03*
X184159100Y-129245600D03*
X181619100Y-129245600D03*
X179079100Y-129245600D03*
X176539100Y-129245600D03*
X173999100Y-129245600D03*
X171459100Y-129245600D03*
X166379100Y-129245600D03*
X163839100Y-129245600D03*
X161299100Y-129245600D03*
X158759100Y-129245600D03*
X156219100Y-129245600D03*
X153679100Y-129245600D03*
X151139100Y-129245600D03*
X148599100Y-129245600D03*
X194319100Y-121625600D03*
X191779100Y-121625600D03*
X194319100Y-119085600D03*
X191779100Y-119085600D03*
X194319100Y-116545600D03*
X191779100Y-116545600D03*
X194319100Y-114005600D03*
X191779100Y-114005600D03*
X194319100Y-111465600D03*
X191779100Y-111465600D03*
X194319100Y-108925600D03*
X191779100Y-108925600D03*
X194319100Y-106385600D03*
X191779100Y-106385600D03*
X194319100Y-103845600D03*
X191779100Y-103845600D03*
X194319100Y-101305600D03*
X191779100Y-101305600D03*
X194319100Y-98765600D03*
X191779100Y-98765600D03*
X194319100Y-96225600D03*
X191779100Y-96225600D03*
X194319100Y-93685600D03*
X191779100Y-93685600D03*
X194319100Y-91145600D03*
X191779100Y-91145600D03*
X194319100Y-88605600D03*
X191779100Y-88605600D03*
X194319100Y-86065600D03*
X191779100Y-86065600D03*
X194319100Y-83525600D03*
X191779100Y-83525600D03*
X184159100Y-80985600D03*
X181619100Y-80985600D03*
X179079100Y-80985600D03*
X176539100Y-80985600D03*
X173999100Y-80985600D03*
X171459100Y-80985600D03*
X168919100Y-80985600D03*
X166379100Y-80985600D03*
X126755100Y-80985600D03*
X129295100Y-80985600D03*
X131835100Y-80985600D03*
X134375100Y-80985600D03*
X136915100Y-80985600D03*
X139455100Y-80985600D03*
X143519100Y-80985600D03*
X146059100Y-80985600D03*
X194319100Y-80985600D03*
X191779100Y-80985600D03*
X135899100Y-129245600D03*
X148599100Y-80985600D03*
X151139100Y-80985600D03*
X133359100Y-129245600D03*
X153679100Y-80985600D03*
X156219100Y-80985600D03*
X158759100Y-80985600D03*
X161299100Y-80985600D03*
D21*
X187969100Y-80985600D03*
X113039100Y-80985600D03*
X194319100Y-129245600D03*
X111769100Y-129245600D03*
%TD*%
D22*
%TO.C,H1*%
X103039100Y-113985600D03*
%TD*%
%TO.C,H2*%
X103039100Y-120985600D03*
%TD*%
D23*
%TO.C,LCD1*%
X134849100Y-116157600D03*
X135849100Y-116157600D03*
X136849100Y-116157600D03*
X137849100Y-116157600D03*
X138849100Y-116157600D03*
X139849100Y-116157600D03*
X140849100Y-116157600D03*
X141849100Y-116157600D03*
X142849100Y-116157600D03*
D24*
X131859100Y-118957600D03*
X145839100Y-118957600D03*
%TD*%
D25*
%TO.C,U2*%
X153955100Y-106554100D03*
X153955100Y-109124600D03*
X153955100Y-120046600D03*
X153955100Y-122617100D03*
X177323100Y-106554100D03*
X177323100Y-109124600D03*
X177323100Y-120046600D03*
X177323100Y-122617100D03*
%TD*%
D26*
%TO.C,R2*%
X187539100Y-117835600D03*
X187539100Y-105135600D03*
%TD*%
%TO.C,R1*%
X183039100Y-105135600D03*
X183039100Y-117835600D03*
%TD*%
D11*
%TO.C,TEMP1*%
X176539100Y-86485610D03*
D12*
X176539100Y-88985580D03*
X176539100Y-91485600D03*
X176539100Y-93985620D03*
%TD*%
D27*
%TO.C,*%
X116624100Y-113512600D03*
%TD*%
%TO.C,*%
X116751100Y-120624600D03*
%TD*%
D28*
%TO.C,PM1*%
X158239090Y-86835580D03*
X158239090Y-88085620D03*
X158239090Y-89335600D03*
X158239090Y-90585590D03*
X158239090Y-91835630D03*
X158239090Y-93085610D03*
X158239090Y-94335590D03*
X158239090Y-95585580D03*
D29*
X155039100Y-84985600D03*
X155039100Y-97435610D03*
%TD*%
D30*
%TO.C,R3*%
X158539100Y-101351200D03*
X158539100Y-100485600D03*
%TD*%
M02*
