M48
; DRILL file {KiCad 9.0.6} date 2026-03-03T16:54:30-0700
; FORMAT={-:-/ absolute / metric / decimal}
; #@! TF.CreationDate,2026-03-03T16:54:30-07:00
; #@! TF.GenerationSoftware,Kicad,Pcbnew,9.0.6
; #@! TF.FileFunction,Plated,1,2,PTH
FMAT,2
METRIC
; #@! TA.AperFunction,Plated,PTH,ViaDrill
T1C0.600
; #@! TA.AperFunction,Plated,PTH,ComponentDrill
T2C0.800
; #@! TA.AperFunction,Plated,PTH,ComponentDrill
T3C0.850
; #@! TA.AperFunction,Plated,PTH,ComponentDrill
T4C1.000
; #@! TA.AperFunction,Plated,PTH,ComponentDrill
T5C1.020
; #@! TA.AperFunction,Plated,PTH,ComponentDrill
T6C1.300
%
G90
G05
T1
X120.039Y-102.486
X127.539Y-121.486
X136.539Y-94.986
X136.539Y-96.486
X138.539Y-85.486
X151.539Y-92.486
X159.039Y-103.986
X160.539Y-86.486
X162.039Y-114.986
X167.539Y-110.986
X171.039Y-87.986
X174.039Y-98.986
T2
X183.039Y-105.136
X183.039Y-117.836
X187.539Y-105.136
X187.539Y-117.836
T3
X116.595Y-80.986
X119.135Y-80.986
X121.675Y-80.986
X124.215Y-80.986
X125.739Y-129.246
X126.755Y-80.986
X128.279Y-129.246
X129.295Y-80.986
X130.819Y-129.246
X131.835Y-80.986
X133.359Y-129.246
X134.375Y-80.986
X135.899Y-129.246
X136.915Y-80.986
X138.439Y-129.246
X139.455Y-80.986
X140.979Y-129.246
X143.519Y-80.986
X143.519Y-129.246
X146.059Y-80.986
X148.599Y-80.986
X148.599Y-129.246
X151.139Y-80.986
X151.139Y-129.246
X153.679Y-80.986
X153.679Y-129.246
X156.219Y-80.986
X156.219Y-129.246
X158.759Y-80.986
X158.759Y-129.246
X161.299Y-80.986
X161.299Y-129.246
X163.839Y-129.246
X166.379Y-80.986
X166.379Y-129.246
X168.919Y-80.986
X171.459Y-80.986
X171.459Y-129.246
X173.999Y-80.986
X173.999Y-129.246
X176.539Y-80.986
X176.539Y-129.246
X179.079Y-80.986
X179.079Y-129.246
X181.619Y-80.986
X181.619Y-129.246
X184.159Y-80.986
X184.159Y-129.246
X186.699Y-129.246
X189.239Y-129.246
X191.779Y-80.986
X191.779Y-83.526
X191.779Y-86.066
X191.779Y-88.606
X191.779Y-91.146
X191.779Y-93.686
X191.779Y-96.226
X191.779Y-98.766
X191.779Y-101.306
X191.779Y-103.846
X191.779Y-106.386
X191.779Y-108.926
X191.779Y-111.466
X191.779Y-114.006
X191.779Y-116.546
X191.779Y-119.086
X191.779Y-121.626
X191.779Y-124.166
X194.319Y-80.986
X194.319Y-83.526
X194.319Y-86.066
X194.319Y-88.606
X194.319Y-91.146
X194.319Y-93.686
X194.319Y-96.226
X194.319Y-98.766
X194.319Y-101.306
X194.319Y-103.846
X194.319Y-106.386
X194.319Y-108.926
X194.319Y-111.466
X194.319Y-114.006
X194.319Y-116.546
X194.319Y-119.086
X194.319Y-121.626
X194.319Y-124.166
T4
X153.955Y-106.554
X153.955Y-109.125
X153.955Y-120.047
X153.955Y-122.617
X167.039Y-86.486
X167.039Y-88.986
X167.039Y-91.486
X167.039Y-93.986
X167.039Y-96.486
X169.539Y-101.486
X172.079Y-101.486
X176.539Y-86.486
X176.539Y-88.986
X176.539Y-91.486
X176.539Y-93.986
X177.323Y-106.554
X177.323Y-109.125
X177.323Y-120.047
X177.323Y-122.617
X186.039Y-86.486
X186.039Y-88.986
X186.039Y-91.486
X186.039Y-93.986
X186.039Y-96.486
X186.039Y-98.986
T5
X129.959Y-91.923
X129.959Y-94.463
X129.959Y-97.003
X129.959Y-99.543
X129.959Y-102.083
T6
X108.539Y-114.886
X108.539Y-119.886
M30
