%TF.GenerationSoftware,KiCad,Pcbnew,9.0.6*%
%TF.CreationDate,2025-11-20T16:03:33-07:00*%
%TF.ProjectId,GEO,47454f2e-6b69-4636-9164-5f7063625858,rev?*%
%TF.SameCoordinates,Original*%
%TF.FileFunction,Legend,Bot*%
%TF.FilePolarity,Positive*%
%FSLAX46Y46*%
G04 Gerber Fmt 4.6, Leading zero omitted, Abs format (unit mm)*
G04 Created by KiCad (PCBNEW 9.0.6) date 2025-11-20 16:03:33*
%MOMM*%
%LPD*%
G01*
G04 APERTURE LIST*
%ADD10C,0.000000*%
G04 APERTURE END LIST*
D10*
G36*
X111999550Y-88446540D02*
G01*
X111858040Y-88446540D01*
X111858040Y-88470130D01*
X111810870Y-88470130D01*
X111810870Y-88493710D01*
X111787290Y-88493710D01*
X111787290Y-88540880D01*
X111763700Y-88540880D01*
X111763700Y-88705980D01*
X111787290Y-88705980D01*
X111787290Y-88776730D01*
X111810870Y-88776730D01*
X111810870Y-88823900D01*
X111834460Y-88823900D01*
X111834460Y-88871070D01*
X111858040Y-88871070D01*
X111858040Y-88894660D01*
X111881630Y-88894660D01*
X111881630Y-88941830D01*
X111905210Y-88941830D01*
X111905210Y-88989000D01*
X111928800Y-88989000D01*
X111928800Y-89036170D01*
X111952380Y-89036170D01*
X111952380Y-89059750D01*
X111975970Y-89059750D01*
X111975970Y-89106920D01*
X111999550Y-89106920D01*
X111999550Y-89130500D01*
X112023140Y-89130500D01*
X112023140Y-89177670D01*
X112046720Y-89177670D01*
X112046720Y-89224850D01*
X112070310Y-89224850D01*
X112070310Y-89248430D01*
X112093890Y-89248430D01*
X112093890Y-89295600D01*
X112117480Y-89295600D01*
X112117480Y-89319180D01*
X112141060Y-89319180D01*
X112141060Y-89366350D01*
X112164650Y-89366350D01*
X112164650Y-89413520D01*
X112188230Y-89413520D01*
X112188230Y-89437110D01*
X112211820Y-89437110D01*
X112211820Y-89484280D01*
X112235400Y-89484280D01*
X112235400Y-89507860D01*
X112258990Y-89507860D01*
X112258990Y-89555030D01*
X112282570Y-89555030D01*
X112282570Y-89578620D01*
X112306160Y-89578620D01*
X112306160Y-89625790D01*
X112329740Y-89625790D01*
X112329740Y-89649370D01*
X112353330Y-89649370D01*
X112353330Y-89696540D01*
X112376910Y-89696540D01*
X112376910Y-89720130D01*
X112400500Y-89720130D01*
X112400500Y-89767300D01*
X112424080Y-89767300D01*
X112424080Y-89790880D01*
X112447660Y-89790880D01*
X112447660Y-89838050D01*
X112471250Y-89838050D01*
X112471250Y-89861640D01*
X112494840Y-89861640D01*
X112494840Y-89908810D01*
X112518420Y-89908810D01*
X112518420Y-89932390D01*
X112542010Y-89932390D01*
X112542010Y-89979560D01*
X112565590Y-89979560D01*
X112565590Y-90003150D01*
X112589180Y-90003150D01*
X112589180Y-90050320D01*
X112612760Y-90050320D01*
X112612760Y-90073900D01*
X112636350Y-90073900D01*
X112636350Y-90121070D01*
X112659930Y-90121070D01*
X112659930Y-90144660D01*
X112683510Y-90144660D01*
X112683510Y-90191830D01*
X112707100Y-90191830D01*
X112707100Y-90215410D01*
X112730680Y-90215410D01*
X112730680Y-90262580D01*
X112754270Y-90262580D01*
X112754270Y-90286170D01*
X112777850Y-90286170D01*
X112777850Y-90333330D01*
X112801440Y-90333330D01*
X112801440Y-90356920D01*
X112825030Y-90356920D01*
X112825030Y-90404090D01*
X112848610Y-90404090D01*
X112848610Y-90451260D01*
X112872200Y-90451260D01*
X112872200Y-90474850D01*
X112895780Y-90474850D01*
X112895780Y-90498430D01*
X112919360Y-90498430D01*
X112919360Y-90451260D01*
X112942950Y-90451260D01*
X112942950Y-90427670D01*
X112966530Y-90427670D01*
X112966530Y-90380500D01*
X112990120Y-90380500D01*
X112990120Y-90356920D01*
X113013700Y-90356920D01*
X113013700Y-90309750D01*
X113037290Y-90309750D01*
X113037290Y-90286170D01*
X113060870Y-90286170D01*
X113060870Y-90239000D01*
X113084460Y-90239000D01*
X113084460Y-90215410D01*
X113108040Y-90215410D01*
X113108040Y-90168240D01*
X113131630Y-90168240D01*
X113131630Y-90144660D01*
X113155210Y-90144660D01*
X113155210Y-90097490D01*
X113178800Y-90097490D01*
X113178800Y-90073900D01*
X113202380Y-90073900D01*
X113202380Y-90026730D01*
X113225970Y-90026730D01*
X113225970Y-90003150D01*
X113249550Y-90003150D01*
X113249550Y-89955980D01*
X113273140Y-89955980D01*
X113273140Y-89932390D01*
X113296720Y-89932390D01*
X113296720Y-89908810D01*
X113320310Y-89908810D01*
X113320310Y-89861640D01*
X113343890Y-89861640D01*
X113343890Y-89838050D01*
X113367480Y-89838050D01*
X113367480Y-89790880D01*
X113391060Y-89790880D01*
X113391060Y-89767300D01*
X113414650Y-89767300D01*
X113414650Y-89720130D01*
X113438230Y-89720130D01*
X113438230Y-89696540D01*
X113461820Y-89696540D01*
X113461820Y-89649370D01*
X113485400Y-89649370D01*
X113485400Y-89625790D01*
X113508990Y-89625790D01*
X113508990Y-89578620D01*
X113532570Y-89578620D01*
X113532570Y-89555030D01*
X113556160Y-89555030D01*
X113556160Y-89507860D01*
X113579740Y-89507860D01*
X113579740Y-89484280D01*
X113603330Y-89484280D01*
X113603330Y-89437110D01*
X113626910Y-89437110D01*
X113626910Y-89389940D01*
X113650500Y-89389940D01*
X113650500Y-89366350D01*
X113674080Y-89366350D01*
X113674080Y-89319180D01*
X113697660Y-89319180D01*
X113697660Y-89295600D01*
X113721250Y-89295600D01*
X113721250Y-89248430D01*
X113744840Y-89248430D01*
X113744840Y-89224850D01*
X113768420Y-89224850D01*
X113768420Y-89177670D01*
X113792010Y-89177670D01*
X113792010Y-89130500D01*
X113815590Y-89130500D01*
X113815590Y-89106920D01*
X113839180Y-89106920D01*
X113839180Y-89059750D01*
X113862760Y-89059750D01*
X113862760Y-89012580D01*
X113886350Y-89012580D01*
X113886350Y-88989000D01*
X113909930Y-88989000D01*
X113909930Y-88941830D01*
X113933510Y-88941830D01*
X113933510Y-88894660D01*
X113957100Y-88894660D01*
X113957100Y-88847480D01*
X113980680Y-88847480D01*
X113980680Y-88800320D01*
X114004270Y-88800320D01*
X114004270Y-88753150D01*
X114027850Y-88753150D01*
X114027850Y-88564470D01*
X114004270Y-88564470D01*
X114004270Y-88517300D01*
X113980680Y-88517300D01*
X113980680Y-88493710D01*
X113957100Y-88493710D01*
X113957100Y-88470130D01*
X113909930Y-88470130D01*
X113909930Y-88446540D01*
X113768420Y-88446540D01*
X113768420Y-88399370D01*
X116575030Y-88399370D01*
X116575030Y-88446540D01*
X116457100Y-88446540D01*
X116457100Y-88470130D01*
X116386350Y-88470130D01*
X116386350Y-88493710D01*
X116339180Y-88493710D01*
X116339180Y-88517300D01*
X116292010Y-88517300D01*
X116292010Y-88540880D01*
X116244840Y-88540880D01*
X116244840Y-88564470D01*
X116197660Y-88564470D01*
X116197660Y-88588050D01*
X116174080Y-88588050D01*
X116174080Y-88611640D01*
X116150500Y-88611640D01*
X116150500Y-88635220D01*
X116126910Y-88635220D01*
X116126910Y-88658810D01*
X116103330Y-88658810D01*
X116103330Y-88682390D01*
X116079740Y-88682390D01*
X116079740Y-88705980D01*
X116056160Y-88705980D01*
X116056160Y-88729560D01*
X116032570Y-88729560D01*
X116032570Y-88776730D01*
X116008990Y-88776730D01*
X116008990Y-88800320D01*
X115985400Y-88800320D01*
X115985400Y-88823900D01*
X115961820Y-88823900D01*
X115961820Y-88871070D01*
X115938230Y-88871070D01*
X115938230Y-88894660D01*
X115914650Y-88894660D01*
X115914650Y-88941830D01*
X115891060Y-88941830D01*
X115891060Y-88965410D01*
X115867480Y-88965410D01*
X115867480Y-89012580D01*
X115843890Y-89012580D01*
X115843890Y-89036170D01*
X115820310Y-89036170D01*
X115820310Y-89083330D01*
X115796720Y-89083330D01*
X115796720Y-89106920D01*
X115773140Y-89106920D01*
X115773140Y-89154090D01*
X115749550Y-89154090D01*
X115749550Y-89177670D01*
X115725970Y-89177670D01*
X115725970Y-89224850D01*
X115702380Y-89224850D01*
X115702380Y-89248430D01*
X115678800Y-89248430D01*
X115678800Y-89295600D01*
X115655210Y-89295600D01*
X115655210Y-89319180D01*
X115631630Y-89319180D01*
X115631630Y-89366350D01*
X115608040Y-89366350D01*
X115608040Y-89389940D01*
X115584460Y-89389940D01*
X115584460Y-89413520D01*
X115560870Y-89413520D01*
X115560870Y-89460690D01*
X115537290Y-89460690D01*
X115537290Y-89484280D01*
X115513700Y-89484280D01*
X115513700Y-89531450D01*
X115490120Y-89531450D01*
X115490120Y-89555030D01*
X115466530Y-89555030D01*
X115466530Y-89602200D01*
X115442950Y-89602200D01*
X115442950Y-89625790D01*
X115419360Y-89625790D01*
X115419360Y-89672960D01*
X115395780Y-89672960D01*
X115395780Y-89696540D01*
X115372200Y-89696540D01*
X115372200Y-89743710D01*
X115348610Y-89743710D01*
X115348610Y-89767300D01*
X115325030Y-89767300D01*
X115325030Y-89814470D01*
X115301440Y-89814470D01*
X115301440Y-89838050D01*
X115277850Y-89838050D01*
X115277850Y-89885220D01*
X115254270Y-89885220D01*
X115254270Y-89908810D01*
X115230680Y-89908810D01*
X115230680Y-89955980D01*
X115207100Y-89955980D01*
X115207100Y-89979560D01*
X115183510Y-89979560D01*
X115183510Y-90026730D01*
X115159930Y-90026730D01*
X115159930Y-90050320D01*
X115136350Y-90050320D01*
X115136350Y-90097490D01*
X115112760Y-90097490D01*
X115112760Y-90121070D01*
X115089180Y-90121070D01*
X115089180Y-90168240D01*
X115065590Y-90168240D01*
X115065590Y-90191830D01*
X115042010Y-90191830D01*
X115042010Y-90239000D01*
X115018420Y-90239000D01*
X115018420Y-90262580D01*
X114994840Y-90262580D01*
X114994840Y-90309750D01*
X114971250Y-90309750D01*
X114971250Y-90333330D01*
X114947660Y-90333330D01*
X114947660Y-90356920D01*
X114924080Y-90356920D01*
X114924080Y-90404090D01*
X114900500Y-90404090D01*
X114900500Y-90427670D01*
X114876910Y-90427670D01*
X114876910Y-90474850D01*
X114853330Y-90474850D01*
X114853330Y-90498430D01*
X114829740Y-90498430D01*
X114829740Y-90545600D01*
X114806160Y-90545600D01*
X114806160Y-90569180D01*
X114782570Y-90569180D01*
X114782570Y-90616350D01*
X114758990Y-90616350D01*
X114758990Y-90639940D01*
X114735400Y-90639940D01*
X114735400Y-90687110D01*
X114711820Y-90687110D01*
X114711820Y-90710690D01*
X114688230Y-90710690D01*
X114688230Y-90757860D01*
X114664650Y-90757860D01*
X114664650Y-90781450D01*
X114641060Y-90781450D01*
X114641060Y-90828620D01*
X114617480Y-90828620D01*
X114617480Y-90852200D01*
X114593890Y-90852200D01*
X114593890Y-90899370D01*
X114570310Y-90899370D01*
X114570310Y-90922960D01*
X114546720Y-90922960D01*
X114546720Y-90970130D01*
X114523140Y-90970130D01*
X114523140Y-90993710D01*
X114499550Y-90993710D01*
X114499550Y-91040880D01*
X114475970Y-91040880D01*
X114475970Y-91064470D01*
X114452380Y-91064470D01*
X114452380Y-91111640D01*
X114428800Y-91111640D01*
X114428800Y-91135220D01*
X114405210Y-91135220D01*
X114405210Y-91182390D01*
X114381630Y-91182390D01*
X114381630Y-91205980D01*
X114358040Y-91205980D01*
X114358040Y-91229560D01*
X114334460Y-91229560D01*
X114334460Y-91276730D01*
X114310870Y-91276730D01*
X114310870Y-91300320D01*
X114287290Y-91300320D01*
X114287290Y-91347490D01*
X114263700Y-91347490D01*
X114263700Y-91371070D01*
X114240120Y-91371070D01*
X114240120Y-91418240D01*
X114216530Y-91418240D01*
X114216530Y-91441830D01*
X114192950Y-91441830D01*
X114192950Y-91489000D01*
X114169360Y-91489000D01*
X114169360Y-91512580D01*
X114145780Y-91512580D01*
X114145780Y-91559750D01*
X114122200Y-91559750D01*
X114122200Y-91583330D01*
X114098610Y-91583330D01*
X114098610Y-91630500D01*
X114075030Y-91630500D01*
X114075030Y-91654090D01*
X114051440Y-91654090D01*
X114051440Y-91701260D01*
X114027850Y-91701260D01*
X114027850Y-91724850D01*
X114004270Y-91724850D01*
X114004270Y-91772020D01*
X113980680Y-91772020D01*
X113980680Y-91795600D01*
X113957100Y-91795600D01*
X113957100Y-93871070D01*
X113980680Y-93871070D01*
X113980680Y-93894660D01*
X114004270Y-93894660D01*
X114004270Y-93941830D01*
X114051440Y-93941830D01*
X114051440Y-93965410D01*
X114098610Y-93965410D01*
X114098610Y-93989000D01*
X114145780Y-93989000D01*
X114145780Y-94012580D01*
X114192950Y-94012580D01*
X114192950Y-94036170D01*
X114263700Y-94036170D01*
X114263700Y-94059750D01*
X114358040Y-94059750D01*
X114358040Y-94083330D01*
X114452380Y-94083330D01*
X114452380Y-94106920D01*
X114428800Y-94106920D01*
X114428800Y-94130500D01*
X111409930Y-94130500D01*
X111409930Y-94106920D01*
X111386350Y-94106920D01*
X111386350Y-94083330D01*
X111480680Y-94083330D01*
X111480680Y-94059750D01*
X111575030Y-94059750D01*
X111575030Y-94036170D01*
X111645780Y-94036170D01*
X111645780Y-94012580D01*
X111692950Y-94012580D01*
X111692950Y-93989000D01*
X111740120Y-93989000D01*
X111740120Y-93965410D01*
X111787290Y-93965410D01*
X111787290Y-93941830D01*
X111834460Y-93941830D01*
X111834460Y-93918240D01*
X111858040Y-93918240D01*
X111858040Y-93871070D01*
X111881630Y-93871070D01*
X111881630Y-91819180D01*
X111858040Y-91819180D01*
X111858040Y-91772020D01*
X111834460Y-91772020D01*
X111834460Y-91748430D01*
X111810870Y-91748430D01*
X111810870Y-91701260D01*
X111787290Y-91701260D01*
X111787290Y-91677670D01*
X111763700Y-91677670D01*
X111763700Y-91630500D01*
X111740120Y-91630500D01*
X111740120Y-91606920D01*
X111716530Y-91606920D01*
X111716530Y-91559750D01*
X111692950Y-91559750D01*
X111692950Y-91536170D01*
X111669360Y-91536170D01*
X111669360Y-91489000D01*
X111645780Y-91489000D01*
X111645780Y-91465410D01*
X111622200Y-91465410D01*
X111622200Y-91418240D01*
X111598610Y-91418240D01*
X111598610Y-91394660D01*
X111575030Y-91394660D01*
X111575030Y-91347490D01*
X111551440Y-91347490D01*
X111551440Y-91323900D01*
X111527850Y-91323900D01*
X111527850Y-91276730D01*
X111504270Y-91276730D01*
X111504270Y-91253150D01*
X111480680Y-91253150D01*
X111480680Y-91205980D01*
X111457100Y-91205980D01*
X111457100Y-91182390D01*
X111433510Y-91182390D01*
X111433510Y-91135220D01*
X111409930Y-91135220D01*
X111409930Y-91111640D01*
X111386350Y-91111640D01*
X111386350Y-91064470D01*
X111362760Y-91064470D01*
X111362760Y-91040880D01*
X111339180Y-91040880D01*
X111339180Y-90993710D01*
X111315590Y-90993710D01*
X111315590Y-90970130D01*
X111292010Y-90970130D01*
X111292010Y-90922960D01*
X111268420Y-90922960D01*
X111268420Y-90899370D01*
X111244840Y-90899370D01*
X111244840Y-90852200D01*
X111221250Y-90852200D01*
X111221250Y-90828620D01*
X111197660Y-90828620D01*
X111197660Y-90781450D01*
X111174080Y-90781450D01*
X111174080Y-90757860D01*
X111150500Y-90757860D01*
X111150500Y-90734280D01*
X111126910Y-90734280D01*
X111126910Y-90687110D01*
X111103330Y-90687110D01*
X111103330Y-90663520D01*
X111079740Y-90663520D01*
X111079740Y-90616350D01*
X111056160Y-90616350D01*
X111056160Y-90592770D01*
X111032570Y-90592770D01*
X111032570Y-90545600D01*
X111008990Y-90545600D01*
X111008990Y-90522020D01*
X110985400Y-90522020D01*
X110985400Y-90474850D01*
X110961820Y-90474850D01*
X110961820Y-90451260D01*
X110938230Y-90451260D01*
X110938230Y-90404090D01*
X110914650Y-90404090D01*
X110914650Y-90380500D01*
X110891060Y-90380500D01*
X110891060Y-90333330D01*
X110867480Y-90333330D01*
X110867480Y-90309750D01*
X110843890Y-90309750D01*
X110843890Y-90262580D01*
X110820310Y-90262580D01*
X110820310Y-90239000D01*
X110796720Y-90239000D01*
X110796720Y-90191830D01*
X110773140Y-90191830D01*
X110773140Y-90168240D01*
X110749550Y-90168240D01*
X110749550Y-90121070D01*
X110725970Y-90121070D01*
X110725970Y-90097490D01*
X110702380Y-90097490D01*
X110702380Y-90050320D01*
X110678800Y-90050320D01*
X110678800Y-90026730D01*
X110655210Y-90026730D01*
X110655210Y-89979560D01*
X110631630Y-89979560D01*
X110631630Y-89955980D01*
X110608040Y-89955980D01*
X110608040Y-89908810D01*
X110584460Y-89908810D01*
X110584460Y-89885220D01*
X110560870Y-89885220D01*
X110560870Y-89838050D01*
X110537290Y-89838050D01*
X110537290Y-89814470D01*
X110513700Y-89814470D01*
X110513700Y-89767300D01*
X110490120Y-89767300D01*
X110490120Y-89743710D01*
X110466530Y-89743710D01*
X110466530Y-89696540D01*
X110442950Y-89696540D01*
X110442950Y-89672960D01*
X110419360Y-89672960D01*
X110419360Y-89625790D01*
X110395780Y-89625790D01*
X110395780Y-89602200D01*
X110372200Y-89602200D01*
X110372200Y-89578620D01*
X110348610Y-89578620D01*
X110348610Y-89531450D01*
X110325020Y-89531450D01*
X110325020Y-89507860D01*
X110301440Y-89507860D01*
X110301440Y-89460690D01*
X110277850Y-89460690D01*
X110277850Y-89437110D01*
X110254270Y-89437110D01*
X110254270Y-89389940D01*
X110230680Y-89389940D01*
X110230680Y-89366350D01*
X110207100Y-89366350D01*
X110207100Y-89319180D01*
X110183510Y-89319180D01*
X110183510Y-89295600D01*
X110159930Y-89295600D01*
X110159930Y-89248430D01*
X110136350Y-89248430D01*
X110136350Y-89224850D01*
X110112760Y-89224850D01*
X110112760Y-89177670D01*
X110089180Y-89177670D01*
X110089180Y-89154090D01*
X110065590Y-89154090D01*
X110065590Y-89106920D01*
X110042010Y-89106920D01*
X110042010Y-89083330D01*
X110018420Y-89083330D01*
X110018420Y-89036170D01*
X109994840Y-89036170D01*
X109994840Y-89012580D01*
X109971250Y-89012580D01*
X109971250Y-88965410D01*
X109947660Y-88965410D01*
X109947660Y-88941830D01*
X109924080Y-88941830D01*
X109924080Y-88894660D01*
X109900500Y-88894660D01*
X109900500Y-88871070D01*
X109876910Y-88871070D01*
X109876910Y-88823900D01*
X109853330Y-88823900D01*
X109853330Y-88800320D01*
X109829740Y-88800320D01*
X109829740Y-88776730D01*
X109806160Y-88776730D01*
X109806160Y-88729560D01*
X109782570Y-88729560D01*
X109782570Y-88705980D01*
X109758990Y-88705980D01*
X109758990Y-88682390D01*
X109735400Y-88682390D01*
X109735400Y-88658810D01*
X109711820Y-88658810D01*
X109711820Y-88635220D01*
X109688230Y-88635220D01*
X109688230Y-88611640D01*
X109664650Y-88611640D01*
X109664650Y-88588050D01*
X109641060Y-88588050D01*
X109641060Y-88564470D01*
X109593890Y-88564470D01*
X109593890Y-88540880D01*
X109570310Y-88540880D01*
X109570310Y-88517300D01*
X109546720Y-88517300D01*
X109546720Y-88493710D01*
X109499550Y-88493710D01*
X109499550Y-88470130D01*
X109428800Y-88470130D01*
X109428800Y-88446540D01*
X109358040Y-88446540D01*
X109358040Y-88399370D01*
X111999550Y-88399370D01*
X111999550Y-88446540D01*
G37*
G36*
X105112760Y-88446540D02*
G01*
X105018420Y-88446540D01*
X105018420Y-88470130D01*
X104924080Y-88470130D01*
X104924080Y-88493710D01*
X104853330Y-88493710D01*
X104853330Y-88517300D01*
X104806160Y-88517300D01*
X104806160Y-88540880D01*
X104758990Y-88540880D01*
X104758990Y-88564470D01*
X104711820Y-88564470D01*
X104711820Y-88588050D01*
X104688230Y-88588050D01*
X104688230Y-88611640D01*
X104664650Y-88611640D01*
X104664650Y-88658810D01*
X104641060Y-88658810D01*
X104641060Y-88823900D01*
X104617480Y-88823900D01*
X104617480Y-89507860D01*
X104617480Y-89531450D01*
X104617480Y-91795600D01*
X104641060Y-91795600D01*
X104641060Y-92031450D01*
X104664650Y-92031450D01*
X104664650Y-92125790D01*
X104688230Y-92125790D01*
X104688230Y-92220130D01*
X104711820Y-92220130D01*
X104711820Y-92267300D01*
X104735400Y-92267300D01*
X104735400Y-92314470D01*
X104758990Y-92314470D01*
X104758990Y-92361640D01*
X104782570Y-92361640D01*
X104782570Y-92408810D01*
X104806160Y-92408810D01*
X104806160Y-92455980D01*
X104829740Y-92455980D01*
X104829740Y-92479560D01*
X104853330Y-92479560D01*
X104853330Y-92526730D01*
X104876910Y-92526730D01*
X104876910Y-92550320D01*
X104900500Y-92550320D01*
X104900500Y-92573900D01*
X104924080Y-92573900D01*
X104924080Y-92597490D01*
X104947660Y-92597490D01*
X104947660Y-92621070D01*
X104971250Y-92621070D01*
X104971250Y-92644660D01*
X104994830Y-92644660D01*
X104994830Y-92668240D01*
X105018420Y-92668240D01*
X105018420Y-92691830D01*
X105065590Y-92691830D01*
X105065590Y-92715410D01*
X105089180Y-92715410D01*
X105089180Y-92739000D01*
X105136350Y-92739000D01*
X105136350Y-92762580D01*
X105183510Y-92762580D01*
X105183510Y-92786170D01*
X105230680Y-92786170D01*
X105230680Y-92809750D01*
X105277850Y-92809750D01*
X105277850Y-92833330D01*
X105348610Y-92833330D01*
X105348610Y-92856920D01*
X105419360Y-92856920D01*
X105419360Y-92880500D01*
X105560870Y-92880500D01*
X105560870Y-92904090D01*
X105914650Y-92904090D01*
X105914650Y-92880500D01*
X106056160Y-92880500D01*
X106056160Y-92856920D01*
X106150500Y-92856920D01*
X106150500Y-92833330D01*
X106221250Y-92833330D01*
X106221250Y-92809750D01*
X106268420Y-92809750D01*
X106268420Y-92786170D01*
X106315590Y-92786170D01*
X106315590Y-92762580D01*
X106362760Y-92762580D01*
X106362760Y-92739000D01*
X106409930Y-92739000D01*
X106409930Y-92715410D01*
X106433510Y-92715410D01*
X106433510Y-92691830D01*
X106457100Y-92691830D01*
X106457100Y-92668240D01*
X106504270Y-92668240D01*
X106504270Y-92644660D01*
X106527850Y-92644660D01*
X106527850Y-92621070D01*
X106551440Y-92621070D01*
X106551440Y-92597490D01*
X106575020Y-92597490D01*
X106575020Y-92573900D01*
X106598610Y-92573900D01*
X106598610Y-92550320D01*
X106622200Y-92550320D01*
X106622200Y-92503150D01*
X106645780Y-92503150D01*
X106645780Y-92479560D01*
X106669360Y-92479560D01*
X106669360Y-92432390D01*
X106692950Y-92432390D01*
X106692950Y-92408810D01*
X106716530Y-92408810D01*
X106716530Y-92361640D01*
X106740120Y-92361640D01*
X106740120Y-92314470D01*
X106763700Y-92314470D01*
X106763700Y-92267300D01*
X106787290Y-92267300D01*
X106787290Y-92196540D01*
X106810870Y-92196540D01*
X106810870Y-92102200D01*
X106834460Y-92102200D01*
X106834460Y-91984280D01*
X106858040Y-91984280D01*
X106858040Y-88658810D01*
X106834460Y-88658810D01*
X106834460Y-88611640D01*
X106810870Y-88611640D01*
X106810870Y-88588050D01*
X106787290Y-88588050D01*
X106787290Y-88564470D01*
X106740120Y-88564470D01*
X106740120Y-88540880D01*
X106692950Y-88540880D01*
X106692950Y-88517300D01*
X106622200Y-88517300D01*
X106622200Y-88493710D01*
X106551440Y-88493710D01*
X106551440Y-88470130D01*
X106480680Y-88470130D01*
X106480680Y-88446540D01*
X106386350Y-88446540D01*
X106386350Y-88422960D01*
X106362760Y-88422960D01*
X106362760Y-88399370D01*
X109098610Y-88399370D01*
X109098610Y-88446540D01*
X109027850Y-88446540D01*
X109027850Y-88470130D01*
X108980680Y-88470130D01*
X108980680Y-88493710D01*
X108933510Y-88493710D01*
X108933510Y-88517300D01*
X108886350Y-88517300D01*
X108886350Y-88540880D01*
X108862760Y-88540880D01*
X108862760Y-88564470D01*
X108839180Y-88564470D01*
X108839180Y-88588050D01*
X108815590Y-88588050D01*
X108815590Y-88635220D01*
X108792010Y-88635220D01*
X108792010Y-88705980D01*
X108768420Y-88705980D01*
X108768420Y-91960690D01*
X108744840Y-91960690D01*
X108744840Y-92172960D01*
X108721250Y-92172960D01*
X108721250Y-92314470D01*
X108697660Y-92314470D01*
X108697660Y-92408810D01*
X108674080Y-92408810D01*
X108674080Y-92503150D01*
X108650500Y-92503150D01*
X108650500Y-92597490D01*
X108626910Y-92597490D01*
X108626910Y-92668240D01*
X108603330Y-92668240D01*
X108603330Y-92715410D01*
X108579740Y-92715410D01*
X108579740Y-92786170D01*
X108556160Y-92786170D01*
X108556160Y-92833330D01*
X108532570Y-92833330D01*
X108532570Y-92904090D01*
X108508990Y-92904090D01*
X108508990Y-92951260D01*
X108485400Y-92951260D01*
X108485400Y-92974850D01*
X108461820Y-92974850D01*
X108461820Y-93022020D01*
X108438230Y-93022020D01*
X108438230Y-93069180D01*
X108414650Y-93069180D01*
X108414650Y-93116350D01*
X108391060Y-93116350D01*
X108391060Y-93139940D01*
X108367480Y-93139940D01*
X108367480Y-93187110D01*
X108343890Y-93187110D01*
X108343890Y-93210690D01*
X108320310Y-93210690D01*
X108320310Y-93234280D01*
X108296720Y-93234280D01*
X108296720Y-93281450D01*
X108273140Y-93281450D01*
X108273140Y-93305030D01*
X108249550Y-93305030D01*
X108249550Y-93328620D01*
X108225970Y-93328620D01*
X108225970Y-93352200D01*
X108202380Y-93352200D01*
X108202380Y-93375790D01*
X108178800Y-93375790D01*
X108178800Y-93422960D01*
X108155210Y-93422960D01*
X108155210Y-93446540D01*
X108131630Y-93446540D01*
X108131630Y-93470130D01*
X108108040Y-93470130D01*
X108108040Y-93493710D01*
X108084460Y-93493710D01*
X108084460Y-93517300D01*
X108037290Y-93517300D01*
X108037290Y-93540880D01*
X108013700Y-93540880D01*
X108013700Y-93564470D01*
X107990120Y-93564470D01*
X107990120Y-93588050D01*
X107966530Y-93588050D01*
X107966530Y-93611640D01*
X107942950Y-93611640D01*
X107942950Y-93635220D01*
X107895780Y-93635220D01*
X107895780Y-93658810D01*
X107872200Y-93658810D01*
X107872200Y-93682390D01*
X107848610Y-93682390D01*
X107848610Y-93705980D01*
X107801440Y-93705980D01*
X107801440Y-93729560D01*
X107777850Y-93729560D01*
X107777850Y-93753150D01*
X107730680Y-93753150D01*
X107730680Y-93776730D01*
X107707100Y-93776730D01*
X107707100Y-93800320D01*
X107659930Y-93800320D01*
X107659930Y-93823900D01*
X107612760Y-93823900D01*
X107612760Y-93847490D01*
X107565590Y-93847490D01*
X107565590Y-93871070D01*
X107518420Y-93871070D01*
X107518420Y-93894660D01*
X107471250Y-93894660D01*
X107471250Y-93918240D01*
X107424080Y-93918240D01*
X107424080Y-93941830D01*
X107353330Y-93941830D01*
X107353330Y-93965410D01*
X107306160Y-93965410D01*
X107306160Y-93989000D01*
X107235400Y-93989000D01*
X107235400Y-94012580D01*
X107164650Y-94012580D01*
X107164650Y-94036170D01*
X107093890Y-94036170D01*
X107093890Y-94059750D01*
X107023140Y-94059750D01*
X107023140Y-94083330D01*
X106928800Y-94083330D01*
X106928800Y-94106920D01*
X106834460Y-94106920D01*
X106834460Y-94130500D01*
X106716530Y-94130500D01*
X106716530Y-94154090D01*
X106575020Y-94154090D01*
X106575020Y-94177670D01*
X106409930Y-94177670D01*
X106409930Y-94201260D01*
X106150500Y-94201260D01*
X106150500Y-94224850D01*
X105325020Y-94224850D01*
X105325020Y-94201260D01*
X105089180Y-94201260D01*
X105089180Y-94177670D01*
X104924080Y-94177670D01*
X104924080Y-94154090D01*
X104782570Y-94154090D01*
X104782570Y-94130500D01*
X104664650Y-94130500D01*
X104664650Y-94106920D01*
X104570310Y-94106920D01*
X104570310Y-94083330D01*
X104475970Y-94083330D01*
X104475970Y-94059750D01*
X104405210Y-94059750D01*
X104405210Y-94036170D01*
X104334460Y-94036170D01*
X104334460Y-94012580D01*
X104263700Y-94012580D01*
X104263700Y-93989000D01*
X104192950Y-93989000D01*
X104192950Y-93965410D01*
X104122200Y-93965410D01*
X104122200Y-93941830D01*
X104075020Y-93941830D01*
X104075020Y-93918240D01*
X104027850Y-93918240D01*
X104027850Y-93894660D01*
X103980680Y-93894660D01*
X103980680Y-93871070D01*
X103933510Y-93871070D01*
X103933510Y-93847490D01*
X103886350Y-93847490D01*
X103886350Y-93823900D01*
X103839180Y-93823900D01*
X103839180Y-93800320D01*
X103792010Y-93800320D01*
X103792010Y-93776730D01*
X103768420Y-93776730D01*
X103768420Y-93753150D01*
X103721250Y-93753150D01*
X103721250Y-93729560D01*
X103674080Y-93729560D01*
X103674080Y-93705980D01*
X103650500Y-93705980D01*
X103650500Y-93682390D01*
X103626910Y-93682390D01*
X103626910Y-93658810D01*
X103579740Y-93658810D01*
X103579740Y-93635220D01*
X103556160Y-93635220D01*
X103556160Y-93611640D01*
X103532570Y-93611640D01*
X103532570Y-93588050D01*
X103508990Y-93588050D01*
X103508990Y-93564470D01*
X103461820Y-93564470D01*
X103461820Y-93540880D01*
X103438230Y-93540880D01*
X103438230Y-93517300D01*
X103414650Y-93517300D01*
X103414650Y-93493710D01*
X103391060Y-93493710D01*
X103391060Y-93470130D01*
X103367480Y-93470130D01*
X103367480Y-93446540D01*
X103343890Y-93446540D01*
X103343890Y-93422960D01*
X103320310Y-93422960D01*
X103320310Y-93399370D01*
X103296720Y-93399370D01*
X103296720Y-93375790D01*
X103273140Y-93375790D01*
X103273140Y-93352200D01*
X103249550Y-93352200D01*
X103249550Y-93305030D01*
X103225970Y-93305030D01*
X103225970Y-93281450D01*
X103202380Y-93281450D01*
X103202380Y-93257860D01*
X103178800Y-93257860D01*
X103178800Y-93210690D01*
X103155210Y-93210690D01*
X103155210Y-93187110D01*
X103131630Y-93187110D01*
X103131630Y-93163520D01*
X103108040Y-93163520D01*
X103108040Y-93116350D01*
X103084460Y-93116350D01*
X103084460Y-93069180D01*
X103060870Y-93069180D01*
X103060870Y-93045600D01*
X103037290Y-93045600D01*
X103037290Y-92998430D01*
X103013700Y-92998430D01*
X103013700Y-92951260D01*
X102990120Y-92951260D01*
X102990120Y-92904090D01*
X102966530Y-92904090D01*
X102966530Y-92856920D01*
X102942950Y-92856920D01*
X102942950Y-92809750D01*
X102919360Y-92809750D01*
X102919360Y-92739000D01*
X102895780Y-92739000D01*
X102895780Y-92668240D01*
X102872200Y-92668240D01*
X102872200Y-92597490D01*
X102848610Y-92597490D01*
X102848610Y-92526730D01*
X102825020Y-92526730D01*
X102825020Y-92432390D01*
X102801440Y-92432390D01*
X102801440Y-92338050D01*
X102777850Y-92338050D01*
X102777850Y-92220130D01*
X102754270Y-92220130D01*
X102754270Y-92031450D01*
X102730680Y-92031450D01*
X102730680Y-88705980D01*
X102707100Y-88705980D01*
X102707100Y-88635220D01*
X102683510Y-88635220D01*
X102683510Y-88611640D01*
X102659930Y-88611640D01*
X102659930Y-88588050D01*
X102636350Y-88588050D01*
X102636350Y-88564470D01*
X102589180Y-88564470D01*
X102589180Y-88540880D01*
X102542010Y-88540880D01*
X102542010Y-88517300D01*
X102494830Y-88517300D01*
X102494830Y-88493710D01*
X102424080Y-88493710D01*
X102424080Y-88470130D01*
X102329740Y-88470130D01*
X102329740Y-88446540D01*
X102235400Y-88446540D01*
X102235400Y-88399370D01*
X105112760Y-88399370D01*
X105112760Y-88446540D01*
G37*
G36*
X122777860Y-88422960D02*
G01*
X122754270Y-88422960D01*
X122754270Y-88446540D01*
X122659930Y-88446540D01*
X122659930Y-88470130D01*
X122589180Y-88470130D01*
X122589180Y-88493710D01*
X122518420Y-88493710D01*
X122518420Y-88517300D01*
X122447670Y-88517300D01*
X122447670Y-88540880D01*
X122400500Y-88540880D01*
X122400500Y-88564470D01*
X122353330Y-88564470D01*
X122353330Y-88588050D01*
X122329740Y-88588050D01*
X122329740Y-88611640D01*
X122306160Y-88611640D01*
X122306160Y-88658810D01*
X122282570Y-88658810D01*
X122282570Y-93847490D01*
X122306160Y-93847490D01*
X122306160Y-93894660D01*
X122329740Y-93894660D01*
X122329740Y-93941830D01*
X122376910Y-93941830D01*
X122376910Y-93965410D01*
X122424080Y-93965410D01*
X122424080Y-93989000D01*
X122471250Y-93989000D01*
X122471250Y-94012580D01*
X122518420Y-94012580D01*
X122518420Y-94036170D01*
X122612760Y-94036170D01*
X122612760Y-94059750D01*
X122683510Y-94059750D01*
X122683510Y-94083330D01*
X122777860Y-94083330D01*
X122777860Y-94106920D01*
X122754270Y-94106920D01*
X122754270Y-94130500D01*
X118650500Y-94130500D01*
X118650500Y-94106920D01*
X118343890Y-94106920D01*
X118343890Y-94083330D01*
X118155210Y-94083330D01*
X118155210Y-94059750D01*
X118037290Y-94059750D01*
X118037290Y-94036170D01*
X117919360Y-94036170D01*
X117919360Y-94012580D01*
X117825030Y-94012580D01*
X117825030Y-93989000D01*
X117730680Y-93989000D01*
X117730680Y-93965410D01*
X117659930Y-93965410D01*
X117659930Y-93941830D01*
X117589180Y-93941830D01*
X117589180Y-93918240D01*
X117542010Y-93918240D01*
X117542010Y-93894660D01*
X117471250Y-93894660D01*
X117471250Y-93871070D01*
X117424080Y-93871070D01*
X117424080Y-93847490D01*
X117376910Y-93847490D01*
X117376910Y-93823900D01*
X117329740Y-93823900D01*
X117329740Y-93800320D01*
X117282570Y-93800320D01*
X117282570Y-93776730D01*
X117258990Y-93776730D01*
X117258990Y-93753150D01*
X117211820Y-93753150D01*
X117211820Y-93729560D01*
X117188230Y-93729560D01*
X117188230Y-93705980D01*
X117141060Y-93705980D01*
X117141060Y-93682390D01*
X117117480Y-93682390D01*
X117117480Y-93658810D01*
X117093890Y-93658810D01*
X117093890Y-93635220D01*
X117046720Y-93635220D01*
X117046720Y-93611640D01*
X117023140Y-93611640D01*
X117023140Y-93588050D01*
X116999550Y-93588050D01*
X116999550Y-93564470D01*
X116975970Y-93564470D01*
X116975970Y-93540880D01*
X116952380Y-93540880D01*
X116952380Y-93517300D01*
X116928800Y-93517300D01*
X116928800Y-93493710D01*
X116905210Y-93493710D01*
X116905210Y-93470130D01*
X116881630Y-93470130D01*
X116881630Y-93422960D01*
X116858040Y-93422960D01*
X116858040Y-93399370D01*
X116834460Y-93399370D01*
X116834460Y-93375790D01*
X116810870Y-93375790D01*
X116810870Y-93328620D01*
X116787290Y-93328620D01*
X116787290Y-93305030D01*
X116763700Y-93305030D01*
X116763700Y-93257860D01*
X116740120Y-93257860D01*
X116740120Y-93210690D01*
X116716530Y-93210690D01*
X116716530Y-93163520D01*
X116692950Y-93163520D01*
X116692950Y-93116350D01*
X116669360Y-93116350D01*
X116669360Y-93045600D01*
X116645780Y-93045600D01*
X116645780Y-92974850D01*
X116622200Y-92974850D01*
X116622200Y-92880500D01*
X116598610Y-92880500D01*
X116598610Y-92762580D01*
X116575030Y-92762580D01*
X116575030Y-92526730D01*
X116551440Y-92526730D01*
X116551440Y-92503150D01*
X118579740Y-92503150D01*
X118603330Y-92503150D01*
X118603330Y-92573900D01*
X118626910Y-92573900D01*
X118626910Y-92621070D01*
X118650500Y-92621070D01*
X118650500Y-92668240D01*
X118674080Y-92668240D01*
X118674080Y-92691830D01*
X118697670Y-92691830D01*
X118697670Y-92715410D01*
X118721250Y-92715410D01*
X118721250Y-92762580D01*
X118744840Y-92762580D01*
X118744840Y-92786170D01*
X118792010Y-92786170D01*
X118792010Y-92809750D01*
X118815590Y-92809750D01*
X118815590Y-92833340D01*
X118839180Y-92833340D01*
X118839180Y-92856920D01*
X118886350Y-92856920D01*
X118886350Y-92880510D01*
X118933520Y-92880510D01*
X118933520Y-92904090D01*
X118980680Y-92904090D01*
X118980680Y-92927680D01*
X119051440Y-92927680D01*
X119051440Y-92951260D01*
X119145780Y-92951260D01*
X119145780Y-92974840D01*
X119263700Y-92974840D01*
X119263700Y-92998430D01*
X120442950Y-92998430D01*
X120442950Y-91606920D01*
X119570310Y-91606920D01*
X119570310Y-91630510D01*
X119192950Y-91630510D01*
X119192950Y-91654090D01*
X119051440Y-91654090D01*
X119051440Y-91677670D01*
X118980680Y-91677670D01*
X118980680Y-91701260D01*
X118909930Y-91701260D01*
X118909930Y-91724840D01*
X118862760Y-91724840D01*
X118862760Y-91748430D01*
X118839180Y-91748430D01*
X118839180Y-91772010D01*
X118792010Y-91772010D01*
X118792010Y-91795600D01*
X118768420Y-91795600D01*
X118768420Y-91819180D01*
X118744840Y-91819180D01*
X118744840Y-91842770D01*
X118721250Y-91842770D01*
X118721250Y-91866350D01*
X118697670Y-91866350D01*
X118697670Y-91889940D01*
X118674080Y-91889940D01*
X118674080Y-91937110D01*
X118650500Y-91937110D01*
X118650500Y-91984280D01*
X118626910Y-91984280D01*
X118626910Y-92031450D01*
X118603330Y-92031450D01*
X118603330Y-92102200D01*
X118579740Y-92102200D01*
X118579740Y-92503150D01*
X116551440Y-92503150D01*
X116551440Y-92385220D01*
X116575030Y-92385220D01*
X116575030Y-92125790D01*
X116598610Y-92125790D01*
X116598610Y-92102200D01*
X116598610Y-92007860D01*
X116622200Y-92007860D01*
X116622200Y-91937110D01*
X116645780Y-91937110D01*
X116645780Y-91866350D01*
X116669360Y-91866350D01*
X116669360Y-91795600D01*
X116692950Y-91795600D01*
X116692950Y-91748430D01*
X116716530Y-91748430D01*
X116716530Y-91701260D01*
X116740120Y-91701260D01*
X116740120Y-91654090D01*
X116763700Y-91654090D01*
X116763700Y-91606920D01*
X116787290Y-91606920D01*
X116787290Y-91583330D01*
X116810870Y-91583330D01*
X116810870Y-91536170D01*
X116834460Y-91536170D01*
X116834460Y-91512580D01*
X116858040Y-91512580D01*
X116858040Y-91489000D01*
X116881630Y-91489000D01*
X116881630Y-91465410D01*
X116905210Y-91465410D01*
X116905210Y-91441830D01*
X116928800Y-91441830D01*
X116928800Y-91418240D01*
X116952380Y-91418240D01*
X116952380Y-91394660D01*
X116975970Y-91394660D01*
X116975970Y-91371070D01*
X116999550Y-91371070D01*
X116999550Y-91347490D01*
X117023140Y-91347490D01*
X117023140Y-91323900D01*
X117070310Y-91323900D01*
X117070310Y-91300320D01*
X117093890Y-91300320D01*
X117093890Y-91276730D01*
X117117480Y-91276730D01*
X117117480Y-91253150D01*
X117164650Y-91253150D01*
X117164650Y-91229560D01*
X117211820Y-91229560D01*
X117211820Y-91205980D01*
X117258990Y-91205980D01*
X117258990Y-91182390D01*
X117306160Y-91182390D01*
X117306160Y-91158810D01*
X117353330Y-91158810D01*
X117353330Y-91135220D01*
X117424080Y-91135220D01*
X117424080Y-91111640D01*
X117494840Y-91111640D01*
X117494840Y-91088050D01*
X117565590Y-91088050D01*
X117565590Y-91040880D01*
X117494840Y-91040880D01*
X117494840Y-91017300D01*
X117447670Y-91017300D01*
X117447670Y-90993710D01*
X117400500Y-90993710D01*
X117400500Y-90970130D01*
X117353330Y-90970130D01*
X117353330Y-90946540D01*
X117306160Y-90946540D01*
X117306160Y-90922960D01*
X117258990Y-90922960D01*
X117258990Y-90899370D01*
X117235400Y-90899370D01*
X117235400Y-90875790D01*
X117211820Y-90875790D01*
X117211820Y-90852200D01*
X117164650Y-90852200D01*
X117164650Y-90828620D01*
X117141060Y-90828620D01*
X117141060Y-90805030D01*
X117117480Y-90805030D01*
X117117480Y-90781450D01*
X117093890Y-90781450D01*
X117093890Y-90757860D01*
X117070310Y-90757860D01*
X117070310Y-90734280D01*
X117046720Y-90734280D01*
X117046720Y-90710690D01*
X117023140Y-90710690D01*
X117023140Y-90687110D01*
X116999550Y-90687110D01*
X116999550Y-90639940D01*
X116975970Y-90639940D01*
X116975970Y-90616350D01*
X116952380Y-90616350D01*
X116952380Y-90569180D01*
X116928800Y-90569180D01*
X116928800Y-90545600D01*
X116905210Y-90545600D01*
X116905210Y-90498430D01*
X116881630Y-90498430D01*
X116881630Y-90427670D01*
X116858040Y-90427670D01*
X116858040Y-90380500D01*
X116834460Y-90380500D01*
X116834460Y-90309750D01*
X116810870Y-90309750D01*
X116810870Y-90215410D01*
X118674080Y-90215410D01*
X118697670Y-90215410D01*
X118697670Y-90309750D01*
X118721250Y-90309750D01*
X118721250Y-90356920D01*
X118744840Y-90356920D01*
X118744840Y-90404090D01*
X118768420Y-90404090D01*
X118768420Y-90451260D01*
X118792010Y-90451260D01*
X118792010Y-90474840D01*
X118815590Y-90474840D01*
X118815590Y-90498430D01*
X118839180Y-90498430D01*
X118839180Y-90522010D01*
X118862760Y-90522010D01*
X118862760Y-90545600D01*
X118886350Y-90545600D01*
X118886350Y-90569180D01*
X118933520Y-90569180D01*
X118933520Y-90592770D01*
X118957100Y-90592770D01*
X118957100Y-90616350D01*
X119004270Y-90616350D01*
X119004270Y-90639940D01*
X119075020Y-90639940D01*
X119075020Y-90663520D01*
X119145780Y-90663520D01*
X119145780Y-90687110D01*
X119240120Y-90687110D01*
X119240120Y-90710690D01*
X119475970Y-90710690D01*
X119475970Y-90734280D01*
X120442950Y-90734280D01*
X120442950Y-90710690D01*
X120442950Y-89484280D01*
X119334460Y-89484280D01*
X119334460Y-89507860D01*
X119145780Y-89507860D01*
X119145780Y-89531450D01*
X119027850Y-89531450D01*
X119027850Y-89555030D01*
X118980680Y-89555030D01*
X118980680Y-89578620D01*
X118933520Y-89578620D01*
X118933520Y-89602200D01*
X118886350Y-89602200D01*
X118886350Y-89625790D01*
X118839180Y-89625790D01*
X118839180Y-89649370D01*
X118815590Y-89649370D01*
X118815590Y-89672960D01*
X118792010Y-89672960D01*
X118792010Y-89696540D01*
X118768420Y-89696540D01*
X118768420Y-89743710D01*
X118744840Y-89743710D01*
X118744840Y-89790880D01*
X118721250Y-89790880D01*
X118721250Y-89838050D01*
X118697670Y-89838050D01*
X118697670Y-89932390D01*
X118674080Y-89932390D01*
X118674080Y-90215410D01*
X116810870Y-90215410D01*
X116787290Y-90215410D01*
X116787290Y-90097490D01*
X116763700Y-90097490D01*
X116763700Y-89932390D01*
X116763700Y-89555030D01*
X116787290Y-89555030D01*
X116787290Y-89413520D01*
X116810870Y-89413520D01*
X116810870Y-89342770D01*
X116834460Y-89342770D01*
X116834460Y-89272020D01*
X116858040Y-89272020D01*
X116858040Y-89201260D01*
X116881630Y-89201260D01*
X116881630Y-89154090D01*
X116905210Y-89154090D01*
X116905210Y-89106920D01*
X116928800Y-89106920D01*
X116928800Y-89059750D01*
X116952380Y-89059750D01*
X116952380Y-89036170D01*
X116975970Y-89036170D01*
X116975970Y-88989000D01*
X116999550Y-88989000D01*
X116999550Y-88965410D01*
X117023140Y-88965410D01*
X117023140Y-88941830D01*
X117046720Y-88941830D01*
X117046720Y-88918240D01*
X117070310Y-88918240D01*
X117070310Y-88894660D01*
X117093890Y-88894660D01*
X117093890Y-88871070D01*
X117117480Y-88871070D01*
X117117480Y-88847480D01*
X117141060Y-88847480D01*
X117141060Y-88823900D01*
X117164650Y-88823900D01*
X117164650Y-88800320D01*
X117188230Y-88800320D01*
X117188230Y-88776730D01*
X117235400Y-88776730D01*
X117235400Y-88753150D01*
X117258990Y-88753150D01*
X117258990Y-88729560D01*
X117306160Y-88729560D01*
X117306160Y-88705980D01*
X117353330Y-88705980D01*
X117353330Y-88682390D01*
X117376910Y-88682390D01*
X117376910Y-88658810D01*
X117447670Y-88658810D01*
X117447670Y-88635220D01*
X117494840Y-88635220D01*
X117494840Y-88611640D01*
X117542010Y-88611640D01*
X117542010Y-88588050D01*
X117612760Y-88588050D01*
X117612760Y-88564470D01*
X117683510Y-88564470D01*
X117683510Y-88540880D01*
X117777850Y-88540880D01*
X117777850Y-88517300D01*
X117872200Y-88517300D01*
X117872200Y-88493710D01*
X117990120Y-88493710D01*
X117990120Y-88470130D01*
X118108040Y-88470130D01*
X118108040Y-88446540D01*
X118296720Y-88446540D01*
X118296720Y-88422960D01*
X118603330Y-88422960D01*
X118603330Y-88399370D01*
X122777860Y-88399370D01*
X122777860Y-88422960D01*
G37*
M02*
