M48
; DRILL file {KiCad 9.0.6} date 2025-11-20T16:03:36-0700
; FORMAT={-:-/ absolute / metric / decimal}
; #@! TF.CreationDate,2025-11-20T16:03:36-07:00
; #@! TF.GenerationSoftware,Kicad,Pcbnew,9.0.6
; #@! TF.FileFunction,Plated,1,2,PTH
FMAT,2
METRIC
; #@! TA.AperFunction,Plated,PTH,ViaDrill
T1C0.711
; #@! TA.AperFunction,Plated,PTH,ComponentDrill
T2C0.800
; #@! TA.AperFunction,Plated,PTH,ComponentDrill
T3C0.850
; #@! TA.AperFunction,Plated,PTH,ComponentDrill
T4C1.000
; #@! TA.AperFunction,Plated,PTH,ComponentDrill
T5C1.020
%
G90
G05
T1
X125.039Y-120.486
X133.54Y-106.472
X137.539Y-122.986
X139.382Y-89.916
X139.865Y-84.684
X141.11Y-90.729
X143.421Y-90.653
X145.072Y-84.557
T2
X172.689Y-117.486
X172.689Y-122.486
X185.389Y-117.486
X185.389Y-122.486
T3
X116.595Y-80.986
X119.135Y-80.986
X121.675Y-80.986
X124.215Y-80.986
X125.739Y-129.246
X126.755Y-80.986
X128.279Y-129.246
X129.295Y-80.986
X130.819Y-129.246
X131.835Y-80.986
X133.359Y-129.246
X134.375Y-80.986
X135.899Y-129.246
X136.915Y-80.986
X138.439Y-129.246
X139.455Y-80.986
X140.979Y-129.246
X143.519Y-80.986
X143.519Y-129.246
X146.059Y-80.986
X148.599Y-80.986
X148.599Y-129.246
X151.139Y-80.986
X151.139Y-129.246
X153.679Y-80.986
X153.679Y-129.246
X156.219Y-80.986
X156.219Y-129.246
X158.759Y-80.986
X158.759Y-129.246
X161.299Y-80.986
X161.299Y-129.246
X163.839Y-129.246
X166.379Y-80.986
X166.379Y-129.246
X168.919Y-80.986
X171.459Y-80.986
X171.459Y-129.246
X173.999Y-80.986
X173.999Y-129.246
X176.539Y-80.986
X176.539Y-129.246
X179.079Y-80.986
X179.079Y-129.246
X181.619Y-80.986
X181.619Y-129.246
X184.159Y-80.986
X184.159Y-129.246
X186.699Y-129.246
X189.239Y-129.246
X191.779Y-80.986
X191.779Y-83.526
X191.779Y-86.066
X191.779Y-88.606
X191.779Y-91.146
X191.779Y-93.686
X191.779Y-96.226
X191.779Y-98.766
X191.779Y-101.306
X191.779Y-103.846
X191.779Y-106.386
X191.779Y-108.926
X191.779Y-111.466
X191.779Y-114.006
X191.779Y-116.546
X191.779Y-119.086
X191.779Y-121.626
X191.779Y-124.166
X194.319Y-80.986
X194.319Y-83.526
X194.319Y-86.066
X194.319Y-88.606
X194.319Y-91.146
X194.319Y-93.686
X194.319Y-96.226
X194.319Y-98.766
X194.319Y-101.306
X194.319Y-103.846
X194.319Y-106.386
X194.319Y-108.926
X194.319Y-111.466
X194.319Y-114.006
X194.319Y-116.546
X194.319Y-119.086
X194.319Y-121.626
X194.319Y-124.166
T4
X142.612Y-97.401
X145.112Y-97.401
X147.612Y-97.401
X150.112Y-97.401
X152.612Y-97.401
X171.505Y-87.284
X171.505Y-89.784
X171.505Y-92.284
X171.505Y-94.784
X184.95Y-89.59
X184.95Y-92.09
X184.95Y-94.59
X184.95Y-97.09
X184.95Y-99.59
X184.95Y-102.09
T5
X129.959Y-91.923
X129.959Y-94.463
X129.959Y-97.003
X129.959Y-99.543
X129.959Y-102.083
M30
