%TF.GenerationSoftware,KiCad,Pcbnew,9.0.6*%
%TF.CreationDate,2025-11-20T16:03:33-07:00*%
%TF.ProjectId,GEO,47454f2e-6b69-4636-9164-5f7063625858,rev?*%
%TF.SameCoordinates,Original*%
%TF.FileFunction,Soldermask,Top*%
%TF.FilePolarity,Negative*%
%FSLAX46Y46*%
G04 Gerber Fmt 4.6, Leading zero omitted, Abs format (unit mm)*
G04 Created by KiCad (PCBNEW 9.0.6) date 2025-11-20 16:03:33*
%MOMM*%
%LPD*%
G01*
G04 APERTURE LIST*
%ADD10R,1.508000X1.508000*%
%ADD11C,1.508000*%
%ADD12R,1.398000X1.398000*%
%ADD13C,1.398000*%
%ADD14C,3.200000*%
%ADD15C,1.358000*%
%ADD16R,1.358000X1.358000*%
%ADD17R,0.610000X2.000000*%
%ADD18R,2.680000X3.600000*%
%ADD19O,4.000000X3.000000*%
%ADD20R,1.981200X0.558800*%
%ADD21R,0.600000X1.700000*%
%ADD22R,1.000000X2.700000*%
%ADD23C,2.100000*%
%ADD24C,1.600000*%
G04 APERTURE END LIST*
D10*
%TO.C,SD1*%
X184950100Y-102089610D03*
D11*
X184950100Y-99589640D03*
X184950100Y-97089620D03*
X184950100Y-94589600D03*
X184950100Y-92089630D03*
X184950100Y-89589610D03*
%TD*%
D10*
%TO.C,CO1*%
X152612090Y-97400620D03*
D11*
X150112120Y-97400620D03*
X147612100Y-97400620D03*
X145112080Y-97400620D03*
X142612110Y-97400620D03*
%TD*%
D12*
%TO.C,Clk1*%
X129959100Y-102082600D03*
D13*
X129959100Y-99542600D03*
X129959100Y-97002600D03*
X129959100Y-94462600D03*
X129959100Y-91922600D03*
%TD*%
D14*
%TO.C,A1*%
X111769100Y-129245600D03*
X194319100Y-129245600D03*
X113039100Y-80985600D03*
X187969100Y-80985600D03*
D15*
X161299100Y-80985600D03*
X158759100Y-80985600D03*
X156219100Y-80985600D03*
X153679100Y-80985600D03*
X133359100Y-129245600D03*
X151139100Y-80985600D03*
X148599100Y-80985600D03*
X135899100Y-129245600D03*
X191779100Y-80985600D03*
X194319100Y-80985600D03*
X146059100Y-80985600D03*
X143519100Y-80985600D03*
X139455100Y-80985600D03*
X136915100Y-80985600D03*
X134375100Y-80985600D03*
X131835100Y-80985600D03*
X129295100Y-80985600D03*
X126755100Y-80985600D03*
X166379100Y-80985600D03*
X168919100Y-80985600D03*
X171459100Y-80985600D03*
X173999100Y-80985600D03*
X176539100Y-80985600D03*
X179079100Y-80985600D03*
X181619100Y-80985600D03*
X184159100Y-80985600D03*
X191779100Y-83525600D03*
X194319100Y-83525600D03*
X191779100Y-86065600D03*
X194319100Y-86065600D03*
X191779100Y-88605600D03*
X194319100Y-88605600D03*
X191779100Y-91145600D03*
X194319100Y-91145600D03*
X191779100Y-93685600D03*
X194319100Y-93685600D03*
X191779100Y-96225600D03*
X194319100Y-96225600D03*
X191779100Y-98765600D03*
X194319100Y-98765600D03*
X191779100Y-101305600D03*
X194319100Y-101305600D03*
X191779100Y-103845600D03*
X194319100Y-103845600D03*
X191779100Y-106385600D03*
X194319100Y-106385600D03*
X191779100Y-108925600D03*
X194319100Y-108925600D03*
X191779100Y-111465600D03*
X194319100Y-111465600D03*
X191779100Y-114005600D03*
X194319100Y-114005600D03*
X191779100Y-116545600D03*
X194319100Y-116545600D03*
X191779100Y-119085600D03*
X194319100Y-119085600D03*
X191779100Y-121625600D03*
X194319100Y-121625600D03*
X148599100Y-129245600D03*
X151139100Y-129245600D03*
X153679100Y-129245600D03*
X156219100Y-129245600D03*
X158759100Y-129245600D03*
X161299100Y-129245600D03*
X163839100Y-129245600D03*
X166379100Y-129245600D03*
X171459100Y-129245600D03*
X173999100Y-129245600D03*
X176539100Y-129245600D03*
X179079100Y-129245600D03*
X181619100Y-129245600D03*
X184159100Y-129245600D03*
X186699100Y-129245600D03*
X189239100Y-129245600D03*
X121675100Y-80985600D03*
X138439100Y-129245600D03*
X140979100Y-129245600D03*
X124215100Y-80985600D03*
X191779100Y-124165600D03*
X194319100Y-124165600D03*
X128279100Y-129245600D03*
D16*
X125739100Y-129245600D03*
D15*
X130819100Y-129245600D03*
X116595100Y-80985600D03*
X119135100Y-80985600D03*
X143519100Y-129245600D03*
%TD*%
D17*
%TO.C,LCD1*%
X134849100Y-116157600D03*
X135849100Y-116157600D03*
X136849100Y-116157600D03*
X137849100Y-116157600D03*
X138849100Y-116157600D03*
X139849100Y-116157600D03*
X140849100Y-116157600D03*
X141849100Y-116157600D03*
X142849100Y-116157600D03*
D18*
X131859100Y-118957600D03*
X145839100Y-118957600D03*
%TD*%
D19*
%TO.C,*%
X116624100Y-113512600D03*
%TD*%
%TO.C,*%
X116751100Y-120624600D03*
%TD*%
D20*
%TO.C,U1*%
X157111500Y-120445600D03*
X157111500Y-121715600D03*
X157111500Y-122985600D03*
X157111500Y-124255600D03*
X162039100Y-124255600D03*
X162039100Y-122985600D03*
X162039100Y-121715600D03*
X162039100Y-120445600D03*
%TD*%
D10*
%TO.C,TEMP1*%
X171505120Y-87283590D03*
D11*
X171505120Y-89783560D03*
X171505120Y-92283580D03*
X171505120Y-94783600D03*
%TD*%
D21*
%TO.C,PM1*%
X166221110Y-114528600D03*
X164971070Y-114528600D03*
X163721090Y-114528600D03*
X162471100Y-114528600D03*
X161221060Y-114528600D03*
X159971080Y-114528600D03*
X158721100Y-114528600D03*
X157471110Y-114528600D03*
D22*
X168071090Y-111328610D03*
X155621080Y-111328610D03*
%TD*%
D23*
%TO.C,H2*%
X103039100Y-120985600D03*
%TD*%
D24*
%TO.C,R2*%
X172689100Y-117485600D03*
X185389100Y-117485600D03*
%TD*%
%TO.C,R1*%
X185389100Y-122485600D03*
X172689100Y-122485600D03*
%TD*%
D23*
%TO.C,H1*%
X103039100Y-113985600D03*
%TD*%
M02*
