%TF.GenerationSoftware,KiCad,Pcbnew,9.0.6*%
%TF.CreationDate,2025-11-20T16:03:32-07:00*%
%TF.ProjectId,GEO,47454f2e-6b69-4636-9164-5f7063625858,rev?*%
%TF.SameCoordinates,Original*%
%TF.FileFunction,Legend,Top*%
%TF.FilePolarity,Positive*%
%FSLAX46Y46*%
G04 Gerber Fmt 4.6, Leading zero omitted, Abs format (unit mm)*
G04 Created by KiCad (PCBNEW 9.0.6) date 2025-11-20 16:03:32*
%MOMM*%
%LPD*%
G01*
G04 APERTURE LIST*
%ADD10C,0.254000*%
%ADD11C,0.150000*%
%ADD12C,0.127000*%
%ADD13C,0.200000*%
%ADD14C,0.120000*%
%ADD15C,0.152400*%
%ADD16C,0.300000*%
G04 APERTURE END LIST*
D10*
X118170062Y-123750287D02*
X118387776Y-123822859D01*
X118387776Y-123822859D02*
X118460347Y-123895430D01*
X118460347Y-123895430D02*
X118532919Y-124040573D01*
X118532919Y-124040573D02*
X118532919Y-124258287D01*
X118532919Y-124258287D02*
X118460347Y-124403430D01*
X118460347Y-124403430D02*
X118387776Y-124476002D01*
X118387776Y-124476002D02*
X118242633Y-124548573D01*
X118242633Y-124548573D02*
X117662062Y-124548573D01*
X117662062Y-124548573D02*
X117662062Y-123024573D01*
X117662062Y-123024573D02*
X118170062Y-123024573D01*
X118170062Y-123024573D02*
X118315205Y-123097144D01*
X118315205Y-123097144D02*
X118387776Y-123169716D01*
X118387776Y-123169716D02*
X118460347Y-123314859D01*
X118460347Y-123314859D02*
X118460347Y-123460002D01*
X118460347Y-123460002D02*
X118387776Y-123605144D01*
X118387776Y-123605144D02*
X118315205Y-123677716D01*
X118315205Y-123677716D02*
X118170062Y-123750287D01*
X118170062Y-123750287D02*
X117662062Y-123750287D01*
X119113490Y-124113144D02*
X119839205Y-124113144D01*
X118968347Y-124548573D02*
X119476347Y-123024573D01*
X119476347Y-123024573D02*
X119984347Y-124548573D01*
X120274633Y-123024573D02*
X121145491Y-123024573D01*
X120710062Y-124548573D02*
X120710062Y-123024573D01*
X121290634Y-124693716D02*
X122451776Y-124693716D01*
X122814634Y-124548573D02*
X122814634Y-123024573D01*
X123540348Y-124548573D02*
X123540348Y-123024573D01*
X123540348Y-123024573D02*
X124411205Y-124548573D01*
X124411205Y-124548573D02*
X124411205Y-123024573D01*
X115920347Y-109000144D02*
X115775205Y-108927573D01*
X115775205Y-108927573D02*
X115557490Y-108927573D01*
X115557490Y-108927573D02*
X115339776Y-109000144D01*
X115339776Y-109000144D02*
X115194633Y-109145287D01*
X115194633Y-109145287D02*
X115122062Y-109290430D01*
X115122062Y-109290430D02*
X115049490Y-109580716D01*
X115049490Y-109580716D02*
X115049490Y-109798430D01*
X115049490Y-109798430D02*
X115122062Y-110088716D01*
X115122062Y-110088716D02*
X115194633Y-110233859D01*
X115194633Y-110233859D02*
X115339776Y-110379002D01*
X115339776Y-110379002D02*
X115557490Y-110451573D01*
X115557490Y-110451573D02*
X115702633Y-110451573D01*
X115702633Y-110451573D02*
X115920347Y-110379002D01*
X115920347Y-110379002D02*
X115992919Y-110306430D01*
X115992919Y-110306430D02*
X115992919Y-109798430D01*
X115992919Y-109798430D02*
X115702633Y-109798430D01*
X116646062Y-110451573D02*
X116646062Y-108927573D01*
X116646062Y-108927573D02*
X117516919Y-110451573D01*
X117516919Y-110451573D02*
X117516919Y-108927573D01*
X118242633Y-110451573D02*
X118242633Y-108927573D01*
X118242633Y-108927573D02*
X118605490Y-108927573D01*
X118605490Y-108927573D02*
X118823204Y-109000144D01*
X118823204Y-109000144D02*
X118968347Y-109145287D01*
X118968347Y-109145287D02*
X119040918Y-109290430D01*
X119040918Y-109290430D02*
X119113490Y-109580716D01*
X119113490Y-109580716D02*
X119113490Y-109798430D01*
X119113490Y-109798430D02*
X119040918Y-110088716D01*
X119040918Y-110088716D02*
X118968347Y-110233859D01*
X118968347Y-110233859D02*
X118823204Y-110379002D01*
X118823204Y-110379002D02*
X118605490Y-110451573D01*
X118605490Y-110451573D02*
X118242633Y-110451573D01*
X182188346Y-86017354D02*
X182406061Y-86089925D01*
X182406061Y-86089925D02*
X182768918Y-86089925D01*
X182768918Y-86089925D02*
X182914061Y-86017354D01*
X182914061Y-86017354D02*
X182986632Y-85944782D01*
X182986632Y-85944782D02*
X183059203Y-85799639D01*
X183059203Y-85799639D02*
X183059203Y-85654496D01*
X183059203Y-85654496D02*
X182986632Y-85509354D01*
X182986632Y-85509354D02*
X182914061Y-85436782D01*
X182914061Y-85436782D02*
X182768918Y-85364211D01*
X182768918Y-85364211D02*
X182478632Y-85291639D01*
X182478632Y-85291639D02*
X182333489Y-85219068D01*
X182333489Y-85219068D02*
X182260918Y-85146496D01*
X182260918Y-85146496D02*
X182188346Y-85001354D01*
X182188346Y-85001354D02*
X182188346Y-84856211D01*
X182188346Y-84856211D02*
X182260918Y-84711068D01*
X182260918Y-84711068D02*
X182333489Y-84638496D01*
X182333489Y-84638496D02*
X182478632Y-84565925D01*
X182478632Y-84565925D02*
X182841489Y-84565925D01*
X182841489Y-84565925D02*
X183059203Y-84638496D01*
X183712347Y-86089925D02*
X183712347Y-84565925D01*
X183712347Y-84565925D02*
X184075204Y-84565925D01*
X184075204Y-84565925D02*
X184292918Y-84638496D01*
X184292918Y-84638496D02*
X184438061Y-84783639D01*
X184438061Y-84783639D02*
X184510632Y-84928782D01*
X184510632Y-84928782D02*
X184583204Y-85219068D01*
X184583204Y-85219068D02*
X184583204Y-85436782D01*
X184583204Y-85436782D02*
X184510632Y-85727068D01*
X184510632Y-85727068D02*
X184438061Y-85872211D01*
X184438061Y-85872211D02*
X184292918Y-86017354D01*
X184292918Y-86017354D02*
X184075204Y-86089925D01*
X184075204Y-86089925D02*
X183712347Y-86089925D01*
X186034632Y-86089925D02*
X185163775Y-86089925D01*
X185599204Y-86089925D02*
X185599204Y-84565925D01*
X185599204Y-84565925D02*
X185454061Y-84783639D01*
X185454061Y-84783639D02*
X185308918Y-84928782D01*
X185308918Y-84928782D02*
X185163775Y-85001354D01*
X150115814Y-92650132D02*
X150043242Y-92722704D01*
X150043242Y-92722704D02*
X149825528Y-92795275D01*
X149825528Y-92795275D02*
X149680385Y-92795275D01*
X149680385Y-92795275D02*
X149462671Y-92722704D01*
X149462671Y-92722704D02*
X149317528Y-92577561D01*
X149317528Y-92577561D02*
X149244957Y-92432418D01*
X149244957Y-92432418D02*
X149172385Y-92142132D01*
X149172385Y-92142132D02*
X149172385Y-91924418D01*
X149172385Y-91924418D02*
X149244957Y-91634132D01*
X149244957Y-91634132D02*
X149317528Y-91488989D01*
X149317528Y-91488989D02*
X149462671Y-91343846D01*
X149462671Y-91343846D02*
X149680385Y-91271275D01*
X149680385Y-91271275D02*
X149825528Y-91271275D01*
X149825528Y-91271275D02*
X150043242Y-91343846D01*
X150043242Y-91343846D02*
X150115814Y-91416418D01*
X151059242Y-91271275D02*
X151349528Y-91271275D01*
X151349528Y-91271275D02*
X151494671Y-91343846D01*
X151494671Y-91343846D02*
X151639814Y-91488989D01*
X151639814Y-91488989D02*
X151712385Y-91779275D01*
X151712385Y-91779275D02*
X151712385Y-92287275D01*
X151712385Y-92287275D02*
X151639814Y-92577561D01*
X151639814Y-92577561D02*
X151494671Y-92722704D01*
X151494671Y-92722704D02*
X151349528Y-92795275D01*
X151349528Y-92795275D02*
X151059242Y-92795275D01*
X151059242Y-92795275D02*
X150914100Y-92722704D01*
X150914100Y-92722704D02*
X150768957Y-92577561D01*
X150768957Y-92577561D02*
X150696385Y-92287275D01*
X150696385Y-92287275D02*
X150696385Y-91779275D01*
X150696385Y-91779275D02*
X150768957Y-91488989D01*
X150768957Y-91488989D02*
X150914100Y-91343846D01*
X150914100Y-91343846D02*
X151059242Y-91271275D01*
X153163813Y-92795275D02*
X152292956Y-92795275D01*
X152728385Y-92795275D02*
X152728385Y-91271275D01*
X152728385Y-91271275D02*
X152583242Y-91488989D01*
X152583242Y-91488989D02*
X152438099Y-91634132D01*
X152438099Y-91634132D02*
X152292956Y-91706704D01*
X133505780Y-101546885D02*
X133578352Y-101619457D01*
X133578352Y-101619457D02*
X133650923Y-101837171D01*
X133650923Y-101837171D02*
X133650923Y-101982314D01*
X133650923Y-101982314D02*
X133578352Y-102200028D01*
X133578352Y-102200028D02*
X133433209Y-102345171D01*
X133433209Y-102345171D02*
X133288066Y-102417742D01*
X133288066Y-102417742D02*
X132997780Y-102490314D01*
X132997780Y-102490314D02*
X132780066Y-102490314D01*
X132780066Y-102490314D02*
X132489780Y-102417742D01*
X132489780Y-102417742D02*
X132344637Y-102345171D01*
X132344637Y-102345171D02*
X132199494Y-102200028D01*
X132199494Y-102200028D02*
X132126923Y-101982314D01*
X132126923Y-101982314D02*
X132126923Y-101837171D01*
X132126923Y-101837171D02*
X132199494Y-101619457D01*
X132199494Y-101619457D02*
X132272066Y-101546885D01*
X133650923Y-100676028D02*
X133578352Y-100821171D01*
X133578352Y-100821171D02*
X133433209Y-100893742D01*
X133433209Y-100893742D02*
X132126923Y-100893742D01*
X133650923Y-100095456D02*
X132126923Y-100095456D01*
X133070352Y-99950314D02*
X133650923Y-99514885D01*
X132634923Y-99514885D02*
X133215494Y-100095456D01*
X91858718Y-76952696D02*
X92584433Y-76952696D01*
X91713575Y-77388125D02*
X92221575Y-75864125D01*
X92221575Y-75864125D02*
X92729575Y-77388125D01*
X94035861Y-77388125D02*
X93165004Y-77388125D01*
X93600433Y-77388125D02*
X93600433Y-75864125D01*
X93600433Y-75864125D02*
X93455290Y-76081839D01*
X93455290Y-76081839D02*
X93310147Y-76226982D01*
X93310147Y-76226982D02*
X93165004Y-76299554D01*
X128261100Y-115677423D02*
X127535386Y-115677423D01*
X127535386Y-115677423D02*
X127535386Y-114153423D01*
X129639957Y-115532280D02*
X129567385Y-115604852D01*
X129567385Y-115604852D02*
X129349671Y-115677423D01*
X129349671Y-115677423D02*
X129204528Y-115677423D01*
X129204528Y-115677423D02*
X128986814Y-115604852D01*
X128986814Y-115604852D02*
X128841671Y-115459709D01*
X128841671Y-115459709D02*
X128769100Y-115314566D01*
X128769100Y-115314566D02*
X128696528Y-115024280D01*
X128696528Y-115024280D02*
X128696528Y-114806566D01*
X128696528Y-114806566D02*
X128769100Y-114516280D01*
X128769100Y-114516280D02*
X128841671Y-114371137D01*
X128841671Y-114371137D02*
X128986814Y-114225994D01*
X128986814Y-114225994D02*
X129204528Y-114153423D01*
X129204528Y-114153423D02*
X129349671Y-114153423D01*
X129349671Y-114153423D02*
X129567385Y-114225994D01*
X129567385Y-114225994D02*
X129639957Y-114298566D01*
X130293100Y-115677423D02*
X130293100Y-114153423D01*
X130293100Y-114153423D02*
X130655957Y-114153423D01*
X130655957Y-114153423D02*
X130873671Y-114225994D01*
X130873671Y-114225994D02*
X131018814Y-114371137D01*
X131018814Y-114371137D02*
X131091385Y-114516280D01*
X131091385Y-114516280D02*
X131163957Y-114806566D01*
X131163957Y-114806566D02*
X131163957Y-115024280D01*
X131163957Y-115024280D02*
X131091385Y-115314566D01*
X131091385Y-115314566D02*
X131018814Y-115459709D01*
X131018814Y-115459709D02*
X130873671Y-115604852D01*
X130873671Y-115604852D02*
X130655957Y-115677423D01*
X130655957Y-115677423D02*
X130293100Y-115677423D01*
X132615385Y-115677423D02*
X131744528Y-115677423D01*
X132179957Y-115677423D02*
X132179957Y-114153423D01*
X132179957Y-114153423D02*
X132034814Y-114371137D01*
X132034814Y-114371137D02*
X131889671Y-114516280D01*
X131889671Y-114516280D02*
X131744528Y-114588852D01*
D11*
X158777195Y-118210419D02*
X158777195Y-119019942D01*
X158777195Y-119019942D02*
X158824814Y-119115180D01*
X158824814Y-119115180D02*
X158872433Y-119162800D01*
X158872433Y-119162800D02*
X158967671Y-119210419D01*
X158967671Y-119210419D02*
X159158147Y-119210419D01*
X159158147Y-119210419D02*
X159253385Y-119162800D01*
X159253385Y-119162800D02*
X159301004Y-119115180D01*
X159301004Y-119115180D02*
X159348623Y-119019942D01*
X159348623Y-119019942D02*
X159348623Y-118210419D01*
X160348623Y-119210419D02*
X159777195Y-119210419D01*
X160062909Y-119210419D02*
X160062909Y-118210419D01*
X160062909Y-118210419D02*
X159967671Y-118353276D01*
X159967671Y-118353276D02*
X159872433Y-118448514D01*
X159872433Y-118448514D02*
X159777195Y-118496133D01*
X156857500Y-118198619D02*
X156857500Y-118436714D01*
X156619405Y-118341476D02*
X156857500Y-118436714D01*
X156857500Y-118436714D02*
X157095595Y-118341476D01*
X156714643Y-118627190D02*
X156857500Y-118436714D01*
X156857500Y-118436714D02*
X157000357Y-118627190D01*
X156857500Y-118198619D02*
X156857500Y-118436714D01*
X156619405Y-118341476D02*
X156857500Y-118436714D01*
X156857500Y-118436714D02*
X157095595Y-118341476D01*
X156714643Y-118627190D02*
X156857500Y-118436714D01*
X156857500Y-118436714D02*
X157000357Y-118627190D01*
D10*
X175298775Y-92338033D02*
X175298775Y-91467176D01*
X176822775Y-91902604D02*
X175298775Y-91902604D01*
X176024489Y-90959175D02*
X176024489Y-90451175D01*
X176822775Y-90233461D02*
X176822775Y-90959175D01*
X176822775Y-90959175D02*
X175298775Y-90959175D01*
X175298775Y-90959175D02*
X175298775Y-90233461D01*
X176822775Y-89580318D02*
X175298775Y-89580318D01*
X175298775Y-89580318D02*
X176387346Y-89072318D01*
X176387346Y-89072318D02*
X175298775Y-88564318D01*
X175298775Y-88564318D02*
X176822775Y-88564318D01*
X176822775Y-87838604D02*
X175298775Y-87838604D01*
X175298775Y-87838604D02*
X175298775Y-87258033D01*
X175298775Y-87258033D02*
X175371346Y-87112890D01*
X175371346Y-87112890D02*
X175443918Y-87040319D01*
X175443918Y-87040319D02*
X175589061Y-86967747D01*
X175589061Y-86967747D02*
X175806775Y-86967747D01*
X175806775Y-86967747D02*
X175951918Y-87040319D01*
X175951918Y-87040319D02*
X176024489Y-87112890D01*
X176024489Y-87112890D02*
X176097061Y-87258033D01*
X176097061Y-87258033D02*
X176097061Y-87838604D01*
X176822775Y-85516319D02*
X176822775Y-86387176D01*
X176822775Y-85951747D02*
X175298775Y-85951747D01*
X175298775Y-85951747D02*
X175516489Y-86096890D01*
X175516489Y-86096890D02*
X175661632Y-86242033D01*
X175661632Y-86242033D02*
X175734204Y-86387176D01*
X154632976Y-108924525D02*
X154632976Y-107400525D01*
X154632976Y-107400525D02*
X155213547Y-107400525D01*
X155213547Y-107400525D02*
X155358690Y-107473096D01*
X155358690Y-107473096D02*
X155431261Y-107545668D01*
X155431261Y-107545668D02*
X155503833Y-107690811D01*
X155503833Y-107690811D02*
X155503833Y-107908525D01*
X155503833Y-107908525D02*
X155431261Y-108053668D01*
X155431261Y-108053668D02*
X155358690Y-108126239D01*
X155358690Y-108126239D02*
X155213547Y-108198811D01*
X155213547Y-108198811D02*
X154632976Y-108198811D01*
X156156976Y-108924525D02*
X156156976Y-107400525D01*
X156156976Y-107400525D02*
X156664976Y-108489096D01*
X156664976Y-108489096D02*
X157172976Y-107400525D01*
X157172976Y-107400525D02*
X157172976Y-108924525D01*
X158696975Y-108924525D02*
X157826118Y-108924525D01*
X158261547Y-108924525D02*
X158261547Y-107400525D01*
X158261547Y-107400525D02*
X158116404Y-107618239D01*
X158116404Y-107618239D02*
X157971261Y-107763382D01*
X157971261Y-107763382D02*
X157826118Y-107835954D01*
D11*
X178872433Y-115220419D02*
X178539100Y-114744228D01*
X178301005Y-115220419D02*
X178301005Y-114220419D01*
X178301005Y-114220419D02*
X178681957Y-114220419D01*
X178681957Y-114220419D02*
X178777195Y-114268038D01*
X178777195Y-114268038D02*
X178824814Y-114315657D01*
X178824814Y-114315657D02*
X178872433Y-114410895D01*
X178872433Y-114410895D02*
X178872433Y-114553752D01*
X178872433Y-114553752D02*
X178824814Y-114648990D01*
X178824814Y-114648990D02*
X178777195Y-114696609D01*
X178777195Y-114696609D02*
X178681957Y-114744228D01*
X178681957Y-114744228D02*
X178301005Y-114744228D01*
X179253386Y-114315657D02*
X179301005Y-114268038D01*
X179301005Y-114268038D02*
X179396243Y-114220419D01*
X179396243Y-114220419D02*
X179634338Y-114220419D01*
X179634338Y-114220419D02*
X179729576Y-114268038D01*
X179729576Y-114268038D02*
X179777195Y-114315657D01*
X179777195Y-114315657D02*
X179824814Y-114410895D01*
X179824814Y-114410895D02*
X179824814Y-114506133D01*
X179824814Y-114506133D02*
X179777195Y-114648990D01*
X179777195Y-114648990D02*
X179205767Y-115220419D01*
X179205767Y-115220419D02*
X179824814Y-115220419D01*
X178872433Y-125660419D02*
X178539100Y-125184228D01*
X178301005Y-125660419D02*
X178301005Y-124660419D01*
X178301005Y-124660419D02*
X178681957Y-124660419D01*
X178681957Y-124660419D02*
X178777195Y-124708038D01*
X178777195Y-124708038D02*
X178824814Y-124755657D01*
X178824814Y-124755657D02*
X178872433Y-124850895D01*
X178872433Y-124850895D02*
X178872433Y-124993752D01*
X178872433Y-124993752D02*
X178824814Y-125088990D01*
X178824814Y-125088990D02*
X178777195Y-125136609D01*
X178777195Y-125136609D02*
X178681957Y-125184228D01*
X178681957Y-125184228D02*
X178301005Y-125184228D01*
X179824814Y-125660419D02*
X179253386Y-125660419D01*
X179539100Y-125660419D02*
X179539100Y-124660419D01*
X179539100Y-124660419D02*
X179443862Y-124803276D01*
X179443862Y-124803276D02*
X179348624Y-124898514D01*
X179348624Y-124898514D02*
X179253386Y-124946133D01*
D12*
%TO.C,SD1*%
X182600090Y-87139630D02*
X188350090Y-87139630D01*
X188350090Y-104539640D02*
X188350090Y-87139630D01*
X182600090Y-104539640D02*
X182600090Y-87139630D01*
X182600090Y-104539640D02*
X188350090Y-104539640D01*
D13*
X185050100Y-105339620D02*
G75*
G02*
X184850100Y-105339620I-100000J0D01*
G01*
X184850100Y-105339620D02*
G75*
G02*
X185050100Y-105339620I100000J0D01*
G01*
D12*
%TO.C,CO1*%
X140162080Y-94000620D02*
X155062120Y-94000620D01*
X140162080Y-99750630D02*
X140162080Y-94000620D01*
X140162080Y-99750630D02*
X155062120Y-99750630D01*
X155062120Y-99750630D02*
X155062120Y-94000620D01*
D13*
X155962100Y-97400600D02*
G75*
G02*
X155762100Y-97400600I-100000J0D01*
G01*
X155762100Y-97400600D02*
G75*
G02*
X155962100Y-97400600I100000J0D01*
G01*
D12*
%TO.C,Clk1*%
X128789130Y-103152600D02*
X131129130Y-103152600D01*
X128789130Y-103152600D02*
X128789130Y-90852600D01*
X131129130Y-103152600D02*
X131129130Y-90852600D01*
X128789130Y-90852600D02*
X131129130Y-90852600D01*
D13*
X127889100Y-102082600D02*
G75*
G02*
X127689100Y-102082600I-100000J0D01*
G01*
X127689100Y-102082600D02*
G75*
G02*
X127889100Y-102082600I100000J0D01*
G01*
D12*
%TO.C,A1*%
X97799100Y-131785600D02*
X199399100Y-131785600D01*
X97799100Y-131785600D02*
X97799100Y-128485580D01*
X199399100Y-131785600D02*
X199399100Y-78445600D01*
X95989100Y-128485580D02*
X97799100Y-128485580D01*
X95989100Y-128485580D02*
X95989100Y-119493570D01*
X97799100Y-128485580D02*
X97799100Y-119493570D01*
X95989100Y-119493570D02*
X97799100Y-119493570D01*
X97799100Y-119493570D02*
X97799100Y-102895590D01*
X91449100Y-102895590D02*
X97799100Y-102895590D01*
X91449100Y-102895590D02*
X91449100Y-91095610D01*
X97799100Y-102895590D02*
X97799100Y-91095610D01*
X91449100Y-91095610D02*
X97799100Y-91095610D01*
X97799100Y-91095610D02*
X97799100Y-78445600D01*
X97799100Y-78445600D02*
X199399100Y-78445600D01*
D14*
%TO.C,LCD1*%
X130279100Y-121557600D02*
X131304100Y-121557600D01*
X130279100Y-122667600D02*
X130279100Y-121557600D01*
X131304100Y-121557600D02*
X131304100Y-121017600D01*
X133459100Y-117047600D02*
X134284100Y-117047600D01*
X134284100Y-117047600D02*
X134284100Y-115247600D01*
X143414100Y-117047600D02*
X144239100Y-117047600D01*
X146394100Y-121017600D02*
X146394100Y-121557600D01*
X146394100Y-121557600D02*
X147419100Y-121557600D01*
X147419100Y-121557600D02*
X147419100Y-122667600D01*
X147419100Y-122667600D02*
X130279100Y-122667600D01*
D15*
%TO.C,U1*%
X158201647Y-124852500D02*
X160948953Y-124852500D01*
X160948953Y-119848700D02*
X158201647Y-119848700D01*
X159880100Y-119848700D02*
G75*
G02*
X159270500Y-119848700I-304800J0D01*
G01*
D12*
%TO.C,TEMP1*%
X168105130Y-84833560D02*
X173855130Y-84833560D01*
X168105130Y-97233590D02*
X168105130Y-84833560D01*
X168105130Y-97233590D02*
X173855130Y-97233590D01*
X173855130Y-97233590D02*
X173855130Y-84833560D01*
D13*
X171605100Y-84033600D02*
G75*
G02*
X171405100Y-84033600I-100000J0D01*
G01*
X171405100Y-84033600D02*
G75*
G02*
X171605100Y-84033600I100000J0D01*
G01*
D12*
%TO.C,PM1*%
X155221080Y-114278610D02*
X155221080Y-112928600D01*
X155221080Y-114278610D02*
X156946090Y-114278610D01*
X156346090Y-110228580D02*
X167346070Y-110228580D01*
X166746070Y-114278610D02*
X168471090Y-114278610D01*
X168471090Y-114278610D02*
X168471090Y-112928600D01*
D16*
X167246080Y-114928600D02*
G75*
G02*
X167046080Y-114928600I-100000J0D01*
G01*
X167046080Y-114928600D02*
G75*
G02*
X167246080Y-114928600I100000J0D01*
G01*
D14*
%TO.C,R2*%
X173729100Y-117485600D02*
X174419100Y-117485600D01*
X184349100Y-117485600D02*
X183659100Y-117485600D01*
X174419100Y-115765600D02*
X183659100Y-115765600D01*
X183659100Y-119205600D01*
X174419100Y-119205600D01*
X174419100Y-115765600D01*
%TO.C,R1*%
X173729100Y-122485600D02*
X174419100Y-122485600D01*
X184349100Y-122485600D02*
X183659100Y-122485600D01*
X183659100Y-124205600D02*
X174419100Y-124205600D01*
X174419100Y-120765600D01*
X183659100Y-120765600D01*
X183659100Y-124205600D01*
%TD*%
M02*
