%TF.GenerationSoftware,KiCad,Pcbnew,9.0.6*%
%TF.CreationDate,2025-11-20T16:03:32-07:00*%
%TF.ProjectId,GEO,47454f2e-6b69-4636-9164-5f7063625858,rev?*%
%TF.SameCoordinates,Original*%
%TF.FileFunction,Copper,L2,Bot*%
%TF.FilePolarity,Positive*%
%FSLAX46Y46*%
G04 Gerber Fmt 4.6, Leading zero omitted, Abs format (unit mm)*
G04 Created by KiCad (PCBNEW 9.0.6) date 2025-11-20 16:03:32*
%MOMM*%
%LPD*%
G01*
G04 APERTURE LIST*
%TA.AperFunction,ComponentPad*%
%ADD10R,1.508000X1.508000*%
%TD*%
%TA.AperFunction,ComponentPad*%
%ADD11C,1.508000*%
%TD*%
%TA.AperFunction,ComponentPad*%
%ADD12R,1.398000X1.398000*%
%TD*%
%TA.AperFunction,ComponentPad*%
%ADD13C,1.398000*%
%TD*%
%TA.AperFunction,ComponentPad*%
%ADD14C,1.358000*%
%TD*%
%TA.AperFunction,ComponentPad*%
%ADD15R,1.358000X1.358000*%
%TD*%
%TA.AperFunction,ComponentPad*%
%ADD16C,1.600000*%
%TD*%
%TA.AperFunction,ViaPad*%
%ADD17C,1.270000*%
%TD*%
%TA.AperFunction,Conductor*%
%ADD18C,0.254000*%
%TD*%
%TA.AperFunction,Conductor*%
%ADD19C,0.200000*%
%TD*%
G04 APERTURE END LIST*
D10*
%TO.P,SD1,1,1*%
%TO.N,/GND*%
X184950100Y-102089610D03*
D11*
%TO.P,SD1,2,2*%
%TO.N,/SD_MISO*%
X184950100Y-99589640D03*
%TO.P,SD1,3,3*%
%TO.N,/SD_CLK*%
X184950100Y-97089620D03*
%TO.P,SD1,4,4*%
%TO.N,/SD_MOSI*%
X184950100Y-94589600D03*
%TO.P,SD1,5,5*%
%TO.N,/SD_CS*%
X184950100Y-92089630D03*
%TO.P,SD1,6,6*%
%TO.N,/5V*%
X184950100Y-89589610D03*
%TD*%
D10*
%TO.P,CO1,1,1*%
%TO.N,/CO_VGAS*%
X152612090Y-97400620D03*
D11*
%TO.P,CO1,2,2*%
%TO.N,/CO_VTEMP*%
X150112120Y-97400620D03*
%TO.P,CO1,3,3*%
%TO.N,/GND*%
X147612100Y-97400620D03*
%TO.P,CO1,4,4*%
%TO.N,/3.3V*%
X145112080Y-97400620D03*
%TO.P,CO1,5,5*%
X142612110Y-97400620D03*
%TD*%
D12*
%TO.P,Clk1,1,1*%
%TO.N,/GND*%
X129959100Y-102082600D03*
D13*
%TO.P,Clk1,2,2*%
%TO.N,/5V*%
X129959100Y-99542600D03*
%TO.P,Clk1,3,3*%
%TO.N,/SDA*%
X129959100Y-97002600D03*
%TO.P,Clk1,4,4*%
%TO.N,/SCL*%
X129959100Y-94462600D03*
%TO.P,Clk1,5,5*%
%TO.N,/RTC_SQW*%
X129959100Y-91922600D03*
%TD*%
D14*
%TO.P,A1,0,0*%
%TO.N,unconnected-(A1-Pad0)*%
X161299100Y-80985600D03*
%TO.P,A1,1,1*%
%TO.N,unconnected-(A1-Pad1)*%
X158759100Y-80985600D03*
%TO.P,A1,2,2*%
%TO.N,/BTN2*%
X156219100Y-80985600D03*
%TO.P,A1,3,3*%
%TO.N,/BTN1*%
X153679100Y-80985600D03*
%TO.P,A1,3V3,+3V3*%
%TO.N,/3.3V*%
X133359100Y-129245600D03*
%TO.P,A1,4,4*%
%TO.N,unconnected-(A1-Pad4)*%
X151139100Y-80985600D03*
%TO.P,A1,5,5*%
%TO.N,unconnected-(A1-Pad5)*%
X148599100Y-80985600D03*
%TO.P,A1,5V_1,+5V_1*%
%TO.N,/5V*%
X135899100Y-129245600D03*
%TO.P,A1,5V_2,+5V_2*%
X191779100Y-80985600D03*
%TO.P,A1,5V_3,+5V_3*%
X194319100Y-80985600D03*
%TO.P,A1,6,6*%
%TO.N,unconnected-(A1-Pad6)*%
X146059100Y-80985600D03*
%TO.P,A1,7,7*%
%TO.N,unconnected-(A1-Pad7)*%
X143519100Y-80985600D03*
%TO.P,A1,8,8*%
%TO.N,/LCD_RES*%
X139455100Y-80985600D03*
%TO.P,A1,9,9*%
%TO.N,/LCD_DC*%
X136915100Y-80985600D03*
%TO.P,A1,10,10*%
%TO.N,/LCD_CS*%
X134375100Y-80985600D03*
%TO.P,A1,11,11*%
%TO.N,/LCD_SDA*%
X131835100Y-80985600D03*
%TO.P,A1,12,12*%
%TO.N,unconnected-(A1-Pad12)*%
X129295100Y-80985600D03*
%TO.P,A1,13,13*%
%TO.N,/LCD_SCK*%
X126755100Y-80985600D03*
%TO.P,A1,14,14*%
%TO.N,/PM_RXD*%
X166379100Y-80985600D03*
%TO.P,A1,15,15*%
%TO.N,/PM_TX*%
X168919100Y-80985600D03*
%TO.P,A1,16,16*%
%TO.N,unconnected-(A1-Pad16)*%
X171459100Y-80985600D03*
%TO.P,A1,17,17*%
%TO.N,unconnected-(A1-Pad17)*%
X173999100Y-80985600D03*
%TO.P,A1,18,18*%
%TO.N,/RTC_SQW*%
X176539100Y-80985600D03*
%TO.P,A1,19,19*%
%TO.N,unconnected-(A1-Pad19)*%
X179079100Y-80985600D03*
%TO.P,A1,20,20*%
%TO.N,/SDA*%
X181619100Y-80985600D03*
%TO.P,A1,21,21*%
%TO.N,/SCL*%
X184159100Y-80985600D03*
%TO.P,A1,22,22*%
%TO.N,unconnected-(A1-Pad22)*%
X191779100Y-83525600D03*
%TO.P,A1,23,23*%
%TO.N,unconnected-(A1-Pad23)*%
X194319100Y-83525600D03*
%TO.P,A1,24,24*%
%TO.N,unconnected-(A1-Pad24)*%
X191779100Y-86065600D03*
%TO.P,A1,25,25*%
%TO.N,unconnected-(A1-Pad25)*%
X194319100Y-86065600D03*
%TO.P,A1,26,26*%
%TO.N,unconnected-(A1-Pad26)*%
X191779100Y-88605600D03*
%TO.P,A1,27,27*%
%TO.N,unconnected-(A1-Pad27)*%
X194319100Y-88605600D03*
%TO.P,A1,28,28*%
%TO.N,unconnected-(A1-Pad28)*%
X191779100Y-91145600D03*
%TO.P,A1,29,29*%
%TO.N,unconnected-(A1-Pad29)*%
X194319100Y-91145600D03*
%TO.P,A1,30,30*%
%TO.N,unconnected-(A1-Pad30)*%
X191779100Y-93685600D03*
%TO.P,A1,31,31*%
%TO.N,unconnected-(A1-Pad31)*%
X194319100Y-93685600D03*
%TO.P,A1,32,32*%
%TO.N,unconnected-(A1-Pad32)*%
X191779100Y-96225600D03*
%TO.P,A1,33,33*%
%TO.N,unconnected-(A1-Pad33)*%
X194319100Y-96225600D03*
%TO.P,A1,34,34*%
%TO.N,unconnected-(A1-Pad34)*%
X191779100Y-98765600D03*
%TO.P,A1,35,35*%
%TO.N,unconnected-(A1-Pad35)*%
X194319100Y-98765600D03*
%TO.P,A1,36,36*%
%TO.N,unconnected-(A1-Pad36)*%
X191779100Y-101305600D03*
%TO.P,A1,37,37*%
%TO.N,unconnected-(A1-Pad37)*%
X194319100Y-101305600D03*
%TO.P,A1,38,38*%
%TO.N,unconnected-(A1-Pad38)*%
X191779100Y-103845600D03*
%TO.P,A1,39,39*%
%TO.N,unconnected-(A1-Pad39)*%
X194319100Y-103845600D03*
%TO.P,A1,40,40*%
%TO.N,unconnected-(A1-Pad40)*%
X191779100Y-106385600D03*
%TO.P,A1,41,41*%
%TO.N,unconnected-(A1-Pad41)*%
X194319100Y-106385600D03*
%TO.P,A1,42,42*%
%TO.N,unconnected-(A1-Pad42)*%
X191779100Y-108925600D03*
%TO.P,A1,43,43*%
%TO.N,unconnected-(A1-Pad43)*%
X194319100Y-108925600D03*
%TO.P,A1,44,44*%
%TO.N,unconnected-(A1-Pad44)*%
X191779100Y-111465600D03*
%TO.P,A1,45,45*%
%TO.N,unconnected-(A1-Pad45)*%
X194319100Y-111465600D03*
%TO.P,A1,46,46*%
%TO.N,unconnected-(A1-Pad46)*%
X191779100Y-114005600D03*
%TO.P,A1,47,47*%
%TO.N,unconnected-(A1-Pad47)*%
X194319100Y-114005600D03*
%TO.P,A1,48,48*%
%TO.N,unconnected-(A1-Pad48)*%
X191779100Y-116545600D03*
%TO.P,A1,49,49*%
%TO.N,unconnected-(A1-Pad49)*%
X194319100Y-116545600D03*
%TO.P,A1,50,50*%
%TO.N,/SD_MISO*%
X191779100Y-119085600D03*
%TO.P,A1,51,51*%
%TO.N,/SD_MOSI*%
X194319100Y-119085600D03*
%TO.P,A1,52,52*%
%TO.N,/SD_CLK*%
X191779100Y-121625600D03*
%TO.P,A1,53,53*%
%TO.N,/SD_CS*%
X194319100Y-121625600D03*
%TO.P,A1,AD0,AD0*%
%TO.N,/CO_VGAS*%
X148599100Y-129245600D03*
%TO.P,A1,AD1,AD1*%
%TO.N,/CO_VTEMP*%
X151139100Y-129245600D03*
%TO.P,A1,AD2,AD2*%
%TO.N,unconnected-(A1-PadAD2)*%
X153679100Y-129245600D03*
%TO.P,A1,AD3,AD3*%
%TO.N,unconnected-(A1-PadAD3)*%
X156219100Y-129245600D03*
%TO.P,A1,AD4,AD4*%
%TO.N,unconnected-(A1-PadAD4)*%
X158759100Y-129245600D03*
%TO.P,A1,AD5,AD5*%
%TO.N,unconnected-(A1-PadAD5)*%
X161299100Y-129245600D03*
%TO.P,A1,AD6,AD6*%
%TO.N,unconnected-(A1-PadAD6)*%
X163839100Y-129245600D03*
%TO.P,A1,AD7,AD7*%
%TO.N,unconnected-(A1-PadAD7)*%
X166379100Y-129245600D03*
%TO.P,A1,AD8,AD8*%
%TO.N,/BAT_MEAS*%
X171459100Y-129245600D03*
%TO.P,A1,AD9,AD9*%
%TO.N,unconnected-(A1-PadAD9)*%
X173999100Y-129245600D03*
%TO.P,A1,AD10,AD10*%
%TO.N,unconnected-(A1-PadAD10)*%
X176539100Y-129245600D03*
%TO.P,A1,AD11,AD11*%
%TO.N,unconnected-(A1-PadAD11)*%
X179079100Y-129245600D03*
%TO.P,A1,AD12,AD12*%
%TO.N,unconnected-(A1-PadAD12)*%
X181619100Y-129245600D03*
%TO.P,A1,AD13,AD13*%
%TO.N,unconnected-(A1-PadAD13)*%
X184159100Y-129245600D03*
%TO.P,A1,AD14,AD14*%
%TO.N,unconnected-(A1-PadAD14)*%
X186699100Y-129245600D03*
%TO.P,A1,AD15,AD15*%
%TO.N,unconnected-(A1-PadAD15)*%
X189239100Y-129245600D03*
%TO.P,A1,AREF,AREF*%
%TO.N,unconnected-(A1-PadAREF)*%
X121675100Y-80985600D03*
%TO.P,A1,GND1,GND1*%
%TO.N,/GND*%
X138439100Y-129245600D03*
%TO.P,A1,GND2,GND2*%
X140979100Y-129245600D03*
%TO.P,A1,GND3,GND3*%
X124215100Y-80985600D03*
%TO.P,A1,GND4,GND4*%
X191779100Y-124165600D03*
%TO.P,A1,GND5,GND5*%
X194319100Y-124165600D03*
%TO.P,A1,IOREF,IOREF*%
%TO.N,unconnected-(A1-PadIOREF)*%
X128279100Y-129245600D03*
D15*
%TO.P,A1,NC,NC*%
%TO.N,unconnected-(A1-PadNC)*%
X125739100Y-129245600D03*
D14*
%TO.P,A1,RESET,RESET*%
%TO.N,unconnected-(A1-PadRESET)*%
X130819100Y-129245600D03*
%TO.P,A1,SCL,SCL*%
%TO.N,unconnected-(A1-PadSCL)*%
X116595100Y-80985600D03*
%TO.P,A1,SDA,SDA*%
%TO.N,unconnected-(A1-PadSDA)*%
X119135100Y-80985600D03*
%TO.P,A1,VIN,VIN*%
%TO.N,unconnected-(A1-PadVIN)*%
X143519100Y-129245600D03*
%TD*%
D10*
%TO.P,TEMP1,1,1*%
%TO.N,/5V*%
X171505120Y-87283590D03*
D11*
%TO.P,TEMP1,2,2*%
%TO.N,/GND*%
X171505120Y-89783560D03*
%TO.P,TEMP1,3,3*%
%TO.N,/SCL*%
X171505120Y-92283580D03*
%TO.P,TEMP1,4,4*%
%TO.N,/SDA*%
X171505120Y-94783600D03*
%TD*%
D16*
%TO.P,R2,1*%
%TO.N,/GND*%
X172689100Y-117485600D03*
%TO.P,R2,2*%
%TO.N,/BAT_MEAS*%
X185389100Y-117485600D03*
%TD*%
%TO.P,R1,1*%
%TO.N,/BAT_MEAS*%
X185389100Y-122485600D03*
%TO.P,R1,2*%
%TO.N,/BAT_IN*%
X172689100Y-122485600D03*
%TD*%
D17*
%TO.N,/3.3V*%
X133540500Y-106472230D03*
%TO.N,/LCD_CS*%
X145072100Y-84556600D03*
%TO.N,/LCD_SDA*%
X141109700Y-90728800D03*
%TO.N,/5V*%
X137539100Y-122985600D03*
%TO.N,/BTN1*%
X139865100Y-84683600D03*
%TO.N,/LCD_DC*%
X143421100Y-90652600D03*
%TO.N,/LCD_SCK*%
X139382500Y-89916000D03*
%TO.N,/BAT_IN*%
X125039100Y-120485600D03*
%TD*%
D18*
%TO.N,/3.3V*%
X133540500Y-106472230D02*
X142612110Y-97400620D01*
X142612110Y-97400620D02*
X145112080Y-97400620D01*
%TO.N,/LCD_CS*%
X145072100Y-84556600D02*
X145072100Y-84531200D01*
X134277100Y-80873600D02*
X135547100Y-79603600D01*
X135547100Y-79603600D02*
X140144500Y-79603600D01*
X140144500Y-79603600D02*
X145072100Y-84531200D01*
%TO.N,/LCD_SDA*%
X132346700Y-85191600D02*
X138239500Y-91084400D01*
X138239500Y-91084400D02*
X140754100Y-91084400D01*
X131737100Y-80873600D02*
X132346700Y-81483200D01*
X132346700Y-85191600D02*
X132346700Y-81483200D01*
X140754100Y-91084400D02*
X141109700Y-90728800D01*
%TO.N,/SDA*%
X174155100Y-93767600D02*
X174155100Y-92811600D01*
X128866900Y-95910400D02*
X128866900Y-93573600D01*
X128866900Y-95910400D02*
X129959100Y-97002600D01*
X154393900Y-93014800D02*
X156273500Y-91135200D01*
X173139100Y-94783600D02*
X174155100Y-93767600D01*
X156273500Y-91135200D02*
X172478700Y-91135200D01*
X129425700Y-93014800D02*
X154393900Y-93014800D01*
X172478700Y-91135200D02*
X174155100Y-92811600D01*
X128866900Y-93573600D02*
X129425700Y-93014800D01*
X171505120Y-94783600D02*
X173139100Y-94783600D01*
%TO.N,/5V*%
X135801100Y-129133600D02*
X135801100Y-128747600D01*
X173811130Y-89589610D02*
X184950100Y-89589610D01*
X168668700Y-97078800D02*
X177460910Y-97078800D01*
X122039100Y-121485600D02*
X122039100Y-107462600D01*
X125539100Y-124985600D02*
X122039100Y-121485600D01*
X171505120Y-87283590D02*
X173811130Y-89589610D01*
X132039100Y-124985600D02*
X125539100Y-124985600D01*
X177460910Y-97078800D02*
X184950100Y-89589610D01*
X135801100Y-128747600D02*
X132039100Y-124985600D01*
D19*
X137539100Y-122985600D02*
X137539100Y-127395600D01*
X137539100Y-127395600D02*
X135801100Y-129133600D01*
D18*
X184950100Y-87604600D02*
X191681100Y-80873600D01*
X129959100Y-99542600D02*
X135369300Y-94132400D01*
X122039100Y-107462600D02*
X129959100Y-99542600D01*
X135369300Y-94132400D02*
X165722300Y-94132400D01*
X184950100Y-89589610D02*
X184950100Y-87604600D01*
X191681100Y-80873600D02*
X194221100Y-80873600D01*
X165722300Y-94132400D02*
X168668700Y-97078800D01*
%TO.N,/RTC_SQW*%
X171564300Y-85750400D02*
X176441100Y-80873600D01*
X129959100Y-91922600D02*
X154114500Y-91922600D01*
X160286700Y-85750400D02*
X171564300Y-85750400D01*
X154114500Y-91922600D02*
X160286700Y-85750400D01*
%TO.N,/SCL*%
X129959100Y-94462600D02*
X130797300Y-93624400D01*
X130797300Y-93624400D02*
X170164300Y-93624400D01*
X170164300Y-93624400D02*
X171505120Y-92283580D01*
%TO.N,/BTN1*%
X139865100Y-84683600D02*
X140754100Y-85572600D01*
X140754100Y-85572600D02*
X148882100Y-85572600D01*
X148882100Y-85572600D02*
X153581100Y-80873600D01*
%TO.N,/LCD_DC*%
X136817100Y-84048600D02*
X136817100Y-80873600D01*
X136817100Y-84048600D02*
X143421100Y-90652600D01*
%TO.N,/LCD_SCK*%
X126657100Y-80873600D02*
X127927100Y-79603600D01*
X132499100Y-79603600D02*
X133007100Y-80111600D01*
X133007100Y-83540600D02*
X139382500Y-89916000D01*
X133007100Y-83540600D02*
X133007100Y-80111600D01*
X127927100Y-79603600D02*
X132499100Y-79603600D01*
%TO.N,/SD_MOSI*%
X184950100Y-94589600D02*
X190411100Y-100050600D01*
X191427100Y-117703600D02*
X192951100Y-117703600D01*
X192951100Y-117703600D02*
X194221100Y-118973600D01*
X190411100Y-116687600D02*
X191427100Y-117703600D01*
X190411100Y-116687600D02*
X190411100Y-100050600D01*
D19*
%TO.N,/BAT_IN*%
X170689100Y-120485600D02*
X172689100Y-122485600D01*
X125039100Y-120485600D02*
X170689100Y-120485600D01*
%TD*%
%TA.AperFunction,Conductor*%
%TO.N,/GND*%
G36*
X172619698Y-89304144D02*
G01*
X172668222Y-89334118D01*
X173316648Y-89982546D01*
X173316651Y-89982550D01*
X173316652Y-89982550D01*
X173323718Y-89989616D01*
X173323719Y-89989618D01*
X173411122Y-90077021D01*
X173411125Y-90077023D01*
X173411126Y-90077024D01*
X173513886Y-90145686D01*
X173513889Y-90145687D01*
X173513897Y-90145693D01*
X173513903Y-90145695D01*
X173513904Y-90145696D01*
X173594644Y-90179139D01*
X173594645Y-90179140D01*
X173618296Y-90188936D01*
X173628094Y-90192995D01*
X173628096Y-90192995D01*
X173628098Y-90192996D01*
X173749323Y-90217110D01*
X173749326Y-90217110D01*
X173749327Y-90217110D01*
X183135819Y-90217110D01*
X183202858Y-90236795D01*
X183248613Y-90289599D01*
X183258557Y-90358757D01*
X183229532Y-90422313D01*
X183223500Y-90428791D01*
X177237310Y-96414981D01*
X177175987Y-96448466D01*
X177149629Y-96451300D01*
X168979981Y-96451300D01*
X168912942Y-96431615D01*
X168892300Y-96414981D01*
X166940900Y-94463581D01*
X166907415Y-94402258D01*
X166912399Y-94332566D01*
X166954271Y-94276633D01*
X167019735Y-94252216D01*
X167028581Y-94251900D01*
X170188149Y-94251900D01*
X170255188Y-94271585D01*
X170300943Y-94324389D01*
X170310887Y-94393547D01*
X170306080Y-94414218D01*
X170281509Y-94489836D01*
X170250620Y-94684863D01*
X170250620Y-94882336D01*
X170281509Y-95077363D01*
X170335661Y-95244024D01*
X170342529Y-95265161D01*
X170416890Y-95411100D01*
X170432178Y-95441104D01*
X170548235Y-95600846D01*
X170687873Y-95740484D01*
X170787974Y-95813210D01*
X170847619Y-95856544D01*
X171023559Y-95946191D01*
X171148757Y-95986870D01*
X171211356Y-96007210D01*
X171406384Y-96038100D01*
X171406389Y-96038100D01*
X171603856Y-96038100D01*
X171798883Y-96007210D01*
X171803441Y-96005729D01*
X171986681Y-95946191D01*
X172162621Y-95856544D01*
X172313763Y-95746734D01*
X172322366Y-95740484D01*
X172322368Y-95740481D01*
X172322372Y-95740479D01*
X172461999Y-95600852D01*
X172562725Y-95462213D01*
X172618053Y-95419549D01*
X172663042Y-95411100D01*
X173200904Y-95411100D01*
X173200905Y-95411099D01*
X173322135Y-95386986D01*
X173402884Y-95353537D01*
X173436333Y-95339683D01*
X173539108Y-95271011D01*
X173626511Y-95183608D01*
X174642511Y-94167608D01*
X174650200Y-94156100D01*
X174711183Y-94064833D01*
X174725037Y-94031384D01*
X174758486Y-93950635D01*
X174782600Y-93829403D01*
X174782600Y-93705797D01*
X174782600Y-92749797D01*
X174782070Y-92747134D01*
X174778428Y-92728827D01*
X174768080Y-92676801D01*
X174758486Y-92628566D01*
X174725984Y-92550100D01*
X174718260Y-92531452D01*
X174711186Y-92514373D01*
X174711179Y-92514360D01*
X174642512Y-92411593D01*
X174600725Y-92369806D01*
X174555108Y-92324189D01*
X173829290Y-91598371D01*
X172878711Y-90647791D01*
X172878710Y-90647790D01*
X172808226Y-90600695D01*
X172802680Y-90596989D01*
X172775933Y-90579117D01*
X172737588Y-90563234D01*
X172732498Y-90561125D01*
X172732495Y-90561124D01*
X172661735Y-90531814D01*
X172661727Y-90531812D01*
X172540507Y-90507700D01*
X172540503Y-90507700D01*
X172465565Y-90507700D01*
X172398526Y-90488015D01*
X172352771Y-90435211D01*
X172342827Y-90366053D01*
X172362463Y-90314810D01*
X172398391Y-90261038D01*
X172398399Y-90261024D01*
X172474382Y-90077583D01*
X172474384Y-90077575D01*
X172507606Y-89910560D01*
X171988728Y-89910560D01*
X172005120Y-89849386D01*
X172005120Y-89717734D01*
X171988728Y-89656560D01*
X172507606Y-89656560D01*
X172474384Y-89489544D01*
X172474382Y-89489535D01*
X172465981Y-89469254D01*
X172458511Y-89399784D01*
X172489785Y-89337305D01*
X172549873Y-89301651D01*
X172619698Y-89304144D01*
G37*
%TD.AperFunction*%
%TA.AperFunction,Conductor*%
G36*
X170193659Y-86397585D02*
G01*
X170239414Y-86450389D01*
X170250620Y-86501900D01*
X170250620Y-88085460D01*
X170250621Y-88085466D01*
X170257028Y-88145073D01*
X170307322Y-88279918D01*
X170307326Y-88279925D01*
X170393572Y-88395134D01*
X170393575Y-88395137D01*
X170508784Y-88481383D01*
X170508791Y-88481387D01*
X170643637Y-88531681D01*
X170643636Y-88531681D01*
X170650564Y-88532425D01*
X170703247Y-88538090D01*
X171340692Y-88538089D01*
X171407730Y-88557773D01*
X171453485Y-88610577D01*
X171463429Y-88679736D01*
X171434404Y-88743292D01*
X171375626Y-88781066D01*
X171364883Y-88783706D01*
X171211102Y-88814295D01*
X171211096Y-88814297D01*
X171027655Y-88890280D01*
X171027646Y-88890285D01*
X170862558Y-89000594D01*
X170862554Y-89000597D01*
X170722157Y-89140994D01*
X170722154Y-89140998D01*
X170611845Y-89306086D01*
X170611840Y-89306095D01*
X170535857Y-89489536D01*
X170535855Y-89489544D01*
X170502634Y-89656560D01*
X171021512Y-89656560D01*
X171005120Y-89717734D01*
X171005120Y-89849386D01*
X171021512Y-89910560D01*
X170502634Y-89910560D01*
X170535855Y-90077575D01*
X170535857Y-90077583D01*
X170611840Y-90261024D01*
X170611848Y-90261038D01*
X170647777Y-90314810D01*
X170668655Y-90381487D01*
X170650170Y-90448867D01*
X170598191Y-90495557D01*
X170544675Y-90507700D01*
X156716181Y-90507700D01*
X156649142Y-90488015D01*
X156603387Y-90435211D01*
X156593443Y-90366053D01*
X156622468Y-90302497D01*
X156628500Y-90296019D01*
X160510300Y-86414219D01*
X160571623Y-86380734D01*
X160597981Y-86377900D01*
X170126620Y-86377900D01*
X170193659Y-86397585D01*
G37*
%TD.AperFunction*%
%TA.AperFunction,Conductor*%
G36*
X198997639Y-78599785D02*
G01*
X199043394Y-78652589D01*
X199054600Y-78704100D01*
X199054600Y-131303100D01*
X199034915Y-131370139D01*
X198982111Y-131415894D01*
X198930600Y-131427100D01*
X98071600Y-131427100D01*
X98004561Y-131407415D01*
X97958806Y-131354611D01*
X97947600Y-131303100D01*
X97947600Y-129124311D01*
X109918600Y-129124311D01*
X109918600Y-129366888D01*
X109947404Y-129585684D01*
X109950262Y-129607389D01*
X109971737Y-129687534D01*
X110013047Y-129841704D01*
X110091905Y-130032083D01*
X110105876Y-130065812D01*
X110227164Y-130275889D01*
X110227166Y-130275892D01*
X110227167Y-130275893D01*
X110374833Y-130468336D01*
X110374839Y-130468343D01*
X110546356Y-130639860D01*
X110546362Y-130639865D01*
X110738811Y-130787536D01*
X110948888Y-130908824D01*
X111173000Y-131001654D01*
X111407311Y-131064438D01*
X111587686Y-131088184D01*
X111647811Y-131096100D01*
X111647812Y-131096100D01*
X111890389Y-131096100D01*
X111938488Y-131089767D01*
X112130889Y-131064438D01*
X112365200Y-131001654D01*
X112589312Y-130908824D01*
X112799389Y-130787536D01*
X112991838Y-130639865D01*
X113163365Y-130468338D01*
X113311036Y-130275889D01*
X113432324Y-130065812D01*
X113525154Y-129841700D01*
X113587938Y-129607389D01*
X113619600Y-129366888D01*
X113619600Y-129124312D01*
X113587938Y-128883811D01*
X113525154Y-128649500D01*
X113432324Y-128425388D01*
X113311036Y-128215311D01*
X113240053Y-128122804D01*
X113163366Y-128022863D01*
X113163360Y-128022856D01*
X112991843Y-127851339D01*
X112991836Y-127851333D01*
X112799393Y-127703667D01*
X112799392Y-127703666D01*
X112799389Y-127703664D01*
X112589312Y-127582376D01*
X112589305Y-127582373D01*
X112365204Y-127489547D01*
X112130885Y-127426761D01*
X111890389Y-127395100D01*
X111890388Y-127395100D01*
X111647812Y-127395100D01*
X111647811Y-127395100D01*
X111407314Y-127426761D01*
X111172995Y-127489547D01*
X110948894Y-127582373D01*
X110948885Y-127582377D01*
X110738806Y-127703667D01*
X110546363Y-127851333D01*
X110546356Y-127851339D01*
X110374839Y-128022856D01*
X110374833Y-128022863D01*
X110227167Y-128215306D01*
X110105877Y-128425385D01*
X110105873Y-128425394D01*
X110013047Y-128649495D01*
X109950261Y-128883814D01*
X109918600Y-129124311D01*
X97947600Y-129124311D01*
X97947600Y-120883248D01*
X101738600Y-120883248D01*
X101738600Y-121087951D01*
X101770622Y-121290134D01*
X101833881Y-121484823D01*
X101860931Y-121537910D01*
X101912126Y-121638386D01*
X101926815Y-121667213D01*
X102047128Y-121832813D01*
X102191886Y-121977571D01*
X102330628Y-122078371D01*
X102357490Y-122097887D01*
X102473707Y-122157103D01*
X102539876Y-122190818D01*
X102539878Y-122190818D01*
X102539881Y-122190820D01*
X102644237Y-122224727D01*
X102734565Y-122254077D01*
X102835657Y-122270088D01*
X102936748Y-122286100D01*
X102936749Y-122286100D01*
X103141451Y-122286100D01*
X103141452Y-122286100D01*
X103343634Y-122254077D01*
X103538319Y-122190820D01*
X103720710Y-122097887D01*
X103835576Y-122014433D01*
X103886313Y-121977571D01*
X103886315Y-121977568D01*
X103886319Y-121977566D01*
X104031066Y-121832819D01*
X104031068Y-121832815D01*
X104031071Y-121832813D01*
X104114171Y-121718434D01*
X104151387Y-121667210D01*
X104244320Y-121484819D01*
X104307577Y-121290134D01*
X104339600Y-121087952D01*
X104339600Y-120883248D01*
X104307577Y-120681066D01*
X104244320Y-120486381D01*
X104244318Y-120486378D01*
X104244318Y-120486376D01*
X104189798Y-120379376D01*
X104151387Y-120303990D01*
X104123132Y-120265100D01*
X104031071Y-120138386D01*
X103886313Y-119993628D01*
X103720713Y-119873315D01*
X103720712Y-119873314D01*
X103720710Y-119873313D01*
X103643527Y-119833986D01*
X103538323Y-119780381D01*
X103343634Y-119717122D01*
X103169095Y-119689478D01*
X103141452Y-119685100D01*
X102936748Y-119685100D01*
X102912429Y-119688951D01*
X102734565Y-119717122D01*
X102539876Y-119780381D01*
X102357486Y-119873315D01*
X102191886Y-119993628D01*
X102047128Y-120138386D01*
X101926815Y-120303986D01*
X101833881Y-120486376D01*
X101770622Y-120681065D01*
X101738600Y-120883248D01*
X97947600Y-120883248D01*
X97947600Y-113883248D01*
X101738600Y-113883248D01*
X101738600Y-114087952D01*
X101740260Y-114098434D01*
X101770622Y-114290134D01*
X101833881Y-114484823D01*
X101926815Y-114667213D01*
X102047128Y-114832813D01*
X102191886Y-114977571D01*
X102343043Y-115087391D01*
X102357490Y-115097887D01*
X102468462Y-115154430D01*
X102539876Y-115190818D01*
X102539878Y-115190818D01*
X102539881Y-115190820D01*
X102644237Y-115224727D01*
X102734565Y-115254077D01*
X102835657Y-115270088D01*
X102936748Y-115286100D01*
X102936749Y-115286100D01*
X103141451Y-115286100D01*
X103141452Y-115286100D01*
X103343634Y-115254077D01*
X103538319Y-115190820D01*
X103720710Y-115097887D01*
X103813690Y-115030332D01*
X103886313Y-114977571D01*
X103886315Y-114977568D01*
X103886319Y-114977566D01*
X104031066Y-114832819D01*
X104031068Y-114832815D01*
X104031071Y-114832813D01*
X104083832Y-114760190D01*
X104151387Y-114667210D01*
X104244320Y-114484819D01*
X104307577Y-114290134D01*
X104339600Y-114087952D01*
X104339600Y-113883248D01*
X104324154Y-113785729D01*
X104307577Y-113681065D01*
X104244318Y-113486376D01*
X104193890Y-113387407D01*
X104151387Y-113303990D01*
X104102867Y-113237207D01*
X104031071Y-113138386D01*
X103886313Y-112993628D01*
X103720713Y-112873315D01*
X103720712Y-112873314D01*
X103720710Y-112873313D01*
X103648384Y-112836461D01*
X103538323Y-112780381D01*
X103343634Y-112717122D01*
X103169095Y-112689478D01*
X103141452Y-112685100D01*
X102936748Y-112685100D01*
X102912429Y-112688951D01*
X102734565Y-112717122D01*
X102539876Y-112780381D01*
X102357486Y-112873315D01*
X102191886Y-112993628D01*
X102047128Y-113138386D01*
X101926815Y-113303986D01*
X101833881Y-113486376D01*
X101770622Y-113681065D01*
X101738600Y-113883248D01*
X97947600Y-113883248D01*
X97947600Y-107400797D01*
X121411600Y-107400797D01*
X121411600Y-107403908D01*
X121411600Y-121547407D01*
X121435712Y-121668627D01*
X121435715Y-121668639D01*
X121455646Y-121716755D01*
X121483015Y-121782830D01*
X121483016Y-121782832D01*
X121483017Y-121782833D01*
X121524899Y-121845514D01*
X121546643Y-121878055D01*
X121546644Y-121878059D01*
X121546645Y-121878059D01*
X121551690Y-121885609D01*
X121551691Y-121885611D01*
X125139087Y-125473007D01*
X125139091Y-125473010D01*
X125241860Y-125541679D01*
X125241873Y-125541686D01*
X125356060Y-125588983D01*
X125356065Y-125588985D01*
X125356069Y-125588985D01*
X125356070Y-125588986D01*
X125477293Y-125613100D01*
X125477296Y-125613100D01*
X125477297Y-125613100D01*
X131727819Y-125613100D01*
X131794858Y-125632785D01*
X131815500Y-125649419D01*
X134793918Y-128627837D01*
X134827403Y-128689160D01*
X134822419Y-128758852D01*
X134816725Y-128771807D01*
X134806013Y-128792831D01*
X134769400Y-128905516D01*
X134752953Y-128956137D01*
X134747138Y-128974033D01*
X134744964Y-128973326D01*
X134714852Y-129025729D01*
X134652814Y-129057871D01*
X134583248Y-129051371D01*
X134528239Y-129008292D01*
X134512395Y-128973599D01*
X134511062Y-128974033D01*
X134509557Y-128969400D01*
X134452185Y-128792829D01*
X134367899Y-128627407D01*
X134258772Y-128477207D01*
X134127493Y-128345928D01*
X133977293Y-128236801D01*
X133811871Y-128152515D01*
X133635300Y-128095143D01*
X133635298Y-128095142D01*
X133635296Y-128095142D01*
X133451934Y-128066100D01*
X133451929Y-128066100D01*
X133266271Y-128066100D01*
X133266266Y-128066100D01*
X133082903Y-128095142D01*
X132906326Y-128152516D01*
X132740906Y-128236801D01*
X132655211Y-128299062D01*
X132590707Y-128345928D01*
X132590705Y-128345930D01*
X132590704Y-128345930D01*
X132459430Y-128477204D01*
X132459430Y-128477205D01*
X132459428Y-128477207D01*
X132412562Y-128541711D01*
X132350301Y-128627406D01*
X132266016Y-128792826D01*
X132266015Y-128792828D01*
X132266015Y-128792829D01*
X132212953Y-128956137D01*
X132207138Y-128974033D01*
X132204964Y-128973326D01*
X132174852Y-129025729D01*
X132112814Y-129057871D01*
X132043248Y-129051371D01*
X131988239Y-129008292D01*
X131972395Y-128973599D01*
X131971062Y-128974033D01*
X131969557Y-128969400D01*
X131912185Y-128792829D01*
X131827899Y-128627407D01*
X131718772Y-128477207D01*
X131587493Y-128345928D01*
X131437293Y-128236801D01*
X131271871Y-128152515D01*
X131095300Y-128095143D01*
X131095298Y-128095142D01*
X131095296Y-128095142D01*
X130911934Y-128066100D01*
X130911929Y-128066100D01*
X130726271Y-128066100D01*
X130726266Y-128066100D01*
X130542903Y-128095142D01*
X130366326Y-128152516D01*
X130200906Y-128236801D01*
X130115211Y-128299062D01*
X130050707Y-128345928D01*
X130050705Y-128345930D01*
X130050704Y-128345930D01*
X129919430Y-128477204D01*
X129919430Y-128477205D01*
X129919428Y-128477207D01*
X129872562Y-128541711D01*
X129810301Y-128627406D01*
X129726016Y-128792826D01*
X129726015Y-128792828D01*
X129726015Y-128792829D01*
X129672953Y-128956137D01*
X129667138Y-128974033D01*
X129664964Y-128973326D01*
X129634852Y-129025729D01*
X129572814Y-129057871D01*
X129503248Y-129051371D01*
X129448239Y-129008292D01*
X129432395Y-128973599D01*
X129431062Y-128974033D01*
X129429557Y-128969400D01*
X129372185Y-128792829D01*
X129287899Y-128627407D01*
X129178772Y-128477207D01*
X129047493Y-128345928D01*
X128897293Y-128236801D01*
X128731871Y-128152515D01*
X128555300Y-128095143D01*
X128555298Y-128095142D01*
X128555296Y-128095142D01*
X128371934Y-128066100D01*
X128371929Y-128066100D01*
X128186271Y-128066100D01*
X128186266Y-128066100D01*
X128002903Y-128095142D01*
X127826326Y-128152516D01*
X127660906Y-128236801D01*
X127575211Y-128299062D01*
X127510707Y-128345928D01*
X127510705Y-128345930D01*
X127510704Y-128345930D01*
X127379430Y-128477204D01*
X127379430Y-128477205D01*
X127379428Y-128477207D01*
X127332562Y-128541711D01*
X127270301Y-128627406D01*
X127186016Y-128792824D01*
X127172980Y-128832945D01*
X127162799Y-128864282D01*
X127160530Y-128871264D01*
X127121092Y-128928939D01*
X127056733Y-128956137D01*
X126987887Y-128944222D01*
X126936411Y-128896978D01*
X126918599Y-128832945D01*
X126918599Y-128518729D01*
X126918598Y-128518723D01*
X126918597Y-128518716D01*
X126912191Y-128459117D01*
X126869974Y-128345928D01*
X126861897Y-128324271D01*
X126861893Y-128324264D01*
X126775647Y-128209055D01*
X126775644Y-128209052D01*
X126660435Y-128122806D01*
X126660428Y-128122802D01*
X126525582Y-128072508D01*
X126525583Y-128072508D01*
X126465983Y-128066101D01*
X126465981Y-128066100D01*
X126465973Y-128066100D01*
X126465964Y-128066100D01*
X125012229Y-128066100D01*
X125012223Y-128066101D01*
X124952616Y-128072508D01*
X124817771Y-128122802D01*
X124817764Y-128122806D01*
X124702555Y-128209052D01*
X124702552Y-128209055D01*
X124616306Y-128324264D01*
X124616302Y-128324271D01*
X124566008Y-128459117D01*
X124559601Y-128518716D01*
X124559601Y-128518723D01*
X124559600Y-128518735D01*
X124559600Y-129972470D01*
X124559601Y-129972476D01*
X124566008Y-130032083D01*
X124616302Y-130166928D01*
X124616306Y-130166935D01*
X124702552Y-130282144D01*
X124702555Y-130282147D01*
X124817764Y-130368393D01*
X124817771Y-130368397D01*
X124952617Y-130418691D01*
X124952616Y-130418691D01*
X124959544Y-130419435D01*
X125012227Y-130425100D01*
X126465972Y-130425099D01*
X126525583Y-130418691D01*
X126660431Y-130368396D01*
X126775646Y-130282146D01*
X126861896Y-130166931D01*
X126912191Y-130032083D01*
X126918600Y-129972473D01*
X126918599Y-129658253D01*
X126938283Y-129591217D01*
X126991087Y-129545462D01*
X127060246Y-129535518D01*
X127123801Y-129564543D01*
X127160530Y-129619937D01*
X127186016Y-129698375D01*
X127258357Y-129840352D01*
X127270301Y-129863793D01*
X127379428Y-130013993D01*
X127510707Y-130145272D01*
X127660907Y-130254399D01*
X127826329Y-130338685D01*
X128002900Y-130396057D01*
X128071664Y-130406948D01*
X128186266Y-130425100D01*
X128186271Y-130425100D01*
X128371934Y-130425100D01*
X128473801Y-130408965D01*
X128555300Y-130396057D01*
X128731871Y-130338685D01*
X128897293Y-130254399D01*
X129047493Y-130145272D01*
X129178772Y-130013993D01*
X129287899Y-129863793D01*
X129372185Y-129698371D01*
X129429557Y-129521800D01*
X129429558Y-129521796D01*
X129431062Y-129517167D01*
X129433247Y-129517877D01*
X129463303Y-129465514D01*
X129525324Y-129433340D01*
X129594894Y-129439805D01*
X129649924Y-129482856D01*
X129665792Y-129517604D01*
X129667138Y-129517167D01*
X129668642Y-129521796D01*
X129668643Y-129521800D01*
X129726015Y-129698371D01*
X129810301Y-129863793D01*
X129919428Y-130013993D01*
X130050707Y-130145272D01*
X130200907Y-130254399D01*
X130366329Y-130338685D01*
X130542900Y-130396057D01*
X130611664Y-130406948D01*
X130726266Y-130425100D01*
X130726271Y-130425100D01*
X130911934Y-130425100D01*
X131013801Y-130408965D01*
X131095300Y-130396057D01*
X131271871Y-130338685D01*
X131437293Y-130254399D01*
X131587493Y-130145272D01*
X131718772Y-130013993D01*
X131827899Y-129863793D01*
X131912185Y-129698371D01*
X131969557Y-129521800D01*
X131969558Y-129521796D01*
X131971062Y-129517167D01*
X131973247Y-129517877D01*
X132003303Y-129465514D01*
X132065324Y-129433340D01*
X132134894Y-129439805D01*
X132189924Y-129482856D01*
X132205792Y-129517604D01*
X132207138Y-129517167D01*
X132208642Y-129521796D01*
X132208643Y-129521800D01*
X132266015Y-129698371D01*
X132350301Y-129863793D01*
X132459428Y-130013993D01*
X132590707Y-130145272D01*
X132740907Y-130254399D01*
X132906329Y-130338685D01*
X133082900Y-130396057D01*
X133151664Y-130406948D01*
X133266266Y-130425100D01*
X133266271Y-130425100D01*
X133451934Y-130425100D01*
X133553801Y-130408965D01*
X133635300Y-130396057D01*
X133811871Y-130338685D01*
X133977293Y-130254399D01*
X134127493Y-130145272D01*
X134258772Y-130013993D01*
X134367899Y-129863793D01*
X134452185Y-129698371D01*
X134509557Y-129521800D01*
X134509558Y-129521796D01*
X134511062Y-129517167D01*
X134513247Y-129517877D01*
X134543303Y-129465514D01*
X134605324Y-129433340D01*
X134674894Y-129439805D01*
X134729924Y-129482856D01*
X134745792Y-129517604D01*
X134747138Y-129517167D01*
X134748642Y-129521796D01*
X134748643Y-129521800D01*
X134806015Y-129698371D01*
X134890301Y-129863793D01*
X134999428Y-130013993D01*
X135130707Y-130145272D01*
X135280907Y-130254399D01*
X135446329Y-130338685D01*
X135622900Y-130396057D01*
X135691664Y-130406948D01*
X135806266Y-130425100D01*
X135806271Y-130425100D01*
X135991934Y-130425100D01*
X136093801Y-130408965D01*
X136175300Y-130396057D01*
X136351871Y-130338685D01*
X136517293Y-130254399D01*
X136667493Y-130145272D01*
X136798772Y-130013993D01*
X136907899Y-129863793D01*
X136992185Y-129698371D01*
X137049557Y-129521800D01*
X137074093Y-129366888D01*
X137078600Y-129338434D01*
X137078600Y-129152765D01*
X137073188Y-129118599D01*
X137513082Y-129118599D01*
X137513083Y-129118600D01*
X138033137Y-129118600D01*
X138014100Y-129189648D01*
X138014100Y-129301552D01*
X138033137Y-129372600D01*
X137513083Y-129372600D01*
X137541953Y-129517740D01*
X137541956Y-129517750D01*
X137612282Y-129687534D01*
X137612289Y-129687547D01*
X137714391Y-129840352D01*
X137714394Y-129840356D01*
X137844343Y-129970305D01*
X137844347Y-129970308D01*
X137997152Y-130072410D01*
X137997165Y-130072417D01*
X138166952Y-130142744D01*
X138166961Y-130142747D01*
X138312100Y-130171616D01*
X138312100Y-129651562D01*
X138383148Y-129670600D01*
X138495052Y-129670600D01*
X138566100Y-129651562D01*
X138566100Y-130171615D01*
X138711238Y-130142747D01*
X138711247Y-130142744D01*
X138881034Y-130072417D01*
X138881047Y-130072410D01*
X139033852Y-129970308D01*
X139033856Y-129970305D01*
X139163805Y-129840356D01*
X139163808Y-129840352D01*
X139265910Y-129687547D01*
X139265917Y-129687534D01*
X139336243Y-129517750D01*
X139336246Y-129517740D01*
X139365117Y-129372600D01*
X138845063Y-129372600D01*
X138864100Y-129301552D01*
X138864100Y-129189648D01*
X138845063Y-129118600D01*
X139365117Y-129118600D01*
X139365117Y-129118599D01*
X140053082Y-129118599D01*
X140053083Y-129118600D01*
X140573137Y-129118600D01*
X140554100Y-129189648D01*
X140554100Y-129301552D01*
X140573137Y-129372600D01*
X140053083Y-129372600D01*
X140081953Y-129517740D01*
X140081956Y-129517750D01*
X140152282Y-129687534D01*
X140152289Y-129687547D01*
X140254391Y-129840352D01*
X140254394Y-129840356D01*
X140384343Y-129970305D01*
X140384347Y-129970308D01*
X140537152Y-130072410D01*
X140537165Y-130072417D01*
X140706952Y-130142744D01*
X140706961Y-130142747D01*
X140852100Y-130171616D01*
X140852100Y-129651562D01*
X140923148Y-129670600D01*
X141035052Y-129670600D01*
X141106100Y-129651562D01*
X141106100Y-130171615D01*
X141251238Y-130142747D01*
X141251247Y-130142744D01*
X141421034Y-130072417D01*
X141421047Y-130072410D01*
X141573852Y-129970308D01*
X141573856Y-129970305D01*
X141703805Y-129840356D01*
X141703808Y-129840352D01*
X141805910Y-129687547D01*
X141805917Y-129687534D01*
X141876243Y-129517750D01*
X141876246Y-129517740D01*
X141905117Y-129372600D01*
X141385063Y-129372600D01*
X141404100Y-129301552D01*
X141404100Y-129189648D01*
X141394217Y-129152765D01*
X142339600Y-129152765D01*
X142339600Y-129338434D01*
X142368642Y-129521796D01*
X142368643Y-129521800D01*
X142426015Y-129698371D01*
X142510301Y-129863793D01*
X142619428Y-130013993D01*
X142750707Y-130145272D01*
X142900907Y-130254399D01*
X143066329Y-130338685D01*
X143242900Y-130396057D01*
X143311664Y-130406948D01*
X143426266Y-130425100D01*
X143426271Y-130425100D01*
X143611934Y-130425100D01*
X143713801Y-130408965D01*
X143795300Y-130396057D01*
X143971871Y-130338685D01*
X144137293Y-130254399D01*
X144287493Y-130145272D01*
X144418772Y-130013993D01*
X144527899Y-129863793D01*
X144612185Y-129698371D01*
X144669557Y-129521800D01*
X144694093Y-129366888D01*
X144698600Y-129338434D01*
X144698600Y-129152765D01*
X147419600Y-129152765D01*
X147419600Y-129338434D01*
X147448642Y-129521796D01*
X147448643Y-129521800D01*
X147506015Y-129698371D01*
X147590301Y-129863793D01*
X147699428Y-130013993D01*
X147830707Y-130145272D01*
X147980907Y-130254399D01*
X148146329Y-130338685D01*
X148322900Y-130396057D01*
X148391664Y-130406948D01*
X148506266Y-130425100D01*
X148506271Y-130425100D01*
X148691934Y-130425100D01*
X148793801Y-130408965D01*
X148875300Y-130396057D01*
X149051871Y-130338685D01*
X149217293Y-130254399D01*
X149367493Y-130145272D01*
X149498772Y-130013993D01*
X149607899Y-129863793D01*
X149692185Y-129698371D01*
X149749557Y-129521800D01*
X149749558Y-129521796D01*
X149751062Y-129517167D01*
X149753247Y-129517877D01*
X149783303Y-129465514D01*
X149845324Y-129433340D01*
X149914894Y-129439805D01*
X149969924Y-129482856D01*
X149985792Y-129517604D01*
X149987138Y-129517167D01*
X149988642Y-129521796D01*
X149988643Y-129521800D01*
X150046015Y-129698371D01*
X150130301Y-129863793D01*
X150239428Y-130013993D01*
X150370707Y-130145272D01*
X150520907Y-130254399D01*
X150686329Y-130338685D01*
X150862900Y-130396057D01*
X150931664Y-130406948D01*
X151046266Y-130425100D01*
X151046271Y-130425100D01*
X151231934Y-130425100D01*
X151333801Y-130408965D01*
X151415300Y-130396057D01*
X151591871Y-130338685D01*
X151757293Y-130254399D01*
X151907493Y-130145272D01*
X152038772Y-130013993D01*
X152147899Y-129863793D01*
X152232185Y-129698371D01*
X152289557Y-129521800D01*
X152289558Y-129521796D01*
X152291062Y-129517167D01*
X152293247Y-129517877D01*
X152323303Y-129465514D01*
X152385324Y-129433340D01*
X152454894Y-129439805D01*
X152509924Y-129482856D01*
X152525792Y-129517604D01*
X152527138Y-129517167D01*
X152528642Y-129521796D01*
X152528643Y-129521800D01*
X152586015Y-129698371D01*
X152670301Y-129863793D01*
X152779428Y-130013993D01*
X152910707Y-130145272D01*
X153060907Y-130254399D01*
X153226329Y-130338685D01*
X153402900Y-130396057D01*
X153471664Y-130406948D01*
X153586266Y-130425100D01*
X153586271Y-130425100D01*
X153771934Y-130425100D01*
X153873801Y-130408965D01*
X153955300Y-130396057D01*
X154131871Y-130338685D01*
X154297293Y-130254399D01*
X154447493Y-130145272D01*
X154578772Y-130013993D01*
X154687899Y-129863793D01*
X154772185Y-129698371D01*
X154829557Y-129521800D01*
X154829558Y-129521796D01*
X154831062Y-129517167D01*
X154833247Y-129517877D01*
X154863303Y-129465514D01*
X154925324Y-129433340D01*
X154994894Y-129439805D01*
X155049924Y-129482856D01*
X155065792Y-129517604D01*
X155067138Y-129517167D01*
X155068642Y-129521796D01*
X155068643Y-129521800D01*
X155126015Y-129698371D01*
X155210301Y-129863793D01*
X155319428Y-130013993D01*
X155450707Y-130145272D01*
X155600907Y-130254399D01*
X155766329Y-130338685D01*
X155942900Y-130396057D01*
X156011664Y-130406948D01*
X156126266Y-130425100D01*
X156126271Y-130425100D01*
X156311934Y-130425100D01*
X156413801Y-130408965D01*
X156495300Y-130396057D01*
X156671871Y-130338685D01*
X156837293Y-130254399D01*
X156987493Y-130145272D01*
X157118772Y-130013993D01*
X157227899Y-129863793D01*
X157312185Y-129698371D01*
X157369557Y-129521800D01*
X157369558Y-129521796D01*
X157371062Y-129517167D01*
X157373247Y-129517877D01*
X157403303Y-129465514D01*
X157465324Y-129433340D01*
X157534894Y-129439805D01*
X157589924Y-129482856D01*
X157605792Y-129517604D01*
X157607138Y-129517167D01*
X157608642Y-129521796D01*
X157608643Y-129521800D01*
X157666015Y-129698371D01*
X157750301Y-129863793D01*
X157859428Y-130013993D01*
X157990707Y-130145272D01*
X158140907Y-130254399D01*
X158306329Y-130338685D01*
X158482900Y-130396057D01*
X158551664Y-130406948D01*
X158666266Y-130425100D01*
X158666271Y-130425100D01*
X158851934Y-130425100D01*
X158953801Y-130408965D01*
X159035300Y-130396057D01*
X159211871Y-130338685D01*
X159377293Y-130254399D01*
X159527493Y-130145272D01*
X159658772Y-130013993D01*
X159767899Y-129863793D01*
X159852185Y-129698371D01*
X159909557Y-129521800D01*
X159909558Y-129521796D01*
X159911062Y-129517167D01*
X159913247Y-129517877D01*
X159943303Y-129465514D01*
X160005324Y-129433340D01*
X160074894Y-129439805D01*
X160129924Y-129482856D01*
X160145792Y-129517604D01*
X160147138Y-129517167D01*
X160148642Y-129521796D01*
X160148643Y-129521800D01*
X160206015Y-129698371D01*
X160290301Y-129863793D01*
X160399428Y-130013993D01*
X160530707Y-130145272D01*
X160680907Y-130254399D01*
X160846329Y-130338685D01*
X161022900Y-130396057D01*
X161091664Y-130406948D01*
X161206266Y-130425100D01*
X161206271Y-130425100D01*
X161391934Y-130425100D01*
X161493801Y-130408965D01*
X161575300Y-130396057D01*
X161751871Y-130338685D01*
X161917293Y-130254399D01*
X162067493Y-130145272D01*
X162198772Y-130013993D01*
X162307899Y-129863793D01*
X162392185Y-129698371D01*
X162449557Y-129521800D01*
X162449558Y-129521796D01*
X162451062Y-129517167D01*
X162453247Y-129517877D01*
X162483303Y-129465514D01*
X162545324Y-129433340D01*
X162614894Y-129439805D01*
X162669924Y-129482856D01*
X162685792Y-129517604D01*
X162687138Y-129517167D01*
X162688642Y-129521796D01*
X162688643Y-129521800D01*
X162746015Y-129698371D01*
X162830301Y-129863793D01*
X162939428Y-130013993D01*
X163070707Y-130145272D01*
X163220907Y-130254399D01*
X163386329Y-130338685D01*
X163562900Y-130396057D01*
X163631664Y-130406948D01*
X163746266Y-130425100D01*
X163746271Y-130425100D01*
X163931934Y-130425100D01*
X164033801Y-130408965D01*
X164115300Y-130396057D01*
X164291871Y-130338685D01*
X164457293Y-130254399D01*
X164607493Y-130145272D01*
X164738772Y-130013993D01*
X164847899Y-129863793D01*
X164932185Y-129698371D01*
X164989557Y-129521800D01*
X164989558Y-129521796D01*
X164991062Y-129517167D01*
X164993247Y-129517877D01*
X165023303Y-129465514D01*
X165085324Y-129433340D01*
X165154894Y-129439805D01*
X165209924Y-129482856D01*
X165225792Y-129517604D01*
X165227138Y-129517167D01*
X165228642Y-129521796D01*
X165228643Y-129521800D01*
X165286015Y-129698371D01*
X165370301Y-129863793D01*
X165479428Y-130013993D01*
X165610707Y-130145272D01*
X165760907Y-130254399D01*
X165926329Y-130338685D01*
X166102900Y-130396057D01*
X166171664Y-130406948D01*
X166286266Y-130425100D01*
X166286271Y-130425100D01*
X166471934Y-130425100D01*
X166573801Y-130408965D01*
X166655300Y-130396057D01*
X166831871Y-130338685D01*
X166997293Y-130254399D01*
X167147493Y-130145272D01*
X167278772Y-130013993D01*
X167387899Y-129863793D01*
X167472185Y-129698371D01*
X167529557Y-129521800D01*
X167554093Y-129366888D01*
X167558600Y-129338434D01*
X167558600Y-129152765D01*
X170279600Y-129152765D01*
X170279600Y-129338434D01*
X170308642Y-129521796D01*
X170308643Y-129521800D01*
X170366015Y-129698371D01*
X170450301Y-129863793D01*
X170559428Y-130013993D01*
X170690707Y-130145272D01*
X170840907Y-130254399D01*
X171006329Y-130338685D01*
X171182900Y-130396057D01*
X171251664Y-130406948D01*
X171366266Y-130425100D01*
X171366271Y-130425100D01*
X171551934Y-130425100D01*
X171653801Y-130408965D01*
X171735300Y-130396057D01*
X171911871Y-130338685D01*
X172077293Y-130254399D01*
X172227493Y-130145272D01*
X172358772Y-130013993D01*
X172467899Y-129863793D01*
X172552185Y-129698371D01*
X172609557Y-129521800D01*
X172609558Y-129521796D01*
X172611062Y-129517167D01*
X172613247Y-129517877D01*
X172643303Y-129465514D01*
X172705324Y-129433340D01*
X172774894Y-129439805D01*
X172829924Y-129482856D01*
X172845792Y-129517604D01*
X172847138Y-129517167D01*
X172848642Y-129521796D01*
X172848643Y-129521800D01*
X172906015Y-129698371D01*
X172990301Y-129863793D01*
X173099428Y-130013993D01*
X173230707Y-130145272D01*
X173380907Y-130254399D01*
X173546329Y-130338685D01*
X173722900Y-130396057D01*
X173791664Y-130406948D01*
X173906266Y-130425100D01*
X173906271Y-130425100D01*
X174091934Y-130425100D01*
X174193801Y-130408965D01*
X174275300Y-130396057D01*
X174451871Y-130338685D01*
X174617293Y-130254399D01*
X174767493Y-130145272D01*
X174898772Y-130013993D01*
X175007899Y-129863793D01*
X175092185Y-129698371D01*
X175149557Y-129521800D01*
X175149558Y-129521796D01*
X175151062Y-129517167D01*
X175153247Y-129517877D01*
X175183303Y-129465514D01*
X175245324Y-129433340D01*
X175314894Y-129439805D01*
X175369924Y-129482856D01*
X175385792Y-129517604D01*
X175387138Y-129517167D01*
X175388642Y-129521796D01*
X175388643Y-129521800D01*
X175446015Y-129698371D01*
X175530301Y-129863793D01*
X175639428Y-130013993D01*
X175770707Y-130145272D01*
X175920907Y-130254399D01*
X176086329Y-130338685D01*
X176262900Y-130396057D01*
X176331664Y-130406948D01*
X176446266Y-130425100D01*
X176446271Y-130425100D01*
X176631934Y-130425100D01*
X176733801Y-130408965D01*
X176815300Y-130396057D01*
X176991871Y-130338685D01*
X177157293Y-130254399D01*
X177307493Y-130145272D01*
X177438772Y-130013993D01*
X177547899Y-129863793D01*
X177632185Y-129698371D01*
X177689557Y-129521800D01*
X177689558Y-129521796D01*
X177691062Y-129517167D01*
X177693247Y-129517877D01*
X177723303Y-129465514D01*
X177785324Y-129433340D01*
X177854894Y-129439805D01*
X177909924Y-129482856D01*
X177925792Y-129517604D01*
X177927138Y-129517167D01*
X177928642Y-129521796D01*
X177928643Y-129521800D01*
X177986015Y-129698371D01*
X178070301Y-129863793D01*
X178179428Y-130013993D01*
X178310707Y-130145272D01*
X178460907Y-130254399D01*
X178626329Y-130338685D01*
X178802900Y-130396057D01*
X178871664Y-130406948D01*
X178986266Y-130425100D01*
X178986271Y-130425100D01*
X179171934Y-130425100D01*
X179273801Y-130408965D01*
X179355300Y-130396057D01*
X179531871Y-130338685D01*
X179697293Y-130254399D01*
X179847493Y-130145272D01*
X179978772Y-130013993D01*
X180087899Y-129863793D01*
X180172185Y-129698371D01*
X180229557Y-129521800D01*
X180229558Y-129521796D01*
X180231062Y-129517167D01*
X180233247Y-129517877D01*
X180263303Y-129465514D01*
X180325324Y-129433340D01*
X180394894Y-129439805D01*
X180449924Y-129482856D01*
X180465792Y-129517604D01*
X180467138Y-129517167D01*
X180468642Y-129521796D01*
X180468643Y-129521800D01*
X180526015Y-129698371D01*
X180610301Y-129863793D01*
X180719428Y-130013993D01*
X180850707Y-130145272D01*
X181000907Y-130254399D01*
X181166329Y-130338685D01*
X181342900Y-130396057D01*
X181411664Y-130406948D01*
X181526266Y-130425100D01*
X181526271Y-130425100D01*
X181711934Y-130425100D01*
X181813801Y-130408965D01*
X181895300Y-130396057D01*
X182071871Y-130338685D01*
X182237293Y-130254399D01*
X182387493Y-130145272D01*
X182518772Y-130013993D01*
X182627899Y-129863793D01*
X182712185Y-129698371D01*
X182769557Y-129521800D01*
X182769558Y-129521796D01*
X182771062Y-129517167D01*
X182773247Y-129517877D01*
X182803303Y-129465514D01*
X182865324Y-129433340D01*
X182934894Y-129439805D01*
X182989924Y-129482856D01*
X183005792Y-129517604D01*
X183007138Y-129517167D01*
X183008642Y-129521796D01*
X183008643Y-129521800D01*
X183066015Y-129698371D01*
X183150301Y-129863793D01*
X183259428Y-130013993D01*
X183390707Y-130145272D01*
X183540907Y-130254399D01*
X183706329Y-130338685D01*
X183882900Y-130396057D01*
X183951664Y-130406948D01*
X184066266Y-130425100D01*
X184066271Y-130425100D01*
X184251934Y-130425100D01*
X184353801Y-130408965D01*
X184435300Y-130396057D01*
X184611871Y-130338685D01*
X184777293Y-130254399D01*
X184927493Y-130145272D01*
X185058772Y-130013993D01*
X185167899Y-129863793D01*
X185252185Y-129698371D01*
X185309557Y-129521800D01*
X185309558Y-129521796D01*
X185311062Y-129517167D01*
X185313247Y-129517877D01*
X185343303Y-129465514D01*
X185405324Y-129433340D01*
X185474894Y-129439805D01*
X185529924Y-129482856D01*
X185545792Y-129517604D01*
X185547138Y-129517167D01*
X185548642Y-129521796D01*
X185548643Y-129521800D01*
X185606015Y-129698371D01*
X185690301Y-129863793D01*
X185799428Y-130013993D01*
X185930707Y-130145272D01*
X186080907Y-130254399D01*
X186246329Y-130338685D01*
X186422900Y-130396057D01*
X186491664Y-130406948D01*
X186606266Y-130425100D01*
X186606271Y-130425100D01*
X186791934Y-130425100D01*
X186893801Y-130408965D01*
X186975300Y-130396057D01*
X187151871Y-130338685D01*
X187317293Y-130254399D01*
X187467493Y-130145272D01*
X187598772Y-130013993D01*
X187707899Y-129863793D01*
X187792185Y-129698371D01*
X187849557Y-129521800D01*
X187849558Y-129521796D01*
X187851062Y-129517167D01*
X187853247Y-129517877D01*
X187883303Y-129465514D01*
X187945324Y-129433340D01*
X188014894Y-129439805D01*
X188069924Y-129482856D01*
X188085792Y-129517604D01*
X188087138Y-129517167D01*
X188088642Y-129521796D01*
X188088643Y-129521800D01*
X188146015Y-129698371D01*
X188230301Y-129863793D01*
X188339428Y-130013993D01*
X188470707Y-130145272D01*
X188620907Y-130254399D01*
X188786329Y-130338685D01*
X188962900Y-130396057D01*
X189031664Y-130406948D01*
X189146266Y-130425100D01*
X189146271Y-130425100D01*
X189331934Y-130425100D01*
X189433801Y-130408965D01*
X189515300Y-130396057D01*
X189691871Y-130338685D01*
X189857293Y-130254399D01*
X190007493Y-130145272D01*
X190138772Y-130013993D01*
X190247899Y-129863793D01*
X190332185Y-129698371D01*
X190389557Y-129521800D01*
X190414093Y-129366888D01*
X190418600Y-129338434D01*
X190418600Y-129152770D01*
X190416522Y-129139650D01*
X190416522Y-129139647D01*
X190414093Y-129124311D01*
X192468600Y-129124311D01*
X192468600Y-129366888D01*
X192497404Y-129585684D01*
X192500262Y-129607389D01*
X192521737Y-129687534D01*
X192563047Y-129841704D01*
X192641905Y-130032083D01*
X192655876Y-130065812D01*
X192777164Y-130275889D01*
X192777166Y-130275892D01*
X192777167Y-130275893D01*
X192924833Y-130468336D01*
X192924839Y-130468343D01*
X193096356Y-130639860D01*
X193096362Y-130639865D01*
X193288811Y-130787536D01*
X193498888Y-130908824D01*
X193723000Y-131001654D01*
X193957311Y-131064438D01*
X194137686Y-131088184D01*
X194197811Y-131096100D01*
X194197812Y-131096100D01*
X194440389Y-131096100D01*
X194488488Y-131089767D01*
X194680889Y-131064438D01*
X194915200Y-131001654D01*
X195139312Y-130908824D01*
X195349389Y-130787536D01*
X195541838Y-130639865D01*
X195713365Y-130468338D01*
X195861036Y-130275889D01*
X195982324Y-130065812D01*
X196075154Y-129841700D01*
X196137938Y-129607389D01*
X196169600Y-129366888D01*
X196169600Y-129124312D01*
X196137938Y-128883811D01*
X196075154Y-128649500D01*
X195982324Y-128425388D01*
X195861036Y-128215311D01*
X195790053Y-128122804D01*
X195713366Y-128022863D01*
X195713360Y-128022856D01*
X195541843Y-127851339D01*
X195541836Y-127851333D01*
X195349393Y-127703667D01*
X195349392Y-127703666D01*
X195349389Y-127703664D01*
X195139312Y-127582376D01*
X195139305Y-127582373D01*
X194915204Y-127489547D01*
X194680885Y-127426761D01*
X194440389Y-127395100D01*
X194440388Y-127395100D01*
X194197812Y-127395100D01*
X194197811Y-127395100D01*
X193957314Y-127426761D01*
X193722995Y-127489547D01*
X193498894Y-127582373D01*
X193498885Y-127582377D01*
X193288806Y-127703667D01*
X193096363Y-127851333D01*
X193096356Y-127851339D01*
X192924839Y-128022856D01*
X192924833Y-128022863D01*
X192777167Y-128215306D01*
X192655877Y-128425385D01*
X192655873Y-128425394D01*
X192563047Y-128649495D01*
X192500261Y-128883814D01*
X192468600Y-129124311D01*
X190414093Y-129124311D01*
X190401157Y-129042644D01*
X190389557Y-128969400D01*
X190332185Y-128792829D01*
X190247899Y-128627407D01*
X190138772Y-128477207D01*
X190007493Y-128345928D01*
X189857293Y-128236801D01*
X189691871Y-128152515D01*
X189515300Y-128095143D01*
X189515298Y-128095142D01*
X189515296Y-128095142D01*
X189331934Y-128066100D01*
X189331929Y-128066100D01*
X189146271Y-128066100D01*
X189146266Y-128066100D01*
X188962903Y-128095142D01*
X188786326Y-128152516D01*
X188620906Y-128236801D01*
X188535211Y-128299062D01*
X188470707Y-128345928D01*
X188470705Y-128345930D01*
X188470704Y-128345930D01*
X188339430Y-128477204D01*
X188339430Y-128477205D01*
X188339428Y-128477207D01*
X188292562Y-128541711D01*
X188230301Y-128627406D01*
X188146016Y-128792826D01*
X188146015Y-128792828D01*
X188146015Y-128792829D01*
X188092953Y-128956137D01*
X188087138Y-128974033D01*
X188084964Y-128973326D01*
X188054852Y-129025729D01*
X187992814Y-129057871D01*
X187923248Y-129051371D01*
X187868239Y-129008292D01*
X187852395Y-128973599D01*
X187851062Y-128974033D01*
X187849557Y-128969400D01*
X187792185Y-128792829D01*
X187707899Y-128627407D01*
X187598772Y-128477207D01*
X187467493Y-128345928D01*
X187317293Y-128236801D01*
X187151871Y-128152515D01*
X186975300Y-128095143D01*
X186975298Y-128095142D01*
X186975296Y-128095142D01*
X186791934Y-128066100D01*
X186791929Y-128066100D01*
X186606271Y-128066100D01*
X186606266Y-128066100D01*
X186422903Y-128095142D01*
X186246326Y-128152516D01*
X186080906Y-128236801D01*
X185995211Y-128299062D01*
X185930707Y-128345928D01*
X185930705Y-128345930D01*
X185930704Y-128345930D01*
X185799430Y-128477204D01*
X185799430Y-128477205D01*
X185799428Y-128477207D01*
X185752562Y-128541711D01*
X185690301Y-128627406D01*
X185606016Y-128792826D01*
X185606015Y-128792828D01*
X185606015Y-128792829D01*
X185552953Y-128956137D01*
X185547138Y-128974033D01*
X185544964Y-128973326D01*
X185514852Y-129025729D01*
X185452814Y-129057871D01*
X185383248Y-129051371D01*
X185328239Y-129008292D01*
X185312395Y-128973599D01*
X185311062Y-128974033D01*
X185309557Y-128969400D01*
X185252185Y-128792829D01*
X185167899Y-128627407D01*
X185058772Y-128477207D01*
X184927493Y-128345928D01*
X184777293Y-128236801D01*
X184611871Y-128152515D01*
X184435300Y-128095143D01*
X184435298Y-128095142D01*
X184435296Y-128095142D01*
X184251934Y-128066100D01*
X184251929Y-128066100D01*
X184066271Y-128066100D01*
X184066266Y-128066100D01*
X183882903Y-128095142D01*
X183706326Y-128152516D01*
X183540906Y-128236801D01*
X183455211Y-128299062D01*
X183390707Y-128345928D01*
X183390705Y-128345930D01*
X183390704Y-128345930D01*
X183259430Y-128477204D01*
X183259430Y-128477205D01*
X183259428Y-128477207D01*
X183212562Y-128541711D01*
X183150301Y-128627406D01*
X183066016Y-128792826D01*
X183066015Y-128792828D01*
X183066015Y-128792829D01*
X183012953Y-128956137D01*
X183007138Y-128974033D01*
X183004964Y-128973326D01*
X182974852Y-129025729D01*
X182912814Y-129057871D01*
X182843248Y-129051371D01*
X182788239Y-129008292D01*
X182772395Y-128973599D01*
X182771062Y-128974033D01*
X182769557Y-128969400D01*
X182712185Y-128792829D01*
X182627899Y-128627407D01*
X182518772Y-128477207D01*
X182387493Y-128345928D01*
X182237293Y-128236801D01*
X182071871Y-128152515D01*
X181895300Y-128095143D01*
X181895298Y-128095142D01*
X181895296Y-128095142D01*
X181711934Y-128066100D01*
X181711929Y-128066100D01*
X181526271Y-128066100D01*
X181526266Y-128066100D01*
X181342903Y-128095142D01*
X181166326Y-128152516D01*
X181000906Y-128236801D01*
X180915211Y-128299062D01*
X180850707Y-128345928D01*
X180850705Y-128345930D01*
X180850704Y-128345930D01*
X180719430Y-128477204D01*
X180719430Y-128477205D01*
X180719428Y-128477207D01*
X180672562Y-128541711D01*
X180610301Y-128627406D01*
X180526016Y-128792826D01*
X180526015Y-128792828D01*
X180526015Y-128792829D01*
X180472953Y-128956137D01*
X180467138Y-128974033D01*
X180464964Y-128973326D01*
X180434852Y-129025729D01*
X180372814Y-129057871D01*
X180303248Y-129051371D01*
X180248239Y-129008292D01*
X180232395Y-128973599D01*
X180231062Y-128974033D01*
X180229557Y-128969400D01*
X180172185Y-128792829D01*
X180087899Y-128627407D01*
X179978772Y-128477207D01*
X179847493Y-128345928D01*
X179697293Y-128236801D01*
X179531871Y-128152515D01*
X179355300Y-128095143D01*
X179355298Y-128095142D01*
X179355296Y-128095142D01*
X179171934Y-128066100D01*
X179171929Y-128066100D01*
X178986271Y-128066100D01*
X178986266Y-128066100D01*
X178802903Y-128095142D01*
X178626326Y-128152516D01*
X178460906Y-128236801D01*
X178375211Y-128299062D01*
X178310707Y-128345928D01*
X178310705Y-128345930D01*
X178310704Y-128345930D01*
X178179430Y-128477204D01*
X178179430Y-128477205D01*
X178179428Y-128477207D01*
X178132562Y-128541711D01*
X178070301Y-128627406D01*
X177986016Y-128792826D01*
X177986015Y-128792828D01*
X177986015Y-128792829D01*
X177932953Y-128956137D01*
X177927138Y-128974033D01*
X177924964Y-128973326D01*
X177894852Y-129025729D01*
X177832814Y-129057871D01*
X177763248Y-129051371D01*
X177708239Y-129008292D01*
X177692395Y-128973599D01*
X177691062Y-128974033D01*
X177689557Y-128969400D01*
X177632185Y-128792829D01*
X177547899Y-128627407D01*
X177438772Y-128477207D01*
X177307493Y-128345928D01*
X177157293Y-128236801D01*
X176991871Y-128152515D01*
X176815300Y-128095143D01*
X176815298Y-128095142D01*
X176815296Y-128095142D01*
X176631934Y-128066100D01*
X176631929Y-128066100D01*
X176446271Y-128066100D01*
X176446266Y-128066100D01*
X176262903Y-128095142D01*
X176086326Y-128152516D01*
X175920906Y-128236801D01*
X175835211Y-128299062D01*
X175770707Y-128345928D01*
X175770705Y-128345930D01*
X175770704Y-128345930D01*
X175639430Y-128477204D01*
X175639430Y-128477205D01*
X175639428Y-128477207D01*
X175592562Y-128541711D01*
X175530301Y-128627406D01*
X175446016Y-128792826D01*
X175446015Y-128792828D01*
X175446015Y-128792829D01*
X175392953Y-128956137D01*
X175387138Y-128974033D01*
X175384964Y-128973326D01*
X175354852Y-129025729D01*
X175292814Y-129057871D01*
X175223248Y-129051371D01*
X175168239Y-129008292D01*
X175152395Y-128973599D01*
X175151062Y-128974033D01*
X175149557Y-128969400D01*
X175092185Y-128792829D01*
X175007899Y-128627407D01*
X174898772Y-128477207D01*
X174767493Y-128345928D01*
X174617293Y-128236801D01*
X174451871Y-128152515D01*
X174275300Y-128095143D01*
X174275298Y-128095142D01*
X174275296Y-128095142D01*
X174091934Y-128066100D01*
X174091929Y-128066100D01*
X173906271Y-128066100D01*
X173906266Y-128066100D01*
X173722903Y-128095142D01*
X173546326Y-128152516D01*
X173380906Y-128236801D01*
X173295211Y-128299062D01*
X173230707Y-128345928D01*
X173230705Y-128345930D01*
X173230704Y-128345930D01*
X173099430Y-128477204D01*
X173099430Y-128477205D01*
X173099428Y-128477207D01*
X173052562Y-128541711D01*
X172990301Y-128627406D01*
X172906016Y-128792826D01*
X172906015Y-128792828D01*
X172906015Y-128792829D01*
X172852953Y-128956137D01*
X172847138Y-128974033D01*
X172844964Y-128973326D01*
X172814852Y-129025729D01*
X172752814Y-129057871D01*
X172683248Y-129051371D01*
X172628239Y-129008292D01*
X172612395Y-128973599D01*
X172611062Y-128974033D01*
X172609557Y-128969400D01*
X172552185Y-128792829D01*
X172467899Y-128627407D01*
X172358772Y-128477207D01*
X172227493Y-128345928D01*
X172077293Y-128236801D01*
X171911871Y-128152515D01*
X171735300Y-128095143D01*
X171735298Y-128095142D01*
X171735296Y-128095142D01*
X171551934Y-128066100D01*
X171551929Y-128066100D01*
X171366271Y-128066100D01*
X171366266Y-128066100D01*
X171182903Y-128095142D01*
X171006326Y-128152516D01*
X170840906Y-128236801D01*
X170755211Y-128299062D01*
X170690707Y-128345928D01*
X170690705Y-128345930D01*
X170690704Y-128345930D01*
X170559430Y-128477204D01*
X170559430Y-128477205D01*
X170559428Y-128477207D01*
X170512562Y-128541711D01*
X170450301Y-128627406D01*
X170366016Y-128792826D01*
X170308642Y-128969403D01*
X170279600Y-129152765D01*
X167558600Y-129152765D01*
X167531971Y-128984644D01*
X167529557Y-128969400D01*
X167472185Y-128792829D01*
X167387899Y-128627407D01*
X167278772Y-128477207D01*
X167147493Y-128345928D01*
X166997293Y-128236801D01*
X166831871Y-128152515D01*
X166655300Y-128095143D01*
X166655298Y-128095142D01*
X166655296Y-128095142D01*
X166471934Y-128066100D01*
X166471929Y-128066100D01*
X166286271Y-128066100D01*
X166286266Y-128066100D01*
X166102903Y-128095142D01*
X165926326Y-128152516D01*
X165760906Y-128236801D01*
X165675211Y-128299062D01*
X165610707Y-128345928D01*
X165610705Y-128345930D01*
X165610704Y-128345930D01*
X165479430Y-128477204D01*
X165479430Y-128477205D01*
X165479428Y-128477207D01*
X165432562Y-128541711D01*
X165370301Y-128627406D01*
X165286016Y-128792826D01*
X165286015Y-128792828D01*
X165286015Y-128792829D01*
X165232953Y-128956137D01*
X165227138Y-128974033D01*
X165224964Y-128973326D01*
X165194852Y-129025729D01*
X165132814Y-129057871D01*
X165063248Y-129051371D01*
X165008239Y-129008292D01*
X164992395Y-128973599D01*
X164991062Y-128974033D01*
X164989557Y-128969400D01*
X164932185Y-128792829D01*
X164847899Y-128627407D01*
X164738772Y-128477207D01*
X164607493Y-128345928D01*
X164457293Y-128236801D01*
X164291871Y-128152515D01*
X164115300Y-128095143D01*
X164115298Y-128095142D01*
X164115296Y-128095142D01*
X163931934Y-128066100D01*
X163931929Y-128066100D01*
X163746271Y-128066100D01*
X163746266Y-128066100D01*
X163562903Y-128095142D01*
X163386326Y-128152516D01*
X163220906Y-128236801D01*
X163135211Y-128299062D01*
X163070707Y-128345928D01*
X163070705Y-128345930D01*
X163070704Y-128345930D01*
X162939430Y-128477204D01*
X162939430Y-128477205D01*
X162939428Y-128477207D01*
X162892562Y-128541711D01*
X162830301Y-128627406D01*
X162746016Y-128792826D01*
X162746015Y-128792828D01*
X162746015Y-128792829D01*
X162692953Y-128956137D01*
X162687138Y-128974033D01*
X162684964Y-128973326D01*
X162654852Y-129025729D01*
X162592814Y-129057871D01*
X162523248Y-129051371D01*
X162468239Y-129008292D01*
X162452395Y-128973599D01*
X162451062Y-128974033D01*
X162449557Y-128969400D01*
X162392185Y-128792829D01*
X162307899Y-128627407D01*
X162198772Y-128477207D01*
X162067493Y-128345928D01*
X161917293Y-128236801D01*
X161751871Y-128152515D01*
X161575300Y-128095143D01*
X161575298Y-128095142D01*
X161575296Y-128095142D01*
X161391934Y-128066100D01*
X161391929Y-128066100D01*
X161206271Y-128066100D01*
X161206266Y-128066100D01*
X161022903Y-128095142D01*
X160846326Y-128152516D01*
X160680906Y-128236801D01*
X160595211Y-128299062D01*
X160530707Y-128345928D01*
X160530705Y-128345930D01*
X160530704Y-128345930D01*
X160399430Y-128477204D01*
X160399430Y-128477205D01*
X160399428Y-128477207D01*
X160352562Y-128541711D01*
X160290301Y-128627406D01*
X160206016Y-128792826D01*
X160206015Y-128792828D01*
X160206015Y-128792829D01*
X160152953Y-128956137D01*
X160147138Y-128974033D01*
X160144964Y-128973326D01*
X160114852Y-129025729D01*
X160052814Y-129057871D01*
X159983248Y-129051371D01*
X159928239Y-129008292D01*
X159912395Y-128973599D01*
X159911062Y-128974033D01*
X159909557Y-128969400D01*
X159852185Y-128792829D01*
X159767899Y-128627407D01*
X159658772Y-128477207D01*
X159527493Y-128345928D01*
X159377293Y-128236801D01*
X159211871Y-128152515D01*
X159035300Y-128095143D01*
X159035298Y-128095142D01*
X159035296Y-128095142D01*
X158851934Y-128066100D01*
X158851929Y-128066100D01*
X158666271Y-128066100D01*
X158666266Y-128066100D01*
X158482903Y-128095142D01*
X158306326Y-128152516D01*
X158140906Y-128236801D01*
X158055211Y-128299062D01*
X157990707Y-128345928D01*
X157990705Y-128345930D01*
X157990704Y-128345930D01*
X157859430Y-128477204D01*
X157859430Y-128477205D01*
X157859428Y-128477207D01*
X157812562Y-128541711D01*
X157750301Y-128627406D01*
X157666016Y-128792826D01*
X157666015Y-128792828D01*
X157666015Y-128792829D01*
X157612953Y-128956137D01*
X157607138Y-128974033D01*
X157604964Y-128973326D01*
X157574852Y-129025729D01*
X157512814Y-129057871D01*
X157443248Y-129051371D01*
X157388239Y-129008292D01*
X157372395Y-128973599D01*
X157371062Y-128974033D01*
X157369557Y-128969400D01*
X157312185Y-128792829D01*
X157227899Y-128627407D01*
X157118772Y-128477207D01*
X156987493Y-128345928D01*
X156837293Y-128236801D01*
X156671871Y-128152515D01*
X156495300Y-128095143D01*
X156495298Y-128095142D01*
X156495296Y-128095142D01*
X156311934Y-128066100D01*
X156311929Y-128066100D01*
X156126271Y-128066100D01*
X156126266Y-128066100D01*
X155942903Y-128095142D01*
X155766326Y-128152516D01*
X155600906Y-128236801D01*
X155515211Y-128299062D01*
X155450707Y-128345928D01*
X155450705Y-128345930D01*
X155450704Y-128345930D01*
X155319430Y-128477204D01*
X155319430Y-128477205D01*
X155319428Y-128477207D01*
X155272562Y-128541711D01*
X155210301Y-128627406D01*
X155126016Y-128792826D01*
X155126015Y-128792828D01*
X155126015Y-128792829D01*
X155072953Y-128956137D01*
X155067138Y-128974033D01*
X155064964Y-128973326D01*
X155034852Y-129025729D01*
X154972814Y-129057871D01*
X154903248Y-129051371D01*
X154848239Y-129008292D01*
X154832395Y-128973599D01*
X154831062Y-128974033D01*
X154829557Y-128969400D01*
X154772185Y-128792829D01*
X154687899Y-128627407D01*
X154578772Y-128477207D01*
X154447493Y-128345928D01*
X154297293Y-128236801D01*
X154131871Y-128152515D01*
X153955300Y-128095143D01*
X153955298Y-128095142D01*
X153955296Y-128095142D01*
X153771934Y-128066100D01*
X153771929Y-128066100D01*
X153586271Y-128066100D01*
X153586266Y-128066100D01*
X153402903Y-128095142D01*
X153226326Y-128152516D01*
X153060906Y-128236801D01*
X152975211Y-128299062D01*
X152910707Y-128345928D01*
X152910705Y-128345930D01*
X152910704Y-128345930D01*
X152779430Y-128477204D01*
X152779430Y-128477205D01*
X152779428Y-128477207D01*
X152732562Y-128541711D01*
X152670301Y-128627406D01*
X152586016Y-128792826D01*
X152586015Y-128792828D01*
X152586015Y-128792829D01*
X152532953Y-128956137D01*
X152527138Y-128974033D01*
X152524964Y-128973326D01*
X152494852Y-129025729D01*
X152432814Y-129057871D01*
X152363248Y-129051371D01*
X152308239Y-129008292D01*
X152292395Y-128973599D01*
X152291062Y-128974033D01*
X152289557Y-128969400D01*
X152232185Y-128792829D01*
X152147899Y-128627407D01*
X152038772Y-128477207D01*
X151907493Y-128345928D01*
X151757293Y-128236801D01*
X151591871Y-128152515D01*
X151415300Y-128095143D01*
X151415298Y-128095142D01*
X151415296Y-128095142D01*
X151231934Y-128066100D01*
X151231929Y-128066100D01*
X151046271Y-128066100D01*
X151046266Y-128066100D01*
X150862903Y-128095142D01*
X150686326Y-128152516D01*
X150520906Y-128236801D01*
X150435211Y-128299062D01*
X150370707Y-128345928D01*
X150370705Y-128345930D01*
X150370704Y-128345930D01*
X150239430Y-128477204D01*
X150239430Y-128477205D01*
X150239428Y-128477207D01*
X150192562Y-128541711D01*
X150130301Y-128627406D01*
X150046016Y-128792826D01*
X150046015Y-128792828D01*
X150046015Y-128792829D01*
X149992953Y-128956137D01*
X149987138Y-128974033D01*
X149984964Y-128973326D01*
X149954852Y-129025729D01*
X149892814Y-129057871D01*
X149823248Y-129051371D01*
X149768239Y-129008292D01*
X149752395Y-128973599D01*
X149751062Y-128974033D01*
X149749557Y-128969400D01*
X149692185Y-128792829D01*
X149607899Y-128627407D01*
X149498772Y-128477207D01*
X149367493Y-128345928D01*
X149217293Y-128236801D01*
X149051871Y-128152515D01*
X148875300Y-128095143D01*
X148875298Y-128095142D01*
X148875296Y-128095142D01*
X148691934Y-128066100D01*
X148691929Y-128066100D01*
X148506271Y-128066100D01*
X148506266Y-128066100D01*
X148322903Y-128095142D01*
X148146326Y-128152516D01*
X147980906Y-128236801D01*
X147895211Y-128299062D01*
X147830707Y-128345928D01*
X147830705Y-128345930D01*
X147830704Y-128345930D01*
X147699430Y-128477204D01*
X147699430Y-128477205D01*
X147699428Y-128477207D01*
X147652562Y-128541711D01*
X147590301Y-128627406D01*
X147506016Y-128792826D01*
X147448642Y-128969403D01*
X147419600Y-129152765D01*
X144698600Y-129152765D01*
X144671971Y-128984644D01*
X144669557Y-128969400D01*
X144612185Y-128792829D01*
X144527899Y-128627407D01*
X144418772Y-128477207D01*
X144287493Y-128345928D01*
X144137293Y-128236801D01*
X143971871Y-128152515D01*
X143795300Y-128095143D01*
X143795298Y-128095142D01*
X143795296Y-128095142D01*
X143611934Y-128066100D01*
X143611929Y-128066100D01*
X143426271Y-128066100D01*
X143426266Y-128066100D01*
X143242903Y-128095142D01*
X143066326Y-128152516D01*
X142900906Y-128236801D01*
X142815211Y-128299062D01*
X142750707Y-128345928D01*
X142750705Y-128345930D01*
X142750704Y-128345930D01*
X142619430Y-128477204D01*
X142619430Y-128477205D01*
X142619428Y-128477207D01*
X142572562Y-128541711D01*
X142510301Y-128627406D01*
X142426016Y-128792826D01*
X142368642Y-128969403D01*
X142339600Y-129152765D01*
X141394217Y-129152765D01*
X141385063Y-129118600D01*
X141905117Y-129118600D01*
X141905117Y-129118599D01*
X141876246Y-128973461D01*
X141876243Y-128973449D01*
X141805917Y-128803665D01*
X141805910Y-128803652D01*
X141703808Y-128650847D01*
X141703805Y-128650843D01*
X141573856Y-128520894D01*
X141573852Y-128520891D01*
X141421047Y-128418789D01*
X141421034Y-128418782D01*
X141251250Y-128348456D01*
X141251240Y-128348453D01*
X141106100Y-128319582D01*
X141106100Y-128839637D01*
X141035052Y-128820600D01*
X140923148Y-128820600D01*
X140852100Y-128839637D01*
X140852100Y-128319583D01*
X140852099Y-128319582D01*
X140706959Y-128348453D01*
X140706949Y-128348456D01*
X140537165Y-128418782D01*
X140537152Y-128418789D01*
X140384347Y-128520891D01*
X140384343Y-128520894D01*
X140254394Y-128650843D01*
X140254391Y-128650847D01*
X140152289Y-128803652D01*
X140152282Y-128803665D01*
X140081956Y-128973449D01*
X140081953Y-128973459D01*
X140053082Y-129118599D01*
X139365117Y-129118599D01*
X139336246Y-128973459D01*
X139336243Y-128973449D01*
X139265917Y-128803665D01*
X139265910Y-128803652D01*
X139163808Y-128650847D01*
X139163805Y-128650843D01*
X139033856Y-128520894D01*
X139033852Y-128520891D01*
X138881047Y-128418789D01*
X138881034Y-128418782D01*
X138711250Y-128348456D01*
X138711240Y-128348453D01*
X138566100Y-128319582D01*
X138566100Y-128839637D01*
X138495052Y-128820600D01*
X138383148Y-128820600D01*
X138312100Y-128839637D01*
X138312100Y-128319583D01*
X138312099Y-128319582D01*
X138166959Y-128348453D01*
X138166949Y-128348456D01*
X137997165Y-128418782D01*
X137997152Y-128418789D01*
X137844347Y-128520891D01*
X137844343Y-128520894D01*
X137714394Y-128650843D01*
X137714391Y-128650847D01*
X137612289Y-128803652D01*
X137612282Y-128803665D01*
X137541956Y-128973449D01*
X137541953Y-128973459D01*
X137513082Y-129118599D01*
X137073188Y-129118599D01*
X137062540Y-129051371D01*
X137049557Y-128969400D01*
X137015400Y-128864279D01*
X137013406Y-128794440D01*
X137045649Y-128738284D01*
X137907813Y-127876121D01*
X137907816Y-127876120D01*
X138019620Y-127764316D01*
X138069739Y-127677504D01*
X138098677Y-127627385D01*
X138139600Y-127474657D01*
X138139600Y-127316543D01*
X138139600Y-124038599D01*
X190853082Y-124038599D01*
X190853083Y-124038600D01*
X191373137Y-124038600D01*
X191354100Y-124109648D01*
X191354100Y-124221552D01*
X191373137Y-124292600D01*
X190853083Y-124292600D01*
X190881953Y-124437740D01*
X190881956Y-124437750D01*
X190952282Y-124607534D01*
X190952289Y-124607547D01*
X191054391Y-124760352D01*
X191054394Y-124760356D01*
X191184343Y-124890305D01*
X191184347Y-124890308D01*
X191337152Y-124992410D01*
X191337165Y-124992417D01*
X191506952Y-125062744D01*
X191506961Y-125062747D01*
X191652100Y-125091616D01*
X191652100Y-124571562D01*
X191723148Y-124590600D01*
X191835052Y-124590600D01*
X191906100Y-124571562D01*
X191906100Y-125091615D01*
X192051238Y-125062747D01*
X192051247Y-125062744D01*
X192221034Y-124992417D01*
X192221047Y-124992410D01*
X192373852Y-124890308D01*
X192373856Y-124890305D01*
X192503805Y-124760356D01*
X192503808Y-124760352D01*
X192605910Y-124607547D01*
X192605917Y-124607534D01*
X192676243Y-124437750D01*
X192676246Y-124437740D01*
X192705117Y-124292600D01*
X192185063Y-124292600D01*
X192204100Y-124221552D01*
X192204100Y-124109648D01*
X192185063Y-124038600D01*
X192705117Y-124038600D01*
X192705117Y-124038599D01*
X193393082Y-124038599D01*
X193393083Y-124038600D01*
X193913137Y-124038600D01*
X193894100Y-124109648D01*
X193894100Y-124221552D01*
X193913137Y-124292600D01*
X193393083Y-124292600D01*
X193421953Y-124437740D01*
X193421956Y-124437750D01*
X193492282Y-124607534D01*
X193492289Y-124607547D01*
X193594391Y-124760352D01*
X193594394Y-124760356D01*
X193724343Y-124890305D01*
X193724347Y-124890308D01*
X193877152Y-124992410D01*
X193877165Y-124992417D01*
X194046952Y-125062744D01*
X194046961Y-125062747D01*
X194192100Y-125091616D01*
X194192100Y-124571562D01*
X194263148Y-124590600D01*
X194375052Y-124590600D01*
X194446100Y-124571562D01*
X194446100Y-125091615D01*
X194591238Y-125062747D01*
X194591247Y-125062744D01*
X194761034Y-124992417D01*
X194761047Y-124992410D01*
X194913852Y-124890308D01*
X194913856Y-124890305D01*
X195043805Y-124760356D01*
X195043808Y-124760352D01*
X195145910Y-124607547D01*
X195145917Y-124607534D01*
X195216243Y-124437750D01*
X195216246Y-124437740D01*
X195245117Y-124292600D01*
X194725063Y-124292600D01*
X194744100Y-124221552D01*
X194744100Y-124109648D01*
X194725063Y-124038600D01*
X195245117Y-124038600D01*
X195245117Y-124038599D01*
X195216246Y-123893459D01*
X195216243Y-123893449D01*
X195145917Y-123723665D01*
X195145910Y-123723652D01*
X195043808Y-123570847D01*
X195043805Y-123570843D01*
X194913856Y-123440894D01*
X194913852Y-123440891D01*
X194761047Y-123338789D01*
X194761034Y-123338782D01*
X194591250Y-123268456D01*
X194591240Y-123268453D01*
X194446100Y-123239582D01*
X194446100Y-123759637D01*
X194375052Y-123740600D01*
X194263148Y-123740600D01*
X194192100Y-123759637D01*
X194192100Y-123239583D01*
X194192099Y-123239582D01*
X194046959Y-123268453D01*
X194046949Y-123268456D01*
X193877165Y-123338782D01*
X193877152Y-123338789D01*
X193724347Y-123440891D01*
X193724343Y-123440894D01*
X193594394Y-123570843D01*
X193594391Y-123570847D01*
X193492289Y-123723652D01*
X193492282Y-123723665D01*
X193421956Y-123893449D01*
X193421953Y-123893459D01*
X193393082Y-124038599D01*
X192705117Y-124038599D01*
X192676246Y-123893459D01*
X192676243Y-123893449D01*
X192605917Y-123723665D01*
X192605910Y-123723652D01*
X192503808Y-123570847D01*
X192503805Y-123570843D01*
X192373856Y-123440894D01*
X192373852Y-123440891D01*
X192221047Y-123338789D01*
X192221034Y-123338782D01*
X192051250Y-123268456D01*
X192051240Y-123268453D01*
X191906100Y-123239582D01*
X191906100Y-123759637D01*
X191835052Y-123740600D01*
X191723148Y-123740600D01*
X191652100Y-123759637D01*
X191652100Y-123239583D01*
X191652099Y-123239582D01*
X191506959Y-123268453D01*
X191506949Y-123268456D01*
X191337165Y-123338782D01*
X191337152Y-123338789D01*
X191184347Y-123440891D01*
X191184343Y-123440894D01*
X191054394Y-123570843D01*
X191054391Y-123570847D01*
X190952289Y-123723652D01*
X190952282Y-123723665D01*
X190881956Y-123893449D01*
X190881953Y-123893459D01*
X190853082Y-124038599D01*
X138139600Y-124038599D01*
X138139600Y-124016046D01*
X138159285Y-123949007D01*
X138190709Y-123915732D01*
X138278828Y-123851711D01*
X138405211Y-123725328D01*
X138510267Y-123580732D01*
X138591409Y-123421481D01*
X138618277Y-123338789D01*
X138646639Y-123251501D01*
X138646639Y-123251500D01*
X138646640Y-123251497D01*
X138674600Y-123074966D01*
X138674600Y-122896234D01*
X138646640Y-122719703D01*
X138646639Y-122719699D01*
X138646639Y-122719698D01*
X138591410Y-122549721D01*
X138591408Y-122549718D01*
X138578953Y-122525272D01*
X138510267Y-122390468D01*
X138405211Y-122245872D01*
X138278828Y-122119489D01*
X138134232Y-122014433D01*
X137974981Y-121933291D01*
X137974978Y-121933289D01*
X137804999Y-121878060D01*
X137687309Y-121859420D01*
X137628466Y-121850100D01*
X137449734Y-121850100D01*
X137390890Y-121859420D01*
X137273201Y-121878060D01*
X137273198Y-121878060D01*
X137103221Y-121933289D01*
X137103218Y-121933291D01*
X136943967Y-122014433D01*
X136799370Y-122119490D01*
X136672990Y-122245870D01*
X136567933Y-122390467D01*
X136486791Y-122549718D01*
X136486789Y-122549721D01*
X136431560Y-122719698D01*
X136431560Y-122719701D01*
X136403600Y-122896234D01*
X136403600Y-123074965D01*
X136431560Y-123251498D01*
X136431560Y-123251501D01*
X136486789Y-123421478D01*
X136486791Y-123421481D01*
X136567933Y-123580732D01*
X136672989Y-123725328D01*
X136799372Y-123851711D01*
X136887488Y-123915731D01*
X136930151Y-123971057D01*
X136938600Y-124016046D01*
X136938600Y-127095502D01*
X136918915Y-127162541D01*
X136902281Y-127183183D01*
X136100872Y-127984591D01*
X136039549Y-128018076D01*
X135969857Y-128013092D01*
X135925510Y-127984591D01*
X132439111Y-124498191D01*
X132439107Y-124498188D01*
X132336339Y-124429520D01*
X132336326Y-124429513D01*
X132302885Y-124415662D01*
X132222135Y-124382214D01*
X132222127Y-124382212D01*
X132100907Y-124358100D01*
X132100903Y-124358100D01*
X125850381Y-124358100D01*
X125783342Y-124338415D01*
X125762700Y-124321781D01*
X122702919Y-121262000D01*
X122669434Y-121200677D01*
X122666600Y-121174319D01*
X122666600Y-120396234D01*
X123903600Y-120396234D01*
X123903600Y-120574965D01*
X123931560Y-120751498D01*
X123931560Y-120751501D01*
X123986789Y-120921478D01*
X123986791Y-120921481D01*
X124067933Y-121080732D01*
X124172989Y-121225328D01*
X124299372Y-121351711D01*
X124443968Y-121456767D01*
X124603219Y-121537909D01*
X124603221Y-121537910D01*
X124761770Y-121589425D01*
X124773203Y-121593140D01*
X124949734Y-121621100D01*
X124949735Y-121621100D01*
X125128465Y-121621100D01*
X125128466Y-121621100D01*
X125304997Y-121593140D01*
X125305000Y-121593139D01*
X125305001Y-121593139D01*
X125474978Y-121537910D01*
X125474978Y-121537909D01*
X125474981Y-121537909D01*
X125634232Y-121456767D01*
X125778828Y-121351711D01*
X125905211Y-121225328D01*
X125969230Y-121137213D01*
X126024561Y-121094548D01*
X126069548Y-121086100D01*
X170389003Y-121086100D01*
X170456042Y-121105785D01*
X170476684Y-121122419D01*
X171395022Y-122040757D01*
X171428507Y-122102080D01*
X171425273Y-122166755D01*
X171420622Y-122181068D01*
X171388600Y-122383248D01*
X171388600Y-122587951D01*
X171420622Y-122790134D01*
X171483881Y-122984823D01*
X171576815Y-123167213D01*
X171697128Y-123332813D01*
X171841886Y-123477571D01*
X171970267Y-123570843D01*
X172007490Y-123597887D01*
X172123707Y-123657103D01*
X172189876Y-123690818D01*
X172189878Y-123690818D01*
X172189881Y-123690820D01*
X172290968Y-123723665D01*
X172384565Y-123754077D01*
X172482339Y-123769563D01*
X172586748Y-123786100D01*
X172586749Y-123786100D01*
X172791451Y-123786100D01*
X172791452Y-123786100D01*
X172993634Y-123754077D01*
X173188319Y-123690820D01*
X173370710Y-123597887D01*
X173463690Y-123530332D01*
X173536313Y-123477571D01*
X173536315Y-123477568D01*
X173536319Y-123477566D01*
X173681066Y-123332819D01*
X173681068Y-123332815D01*
X173681071Y-123332813D01*
X173733832Y-123260190D01*
X173801387Y-123167210D01*
X173894320Y-122984819D01*
X173957577Y-122790134D01*
X173989600Y-122587952D01*
X173989600Y-122383248D01*
X184088600Y-122383248D01*
X184088600Y-122587951D01*
X184120622Y-122790134D01*
X184183881Y-122984823D01*
X184276815Y-123167213D01*
X184397128Y-123332813D01*
X184541886Y-123477571D01*
X184670267Y-123570843D01*
X184707490Y-123597887D01*
X184823707Y-123657103D01*
X184889876Y-123690818D01*
X184889878Y-123690818D01*
X184889881Y-123690820D01*
X184990968Y-123723665D01*
X185084565Y-123754077D01*
X185182339Y-123769563D01*
X185286748Y-123786100D01*
X185286749Y-123786100D01*
X185491451Y-123786100D01*
X185491452Y-123786100D01*
X185693634Y-123754077D01*
X185888319Y-123690820D01*
X186070710Y-123597887D01*
X186163690Y-123530332D01*
X186236313Y-123477571D01*
X186236315Y-123477568D01*
X186236319Y-123477566D01*
X186381066Y-123332819D01*
X186381068Y-123332815D01*
X186381071Y-123332813D01*
X186433832Y-123260190D01*
X186501387Y-123167210D01*
X186594320Y-122984819D01*
X186657577Y-122790134D01*
X186689600Y-122587952D01*
X186689600Y-122383248D01*
X186669141Y-122254077D01*
X186657577Y-122181065D01*
X186611988Y-122040757D01*
X186594320Y-121986381D01*
X186594318Y-121986378D01*
X186594318Y-121986376D01*
X186542974Y-121885609D01*
X186501387Y-121803990D01*
X186486016Y-121782833D01*
X186381071Y-121638386D01*
X186236313Y-121493628D01*
X186070713Y-121373315D01*
X186070712Y-121373314D01*
X186070710Y-121373313D01*
X186013753Y-121344291D01*
X185888323Y-121280381D01*
X185693634Y-121217122D01*
X185519095Y-121189478D01*
X185491452Y-121185100D01*
X185286748Y-121185100D01*
X185262429Y-121188951D01*
X185084565Y-121217122D01*
X184889876Y-121280381D01*
X184707486Y-121373315D01*
X184541886Y-121493628D01*
X184397128Y-121638386D01*
X184276815Y-121803986D01*
X184183881Y-121986376D01*
X184120622Y-122181065D01*
X184088600Y-122383248D01*
X173989600Y-122383248D01*
X173969141Y-122254077D01*
X173957577Y-122181065D01*
X173911988Y-122040757D01*
X173894320Y-121986381D01*
X173894318Y-121986378D01*
X173894318Y-121986376D01*
X173842974Y-121885609D01*
X173801387Y-121803990D01*
X173786016Y-121782833D01*
X173681071Y-121638386D01*
X173536313Y-121493628D01*
X173370713Y-121373315D01*
X173370712Y-121373314D01*
X173370710Y-121373313D01*
X173313753Y-121344291D01*
X173188323Y-121280381D01*
X172993634Y-121217122D01*
X172819095Y-121189478D01*
X172791452Y-121185100D01*
X172586748Y-121185100D01*
X172548699Y-121191126D01*
X172384568Y-121217122D01*
X172375817Y-121219965D01*
X172370254Y-121221773D01*
X172300413Y-121223767D01*
X172244257Y-121191522D01*
X171176690Y-120123955D01*
X171176688Y-120123952D01*
X171057817Y-120005081D01*
X171057816Y-120005080D01*
X170971004Y-119954960D01*
X170971004Y-119954959D01*
X170971000Y-119954958D01*
X170920885Y-119926023D01*
X170768157Y-119885099D01*
X170610043Y-119885099D01*
X170602447Y-119885099D01*
X170602431Y-119885100D01*
X126069548Y-119885100D01*
X126002509Y-119865415D01*
X125969230Y-119833986D01*
X125930283Y-119780381D01*
X125905211Y-119745872D01*
X125778828Y-119619489D01*
X125634232Y-119514433D01*
X125474981Y-119433291D01*
X125474978Y-119433289D01*
X125304999Y-119378060D01*
X125187309Y-119359420D01*
X125128466Y-119350100D01*
X124949734Y-119350100D01*
X124890890Y-119359420D01*
X124773201Y-119378060D01*
X124773198Y-119378060D01*
X124603221Y-119433289D01*
X124603218Y-119433291D01*
X124443967Y-119514433D01*
X124299370Y-119619490D01*
X124172990Y-119745870D01*
X124067933Y-119890467D01*
X123986791Y-120049718D01*
X123986789Y-120049721D01*
X123931560Y-120219698D01*
X123931560Y-120219701D01*
X123903600Y-120396234D01*
X122666600Y-120396234D01*
X122666600Y-117381785D01*
X171635100Y-117381785D01*
X171635100Y-117589414D01*
X171675602Y-117793033D01*
X171675604Y-117793041D01*
X171755055Y-117984852D01*
X171755060Y-117984862D01*
X171857268Y-118137825D01*
X172330539Y-117664554D01*
X172369020Y-117731206D01*
X172443494Y-117805680D01*
X172510144Y-117844160D01*
X172036873Y-118317430D01*
X172036873Y-118317431D01*
X172189837Y-118419639D01*
X172189847Y-118419644D01*
X172381658Y-118499095D01*
X172381666Y-118499097D01*
X172585285Y-118539599D01*
X172585289Y-118539600D01*
X172792911Y-118539600D01*
X172792914Y-118539599D01*
X172996533Y-118499097D01*
X172996541Y-118499095D01*
X173188353Y-118419644D01*
X173341326Y-118317431D01*
X172868055Y-117844160D01*
X172934706Y-117805680D01*
X173009180Y-117731206D01*
X173047660Y-117664555D01*
X173520931Y-118137826D01*
X173623144Y-117984853D01*
X173702595Y-117793041D01*
X173702597Y-117793033D01*
X173743099Y-117589414D01*
X173743100Y-117589411D01*
X173743100Y-117383248D01*
X184088600Y-117383248D01*
X184088600Y-117587951D01*
X184120622Y-117790134D01*
X184183881Y-117984823D01*
X184276815Y-118167213D01*
X184397128Y-118332813D01*
X184541886Y-118477571D01*
X184696849Y-118590156D01*
X184707490Y-118597887D01*
X184823707Y-118657103D01*
X184889876Y-118690818D01*
X184889878Y-118690818D01*
X184889881Y-118690820D01*
X184994237Y-118724727D01*
X185084565Y-118754077D01*
X185185657Y-118770088D01*
X185286748Y-118786100D01*
X185286749Y-118786100D01*
X185491451Y-118786100D01*
X185491452Y-118786100D01*
X185693634Y-118754077D01*
X185888319Y-118690820D01*
X186070710Y-118597887D01*
X186206687Y-118499095D01*
X186236313Y-118477571D01*
X186236315Y-118477568D01*
X186236319Y-118477566D01*
X186381066Y-118332819D01*
X186381068Y-118332815D01*
X186381071Y-118332813D01*
X186433832Y-118260190D01*
X186501387Y-118167210D01*
X186594320Y-117984819D01*
X186657577Y-117790134D01*
X186689600Y-117587952D01*
X186689600Y-117383248D01*
X186677364Y-117305994D01*
X186657577Y-117181065D01*
X186598216Y-116998372D01*
X186594320Y-116986381D01*
X186594318Y-116986378D01*
X186594318Y-116986376D01*
X186516358Y-116833373D01*
X186501387Y-116803990D01*
X186493656Y-116793349D01*
X186381071Y-116638386D01*
X186236313Y-116493628D01*
X186070713Y-116373315D01*
X186070712Y-116373314D01*
X186070710Y-116373313D01*
X186013753Y-116344291D01*
X185888323Y-116280381D01*
X185693634Y-116217122D01*
X185519095Y-116189478D01*
X185491452Y-116185100D01*
X185286748Y-116185100D01*
X185262429Y-116188951D01*
X185084565Y-116217122D01*
X184889876Y-116280381D01*
X184707486Y-116373315D01*
X184541886Y-116493628D01*
X184397128Y-116638386D01*
X184276815Y-116803986D01*
X184183881Y-116986376D01*
X184120622Y-117181065D01*
X184088600Y-117383248D01*
X173743100Y-117383248D01*
X173743100Y-117381789D01*
X173743099Y-117381785D01*
X173702597Y-117178166D01*
X173702595Y-117178158D01*
X173623144Y-116986347D01*
X173623139Y-116986337D01*
X173520930Y-116833373D01*
X173047660Y-117306643D01*
X173009180Y-117239994D01*
X172934706Y-117165520D01*
X172868055Y-117127039D01*
X173341325Y-116653768D01*
X173188362Y-116551560D01*
X173188352Y-116551555D01*
X172996541Y-116472104D01*
X172996533Y-116472102D01*
X172792914Y-116431600D01*
X172585285Y-116431600D01*
X172381666Y-116472102D01*
X172381658Y-116472104D01*
X172189845Y-116551555D01*
X172036873Y-116653767D01*
X172036873Y-116653768D01*
X172510144Y-117127039D01*
X172443494Y-117165520D01*
X172369020Y-117239994D01*
X172330539Y-117306644D01*
X171857268Y-116833373D01*
X171857267Y-116833373D01*
X171755055Y-116986345D01*
X171675604Y-117178158D01*
X171675602Y-117178166D01*
X171635100Y-117381785D01*
X122666600Y-117381785D01*
X122666600Y-107773880D01*
X122686285Y-107706841D01*
X122702914Y-107686204D01*
X124006254Y-106382864D01*
X132405000Y-106382864D01*
X132405000Y-106561595D01*
X132432960Y-106738128D01*
X132432960Y-106738131D01*
X132488189Y-106908108D01*
X132488191Y-106908111D01*
X132569333Y-107067362D01*
X132674389Y-107211958D01*
X132800772Y-107338341D01*
X132945368Y-107443397D01*
X133104619Y-107524539D01*
X133104621Y-107524540D01*
X133197679Y-107554776D01*
X133274603Y-107579770D01*
X133451134Y-107607730D01*
X133451135Y-107607730D01*
X133629865Y-107607730D01*
X133629866Y-107607730D01*
X133806397Y-107579770D01*
X133806400Y-107579769D01*
X133806401Y-107579769D01*
X133976378Y-107524540D01*
X133976378Y-107524539D01*
X133976381Y-107524539D01*
X134135632Y-107443397D01*
X134280228Y-107338341D01*
X134406611Y-107211958D01*
X134511667Y-107067362D01*
X134592809Y-106908111D01*
X134648040Y-106738127D01*
X134676000Y-106561596D01*
X134676000Y-106382864D01*
X134664182Y-106308252D01*
X134673136Y-106238959D01*
X134698971Y-106201176D01*
X142237045Y-98663102D01*
X142298366Y-98629619D01*
X142344120Y-98628312D01*
X142419837Y-98640304D01*
X142513375Y-98655120D01*
X142513379Y-98655120D01*
X142710846Y-98655120D01*
X142905873Y-98624230D01*
X142937896Y-98613825D01*
X143093671Y-98563211D01*
X143269611Y-98473564D01*
X143400060Y-98378788D01*
X143429356Y-98357504D01*
X143429358Y-98357501D01*
X143429362Y-98357499D01*
X143568989Y-98217872D01*
X143669715Y-98079233D01*
X143674046Y-98075893D01*
X143676319Y-98070917D01*
X143701415Y-98054788D01*
X143725043Y-98036569D01*
X143731716Y-98035315D01*
X143735097Y-98033143D01*
X143770032Y-98028120D01*
X143954158Y-98028120D01*
X144021197Y-98047805D01*
X144054474Y-98079232D01*
X144144012Y-98202472D01*
X144155201Y-98217872D01*
X144294833Y-98357504D01*
X144422304Y-98450115D01*
X144454579Y-98473564D01*
X144630519Y-98563211D01*
X144755717Y-98603890D01*
X144818316Y-98624230D01*
X145013344Y-98655120D01*
X145013349Y-98655120D01*
X145210816Y-98655120D01*
X145405843Y-98624230D01*
X145437866Y-98613825D01*
X145593641Y-98563211D01*
X145769581Y-98473564D01*
X145900030Y-98378788D01*
X145929326Y-98357504D01*
X145929328Y-98357501D01*
X145929332Y-98357499D01*
X146068959Y-98217872D01*
X146068961Y-98217868D01*
X146068964Y-98217866D01*
X146144887Y-98113365D01*
X146185024Y-98058121D01*
X146274671Y-97882181D01*
X146335690Y-97694383D01*
X146363196Y-97520715D01*
X146393125Y-97457582D01*
X146452436Y-97420650D01*
X146522299Y-97421648D01*
X146580532Y-97460258D01*
X146607286Y-97515922D01*
X146642835Y-97694637D01*
X146642837Y-97694643D01*
X146718820Y-97878084D01*
X146718825Y-97878093D01*
X146829134Y-98043181D01*
X146829137Y-98043185D01*
X146969534Y-98183582D01*
X146969538Y-98183585D01*
X147134626Y-98293894D01*
X147134635Y-98293899D01*
X147318074Y-98369881D01*
X147318084Y-98369884D01*
X147485099Y-98403105D01*
X147485100Y-98403105D01*
X147485100Y-97884228D01*
X147546274Y-97900620D01*
X147677926Y-97900620D01*
X147739100Y-97884228D01*
X147739100Y-98403105D01*
X147906115Y-98369884D01*
X147906125Y-98369881D01*
X148089564Y-98293899D01*
X148089573Y-98293894D01*
X148254661Y-98183585D01*
X148254665Y-98183582D01*
X148395062Y-98043185D01*
X148395065Y-98043181D01*
X148505374Y-97878093D01*
X148505379Y-97878084D01*
X148581362Y-97694643D01*
X148581364Y-97694635D01*
X148616913Y-97515923D01*
X148649298Y-97454012D01*
X148710013Y-97419438D01*
X148779783Y-97423177D01*
X148836455Y-97464044D01*
X148861003Y-97520716D01*
X148888509Y-97694383D01*
X148948198Y-97878084D01*
X148949529Y-97882181D01*
X149033257Y-98046504D01*
X149039178Y-98058124D01*
X149155235Y-98217866D01*
X149294873Y-98357504D01*
X149422344Y-98450115D01*
X149454619Y-98473564D01*
X149630559Y-98563211D01*
X149755757Y-98603890D01*
X149818356Y-98624230D01*
X150013384Y-98655120D01*
X150013389Y-98655120D01*
X150210856Y-98655120D01*
X150405883Y-98624230D01*
X150437906Y-98613825D01*
X150593681Y-98563211D01*
X150769621Y-98473564D01*
X150900070Y-98378788D01*
X150929366Y-98357504D01*
X150929368Y-98357501D01*
X150929372Y-98357499D01*
X151068999Y-98217872D01*
X151133273Y-98129405D01*
X151188600Y-98086741D01*
X151258213Y-98080760D01*
X151320009Y-98113365D01*
X151354367Y-98174203D01*
X151357238Y-98199193D01*
X151357414Y-98199184D01*
X151357568Y-98202067D01*
X151357590Y-98202256D01*
X151357590Y-98202472D01*
X151357591Y-98202496D01*
X151363998Y-98262103D01*
X151414292Y-98396948D01*
X151414296Y-98396955D01*
X151500542Y-98512164D01*
X151500545Y-98512167D01*
X151615754Y-98598413D01*
X151615761Y-98598417D01*
X151750607Y-98648711D01*
X151750606Y-98648711D01*
X151757534Y-98649455D01*
X151810217Y-98655120D01*
X153413962Y-98655119D01*
X153473573Y-98648711D01*
X153608421Y-98598416D01*
X153723636Y-98512166D01*
X153809886Y-98396951D01*
X153860181Y-98262103D01*
X153866590Y-98202493D01*
X153866589Y-96598748D01*
X153860181Y-96539137D01*
X153848323Y-96507345D01*
X153809887Y-96404291D01*
X153809883Y-96404284D01*
X153723637Y-96289075D01*
X153723634Y-96289072D01*
X153608425Y-96202826D01*
X153608418Y-96202822D01*
X153473572Y-96152528D01*
X153473573Y-96152528D01*
X153413973Y-96146121D01*
X153413971Y-96146120D01*
X153413963Y-96146120D01*
X153413954Y-96146120D01*
X151810219Y-96146120D01*
X151810213Y-96146121D01*
X151750606Y-96152528D01*
X151615761Y-96202822D01*
X151615754Y-96202826D01*
X151500545Y-96289072D01*
X151500542Y-96289075D01*
X151414296Y-96404284D01*
X151414292Y-96404291D01*
X151363998Y-96539137D01*
X151357591Y-96598736D01*
X151357591Y-96598743D01*
X151357590Y-96598755D01*
X151357590Y-96598946D01*
X151357577Y-96598988D01*
X151357412Y-96602072D01*
X151356683Y-96602032D01*
X151337905Y-96665985D01*
X151285101Y-96711740D01*
X151215943Y-96721684D01*
X151152387Y-96692659D01*
X151133272Y-96671831D01*
X151069004Y-96583374D01*
X151069000Y-96583369D01*
X150929366Y-96443735D01*
X150769624Y-96327678D01*
X150769623Y-96327677D01*
X150769621Y-96327676D01*
X150593681Y-96238029D01*
X150593678Y-96238028D01*
X150405883Y-96177009D01*
X150210856Y-96146120D01*
X150210851Y-96146120D01*
X150013389Y-96146120D01*
X150013384Y-96146120D01*
X149818356Y-96177009D01*
X149630561Y-96238028D01*
X149454615Y-96327678D01*
X149294873Y-96443735D01*
X149155235Y-96583373D01*
X149039178Y-96743115D01*
X148949528Y-96919061D01*
X148888509Y-97106856D01*
X148861003Y-97280523D01*
X148831073Y-97343658D01*
X148771762Y-97380589D01*
X148701899Y-97379591D01*
X148643667Y-97340981D01*
X148616913Y-97285316D01*
X148581364Y-97106604D01*
X148581362Y-97106596D01*
X148505379Y-96923155D01*
X148505374Y-96923146D01*
X148395065Y-96758058D01*
X148395062Y-96758054D01*
X148254665Y-96617657D01*
X148254661Y-96617654D01*
X148089573Y-96507345D01*
X148089564Y-96507340D01*
X147906123Y-96431357D01*
X147906115Y-96431355D01*
X147739100Y-96398133D01*
X147739100Y-96917011D01*
X147677926Y-96900620D01*
X147546274Y-96900620D01*
X147485100Y-96917011D01*
X147485100Y-96398133D01*
X147318084Y-96431355D01*
X147318076Y-96431357D01*
X147134635Y-96507340D01*
X147134626Y-96507345D01*
X146969538Y-96617654D01*
X146969534Y-96617657D01*
X146829137Y-96758054D01*
X146829134Y-96758058D01*
X146718825Y-96923146D01*
X146718820Y-96923155D01*
X146642837Y-97106596D01*
X146642835Y-97106602D01*
X146607286Y-97285317D01*
X146574901Y-97347228D01*
X146514185Y-97381802D01*
X146444415Y-97378061D01*
X146387744Y-97337195D01*
X146363196Y-97280523D01*
X146356770Y-97239954D01*
X146335690Y-97106857D01*
X146274671Y-96919059D01*
X146185024Y-96743119D01*
X146137984Y-96678373D01*
X146068964Y-96583373D01*
X145929326Y-96443735D01*
X145769584Y-96327678D01*
X145769583Y-96327677D01*
X145769581Y-96327676D01*
X145593641Y-96238029D01*
X145593638Y-96238028D01*
X145405843Y-96177009D01*
X145210816Y-96146120D01*
X145210811Y-96146120D01*
X145013349Y-96146120D01*
X145013344Y-96146120D01*
X144818316Y-96177009D01*
X144630521Y-96238028D01*
X144454575Y-96327678D01*
X144294833Y-96443735D01*
X144155201Y-96583367D01*
X144110193Y-96645316D01*
X144054474Y-96722006D01*
X144050143Y-96725346D01*
X144047871Y-96730323D01*
X144022774Y-96746451D01*
X143999147Y-96764671D01*
X143992473Y-96765924D01*
X143989093Y-96768097D01*
X143954158Y-96773120D01*
X143770032Y-96773120D01*
X143702993Y-96753435D01*
X143669715Y-96722007D01*
X143568989Y-96583368D01*
X143429362Y-96443741D01*
X143429356Y-96443735D01*
X143269614Y-96327678D01*
X143269613Y-96327677D01*
X143269611Y-96327676D01*
X143093671Y-96238029D01*
X143093668Y-96238028D01*
X142905873Y-96177009D01*
X142710846Y-96146120D01*
X142710841Y-96146120D01*
X142513379Y-96146120D01*
X142513374Y-96146120D01*
X142318346Y-96177009D01*
X142130551Y-96238028D01*
X141954605Y-96327678D01*
X141794863Y-96443735D01*
X141655225Y-96583373D01*
X141539168Y-96743115D01*
X141449518Y-96919061D01*
X141388499Y-97106856D01*
X141357610Y-97301883D01*
X141357610Y-97499356D01*
X141384417Y-97668605D01*
X141375463Y-97737898D01*
X141349625Y-97775684D01*
X133811554Y-105313755D01*
X133750231Y-105347240D01*
X133704475Y-105348547D01*
X133696317Y-105347255D01*
X133685717Y-105345576D01*
X133629866Y-105336730D01*
X133451134Y-105336730D01*
X133392290Y-105346050D01*
X133274601Y-105364690D01*
X133274598Y-105364690D01*
X133104621Y-105419919D01*
X133104618Y-105419921D01*
X132945367Y-105501063D01*
X132800770Y-105606120D01*
X132674390Y-105732500D01*
X132569333Y-105877097D01*
X132488191Y-106036348D01*
X132488189Y-106036351D01*
X132432960Y-106206328D01*
X132432960Y-106206331D01*
X132405000Y-106382864D01*
X124006254Y-106382864D01*
X128794419Y-101594698D01*
X128855742Y-101561214D01*
X128925434Y-101566198D01*
X128981367Y-101608070D01*
X129005784Y-101673534D01*
X129006100Y-101682380D01*
X129006100Y-101955600D01*
X129465138Y-101955600D01*
X129449100Y-102015457D01*
X129449100Y-102149743D01*
X129465138Y-102209600D01*
X129006101Y-102209600D01*
X129006101Y-102806614D01*
X129020837Y-102880706D01*
X129020838Y-102880709D01*
X129076976Y-102964723D01*
X129160995Y-103020863D01*
X129160996Y-103020864D01*
X129235080Y-103035599D01*
X129832099Y-103035599D01*
X129832100Y-103035598D01*
X129832100Y-102576561D01*
X129891957Y-102592600D01*
X130026243Y-102592600D01*
X130086100Y-102576561D01*
X130086100Y-103035599D01*
X130683115Y-103035599D01*
X130757206Y-103020862D01*
X130757209Y-103020861D01*
X130841223Y-102964723D01*
X130897363Y-102880704D01*
X130897364Y-102880703D01*
X130912099Y-102806621D01*
X130912100Y-102806618D01*
X130912100Y-102209600D01*
X130453062Y-102209600D01*
X130469100Y-102149743D01*
X130469100Y-102015457D01*
X130453062Y-101955600D01*
X130912099Y-101955600D01*
X130912099Y-101358585D01*
X130897362Y-101284493D01*
X130897361Y-101284490D01*
X130841223Y-101200476D01*
X130757204Y-101144336D01*
X130757203Y-101144335D01*
X130683121Y-101129600D01*
X130086100Y-101129600D01*
X130086100Y-101588638D01*
X130026243Y-101572600D01*
X129891957Y-101572600D01*
X129832100Y-101588638D01*
X129832100Y-101129600D01*
X129558880Y-101129600D01*
X129491841Y-101109915D01*
X129446086Y-101057111D01*
X129436142Y-100987953D01*
X129465167Y-100924397D01*
X129471184Y-100917933D01*
X129632108Y-100757009D01*
X129693428Y-100723527D01*
X129739181Y-100722220D01*
X129864697Y-100742100D01*
X129864698Y-100742100D01*
X130053502Y-100742100D01*
X130053503Y-100742100D01*
X130239984Y-100712564D01*
X130419548Y-100654220D01*
X130587775Y-100568504D01*
X130740522Y-100457527D01*
X130874027Y-100324022D01*
X130985004Y-100171275D01*
X131070720Y-100003048D01*
X131129064Y-99823484D01*
X131158600Y-99637003D01*
X131158600Y-99448197D01*
X131138720Y-99322682D01*
X131147674Y-99253391D01*
X131173509Y-99215608D01*
X135592900Y-94796219D01*
X135654223Y-94762734D01*
X135680581Y-94759900D01*
X165411019Y-94759900D01*
X165478058Y-94779585D01*
X165498700Y-94796219D01*
X168181289Y-97478808D01*
X168243933Y-97541452D01*
X168268694Y-97566213D01*
X168268696Y-97566214D01*
X168371456Y-97634876D01*
X168371458Y-97634877D01*
X168371467Y-97634883D01*
X168396472Y-97645240D01*
X168418771Y-97654477D01*
X168452879Y-97668605D01*
X168485666Y-97682186D01*
X168606892Y-97706299D01*
X168606896Y-97706300D01*
X168606897Y-97706300D01*
X177522714Y-97706300D01*
X177522715Y-97706299D01*
X177643945Y-97682186D01*
X177729479Y-97646756D01*
X177729480Y-97646756D01*
X177758136Y-97634886D01*
X177758136Y-97634885D01*
X177758143Y-97634883D01*
X177860918Y-97566211D01*
X177948321Y-97478808D01*
X183483919Y-91943208D01*
X183545242Y-91909724D01*
X183614934Y-91914708D01*
X183670867Y-91956580D01*
X183695284Y-92022044D01*
X183695600Y-92030890D01*
X183695600Y-92188366D01*
X183726489Y-92383393D01*
X183769724Y-92516455D01*
X183787509Y-92571191D01*
X183841321Y-92676801D01*
X183877158Y-92747134D01*
X183993215Y-92906876D01*
X184132853Y-93046514D01*
X184282334Y-93155116D01*
X184292599Y-93162574D01*
X184423223Y-93229131D01*
X184474018Y-93277105D01*
X184490813Y-93344926D01*
X184468275Y-93411061D01*
X184423223Y-93450098D01*
X184342223Y-93491371D01*
X184292595Y-93516658D01*
X184132853Y-93632715D01*
X183993215Y-93772353D01*
X183877158Y-93932095D01*
X183787508Y-94108041D01*
X183726489Y-94295836D01*
X183695600Y-94490863D01*
X183695600Y-94688336D01*
X183726489Y-94883363D01*
X183757686Y-94979376D01*
X183787509Y-95071161D01*
X183877156Y-95247101D01*
X183877158Y-95247104D01*
X183993215Y-95406846D01*
X184132853Y-95546484D01*
X184282334Y-95655086D01*
X184292599Y-95662544D01*
X184423272Y-95729126D01*
X184474067Y-95777100D01*
X184490862Y-95844921D01*
X184468324Y-95911056D01*
X184423272Y-95950093D01*
X184311177Y-96007210D01*
X184292595Y-96016678D01*
X184132853Y-96132735D01*
X183993215Y-96272373D01*
X183877158Y-96432115D01*
X183787508Y-96608061D01*
X183726489Y-96795856D01*
X183695600Y-96990883D01*
X183695600Y-97188356D01*
X183726489Y-97383383D01*
X183782693Y-97556360D01*
X183787509Y-97571181D01*
X183872457Y-97737898D01*
X183877158Y-97747124D01*
X183993215Y-97906866D01*
X184132853Y-98046504D01*
X184246962Y-98129407D01*
X184292599Y-98162564D01*
X184423272Y-98229146D01*
X184474067Y-98277120D01*
X184490862Y-98344941D01*
X184468324Y-98411076D01*
X184423272Y-98450113D01*
X184346170Y-98489400D01*
X184292595Y-98516698D01*
X184132853Y-98632755D01*
X183993215Y-98772393D01*
X183877158Y-98932135D01*
X183787508Y-99108081D01*
X183726489Y-99295876D01*
X183695600Y-99490903D01*
X183695600Y-99688376D01*
X183726489Y-99883403D01*
X183765366Y-100003052D01*
X183787509Y-100071201D01*
X183866337Y-100225907D01*
X183877158Y-100247144D01*
X183993215Y-100406886D01*
X184132853Y-100546524D01*
X184281084Y-100654218D01*
X184292599Y-100662584D01*
X184468539Y-100752231D01*
X184656337Y-100813250D01*
X184787466Y-100834018D01*
X184794526Y-100835137D01*
X184857661Y-100865066D01*
X184894592Y-100924378D01*
X184893594Y-100994240D01*
X184854984Y-101052473D01*
X184791021Y-101080587D01*
X184775128Y-101081610D01*
X184171085Y-101081610D01*
X184096993Y-101096347D01*
X184096990Y-101096348D01*
X184012976Y-101152486D01*
X183956836Y-101236505D01*
X183956835Y-101236506D01*
X183942100Y-101310588D01*
X183942100Y-101962610D01*
X184466492Y-101962610D01*
X184450100Y-102023784D01*
X184450100Y-102155436D01*
X184466492Y-102216610D01*
X183942101Y-102216610D01*
X183942101Y-102868624D01*
X183956837Y-102942716D01*
X183956838Y-102942719D01*
X184012976Y-103026733D01*
X184096995Y-103082873D01*
X184096996Y-103082874D01*
X184171080Y-103097609D01*
X184823099Y-103097609D01*
X184823100Y-103097608D01*
X184823100Y-102573218D01*
X184884274Y-102589610D01*
X185015926Y-102589610D01*
X185077100Y-102573218D01*
X185077100Y-103097609D01*
X185729115Y-103097609D01*
X185803206Y-103082872D01*
X185803209Y-103082871D01*
X185887223Y-103026733D01*
X185943363Y-102942714D01*
X185943364Y-102942713D01*
X185958099Y-102868631D01*
X185958100Y-102868628D01*
X185958100Y-102216610D01*
X185433708Y-102216610D01*
X185450100Y-102155436D01*
X185450100Y-102023784D01*
X185433708Y-101962610D01*
X185958099Y-101962610D01*
X185958099Y-101310595D01*
X185943362Y-101236503D01*
X185943361Y-101236500D01*
X185887223Y-101152486D01*
X185803204Y-101096346D01*
X185803203Y-101096345D01*
X185729121Y-101081610D01*
X185125073Y-101081610D01*
X185058034Y-101061925D01*
X185012279Y-101009121D01*
X185002335Y-100939963D01*
X185031360Y-100876407D01*
X185090138Y-100838633D01*
X185105675Y-100835137D01*
X185128240Y-100831562D01*
X185243863Y-100813250D01*
X185431661Y-100752231D01*
X185607601Y-100662584D01*
X185697292Y-100597419D01*
X185767346Y-100546524D01*
X185767348Y-100546521D01*
X185767352Y-100546519D01*
X185906979Y-100406892D01*
X185906981Y-100406888D01*
X185906984Y-100406886D01*
X185967187Y-100324022D01*
X186023044Y-100247141D01*
X186112691Y-100071201D01*
X186173710Y-99883403D01*
X186175897Y-99869593D01*
X186204600Y-99688376D01*
X186204600Y-99490903D01*
X186173710Y-99295876D01*
X186153370Y-99233277D01*
X186112691Y-99108079D01*
X186023044Y-98932139D01*
X185969495Y-98858434D01*
X185906984Y-98772393D01*
X185767346Y-98632755D01*
X185607605Y-98516698D01*
X185598710Y-98512166D01*
X185476925Y-98450112D01*
X185426132Y-98402141D01*
X185409337Y-98334320D01*
X185431874Y-98268185D01*
X185476925Y-98229147D01*
X185607601Y-98162564D01*
X185653238Y-98129407D01*
X185767346Y-98046504D01*
X185767348Y-98046501D01*
X185767352Y-98046499D01*
X185906979Y-97906872D01*
X185906981Y-97906868D01*
X185906984Y-97906866D01*
X185984103Y-97800719D01*
X186023044Y-97747121D01*
X186112691Y-97571181D01*
X186173710Y-97383383D01*
X186174870Y-97376057D01*
X186204600Y-97188356D01*
X186204600Y-97030881D01*
X186224285Y-96963842D01*
X186277089Y-96918087D01*
X186346247Y-96908143D01*
X186409803Y-96937168D01*
X186416281Y-96943200D01*
X189747281Y-100274200D01*
X189780766Y-100335523D01*
X189783600Y-100361881D01*
X189783600Y-116749407D01*
X189798000Y-116821800D01*
X189807714Y-116870635D01*
X189841162Y-116951384D01*
X189855017Y-116984833D01*
X189856844Y-116987568D01*
X189864059Y-116998367D01*
X189864063Y-116998371D01*
X189893675Y-117042688D01*
X189923690Y-117087610D01*
X190928676Y-118092596D01*
X190962161Y-118153919D01*
X190957177Y-118223611D01*
X190928677Y-118267957D01*
X190879431Y-118317203D01*
X190879430Y-118317205D01*
X190879428Y-118317207D01*
X190832562Y-118381711D01*
X190770301Y-118467406D01*
X190686016Y-118632826D01*
X190628642Y-118809403D01*
X190599600Y-118992765D01*
X190599600Y-119178434D01*
X190628642Y-119361796D01*
X190628643Y-119361800D01*
X190686015Y-119538371D01*
X190770301Y-119703793D01*
X190879428Y-119853993D01*
X191010707Y-119985272D01*
X191160907Y-120094399D01*
X191326329Y-120178685D01*
X191502900Y-120236057D01*
X191502902Y-120236057D01*
X191507533Y-120237562D01*
X191506826Y-120239735D01*
X191559229Y-120269848D01*
X191591371Y-120331886D01*
X191584871Y-120401452D01*
X191541792Y-120456461D01*
X191507099Y-120472304D01*
X191507533Y-120473638D01*
X191502902Y-120475142D01*
X191502900Y-120475143D01*
X191326329Y-120532515D01*
X191326326Y-120532516D01*
X191160906Y-120616801D01*
X191075211Y-120679062D01*
X191010707Y-120725928D01*
X191010705Y-120725930D01*
X191010704Y-120725930D01*
X190879430Y-120857204D01*
X190879430Y-120857205D01*
X190879428Y-120857207D01*
X190860508Y-120883248D01*
X190770301Y-121007406D01*
X190686016Y-121172826D01*
X190628642Y-121349403D01*
X190599600Y-121532765D01*
X190599600Y-121718434D01*
X190628642Y-121901796D01*
X190628643Y-121901800D01*
X190686015Y-122078371D01*
X190770301Y-122243793D01*
X190879428Y-122393993D01*
X191010707Y-122525272D01*
X191160907Y-122634399D01*
X191326329Y-122718685D01*
X191502900Y-122776057D01*
X191571664Y-122786948D01*
X191686266Y-122805100D01*
X191686271Y-122805100D01*
X191871934Y-122805100D01*
X191973801Y-122788965D01*
X192055300Y-122776057D01*
X192231871Y-122718685D01*
X192397293Y-122634399D01*
X192547493Y-122525272D01*
X192678772Y-122393993D01*
X192787899Y-122243793D01*
X192872185Y-122078371D01*
X192929557Y-121901800D01*
X192929558Y-121901796D01*
X192931062Y-121897167D01*
X192933247Y-121897877D01*
X192963303Y-121845514D01*
X193025324Y-121813340D01*
X193094894Y-121819805D01*
X193149924Y-121862856D01*
X193165792Y-121897604D01*
X193167138Y-121897167D01*
X193168642Y-121901796D01*
X193168643Y-121901800D01*
X193226015Y-122078371D01*
X193310301Y-122243793D01*
X193419428Y-122393993D01*
X193550707Y-122525272D01*
X193700907Y-122634399D01*
X193866329Y-122718685D01*
X194042900Y-122776057D01*
X194111664Y-122786948D01*
X194226266Y-122805100D01*
X194226271Y-122805100D01*
X194411934Y-122805100D01*
X194513801Y-122788965D01*
X194595300Y-122776057D01*
X194771871Y-122718685D01*
X194937293Y-122634399D01*
X195087493Y-122525272D01*
X195218772Y-122393993D01*
X195327899Y-122243793D01*
X195412185Y-122078371D01*
X195469557Y-121901800D01*
X195485049Y-121803986D01*
X195498600Y-121718434D01*
X195498600Y-121532765D01*
X195475717Y-121388292D01*
X195469557Y-121349400D01*
X195412185Y-121172829D01*
X195327899Y-121007407D01*
X195218772Y-120857207D01*
X195087493Y-120725928D01*
X194937293Y-120616801D01*
X194771873Y-120532516D01*
X194771872Y-120532515D01*
X194771871Y-120532515D01*
X194595300Y-120475143D01*
X194595297Y-120475142D01*
X194590667Y-120473638D01*
X194591377Y-120471452D01*
X194539014Y-120441397D01*
X194506840Y-120379376D01*
X194513305Y-120309806D01*
X194556356Y-120254776D01*
X194591104Y-120238907D01*
X194590667Y-120237562D01*
X194595297Y-120236057D01*
X194595300Y-120236057D01*
X194771871Y-120178685D01*
X194937293Y-120094399D01*
X195087493Y-119985272D01*
X195218772Y-119853993D01*
X195327899Y-119703793D01*
X195412185Y-119538371D01*
X195469557Y-119361800D01*
X195483568Y-119273340D01*
X195498600Y-119178434D01*
X195498600Y-118992765D01*
X195469557Y-118809403D01*
X195469557Y-118809400D01*
X195412185Y-118632829D01*
X195327899Y-118467407D01*
X195218772Y-118317207D01*
X195087493Y-118185928D01*
X194937293Y-118076801D01*
X194771871Y-117992515D01*
X194595300Y-117935143D01*
X194595297Y-117935142D01*
X194590667Y-117933638D01*
X194591377Y-117931452D01*
X194539014Y-117901397D01*
X194506840Y-117839376D01*
X194513305Y-117769806D01*
X194556356Y-117714776D01*
X194591104Y-117698907D01*
X194590667Y-117697562D01*
X194595297Y-117696057D01*
X194595300Y-117696057D01*
X194771871Y-117638685D01*
X194937293Y-117554399D01*
X195087493Y-117445272D01*
X195218772Y-117313993D01*
X195327899Y-117163793D01*
X195412185Y-116998371D01*
X195469557Y-116821800D01*
X195496171Y-116653767D01*
X195498600Y-116638434D01*
X195498600Y-116452765D01*
X195471296Y-116280380D01*
X195469557Y-116269400D01*
X195412185Y-116092829D01*
X195327899Y-115927407D01*
X195218772Y-115777207D01*
X195087493Y-115645928D01*
X194937293Y-115536801D01*
X194771871Y-115452515D01*
X194595300Y-115395143D01*
X194595297Y-115395142D01*
X194590667Y-115393638D01*
X194591377Y-115391452D01*
X194539014Y-115361397D01*
X194506840Y-115299376D01*
X194513305Y-115229806D01*
X194556356Y-115174776D01*
X194591104Y-115158907D01*
X194590667Y-115157562D01*
X194595297Y-115156057D01*
X194595300Y-115156057D01*
X194771871Y-115098685D01*
X194937293Y-115014399D01*
X195087493Y-114905272D01*
X195218772Y-114773993D01*
X195327899Y-114623793D01*
X195412185Y-114458371D01*
X195469557Y-114281800D01*
X195483568Y-114193340D01*
X195498600Y-114098434D01*
X195498600Y-113912765D01*
X195475717Y-113768292D01*
X195469557Y-113729400D01*
X195412185Y-113552829D01*
X195327899Y-113387407D01*
X195218772Y-113237207D01*
X195087493Y-113105928D01*
X194937293Y-112996801D01*
X194771871Y-112912515D01*
X194595300Y-112855143D01*
X194595297Y-112855142D01*
X194590667Y-112853638D01*
X194591377Y-112851452D01*
X194539014Y-112821397D01*
X194506840Y-112759376D01*
X194513305Y-112689806D01*
X194556356Y-112634776D01*
X194591104Y-112618907D01*
X194590667Y-112617562D01*
X194595297Y-112616057D01*
X194595300Y-112616057D01*
X194771871Y-112558685D01*
X194937293Y-112474399D01*
X195087493Y-112365272D01*
X195218772Y-112233993D01*
X195327899Y-112083793D01*
X195412185Y-111918371D01*
X195469557Y-111741800D01*
X195483568Y-111653340D01*
X195498600Y-111558434D01*
X195498600Y-111372765D01*
X195475717Y-111228292D01*
X195469557Y-111189400D01*
X195412185Y-111012829D01*
X195327899Y-110847407D01*
X195218772Y-110697207D01*
X195087493Y-110565928D01*
X194937293Y-110456801D01*
X194771871Y-110372515D01*
X194595300Y-110315143D01*
X194595297Y-110315142D01*
X194590667Y-110313638D01*
X194591377Y-110311452D01*
X194539014Y-110281397D01*
X194506840Y-110219376D01*
X194513305Y-110149806D01*
X194556356Y-110094776D01*
X194591104Y-110078907D01*
X194590667Y-110077562D01*
X194595297Y-110076057D01*
X194595300Y-110076057D01*
X194771871Y-110018685D01*
X194937293Y-109934399D01*
X195087493Y-109825272D01*
X195218772Y-109693993D01*
X195327899Y-109543793D01*
X195412185Y-109378371D01*
X195469557Y-109201800D01*
X195483568Y-109113340D01*
X195498600Y-109018434D01*
X195498600Y-108832765D01*
X195475717Y-108688292D01*
X195469557Y-108649400D01*
X195412185Y-108472829D01*
X195327899Y-108307407D01*
X195218772Y-108157207D01*
X195087493Y-108025928D01*
X194937293Y-107916801D01*
X194771871Y-107832515D01*
X194595300Y-107775143D01*
X194595297Y-107775142D01*
X194590667Y-107773638D01*
X194591377Y-107771452D01*
X194539014Y-107741397D01*
X194506840Y-107679376D01*
X194513305Y-107609806D01*
X194556356Y-107554776D01*
X194591104Y-107538907D01*
X194590667Y-107537562D01*
X194595297Y-107536057D01*
X194595300Y-107536057D01*
X194771871Y-107478685D01*
X194937293Y-107394399D01*
X195087493Y-107285272D01*
X195218772Y-107153993D01*
X195327899Y-107003793D01*
X195412185Y-106838371D01*
X195469557Y-106661800D01*
X195485428Y-106561595D01*
X195498600Y-106478434D01*
X195498600Y-106292765D01*
X195475717Y-106148292D01*
X195469557Y-106109400D01*
X195412185Y-105932829D01*
X195327899Y-105767407D01*
X195218772Y-105617207D01*
X195087493Y-105485928D01*
X194937293Y-105376801D01*
X194771871Y-105292515D01*
X194595300Y-105235143D01*
X194595297Y-105235142D01*
X194590667Y-105233638D01*
X194591377Y-105231452D01*
X194539014Y-105201397D01*
X194506840Y-105139376D01*
X194513305Y-105069806D01*
X194556356Y-105014776D01*
X194591104Y-104998907D01*
X194590667Y-104997562D01*
X194595297Y-104996057D01*
X194595300Y-104996057D01*
X194771871Y-104938685D01*
X194937293Y-104854399D01*
X195087493Y-104745272D01*
X195218772Y-104613993D01*
X195327899Y-104463793D01*
X195412185Y-104298371D01*
X195469557Y-104121800D01*
X195483568Y-104033340D01*
X195498600Y-103938434D01*
X195498600Y-103752765D01*
X195475717Y-103608292D01*
X195469557Y-103569400D01*
X195412185Y-103392829D01*
X195327899Y-103227407D01*
X195218772Y-103077207D01*
X195087493Y-102945928D01*
X194937293Y-102836801D01*
X194771871Y-102752515D01*
X194595300Y-102695143D01*
X194595297Y-102695142D01*
X194590667Y-102693638D01*
X194591377Y-102691452D01*
X194539014Y-102661397D01*
X194506840Y-102599376D01*
X194513305Y-102529806D01*
X194556356Y-102474776D01*
X194591104Y-102458907D01*
X194590667Y-102457562D01*
X194595297Y-102456057D01*
X194595300Y-102456057D01*
X194771871Y-102398685D01*
X194937293Y-102314399D01*
X195087493Y-102205272D01*
X195218772Y-102073993D01*
X195327899Y-101923793D01*
X195412185Y-101758371D01*
X195469557Y-101581800D01*
X195483568Y-101493340D01*
X195498600Y-101398434D01*
X195498600Y-101212765D01*
X195473211Y-101052473D01*
X195469557Y-101029400D01*
X195412185Y-100852829D01*
X195327899Y-100687407D01*
X195218772Y-100537207D01*
X195087493Y-100405928D01*
X194937293Y-100296801D01*
X194771871Y-100212515D01*
X194595300Y-100155143D01*
X194595297Y-100155142D01*
X194590667Y-100153638D01*
X194591377Y-100151452D01*
X194539014Y-100121397D01*
X194506840Y-100059376D01*
X194513305Y-99989806D01*
X194556356Y-99934776D01*
X194591104Y-99918907D01*
X194590667Y-99917562D01*
X194595297Y-99916057D01*
X194595300Y-99916057D01*
X194771871Y-99858685D01*
X194937293Y-99774399D01*
X195087493Y-99665272D01*
X195218772Y-99533993D01*
X195327899Y-99383793D01*
X195412185Y-99218371D01*
X195469557Y-99041800D01*
X195486926Y-98932135D01*
X195498600Y-98858434D01*
X195498600Y-98672765D01*
X195475717Y-98528292D01*
X195469557Y-98489400D01*
X195412185Y-98312829D01*
X195327899Y-98147407D01*
X195218772Y-97997207D01*
X195087493Y-97865928D01*
X194937293Y-97756801D01*
X194771871Y-97672515D01*
X194595300Y-97615143D01*
X194595297Y-97615142D01*
X194590667Y-97613638D01*
X194591377Y-97611452D01*
X194539014Y-97581397D01*
X194506840Y-97519376D01*
X194513305Y-97449806D01*
X194556356Y-97394776D01*
X194591104Y-97378907D01*
X194590667Y-97377562D01*
X194595297Y-97376057D01*
X194595300Y-97376057D01*
X194771871Y-97318685D01*
X194937293Y-97234399D01*
X195087493Y-97125272D01*
X195218772Y-96993993D01*
X195327899Y-96843793D01*
X195412185Y-96678371D01*
X195469557Y-96501800D01*
X195485976Y-96398133D01*
X195498600Y-96318434D01*
X195498600Y-96132765D01*
X195473169Y-95972207D01*
X195469557Y-95949400D01*
X195412185Y-95772829D01*
X195327899Y-95607407D01*
X195218772Y-95457207D01*
X195087493Y-95325928D01*
X194937293Y-95216801D01*
X194771871Y-95132515D01*
X194595300Y-95075143D01*
X194595297Y-95075142D01*
X194590667Y-95073638D01*
X194591377Y-95071452D01*
X194539014Y-95041397D01*
X194506840Y-94979376D01*
X194513305Y-94909806D01*
X194556356Y-94854776D01*
X194591104Y-94838907D01*
X194590667Y-94837562D01*
X194595297Y-94836057D01*
X194595300Y-94836057D01*
X194771871Y-94778685D01*
X194937293Y-94694399D01*
X195087493Y-94585272D01*
X195218772Y-94453993D01*
X195327899Y-94303793D01*
X195412185Y-94138371D01*
X195469557Y-93961800D01*
X195490526Y-93829407D01*
X195498600Y-93778434D01*
X195498600Y-93592765D01*
X195472346Y-93427009D01*
X195469557Y-93409400D01*
X195412185Y-93232829D01*
X195327899Y-93067407D01*
X195218772Y-92917207D01*
X195087493Y-92785928D01*
X194937293Y-92676801D01*
X194771871Y-92592515D01*
X194595300Y-92535143D01*
X194595297Y-92535142D01*
X194590667Y-92533638D01*
X194591377Y-92531452D01*
X194539014Y-92501397D01*
X194506840Y-92439376D01*
X194513305Y-92369806D01*
X194556356Y-92314776D01*
X194591104Y-92298907D01*
X194590667Y-92297562D01*
X194595297Y-92296057D01*
X194595300Y-92296057D01*
X194771871Y-92238685D01*
X194937293Y-92154399D01*
X195087493Y-92045272D01*
X195218772Y-91913993D01*
X195327899Y-91763793D01*
X195412185Y-91598371D01*
X195469557Y-91421800D01*
X195483568Y-91333340D01*
X195498600Y-91238434D01*
X195498600Y-91052765D01*
X195473880Y-90896696D01*
X195469557Y-90869400D01*
X195412185Y-90692829D01*
X195327899Y-90527407D01*
X195218772Y-90377207D01*
X195087493Y-90245928D01*
X194937293Y-90136801D01*
X194771871Y-90052515D01*
X194595300Y-89995143D01*
X194595297Y-89995142D01*
X194590667Y-89993638D01*
X194591377Y-89991452D01*
X194539014Y-89961397D01*
X194506840Y-89899376D01*
X194513305Y-89829806D01*
X194556356Y-89774776D01*
X194591104Y-89758907D01*
X194590667Y-89757562D01*
X194595297Y-89756057D01*
X194595300Y-89756057D01*
X194771871Y-89698685D01*
X194937293Y-89614399D01*
X195087493Y-89505272D01*
X195218772Y-89373993D01*
X195327899Y-89223793D01*
X195412185Y-89058371D01*
X195469557Y-88881800D01*
X195489240Y-88757525D01*
X195498600Y-88698434D01*
X195498600Y-88512765D01*
X195475717Y-88368292D01*
X195469557Y-88329400D01*
X195412185Y-88152829D01*
X195327899Y-87987407D01*
X195218772Y-87837207D01*
X195087493Y-87705928D01*
X194937293Y-87596801D01*
X194771871Y-87512515D01*
X194595300Y-87455143D01*
X194595297Y-87455142D01*
X194590667Y-87453638D01*
X194591377Y-87451452D01*
X194539014Y-87421397D01*
X194506840Y-87359376D01*
X194513305Y-87289806D01*
X194556356Y-87234776D01*
X194591104Y-87218907D01*
X194590667Y-87217562D01*
X194595297Y-87216057D01*
X194595300Y-87216057D01*
X194771871Y-87158685D01*
X194937293Y-87074399D01*
X195087493Y-86965272D01*
X195218772Y-86833993D01*
X195327899Y-86683793D01*
X195412185Y-86518371D01*
X195469557Y-86341800D01*
X195492000Y-86200100D01*
X195498600Y-86158434D01*
X195498600Y-85972765D01*
X195473807Y-85816236D01*
X195469557Y-85789400D01*
X195412185Y-85612829D01*
X195327899Y-85447407D01*
X195218772Y-85297207D01*
X195087493Y-85165928D01*
X194937293Y-85056801D01*
X194771871Y-84972515D01*
X194595300Y-84915143D01*
X194595297Y-84915142D01*
X194590667Y-84913638D01*
X194591377Y-84911452D01*
X194539014Y-84881397D01*
X194506840Y-84819376D01*
X194513305Y-84749806D01*
X194556356Y-84694776D01*
X194591104Y-84678907D01*
X194590667Y-84677562D01*
X194595297Y-84676057D01*
X194595300Y-84676057D01*
X194771871Y-84618685D01*
X194937293Y-84534399D01*
X195087493Y-84425272D01*
X195218772Y-84293993D01*
X195327899Y-84143793D01*
X195412185Y-83978371D01*
X195469557Y-83801800D01*
X195487187Y-83690489D01*
X195498600Y-83618434D01*
X195498600Y-83432765D01*
X195470551Y-83255677D01*
X195469557Y-83249400D01*
X195412185Y-83072829D01*
X195327899Y-82907407D01*
X195218772Y-82757207D01*
X195087493Y-82625928D01*
X194937293Y-82516801D01*
X194771871Y-82432515D01*
X194595300Y-82375143D01*
X194595297Y-82375142D01*
X194590667Y-82373638D01*
X194591377Y-82371452D01*
X194539014Y-82341397D01*
X194506840Y-82279376D01*
X194513305Y-82209806D01*
X194556356Y-82154776D01*
X194591104Y-82138907D01*
X194590667Y-82137562D01*
X194595297Y-82136057D01*
X194595300Y-82136057D01*
X194771871Y-82078685D01*
X194937293Y-81994399D01*
X195087493Y-81885272D01*
X195218772Y-81753993D01*
X195327899Y-81603793D01*
X195412185Y-81438371D01*
X195469557Y-81261800D01*
X195494093Y-81106888D01*
X195498600Y-81078434D01*
X195498600Y-80892765D01*
X195471971Y-80724644D01*
X195469557Y-80709400D01*
X195412185Y-80532829D01*
X195327899Y-80367407D01*
X195218772Y-80217207D01*
X195087493Y-80085928D01*
X194937293Y-79976801D01*
X194771871Y-79892515D01*
X194595300Y-79835143D01*
X194595298Y-79835142D01*
X194595296Y-79835142D01*
X194411934Y-79806100D01*
X194411929Y-79806100D01*
X194226271Y-79806100D01*
X194226266Y-79806100D01*
X194042903Y-79835142D01*
X193866326Y-79892516D01*
X193700906Y-79976801D01*
X193615211Y-80039062D01*
X193550707Y-80085928D01*
X193550705Y-80085930D01*
X193550704Y-80085930D01*
X193426854Y-80209781D01*
X193365531Y-80243266D01*
X193339173Y-80246100D01*
X192759027Y-80246100D01*
X192691988Y-80226415D01*
X192671346Y-80209781D01*
X192547495Y-80085930D01*
X192547493Y-80085928D01*
X192397293Y-79976801D01*
X192231871Y-79892515D01*
X192055300Y-79835143D01*
X192055298Y-79835142D01*
X192055296Y-79835142D01*
X191871934Y-79806100D01*
X191871929Y-79806100D01*
X191686271Y-79806100D01*
X191686266Y-79806100D01*
X191502903Y-79835142D01*
X191326326Y-79892516D01*
X191160906Y-79976801D01*
X191075211Y-80039062D01*
X191010707Y-80085928D01*
X191010705Y-80085930D01*
X191010704Y-80085930D01*
X190879430Y-80217204D01*
X190879430Y-80217205D01*
X190879428Y-80217207D01*
X190835270Y-80277985D01*
X190770301Y-80367406D01*
X190686016Y-80532826D01*
X190628642Y-80709403D01*
X190599600Y-80892765D01*
X190599600Y-81016319D01*
X190579915Y-81083358D01*
X190563281Y-81104000D01*
X189911097Y-81756183D01*
X189849774Y-81789668D01*
X189780082Y-81784684D01*
X189724149Y-81742812D01*
X189699732Y-81677348D01*
X189708854Y-81621050D01*
X189725154Y-81581700D01*
X189787938Y-81347389D01*
X189819600Y-81106888D01*
X189819600Y-80864312D01*
X189787938Y-80623811D01*
X189725154Y-80389500D01*
X189632324Y-80165388D01*
X189511036Y-79955311D01*
X189363365Y-79762862D01*
X189363360Y-79762856D01*
X189191843Y-79591339D01*
X189191836Y-79591333D01*
X188999393Y-79443667D01*
X188999392Y-79443666D01*
X188999389Y-79443664D01*
X188789312Y-79322376D01*
X188789305Y-79322373D01*
X188565204Y-79229547D01*
X188330885Y-79166761D01*
X188090389Y-79135100D01*
X188090388Y-79135100D01*
X187847812Y-79135100D01*
X187847811Y-79135100D01*
X187607314Y-79166761D01*
X187372995Y-79229547D01*
X187148894Y-79322373D01*
X187148885Y-79322377D01*
X186938806Y-79443667D01*
X186746363Y-79591333D01*
X186746356Y-79591339D01*
X186574839Y-79762856D01*
X186574833Y-79762863D01*
X186427167Y-79955306D01*
X186427164Y-79955310D01*
X186427164Y-79955311D01*
X186414757Y-79976801D01*
X186305877Y-80165385D01*
X186305873Y-80165394D01*
X186213047Y-80389495D01*
X186150261Y-80623814D01*
X186118600Y-80864311D01*
X186118600Y-81106888D01*
X186147404Y-81325684D01*
X186150262Y-81347389D01*
X186171737Y-81427534D01*
X186213047Y-81581704D01*
X186299189Y-81789668D01*
X186305876Y-81805812D01*
X186427164Y-82015889D01*
X186427166Y-82015892D01*
X186427167Y-82015893D01*
X186574833Y-82208336D01*
X186574839Y-82208343D01*
X186746356Y-82379860D01*
X186746362Y-82379865D01*
X186938811Y-82527536D01*
X187148888Y-82648824D01*
X187373000Y-82741654D01*
X187607311Y-82804438D01*
X187787686Y-82828184D01*
X187847811Y-82836100D01*
X187847812Y-82836100D01*
X188090389Y-82836100D01*
X188138488Y-82829767D01*
X188330889Y-82804438D01*
X188565200Y-82741654D01*
X188604549Y-82725354D01*
X188674018Y-82717886D01*
X188736497Y-82749160D01*
X188772150Y-82809249D01*
X188769657Y-82879074D01*
X188739683Y-82927597D01*
X186610480Y-85056801D01*
X184550092Y-87117189D01*
X184508598Y-87158683D01*
X184462686Y-87204594D01*
X184462685Y-87204596D01*
X184393333Y-87308389D01*
X184391686Y-87312993D01*
X184346714Y-87421564D01*
X184346712Y-87421572D01*
X184322600Y-87542792D01*
X184322600Y-88431687D01*
X184302915Y-88498726D01*
X184271485Y-88532005D01*
X184132854Y-88632725D01*
X184132849Y-88632729D01*
X183993221Y-88772357D01*
X183962752Y-88814295D01*
X183892494Y-88910996D01*
X183837167Y-88953661D01*
X183792178Y-88962110D01*
X174122412Y-88962110D01*
X174055373Y-88942425D01*
X174034731Y-88925791D01*
X173934454Y-88825514D01*
X172795938Y-87686993D01*
X172762453Y-87625670D01*
X172759619Y-87599312D01*
X172759619Y-86481719D01*
X172759618Y-86481713D01*
X172753211Y-86422106D01*
X172702917Y-86287261D01*
X172702913Y-86287254D01*
X172616667Y-86172045D01*
X172616664Y-86172042D01*
X172501455Y-86085796D01*
X172501450Y-86085793D01*
X172401728Y-86048599D01*
X172345795Y-86006727D01*
X172321378Y-85941263D01*
X172336230Y-85872990D01*
X172357378Y-85844739D01*
X176060604Y-82141513D01*
X176121925Y-82108030D01*
X176186599Y-82111264D01*
X176262900Y-82136057D01*
X176354585Y-82150578D01*
X176446266Y-82165100D01*
X176446271Y-82165100D01*
X176631934Y-82165100D01*
X176734705Y-82148822D01*
X176815300Y-82136057D01*
X176991871Y-82078685D01*
X177157293Y-81994399D01*
X177307493Y-81885272D01*
X177438772Y-81753993D01*
X177547899Y-81603793D01*
X177632185Y-81438371D01*
X177689557Y-81261800D01*
X177689558Y-81261796D01*
X177691062Y-81257167D01*
X177693247Y-81257877D01*
X177723303Y-81205514D01*
X177785324Y-81173340D01*
X177854894Y-81179805D01*
X177909924Y-81222856D01*
X177925792Y-81257604D01*
X177927138Y-81257167D01*
X177928642Y-81261796D01*
X177928643Y-81261800D01*
X177986015Y-81438371D01*
X178070301Y-81603793D01*
X178179428Y-81753993D01*
X178310707Y-81885272D01*
X178460907Y-81994399D01*
X178626329Y-82078685D01*
X178802900Y-82136057D01*
X178858588Y-82144877D01*
X178986266Y-82165100D01*
X178986271Y-82165100D01*
X179171934Y-82165100D01*
X179274705Y-82148822D01*
X179355300Y-82136057D01*
X179531871Y-82078685D01*
X179697293Y-81994399D01*
X179847493Y-81885272D01*
X179978772Y-81753993D01*
X180087899Y-81603793D01*
X180172185Y-81438371D01*
X180229557Y-81261800D01*
X180229558Y-81261796D01*
X180231062Y-81257167D01*
X180233247Y-81257877D01*
X180263303Y-81205514D01*
X180325324Y-81173340D01*
X180394894Y-81179805D01*
X180449924Y-81222856D01*
X180465792Y-81257604D01*
X180467138Y-81257167D01*
X180468642Y-81261796D01*
X180468643Y-81261800D01*
X180526015Y-81438371D01*
X180610301Y-81603793D01*
X180719428Y-81753993D01*
X180850707Y-81885272D01*
X181000907Y-81994399D01*
X181166329Y-82078685D01*
X181342900Y-82136057D01*
X181398588Y-82144877D01*
X181526266Y-82165100D01*
X181526271Y-82165100D01*
X181711934Y-82165100D01*
X181814705Y-82148822D01*
X181895300Y-82136057D01*
X182071871Y-82078685D01*
X182237293Y-81994399D01*
X182387493Y-81885272D01*
X182518772Y-81753993D01*
X182627899Y-81603793D01*
X182712185Y-81438371D01*
X182769557Y-81261800D01*
X182769558Y-81261796D01*
X182771062Y-81257167D01*
X182773247Y-81257877D01*
X182803303Y-81205514D01*
X182865324Y-81173340D01*
X182934894Y-81179805D01*
X182989924Y-81222856D01*
X183005792Y-81257604D01*
X183007138Y-81257167D01*
X183008642Y-81261796D01*
X183008643Y-81261800D01*
X183066015Y-81438371D01*
X183150301Y-81603793D01*
X183259428Y-81753993D01*
X183390707Y-81885272D01*
X183540907Y-81994399D01*
X183706329Y-82078685D01*
X183882900Y-82136057D01*
X183938588Y-82144877D01*
X184066266Y-82165100D01*
X184066271Y-82165100D01*
X184251934Y-82165100D01*
X184354705Y-82148822D01*
X184435300Y-82136057D01*
X184611871Y-82078685D01*
X184777293Y-81994399D01*
X184927493Y-81885272D01*
X185058772Y-81753993D01*
X185167899Y-81603793D01*
X185252185Y-81438371D01*
X185309557Y-81261800D01*
X185334093Y-81106888D01*
X185338600Y-81078434D01*
X185338600Y-80892765D01*
X185311971Y-80724644D01*
X185309557Y-80709400D01*
X185252185Y-80532829D01*
X185167899Y-80367407D01*
X185058772Y-80217207D01*
X184927493Y-80085928D01*
X184777293Y-79976801D01*
X184611871Y-79892515D01*
X184435300Y-79835143D01*
X184435298Y-79835142D01*
X184435296Y-79835142D01*
X184251934Y-79806100D01*
X184251929Y-79806100D01*
X184066271Y-79806100D01*
X184066266Y-79806100D01*
X183882903Y-79835142D01*
X183706326Y-79892516D01*
X183540906Y-79976801D01*
X183455211Y-80039062D01*
X183390707Y-80085928D01*
X183390705Y-80085930D01*
X183390704Y-80085930D01*
X183259430Y-80217204D01*
X183259430Y-80217205D01*
X183259428Y-80217207D01*
X183215270Y-80277985D01*
X183150301Y-80367406D01*
X183066016Y-80532826D01*
X183066015Y-80532828D01*
X183066015Y-80532829D01*
X183029401Y-80645516D01*
X183007138Y-80714033D01*
X183004964Y-80713326D01*
X182974852Y-80765729D01*
X182912814Y-80797871D01*
X182843248Y-80791371D01*
X182788239Y-80748292D01*
X182772395Y-80713599D01*
X182771062Y-80714033D01*
X182763659Y-80691248D01*
X182712185Y-80532829D01*
X182627899Y-80367407D01*
X182518772Y-80217207D01*
X182387493Y-80085928D01*
X182237293Y-79976801D01*
X182071871Y-79892515D01*
X181895300Y-79835143D01*
X181895298Y-79835142D01*
X181895296Y-79835142D01*
X181711934Y-79806100D01*
X181711929Y-79806100D01*
X181526271Y-79806100D01*
X181526266Y-79806100D01*
X181342903Y-79835142D01*
X181166326Y-79892516D01*
X181000906Y-79976801D01*
X180915211Y-80039062D01*
X180850707Y-80085928D01*
X180850705Y-80085930D01*
X180850704Y-80085930D01*
X180719430Y-80217204D01*
X180719430Y-80217205D01*
X180719428Y-80217207D01*
X180675270Y-80277985D01*
X180610301Y-80367406D01*
X180526016Y-80532826D01*
X180526015Y-80532828D01*
X180526015Y-80532829D01*
X180489401Y-80645516D01*
X180467138Y-80714033D01*
X180464964Y-80713326D01*
X180434852Y-80765729D01*
X180372814Y-80797871D01*
X180303248Y-80791371D01*
X180248239Y-80748292D01*
X180232395Y-80713599D01*
X180231062Y-80714033D01*
X180223659Y-80691248D01*
X180172185Y-80532829D01*
X180087899Y-80367407D01*
X179978772Y-80217207D01*
X179847493Y-80085928D01*
X179697293Y-79976801D01*
X179531871Y-79892515D01*
X179355300Y-79835143D01*
X179355298Y-79835142D01*
X179355296Y-79835142D01*
X179171934Y-79806100D01*
X179171929Y-79806100D01*
X178986271Y-79806100D01*
X178986266Y-79806100D01*
X178802903Y-79835142D01*
X178626326Y-79892516D01*
X178460906Y-79976801D01*
X178375211Y-80039062D01*
X178310707Y-80085928D01*
X178310705Y-80085930D01*
X178310704Y-80085930D01*
X178179430Y-80217204D01*
X178179430Y-80217205D01*
X178179428Y-80217207D01*
X178135270Y-80277985D01*
X178070301Y-80367406D01*
X177986016Y-80532826D01*
X177986015Y-80532828D01*
X177986015Y-80532829D01*
X177949401Y-80645516D01*
X177927138Y-80714033D01*
X177924964Y-80713326D01*
X177894852Y-80765729D01*
X177832814Y-80797871D01*
X177763248Y-80791371D01*
X177708239Y-80748292D01*
X177692395Y-80713599D01*
X177691062Y-80714033D01*
X177683659Y-80691248D01*
X177632185Y-80532829D01*
X177547899Y-80367407D01*
X177438772Y-80217207D01*
X177307493Y-80085928D01*
X177157293Y-79976801D01*
X176991871Y-79892515D01*
X176815300Y-79835143D01*
X176815298Y-79835142D01*
X176815296Y-79835142D01*
X176631934Y-79806100D01*
X176631929Y-79806100D01*
X176446271Y-79806100D01*
X176446266Y-79806100D01*
X176262903Y-79835142D01*
X176086326Y-79892516D01*
X175920906Y-79976801D01*
X175835211Y-80039062D01*
X175770707Y-80085928D01*
X175770705Y-80085930D01*
X175770704Y-80085930D01*
X175639430Y-80217204D01*
X175639430Y-80217205D01*
X175639428Y-80217207D01*
X175595270Y-80277985D01*
X175530301Y-80367406D01*
X175446016Y-80532826D01*
X175446015Y-80532828D01*
X175446015Y-80532829D01*
X175409401Y-80645516D01*
X175387138Y-80714033D01*
X175384964Y-80713326D01*
X175354852Y-80765729D01*
X175292814Y-80797871D01*
X175223248Y-80791371D01*
X175168239Y-80748292D01*
X175152395Y-80713599D01*
X175151062Y-80714033D01*
X175143659Y-80691248D01*
X175092185Y-80532829D01*
X175007899Y-80367407D01*
X174898772Y-80217207D01*
X174767493Y-80085928D01*
X174617293Y-79976801D01*
X174451871Y-79892515D01*
X174275300Y-79835143D01*
X174275298Y-79835142D01*
X174275296Y-79835142D01*
X174091934Y-79806100D01*
X174091929Y-79806100D01*
X173906271Y-79806100D01*
X173906266Y-79806100D01*
X173722903Y-79835142D01*
X173546326Y-79892516D01*
X173380906Y-79976801D01*
X173295211Y-80039062D01*
X173230707Y-80085928D01*
X173230705Y-80085930D01*
X173230704Y-80085930D01*
X173099430Y-80217204D01*
X173099430Y-80217205D01*
X173099428Y-80217207D01*
X173055270Y-80277985D01*
X172990301Y-80367406D01*
X172906016Y-80532826D01*
X172906015Y-80532828D01*
X172906015Y-80532829D01*
X172869401Y-80645516D01*
X172847138Y-80714033D01*
X172844964Y-80713326D01*
X172814852Y-80765729D01*
X172752814Y-80797871D01*
X172683248Y-80791371D01*
X172628239Y-80748292D01*
X172612395Y-80713599D01*
X172611062Y-80714033D01*
X172603659Y-80691248D01*
X172552185Y-80532829D01*
X172467899Y-80367407D01*
X172358772Y-80217207D01*
X172227493Y-80085928D01*
X172077293Y-79976801D01*
X171911871Y-79892515D01*
X171735300Y-79835143D01*
X171735298Y-79835142D01*
X171735296Y-79835142D01*
X171551934Y-79806100D01*
X171551929Y-79806100D01*
X171366271Y-79806100D01*
X171366266Y-79806100D01*
X171182903Y-79835142D01*
X171006326Y-79892516D01*
X170840906Y-79976801D01*
X170755211Y-80039062D01*
X170690707Y-80085928D01*
X170690705Y-80085930D01*
X170690704Y-80085930D01*
X170559430Y-80217204D01*
X170559430Y-80217205D01*
X170559428Y-80217207D01*
X170515270Y-80277985D01*
X170450301Y-80367406D01*
X170366016Y-80532826D01*
X170366015Y-80532828D01*
X170366015Y-80532829D01*
X170329401Y-80645516D01*
X170307138Y-80714033D01*
X170304964Y-80713326D01*
X170274852Y-80765729D01*
X170212814Y-80797871D01*
X170143248Y-80791371D01*
X170088239Y-80748292D01*
X170072395Y-80713599D01*
X170071062Y-80714033D01*
X170063659Y-80691248D01*
X170012185Y-80532829D01*
X169927899Y-80367407D01*
X169818772Y-80217207D01*
X169687493Y-80085928D01*
X169537293Y-79976801D01*
X169371871Y-79892515D01*
X169195300Y-79835143D01*
X169195298Y-79835142D01*
X169195296Y-79835142D01*
X169011934Y-79806100D01*
X169011929Y-79806100D01*
X168826271Y-79806100D01*
X168826266Y-79806100D01*
X168642903Y-79835142D01*
X168466326Y-79892516D01*
X168300906Y-79976801D01*
X168215211Y-80039062D01*
X168150707Y-80085928D01*
X168150705Y-80085930D01*
X168150704Y-80085930D01*
X168019430Y-80217204D01*
X168019430Y-80217205D01*
X168019428Y-80217207D01*
X167975270Y-80277985D01*
X167910301Y-80367406D01*
X167826016Y-80532826D01*
X167826015Y-80532828D01*
X167826015Y-80532829D01*
X167789401Y-80645516D01*
X167767138Y-80714033D01*
X167764964Y-80713326D01*
X167734852Y-80765729D01*
X167672814Y-80797871D01*
X167603248Y-80791371D01*
X167548239Y-80748292D01*
X167532395Y-80713599D01*
X167531062Y-80714033D01*
X167523659Y-80691248D01*
X167472185Y-80532829D01*
X167387899Y-80367407D01*
X167278772Y-80217207D01*
X167147493Y-80085928D01*
X166997293Y-79976801D01*
X166831871Y-79892515D01*
X166655300Y-79835143D01*
X166655298Y-79835142D01*
X166655296Y-79835142D01*
X166471934Y-79806100D01*
X166471929Y-79806100D01*
X166286271Y-79806100D01*
X166286266Y-79806100D01*
X166102903Y-79835142D01*
X165926326Y-79892516D01*
X165760906Y-79976801D01*
X165675211Y-80039062D01*
X165610707Y-80085928D01*
X165610705Y-80085930D01*
X165610704Y-80085930D01*
X165479430Y-80217204D01*
X165479430Y-80217205D01*
X165479428Y-80217207D01*
X165435270Y-80277985D01*
X165370301Y-80367406D01*
X165286016Y-80532826D01*
X165228642Y-80709403D01*
X165199600Y-80892765D01*
X165199600Y-81078434D01*
X165228642Y-81261796D01*
X165228643Y-81261800D01*
X165286015Y-81438371D01*
X165370301Y-81603793D01*
X165479428Y-81753993D01*
X165610707Y-81885272D01*
X165760907Y-81994399D01*
X165926329Y-82078685D01*
X166102900Y-82136057D01*
X166158588Y-82144877D01*
X166286266Y-82165100D01*
X166286271Y-82165100D01*
X166471934Y-82165100D01*
X166574705Y-82148822D01*
X166655300Y-82136057D01*
X166831871Y-82078685D01*
X166997293Y-81994399D01*
X167147493Y-81885272D01*
X167278772Y-81753993D01*
X167387899Y-81603793D01*
X167472185Y-81438371D01*
X167529557Y-81261800D01*
X167529558Y-81261796D01*
X167531062Y-81257167D01*
X167533247Y-81257877D01*
X167563303Y-81205514D01*
X167625324Y-81173340D01*
X167694894Y-81179805D01*
X167749924Y-81222856D01*
X167765792Y-81257604D01*
X167767138Y-81257167D01*
X167768642Y-81261796D01*
X167768643Y-81261800D01*
X167826015Y-81438371D01*
X167910301Y-81603793D01*
X168019428Y-81753993D01*
X168150707Y-81885272D01*
X168300907Y-81994399D01*
X168466329Y-82078685D01*
X168642900Y-82136057D01*
X168698588Y-82144877D01*
X168826266Y-82165100D01*
X168826271Y-82165100D01*
X169011934Y-82165100D01*
X169114705Y-82148822D01*
X169195300Y-82136057D01*
X169371871Y-82078685D01*
X169537293Y-81994399D01*
X169687493Y-81885272D01*
X169818772Y-81753993D01*
X169927899Y-81603793D01*
X170012185Y-81438371D01*
X170069557Y-81261800D01*
X170069558Y-81261796D01*
X170071062Y-81257167D01*
X170073247Y-81257877D01*
X170103303Y-81205514D01*
X170165324Y-81173340D01*
X170234894Y-81179805D01*
X170289924Y-81222856D01*
X170305792Y-81257604D01*
X170307138Y-81257167D01*
X170308642Y-81261796D01*
X170308643Y-81261800D01*
X170366015Y-81438371D01*
X170450301Y-81603793D01*
X170559428Y-81753993D01*
X170690707Y-81885272D01*
X170840907Y-81994399D01*
X171006329Y-82078685D01*
X171182900Y-82136057D01*
X171238588Y-82144877D01*
X171366266Y-82165100D01*
X171366271Y-82165100D01*
X171551934Y-82165100D01*
X171654705Y-82148822D01*
X171735300Y-82136057D01*
X171911871Y-82078685D01*
X172077293Y-81994399D01*
X172227493Y-81885272D01*
X172358772Y-81753993D01*
X172467899Y-81603793D01*
X172552185Y-81438371D01*
X172609557Y-81261800D01*
X172609558Y-81261796D01*
X172611062Y-81257167D01*
X172613247Y-81257877D01*
X172643303Y-81205514D01*
X172705324Y-81173340D01*
X172774894Y-81179805D01*
X172829924Y-81222856D01*
X172845792Y-81257604D01*
X172847138Y-81257167D01*
X172848642Y-81261796D01*
X172848643Y-81261800D01*
X172906015Y-81438371D01*
X172990301Y-81603793D01*
X173099428Y-81753993D01*
X173230707Y-81885272D01*
X173380907Y-81994399D01*
X173546329Y-82078685D01*
X173722900Y-82136057D01*
X173778588Y-82144877D01*
X173906266Y-82165100D01*
X173962818Y-82165100D01*
X174029857Y-82184785D01*
X174075612Y-82237589D01*
X174085556Y-82306747D01*
X174056531Y-82370303D01*
X174050499Y-82376781D01*
X171340700Y-85086581D01*
X171279377Y-85120066D01*
X171253019Y-85122900D01*
X160224892Y-85122900D01*
X160103672Y-85147012D01*
X160103664Y-85147014D01*
X160041915Y-85172592D01*
X159989470Y-85194315D01*
X159989460Y-85194320D01*
X159886692Y-85262988D01*
X159886688Y-85262991D01*
X153890900Y-91258781D01*
X153829577Y-91292266D01*
X153803219Y-91295100D01*
X144570481Y-91295100D01*
X144503442Y-91275415D01*
X144457687Y-91222611D01*
X144447743Y-91153453D01*
X144459997Y-91114804D01*
X144473407Y-91088485D01*
X144473410Y-91088478D01*
X144528639Y-90918501D01*
X144528639Y-90918500D01*
X144528640Y-90918497D01*
X144556600Y-90741966D01*
X144556600Y-90563234D01*
X144528640Y-90386703D01*
X144528639Y-90386699D01*
X144528639Y-90386698D01*
X144473410Y-90216721D01*
X144473408Y-90216718D01*
X144461322Y-90192996D01*
X144392267Y-90057468D01*
X144287211Y-89912872D01*
X144160828Y-89786489D01*
X144016232Y-89681433D01*
X143856981Y-89600291D01*
X143856978Y-89600289D01*
X143686999Y-89545060D01*
X143569309Y-89526420D01*
X143510466Y-89517100D01*
X143331734Y-89517100D01*
X143257122Y-89528917D01*
X143187829Y-89519962D01*
X143150044Y-89494125D01*
X139686700Y-86030781D01*
X139653215Y-85969458D01*
X139658199Y-85899766D01*
X139700071Y-85843833D01*
X139765535Y-85819416D01*
X139774381Y-85819100D01*
X139954465Y-85819100D01*
X139954466Y-85819100D01*
X140029076Y-85807282D01*
X140034501Y-85807983D01*
X140039628Y-85806071D01*
X140068779Y-85812412D01*
X140098368Y-85816236D01*
X140103972Y-85820068D01*
X140107901Y-85820923D01*
X140136155Y-85842074D01*
X140266689Y-85972608D01*
X140323171Y-86029090D01*
X140354094Y-86060013D01*
X140354096Y-86060014D01*
X140456856Y-86128676D01*
X140456858Y-86128677D01*
X140456867Y-86128683D01*
X140481872Y-86139040D01*
X140504171Y-86148277D01*
X140546354Y-86165749D01*
X140571066Y-86175986D01*
X140692292Y-86200099D01*
X140692296Y-86200100D01*
X140692297Y-86200100D01*
X148943904Y-86200100D01*
X148943905Y-86200099D01*
X149065135Y-86175986D01*
X149145884Y-86142537D01*
X149179333Y-86128683D01*
X149282108Y-86060011D01*
X149369511Y-85972608D01*
X153200604Y-82141513D01*
X153261925Y-82108030D01*
X153326599Y-82111264D01*
X153402900Y-82136057D01*
X153494585Y-82150578D01*
X153586266Y-82165100D01*
X153586271Y-82165100D01*
X153771934Y-82165100D01*
X153874705Y-82148822D01*
X153955300Y-82136057D01*
X154131871Y-82078685D01*
X154297293Y-81994399D01*
X154447493Y-81885272D01*
X154578772Y-81753993D01*
X154687899Y-81603793D01*
X154772185Y-81438371D01*
X154829557Y-81261800D01*
X154829558Y-81261796D01*
X154831062Y-81257167D01*
X154833247Y-81257877D01*
X154863303Y-81205514D01*
X154925324Y-81173340D01*
X154994894Y-81179805D01*
X155049924Y-81222856D01*
X155065792Y-81257604D01*
X155067138Y-81257167D01*
X155068642Y-81261796D01*
X155068643Y-81261800D01*
X155126015Y-81438371D01*
X155210301Y-81603793D01*
X155319428Y-81753993D01*
X155450707Y-81885272D01*
X155600907Y-81994399D01*
X155766329Y-82078685D01*
X155942900Y-82136057D01*
X155998588Y-82144877D01*
X156126266Y-82165100D01*
X156126271Y-82165100D01*
X156311934Y-82165100D01*
X156414705Y-82148822D01*
X156495300Y-82136057D01*
X156671871Y-82078685D01*
X156837293Y-81994399D01*
X156987493Y-81885272D01*
X157118772Y-81753993D01*
X157227899Y-81603793D01*
X157312185Y-81438371D01*
X157369557Y-81261800D01*
X157369558Y-81261796D01*
X157371062Y-81257167D01*
X157373247Y-81257877D01*
X157403303Y-81205514D01*
X157465324Y-81173340D01*
X157534894Y-81179805D01*
X157589924Y-81222856D01*
X157605792Y-81257604D01*
X157607138Y-81257167D01*
X157608642Y-81261796D01*
X157608643Y-81261800D01*
X157666015Y-81438371D01*
X157750301Y-81603793D01*
X157859428Y-81753993D01*
X157990707Y-81885272D01*
X158140907Y-81994399D01*
X158306329Y-82078685D01*
X158482900Y-82136057D01*
X158538588Y-82144877D01*
X158666266Y-82165100D01*
X158666271Y-82165100D01*
X158851934Y-82165100D01*
X158954705Y-82148822D01*
X159035300Y-82136057D01*
X159211871Y-82078685D01*
X159377293Y-81994399D01*
X159527493Y-81885272D01*
X159658772Y-81753993D01*
X159767899Y-81603793D01*
X159852185Y-81438371D01*
X159909557Y-81261800D01*
X159909558Y-81261796D01*
X159911062Y-81257167D01*
X159913247Y-81257877D01*
X159943303Y-81205514D01*
X160005324Y-81173340D01*
X160074894Y-81179805D01*
X160129924Y-81222856D01*
X160145792Y-81257604D01*
X160147138Y-81257167D01*
X160148642Y-81261796D01*
X160148643Y-81261800D01*
X160206015Y-81438371D01*
X160290301Y-81603793D01*
X160399428Y-81753993D01*
X160530707Y-81885272D01*
X160680907Y-81994399D01*
X160846329Y-82078685D01*
X161022900Y-82136057D01*
X161078588Y-82144877D01*
X161206266Y-82165100D01*
X161206271Y-82165100D01*
X161391934Y-82165100D01*
X161494705Y-82148822D01*
X161575300Y-82136057D01*
X161751871Y-82078685D01*
X161917293Y-81994399D01*
X162067493Y-81885272D01*
X162198772Y-81753993D01*
X162307899Y-81603793D01*
X162392185Y-81438371D01*
X162449557Y-81261800D01*
X162474093Y-81106888D01*
X162478600Y-81078434D01*
X162478600Y-80892765D01*
X162451971Y-80724644D01*
X162449557Y-80709400D01*
X162392185Y-80532829D01*
X162307899Y-80367407D01*
X162198772Y-80217207D01*
X162067493Y-80085928D01*
X161917293Y-79976801D01*
X161751871Y-79892515D01*
X161575300Y-79835143D01*
X161575298Y-79835142D01*
X161575296Y-79835142D01*
X161391934Y-79806100D01*
X161391929Y-79806100D01*
X161206271Y-79806100D01*
X161206266Y-79806100D01*
X161022903Y-79835142D01*
X160846326Y-79892516D01*
X160680906Y-79976801D01*
X160595211Y-80039062D01*
X160530707Y-80085928D01*
X160530705Y-80085930D01*
X160530704Y-80085930D01*
X160399430Y-80217204D01*
X160399430Y-80217205D01*
X160399428Y-80217207D01*
X160355270Y-80277985D01*
X160290301Y-80367406D01*
X160206016Y-80532826D01*
X160206015Y-80532828D01*
X160206015Y-80532829D01*
X160169401Y-80645516D01*
X160147138Y-80714033D01*
X160144964Y-80713326D01*
X160114852Y-80765729D01*
X160052814Y-80797871D01*
X159983248Y-80791371D01*
X159928239Y-80748292D01*
X159912395Y-80713599D01*
X159911062Y-80714033D01*
X159903659Y-80691248D01*
X159852185Y-80532829D01*
X159767899Y-80367407D01*
X159658772Y-80217207D01*
X159527493Y-80085928D01*
X159377293Y-79976801D01*
X159211871Y-79892515D01*
X159035300Y-79835143D01*
X159035298Y-79835142D01*
X159035296Y-79835142D01*
X158851934Y-79806100D01*
X158851929Y-79806100D01*
X158666271Y-79806100D01*
X158666266Y-79806100D01*
X158482903Y-79835142D01*
X158306326Y-79892516D01*
X158140906Y-79976801D01*
X158055211Y-80039062D01*
X157990707Y-80085928D01*
X157990705Y-80085930D01*
X157990704Y-80085930D01*
X157859430Y-80217204D01*
X157859430Y-80217205D01*
X157859428Y-80217207D01*
X157815270Y-80277985D01*
X157750301Y-80367406D01*
X157666016Y-80532826D01*
X157666015Y-80532828D01*
X157666015Y-80532829D01*
X157629401Y-80645516D01*
X157607138Y-80714033D01*
X157604964Y-80713326D01*
X157574852Y-80765729D01*
X157512814Y-80797871D01*
X157443248Y-80791371D01*
X157388239Y-80748292D01*
X157372395Y-80713599D01*
X157371062Y-80714033D01*
X157363659Y-80691248D01*
X157312185Y-80532829D01*
X157227899Y-80367407D01*
X157118772Y-80217207D01*
X156987493Y-80085928D01*
X156837293Y-79976801D01*
X156671871Y-79892515D01*
X156495300Y-79835143D01*
X156495298Y-79835142D01*
X156495296Y-79835142D01*
X156311934Y-79806100D01*
X156311929Y-79806100D01*
X156126271Y-79806100D01*
X156126266Y-79806100D01*
X155942903Y-79835142D01*
X155766326Y-79892516D01*
X155600906Y-79976801D01*
X155515211Y-80039062D01*
X155450707Y-80085928D01*
X155450705Y-80085930D01*
X155450704Y-80085930D01*
X155319430Y-80217204D01*
X155319430Y-80217205D01*
X155319428Y-80217207D01*
X155275270Y-80277985D01*
X155210301Y-80367406D01*
X155126016Y-80532826D01*
X155126015Y-80532828D01*
X155126015Y-80532829D01*
X155089401Y-80645516D01*
X155067138Y-80714033D01*
X155064964Y-80713326D01*
X155034852Y-80765729D01*
X154972814Y-80797871D01*
X154903248Y-80791371D01*
X154848239Y-80748292D01*
X154832395Y-80713599D01*
X154831062Y-80714033D01*
X154823659Y-80691248D01*
X154772185Y-80532829D01*
X154687899Y-80367407D01*
X154578772Y-80217207D01*
X154447493Y-80085928D01*
X154297293Y-79976801D01*
X154131871Y-79892515D01*
X153955300Y-79835143D01*
X153955298Y-79835142D01*
X153955296Y-79835142D01*
X153771934Y-79806100D01*
X153771929Y-79806100D01*
X153586271Y-79806100D01*
X153586266Y-79806100D01*
X153402903Y-79835142D01*
X153226326Y-79892516D01*
X153060906Y-79976801D01*
X152975211Y-80039062D01*
X152910707Y-80085928D01*
X152910705Y-80085930D01*
X152910704Y-80085930D01*
X152779430Y-80217204D01*
X152779430Y-80217205D01*
X152779428Y-80217207D01*
X152735270Y-80277985D01*
X152670301Y-80367406D01*
X152586016Y-80532826D01*
X152586015Y-80532828D01*
X152586015Y-80532829D01*
X152549401Y-80645516D01*
X152527138Y-80714033D01*
X152524964Y-80713326D01*
X152494852Y-80765729D01*
X152432814Y-80797871D01*
X152363248Y-80791371D01*
X152308239Y-80748292D01*
X152292395Y-80713599D01*
X152291062Y-80714033D01*
X152283659Y-80691248D01*
X152232185Y-80532829D01*
X152147899Y-80367407D01*
X152038772Y-80217207D01*
X151907493Y-80085928D01*
X151757293Y-79976801D01*
X151591871Y-79892515D01*
X151415300Y-79835143D01*
X151415298Y-79835142D01*
X151415296Y-79835142D01*
X151231934Y-79806100D01*
X151231929Y-79806100D01*
X151046271Y-79806100D01*
X151046266Y-79806100D01*
X150862903Y-79835142D01*
X150686326Y-79892516D01*
X150520906Y-79976801D01*
X150435211Y-80039062D01*
X150370707Y-80085928D01*
X150370705Y-80085930D01*
X150370704Y-80085930D01*
X150239430Y-80217204D01*
X150239430Y-80217205D01*
X150239428Y-80217207D01*
X150195270Y-80277985D01*
X150130301Y-80367406D01*
X150046016Y-80532826D01*
X150046015Y-80532828D01*
X150046015Y-80532829D01*
X150009401Y-80645516D01*
X149987138Y-80714033D01*
X149984964Y-80713326D01*
X149954852Y-80765729D01*
X149892814Y-80797871D01*
X149823248Y-80791371D01*
X149768239Y-80748292D01*
X149752395Y-80713599D01*
X149751062Y-80714033D01*
X149743659Y-80691248D01*
X149692185Y-80532829D01*
X149607899Y-80367407D01*
X149498772Y-80217207D01*
X149367493Y-80085928D01*
X149217293Y-79976801D01*
X149051871Y-79892515D01*
X148875300Y-79835143D01*
X148875298Y-79835142D01*
X148875296Y-79835142D01*
X148691934Y-79806100D01*
X148691929Y-79806100D01*
X148506271Y-79806100D01*
X148506266Y-79806100D01*
X148322903Y-79835142D01*
X148146326Y-79892516D01*
X147980906Y-79976801D01*
X147895211Y-80039062D01*
X147830707Y-80085928D01*
X147830705Y-80085930D01*
X147830704Y-80085930D01*
X147699430Y-80217204D01*
X147699430Y-80217205D01*
X147699428Y-80217207D01*
X147655270Y-80277985D01*
X147590301Y-80367406D01*
X147506016Y-80532826D01*
X147506015Y-80532828D01*
X147506015Y-80532829D01*
X147469401Y-80645516D01*
X147447138Y-80714033D01*
X147444964Y-80713326D01*
X147414852Y-80765729D01*
X147352814Y-80797871D01*
X147283248Y-80791371D01*
X147228239Y-80748292D01*
X147212395Y-80713599D01*
X147211062Y-80714033D01*
X147203659Y-80691248D01*
X147152185Y-80532829D01*
X147067899Y-80367407D01*
X146958772Y-80217207D01*
X146827493Y-80085928D01*
X146677293Y-79976801D01*
X146511871Y-79892515D01*
X146335300Y-79835143D01*
X146335298Y-79835142D01*
X146335296Y-79835142D01*
X146151934Y-79806100D01*
X146151929Y-79806100D01*
X145966271Y-79806100D01*
X145966266Y-79806100D01*
X145782903Y-79835142D01*
X145606326Y-79892516D01*
X145440906Y-79976801D01*
X145355211Y-80039062D01*
X145290707Y-80085928D01*
X145290705Y-80085930D01*
X145290704Y-80085930D01*
X145159430Y-80217204D01*
X145159430Y-80217205D01*
X145159428Y-80217207D01*
X145115270Y-80277985D01*
X145050301Y-80367406D01*
X144966016Y-80532826D01*
X144966015Y-80532828D01*
X144966015Y-80532829D01*
X144929401Y-80645516D01*
X144907138Y-80714033D01*
X144904964Y-80713326D01*
X144874852Y-80765729D01*
X144812814Y-80797871D01*
X144743248Y-80791371D01*
X144688239Y-80748292D01*
X144672395Y-80713599D01*
X144671062Y-80714033D01*
X144663659Y-80691248D01*
X144612185Y-80532829D01*
X144527899Y-80367407D01*
X144418772Y-80217207D01*
X144287493Y-80085928D01*
X144137293Y-79976801D01*
X143971871Y-79892515D01*
X143795300Y-79835143D01*
X143795298Y-79835142D01*
X143795296Y-79835142D01*
X143611934Y-79806100D01*
X143611929Y-79806100D01*
X143426271Y-79806100D01*
X143426266Y-79806100D01*
X143242903Y-79835142D01*
X143066326Y-79892516D01*
X142900906Y-79976801D01*
X142815211Y-80039062D01*
X142750707Y-80085928D01*
X142750705Y-80085930D01*
X142750704Y-80085930D01*
X142619430Y-80217204D01*
X142619430Y-80217205D01*
X142619428Y-80217207D01*
X142575270Y-80277985D01*
X142510301Y-80367406D01*
X142426016Y-80532824D01*
X142374541Y-80691248D01*
X142335103Y-80748923D01*
X142270744Y-80776121D01*
X142201898Y-80764206D01*
X142168929Y-80740610D01*
X140544511Y-79116191D01*
X140544507Y-79116188D01*
X140441739Y-79047520D01*
X140441726Y-79047513D01*
X140408285Y-79033662D01*
X140327535Y-79000214D01*
X140327527Y-79000212D01*
X140206307Y-78976100D01*
X140206303Y-78976100D01*
X135485297Y-78976100D01*
X135485295Y-78976100D01*
X135364070Y-79000213D01*
X135364060Y-79000216D01*
X135249873Y-79047513D01*
X135249860Y-79047520D01*
X135147092Y-79116188D01*
X135147088Y-79116191D01*
X134493500Y-79769781D01*
X134432177Y-79803266D01*
X134405819Y-79806100D01*
X134282266Y-79806100D01*
X134098903Y-79835142D01*
X133922323Y-79892517D01*
X133772021Y-79969099D01*
X133703352Y-79981995D01*
X133638612Y-79955718D01*
X133601166Y-79906066D01*
X133563186Y-79814373D01*
X133563179Y-79814360D01*
X133494512Y-79711593D01*
X133494511Y-79711592D01*
X133407108Y-79624189D01*
X133226583Y-79443664D01*
X132899111Y-79116191D01*
X132899107Y-79116188D01*
X132796339Y-79047520D01*
X132796326Y-79047513D01*
X132762885Y-79033662D01*
X132682135Y-79000214D01*
X132682127Y-79000212D01*
X132560907Y-78976100D01*
X132560903Y-78976100D01*
X127865297Y-78976100D01*
X127865295Y-78976100D01*
X127744070Y-79000213D01*
X127744060Y-79000216D01*
X127629873Y-79047513D01*
X127629860Y-79047520D01*
X127527092Y-79116188D01*
X127527088Y-79116191D01*
X126873500Y-79769781D01*
X126812177Y-79803266D01*
X126785819Y-79806100D01*
X126662266Y-79806100D01*
X126478903Y-79835142D01*
X126302326Y-79892516D01*
X126136906Y-79976801D01*
X126051211Y-80039062D01*
X125986707Y-80085928D01*
X125986705Y-80085930D01*
X125986704Y-80085930D01*
X125855430Y-80217204D01*
X125855430Y-80217205D01*
X125855428Y-80217207D01*
X125811270Y-80277985D01*
X125746301Y-80367406D01*
X125662016Y-80532826D01*
X125604642Y-80709403D01*
X125575600Y-80892765D01*
X125575600Y-81078434D01*
X125604642Y-81261796D01*
X125604643Y-81261800D01*
X125662015Y-81438371D01*
X125746301Y-81603793D01*
X125855428Y-81753993D01*
X125986707Y-81885272D01*
X126136907Y-81994399D01*
X126302329Y-82078685D01*
X126478900Y-82136057D01*
X126534588Y-82144877D01*
X126662266Y-82165100D01*
X126662271Y-82165100D01*
X126847934Y-82165100D01*
X126950705Y-82148822D01*
X127031300Y-82136057D01*
X127207871Y-82078685D01*
X127373293Y-81994399D01*
X127523493Y-81885272D01*
X127654772Y-81753993D01*
X127763899Y-81603793D01*
X127848185Y-81438371D01*
X127905557Y-81261800D01*
X127905558Y-81261796D01*
X127907062Y-81257167D01*
X127909247Y-81257877D01*
X127939303Y-81205514D01*
X128001324Y-81173340D01*
X128070894Y-81179805D01*
X128125924Y-81222856D01*
X128141792Y-81257604D01*
X128143138Y-81257167D01*
X128144642Y-81261796D01*
X128144643Y-81261800D01*
X128202015Y-81438371D01*
X128286301Y-81603793D01*
X128395428Y-81753993D01*
X128526707Y-81885272D01*
X128676907Y-81994399D01*
X128842329Y-82078685D01*
X129018900Y-82136057D01*
X129074588Y-82144877D01*
X129202266Y-82165100D01*
X129202271Y-82165100D01*
X129387934Y-82165100D01*
X129490705Y-82148822D01*
X129571300Y-82136057D01*
X129747871Y-82078685D01*
X129913293Y-81994399D01*
X130063493Y-81885272D01*
X130194772Y-81753993D01*
X130303899Y-81603793D01*
X130388185Y-81438371D01*
X130445557Y-81261800D01*
X130445558Y-81261796D01*
X130447062Y-81257167D01*
X130449247Y-81257877D01*
X130479303Y-81205514D01*
X130541324Y-81173340D01*
X130610894Y-81179805D01*
X130665924Y-81222856D01*
X130681792Y-81257604D01*
X130683138Y-81257167D01*
X130684642Y-81261796D01*
X130684643Y-81261800D01*
X130742015Y-81438371D01*
X130826301Y-81603793D01*
X130935428Y-81753993D01*
X131066707Y-81885272D01*
X131216907Y-81994399D01*
X131250847Y-82011692D01*
X131382324Y-82078683D01*
X131382326Y-82078683D01*
X131382329Y-82078685D01*
X131558900Y-82136057D01*
X131614600Y-82144878D01*
X131677732Y-82174806D01*
X131714663Y-82234117D01*
X131719200Y-82267351D01*
X131719200Y-85253407D01*
X131743312Y-85374628D01*
X131743315Y-85374639D01*
X131763483Y-85423325D01*
X131763484Y-85423329D01*
X131790613Y-85488826D01*
X131790620Y-85488839D01*
X131859288Y-85591607D01*
X131859291Y-85591611D01*
X137351100Y-91083419D01*
X137384585Y-91144742D01*
X137379601Y-91214434D01*
X137337729Y-91270367D01*
X137272265Y-91294784D01*
X137263419Y-91295100D01*
X131049039Y-91295100D01*
X130982000Y-91275415D01*
X130948721Y-91243986D01*
X130933191Y-91222611D01*
X130874027Y-91141178D01*
X130740522Y-91007673D01*
X130587775Y-90896696D01*
X130419552Y-90810981D01*
X130239984Y-90752635D01*
X130078999Y-90727138D01*
X130053503Y-90723100D01*
X129864697Y-90723100D01*
X129842267Y-90726652D01*
X129678215Y-90752635D01*
X129498647Y-90810981D01*
X129330424Y-90896696D01*
X129177675Y-91007675D01*
X129044175Y-91141175D01*
X128933196Y-91293924D01*
X128847481Y-91462147D01*
X128789135Y-91641715D01*
X128764221Y-91799019D01*
X128759600Y-91828197D01*
X128759600Y-92017003D01*
X128761800Y-92030890D01*
X128789135Y-92203484D01*
X128847482Y-92383055D01*
X128915453Y-92516455D01*
X128928349Y-92585124D01*
X128902072Y-92649864D01*
X128892649Y-92660430D01*
X128559015Y-92994066D01*
X128466892Y-93086189D01*
X128390510Y-93162571D01*
X128379489Y-93173592D01*
X128310815Y-93276370D01*
X128306138Y-93287660D01*
X128306134Y-93287671D01*
X128304078Y-93292636D01*
X128263514Y-93390565D01*
X128247641Y-93470368D01*
X128246314Y-93477037D01*
X128246311Y-93477048D01*
X128239400Y-93511794D01*
X128239400Y-95972207D01*
X128263512Y-96093428D01*
X128263515Y-96093439D01*
X128279808Y-96132771D01*
X128285338Y-96146121D01*
X128310817Y-96207633D01*
X128331127Y-96238029D01*
X128335312Y-96244293D01*
X128335316Y-96244300D01*
X128379485Y-96310403D01*
X128379491Y-96310411D01*
X128744687Y-96675606D01*
X128778172Y-96736929D01*
X128779479Y-96782685D01*
X128759600Y-96908197D01*
X128759600Y-97097003D01*
X128761161Y-97106856D01*
X128789135Y-97283484D01*
X128847481Y-97463052D01*
X128907782Y-97581397D01*
X128933196Y-97631275D01*
X129044173Y-97784022D01*
X129177678Y-97917527D01*
X129330425Y-98028504D01*
X129409904Y-98069000D01*
X129498647Y-98114218D01*
X129498649Y-98114218D01*
X129498652Y-98114220D01*
X129545393Y-98129407D01*
X129623140Y-98154669D01*
X129680815Y-98194107D01*
X129708013Y-98258466D01*
X129696098Y-98327312D01*
X129648854Y-98378788D01*
X129623140Y-98390531D01*
X129498647Y-98430981D01*
X129330424Y-98516696D01*
X129177675Y-98627675D01*
X129044175Y-98761175D01*
X128933196Y-98913924D01*
X128847481Y-99082147D01*
X128789135Y-99261715D01*
X128759600Y-99448197D01*
X128759600Y-99637003D01*
X128767736Y-99688371D01*
X128779479Y-99762515D01*
X128770523Y-99831809D01*
X128744686Y-99869593D01*
X123412884Y-105201397D01*
X121639092Y-106975189D01*
X121610488Y-107003793D01*
X121551686Y-107062594D01*
X121551685Y-107062596D01*
X121482333Y-107166389D01*
X121480686Y-107170993D01*
X121435715Y-107279562D01*
X121435714Y-107279564D01*
X121413457Y-107391460D01*
X121413455Y-107391471D01*
X121412873Y-107394399D01*
X121411600Y-107400797D01*
X97947600Y-107400797D01*
X97947600Y-80864311D01*
X111188600Y-80864311D01*
X111188600Y-81106888D01*
X111217404Y-81325684D01*
X111220262Y-81347389D01*
X111241737Y-81427534D01*
X111283047Y-81581704D01*
X111369189Y-81789668D01*
X111375876Y-81805812D01*
X111497164Y-82015889D01*
X111497166Y-82015892D01*
X111497167Y-82015893D01*
X111644833Y-82208336D01*
X111644839Y-82208343D01*
X111816356Y-82379860D01*
X111816362Y-82379865D01*
X112008811Y-82527536D01*
X112218888Y-82648824D01*
X112443000Y-82741654D01*
X112677311Y-82804438D01*
X112857686Y-82828184D01*
X112917811Y-82836100D01*
X112917812Y-82836100D01*
X113160389Y-82836100D01*
X113208488Y-82829767D01*
X113400889Y-82804438D01*
X113635200Y-82741654D01*
X113859312Y-82648824D01*
X114069389Y-82527536D01*
X114261838Y-82379865D01*
X114433365Y-82208338D01*
X114581036Y-82015889D01*
X114702324Y-81805812D01*
X114795154Y-81581700D01*
X114857938Y-81347389D01*
X114889600Y-81106888D01*
X114889600Y-80892765D01*
X115415600Y-80892765D01*
X115415600Y-81078434D01*
X115444642Y-81261796D01*
X115444643Y-81261800D01*
X115502015Y-81438371D01*
X115586301Y-81603793D01*
X115695428Y-81753993D01*
X115826707Y-81885272D01*
X115976907Y-81994399D01*
X116142329Y-82078685D01*
X116318900Y-82136057D01*
X116374588Y-82144877D01*
X116502266Y-82165100D01*
X116502271Y-82165100D01*
X116687934Y-82165100D01*
X116790705Y-82148822D01*
X116871300Y-82136057D01*
X117047871Y-82078685D01*
X117213293Y-81994399D01*
X117363493Y-81885272D01*
X117494772Y-81753993D01*
X117603899Y-81603793D01*
X117688185Y-81438371D01*
X117745557Y-81261800D01*
X117745558Y-81261796D01*
X117747062Y-81257167D01*
X117749247Y-81257877D01*
X117779303Y-81205514D01*
X117841324Y-81173340D01*
X117910894Y-81179805D01*
X117965924Y-81222856D01*
X117981792Y-81257604D01*
X117983138Y-81257167D01*
X117984642Y-81261796D01*
X117984643Y-81261800D01*
X118042015Y-81438371D01*
X118126301Y-81603793D01*
X118235428Y-81753993D01*
X118366707Y-81885272D01*
X118516907Y-81994399D01*
X118682329Y-82078685D01*
X118858900Y-82136057D01*
X118914588Y-82144877D01*
X119042266Y-82165100D01*
X119042271Y-82165100D01*
X119227934Y-82165100D01*
X119330705Y-82148822D01*
X119411300Y-82136057D01*
X119587871Y-82078685D01*
X119753293Y-81994399D01*
X119903493Y-81885272D01*
X120034772Y-81753993D01*
X120143899Y-81603793D01*
X120228185Y-81438371D01*
X120285557Y-81261800D01*
X120285558Y-81261796D01*
X120287062Y-81257167D01*
X120289247Y-81257877D01*
X120319303Y-81205514D01*
X120381324Y-81173340D01*
X120450894Y-81179805D01*
X120505924Y-81222856D01*
X120521792Y-81257604D01*
X120523138Y-81257167D01*
X120524642Y-81261796D01*
X120524643Y-81261800D01*
X120582015Y-81438371D01*
X120666301Y-81603793D01*
X120775428Y-81753993D01*
X120906707Y-81885272D01*
X121056907Y-81994399D01*
X121222329Y-82078685D01*
X121398900Y-82136057D01*
X121454588Y-82144877D01*
X121582266Y-82165100D01*
X121582271Y-82165100D01*
X121767934Y-82165100D01*
X121870705Y-82148822D01*
X121951300Y-82136057D01*
X122127871Y-82078685D01*
X122293293Y-81994399D01*
X122443493Y-81885272D01*
X122574772Y-81753993D01*
X122683899Y-81603793D01*
X122768185Y-81438371D01*
X122825557Y-81261800D01*
X122850093Y-81106888D01*
X122854600Y-81078434D01*
X122854600Y-80892765D01*
X122849188Y-80858599D01*
X123289082Y-80858599D01*
X123289083Y-80858600D01*
X123809137Y-80858600D01*
X123790100Y-80929648D01*
X123790100Y-81041552D01*
X123809137Y-81112600D01*
X123289083Y-81112600D01*
X123317953Y-81257740D01*
X123317956Y-81257750D01*
X123388282Y-81427534D01*
X123388289Y-81427547D01*
X123490391Y-81580352D01*
X123490394Y-81580356D01*
X123620343Y-81710305D01*
X123620347Y-81710308D01*
X123773152Y-81812410D01*
X123773165Y-81812417D01*
X123942952Y-81882744D01*
X123942961Y-81882747D01*
X124088100Y-81911616D01*
X124088100Y-81391562D01*
X124159148Y-81410600D01*
X124271052Y-81410600D01*
X124342100Y-81391562D01*
X124342100Y-81911615D01*
X124487238Y-81882747D01*
X124487247Y-81882744D01*
X124657034Y-81812417D01*
X124657047Y-81812410D01*
X124809852Y-81710308D01*
X124809856Y-81710305D01*
X124939805Y-81580356D01*
X124939808Y-81580352D01*
X125041910Y-81427547D01*
X125041917Y-81427534D01*
X125112243Y-81257750D01*
X125112246Y-81257740D01*
X125141117Y-81112600D01*
X124621063Y-81112600D01*
X124640100Y-81041552D01*
X124640100Y-80929648D01*
X124621063Y-80858600D01*
X125141117Y-80858600D01*
X125141117Y-80858599D01*
X125112246Y-80713459D01*
X125112243Y-80713449D01*
X125041917Y-80543665D01*
X125041910Y-80543652D01*
X124939808Y-80390847D01*
X124939805Y-80390843D01*
X124809856Y-80260894D01*
X124809852Y-80260891D01*
X124657047Y-80158789D01*
X124657034Y-80158782D01*
X124487250Y-80088456D01*
X124487240Y-80088453D01*
X124342100Y-80059582D01*
X124342100Y-80579637D01*
X124271052Y-80560600D01*
X124159148Y-80560600D01*
X124088100Y-80579637D01*
X124088100Y-80059583D01*
X124088099Y-80059582D01*
X123942959Y-80088453D01*
X123942949Y-80088456D01*
X123773165Y-80158782D01*
X123773152Y-80158789D01*
X123620347Y-80260891D01*
X123620343Y-80260894D01*
X123490394Y-80390843D01*
X123490391Y-80390847D01*
X123388289Y-80543652D01*
X123388282Y-80543665D01*
X123317956Y-80713449D01*
X123317953Y-80713459D01*
X123289082Y-80858599D01*
X122849188Y-80858599D01*
X122827971Y-80724644D01*
X122825557Y-80709400D01*
X122768185Y-80532829D01*
X122683899Y-80367407D01*
X122574772Y-80217207D01*
X122443493Y-80085928D01*
X122293293Y-79976801D01*
X122127871Y-79892515D01*
X121951300Y-79835143D01*
X121951298Y-79835142D01*
X121951296Y-79835142D01*
X121767934Y-79806100D01*
X121767929Y-79806100D01*
X121582271Y-79806100D01*
X121582266Y-79806100D01*
X121398903Y-79835142D01*
X121222326Y-79892516D01*
X121056906Y-79976801D01*
X120971211Y-80039062D01*
X120906707Y-80085928D01*
X120906705Y-80085930D01*
X120906704Y-80085930D01*
X120775430Y-80217204D01*
X120775430Y-80217205D01*
X120775428Y-80217207D01*
X120731270Y-80277985D01*
X120666301Y-80367406D01*
X120582016Y-80532826D01*
X120582015Y-80532828D01*
X120582015Y-80532829D01*
X120545401Y-80645516D01*
X120523138Y-80714033D01*
X120520964Y-80713326D01*
X120490852Y-80765729D01*
X120428814Y-80797871D01*
X120359248Y-80791371D01*
X120304239Y-80748292D01*
X120288395Y-80713599D01*
X120287062Y-80714033D01*
X120279659Y-80691248D01*
X120228185Y-80532829D01*
X120143899Y-80367407D01*
X120034772Y-80217207D01*
X119903493Y-80085928D01*
X119753293Y-79976801D01*
X119587871Y-79892515D01*
X119411300Y-79835143D01*
X119411298Y-79835142D01*
X119411296Y-79835142D01*
X119227934Y-79806100D01*
X119227929Y-79806100D01*
X119042271Y-79806100D01*
X119042266Y-79806100D01*
X118858903Y-79835142D01*
X118682326Y-79892516D01*
X118516906Y-79976801D01*
X118431211Y-80039062D01*
X118366707Y-80085928D01*
X118366705Y-80085930D01*
X118366704Y-80085930D01*
X118235430Y-80217204D01*
X118235430Y-80217205D01*
X118235428Y-80217207D01*
X118191270Y-80277985D01*
X118126301Y-80367406D01*
X118042016Y-80532826D01*
X118042015Y-80532828D01*
X118042015Y-80532829D01*
X118005401Y-80645516D01*
X117983138Y-80714033D01*
X117980964Y-80713326D01*
X117950852Y-80765729D01*
X117888814Y-80797871D01*
X117819248Y-80791371D01*
X117764239Y-80748292D01*
X117748395Y-80713599D01*
X117747062Y-80714033D01*
X117739659Y-80691248D01*
X117688185Y-80532829D01*
X117603899Y-80367407D01*
X117494772Y-80217207D01*
X117363493Y-80085928D01*
X117213293Y-79976801D01*
X117047871Y-79892515D01*
X116871300Y-79835143D01*
X116871298Y-79835142D01*
X116871296Y-79835142D01*
X116687934Y-79806100D01*
X116687929Y-79806100D01*
X116502271Y-79806100D01*
X116502266Y-79806100D01*
X116318903Y-79835142D01*
X116142326Y-79892516D01*
X115976906Y-79976801D01*
X115891211Y-80039062D01*
X115826707Y-80085928D01*
X115826705Y-80085930D01*
X115826704Y-80085930D01*
X115695430Y-80217204D01*
X115695430Y-80217205D01*
X115695428Y-80217207D01*
X115651270Y-80277985D01*
X115586301Y-80367406D01*
X115502016Y-80532826D01*
X115444642Y-80709403D01*
X115415600Y-80892765D01*
X114889600Y-80892765D01*
X114889600Y-80864312D01*
X114857938Y-80623811D01*
X114795154Y-80389500D01*
X114702324Y-80165388D01*
X114581036Y-79955311D01*
X114433365Y-79762862D01*
X114433360Y-79762856D01*
X114261843Y-79591339D01*
X114261836Y-79591333D01*
X114069393Y-79443667D01*
X114069392Y-79443666D01*
X114069389Y-79443664D01*
X113859312Y-79322376D01*
X113859305Y-79322373D01*
X113635204Y-79229547D01*
X113400885Y-79166761D01*
X113160389Y-79135100D01*
X113160388Y-79135100D01*
X112917812Y-79135100D01*
X112917811Y-79135100D01*
X112677314Y-79166761D01*
X112442995Y-79229547D01*
X112218894Y-79322373D01*
X112218885Y-79322377D01*
X112008806Y-79443667D01*
X111816363Y-79591333D01*
X111816356Y-79591339D01*
X111644839Y-79762856D01*
X111644833Y-79762863D01*
X111497167Y-79955306D01*
X111497164Y-79955310D01*
X111497164Y-79955311D01*
X111484757Y-79976801D01*
X111375877Y-80165385D01*
X111375873Y-80165394D01*
X111283047Y-80389495D01*
X111220261Y-80623814D01*
X111188600Y-80864311D01*
X97947600Y-80864311D01*
X97947600Y-78704100D01*
X97967285Y-78637061D01*
X98020089Y-78591306D01*
X98071600Y-78580100D01*
X198930600Y-78580100D01*
X198997639Y-78599785D01*
G37*
%TD.AperFunction*%
%TD*%
M02*
