%TF.GenerationSoftware,KiCad,Pcbnew,9.0.6*%
%TF.CreationDate,2026-03-24T17:10:31-06:00*%
%TF.ProjectId,GEO,47454f2e-6b69-4636-9164-5f7063625858,rev?*%
%TF.SameCoordinates,Original*%
%TF.FileFunction,Copper,L2,Bot*%
%TF.FilePolarity,Positive*%
%FSLAX46Y46*%
G04 Gerber Fmt 4.6, Leading zero omitted, Abs format (unit mm)*
G04 Created by KiCad (PCBNEW 9.0.6) date 2026-03-24 17:10:31*
%MOMM*%
%LPD*%
G01*
G04 APERTURE LIST*
G04 Aperture macros list*
%AMRoundRect*
0 Rectangle with rounded corners*
0 $1 Rounding radius*
0 $2 $3 $4 $5 $6 $7 $8 $9 X,Y pos of 4 corners*
0 Add a 4 corners polygon primitive as box body*
4,1,4,$2,$3,$4,$5,$6,$7,$8,$9,$2,$3,0*
0 Add four circle primitives for the rounded corners*
1,1,$1+$1,$2,$3*
1,1,$1+$1,$4,$5*
1,1,$1+$1,$6,$7*
1,1,$1+$1,$8,$9*
0 Add four rect primitives between the rounded corners*
20,1,$1+$1,$2,$3,$4,$5,0*
20,1,$1+$1,$4,$5,$6,$7,0*
20,1,$1+$1,$6,$7,$8,$9,0*
20,1,$1+$1,$8,$9,$2,$3,0*%
G04 Aperture macros list end*
%TA.AperFunction,ComponentPad*%
%ADD10RoundRect,0.250001X-1.149999X1.149999X-1.149999X-1.149999X1.149999X-1.149999X1.149999X1.149999X0*%
%TD*%
%TA.AperFunction,ComponentPad*%
%ADD11C,2.800000*%
%TD*%
%TA.AperFunction,ComponentPad*%
%ADD12C,1.905000*%
%TD*%
%TA.AperFunction,ComponentPad*%
%ADD13R,1.398000X1.398000*%
%TD*%
%TA.AperFunction,ComponentPad*%
%ADD14C,1.398000*%
%TD*%
%TA.AperFunction,ComponentPad*%
%ADD15R,1.508000X1.508000*%
%TD*%
%TA.AperFunction,ComponentPad*%
%ADD16C,1.508000*%
%TD*%
%TA.AperFunction,ComponentPad*%
%ADD17C,1.300000*%
%TD*%
%TA.AperFunction,ComponentPad*%
%ADD18C,1.358000*%
%TD*%
%TA.AperFunction,ComponentPad*%
%ADD19R,1.358000X1.358000*%
%TD*%
%TA.AperFunction,ComponentPad*%
%ADD20C,1.600000*%
%TD*%
%TA.AperFunction,ViaPad*%
%ADD21C,1.000000*%
%TD*%
%TA.AperFunction,Conductor*%
%ADD22C,0.200000*%
%TD*%
%TA.AperFunction,Conductor*%
%ADD23C,0.254000*%
%TD*%
%TA.AperFunction,Conductor*%
%ADD24C,0.400000*%
%TD*%
G04 APERTURE END LIST*
D10*
%TO.P,J2,1,Pin_1*%
%TO.N,/GND*%
X108539100Y-114885600D03*
D11*
%TO.P,J2,2,Pin_2*%
%TO.N,/BAT_IN*%
X108539100Y-119885600D03*
%TD*%
D12*
%TO.P,U2,1,5V_out*%
%TO.N,/5V*%
X153955100Y-106554100D03*
X153955100Y-109124600D03*
%TO.P,U2,2,5V_g*%
%TO.N,/GND*%
X153955100Y-120046600D03*
X153955100Y-122617100D03*
%TO.P,U2,3,Bat_in*%
%TO.N,/BAT_IN*%
X177323100Y-106554100D03*
X177323100Y-109124600D03*
%TO.P,U2,4,Bat_g*%
%TO.N,/GND*%
X177323100Y-120046600D03*
X177323100Y-122617100D03*
%TD*%
D13*
%TO.P,Clk1,1,1*%
%TO.N,/GND*%
X129959100Y-102082600D03*
D14*
%TO.P,Clk1,2,2*%
%TO.N,/5V*%
X129959100Y-99542600D03*
%TO.P,Clk1,3,3*%
%TO.N,/SDA*%
X129959100Y-97002600D03*
%TO.P,Clk1,4,4*%
%TO.N,/SCL*%
X129959100Y-94462600D03*
%TO.P,Clk1,5,5*%
%TO.N,/RTC_SQW*%
X129959100Y-91922600D03*
%TD*%
D15*
%TO.P,TEMP1,1,1*%
%TO.N,/5V*%
X176539100Y-86485610D03*
D16*
%TO.P,TEMP1,2,2*%
%TO.N,/GND*%
X176539100Y-88985580D03*
%TO.P,TEMP1,3,3*%
%TO.N,/SCL*%
X176539100Y-91485600D03*
%TO.P,TEMP1,4,4*%
%TO.N,/SDA*%
X176539100Y-93985620D03*
%TD*%
D15*
%TO.P,SD1,1,1*%
%TO.N,/SD_CS*%
X186039100Y-98985600D03*
D16*
%TO.P,SD1,2,2*%
%TO.N,/SD_MOSI*%
X186039100Y-96485630D03*
%TO.P,SD1,3,3*%
%TO.N,/SD_MISO*%
X186039100Y-93985610D03*
%TO.P,SD1,4,4*%
%TO.N,/SD_CLK*%
X186039100Y-91485590D03*
D17*
%TO.P,SD1,5,5*%
%TO.N,/GND*%
X186039100Y-88985620D03*
D16*
%TO.P,SD1,6,6*%
%TO.N,/5V*%
X186039100Y-86485600D03*
%TD*%
D18*
%TO.P,A1,0,0*%
%TO.N,unconnected-(A1-Pad0)*%
X161299100Y-80985600D03*
%TO.P,A1,1,1*%
%TO.N,unconnected-(A1-Pad1)*%
X158759100Y-80985600D03*
%TO.P,A1,2,2*%
%TO.N,/BTN2*%
X156219100Y-80985600D03*
%TO.P,A1,3,3*%
%TO.N,/BTN1*%
X153679100Y-80985600D03*
%TO.P,A1,3V3,+3V3*%
%TO.N,/3.3V*%
X133359100Y-129245600D03*
%TO.P,A1,4,4*%
%TO.N,unconnected-(A1-Pad4)*%
X151139100Y-80985600D03*
%TO.P,A1,5,5*%
%TO.N,unconnected-(A1-Pad5)*%
X148599100Y-80985600D03*
%TO.P,A1,5V_1,+5V_1*%
%TO.N,/5V*%
X135899100Y-129245600D03*
%TO.P,A1,5V_2,+5V_2*%
X191779100Y-80985600D03*
%TO.P,A1,5V_3,+5V_3*%
X194319100Y-80985600D03*
%TO.P,A1,6,6*%
%TO.N,unconnected-(A1-Pad6)*%
X146059100Y-80985600D03*
%TO.P,A1,7,7*%
%TO.N,unconnected-(A1-Pad7)*%
X143519100Y-80985600D03*
%TO.P,A1,8,8*%
%TO.N,/LCD_RES*%
X139455100Y-80985600D03*
%TO.P,A1,9,9*%
%TO.N,/LCD_DC*%
X136915100Y-80985600D03*
%TO.P,A1,10,10*%
%TO.N,/LCD_CS*%
X134375100Y-80985600D03*
%TO.P,A1,11,11*%
%TO.N,/LCD_SDA*%
X131835100Y-80985600D03*
%TO.P,A1,12,12*%
%TO.N,unconnected-(A1-Pad12)*%
X129295100Y-80985600D03*
%TO.P,A1,13,13*%
%TO.N,/LCD_SCK*%
X126755100Y-80985600D03*
%TO.P,A1,14,14*%
%TO.N,/PM_RXD*%
X166379100Y-80985600D03*
%TO.P,A1,15,15*%
%TO.N,/PM_TX*%
X168919100Y-80985600D03*
%TO.P,A1,16,16*%
%TO.N,unconnected-(A1-Pad16)*%
X171459100Y-80985600D03*
%TO.P,A1,17,17*%
%TO.N,unconnected-(A1-Pad17)*%
X173999100Y-80985600D03*
%TO.P,A1,18,18*%
%TO.N,/RTC_SQW*%
X176539100Y-80985600D03*
%TO.P,A1,19,19*%
%TO.N,unconnected-(A1-Pad19)*%
X179079100Y-80985600D03*
%TO.P,A1,20,20*%
%TO.N,/SDA*%
X181619100Y-80985600D03*
%TO.P,A1,21,21*%
%TO.N,/SCL*%
X184159100Y-80985600D03*
%TO.P,A1,22,22*%
%TO.N,unconnected-(A1-Pad22)*%
X191779100Y-83525600D03*
%TO.P,A1,23,23*%
%TO.N,unconnected-(A1-Pad23)*%
X194319100Y-83525600D03*
%TO.P,A1,24,24*%
%TO.N,unconnected-(A1-Pad24)*%
X191779100Y-86065600D03*
%TO.P,A1,25,25*%
%TO.N,unconnected-(A1-Pad25)*%
X194319100Y-86065600D03*
%TO.P,A1,26,26*%
%TO.N,unconnected-(A1-Pad26)*%
X191779100Y-88605600D03*
%TO.P,A1,27,27*%
%TO.N,unconnected-(A1-Pad27)*%
X194319100Y-88605600D03*
%TO.P,A1,28,28*%
%TO.N,unconnected-(A1-Pad28)*%
X191779100Y-91145600D03*
%TO.P,A1,29,29*%
%TO.N,unconnected-(A1-Pad29)*%
X194319100Y-91145600D03*
%TO.P,A1,30,30*%
%TO.N,unconnected-(A1-Pad30)*%
X191779100Y-93685600D03*
%TO.P,A1,31,31*%
%TO.N,unconnected-(A1-Pad31)*%
X194319100Y-93685600D03*
%TO.P,A1,32,32*%
%TO.N,unconnected-(A1-Pad32)*%
X191779100Y-96225600D03*
%TO.P,A1,33,33*%
%TO.N,unconnected-(A1-Pad33)*%
X194319100Y-96225600D03*
%TO.P,A1,34,34*%
%TO.N,unconnected-(A1-Pad34)*%
X191779100Y-98765600D03*
%TO.P,A1,35,35*%
%TO.N,unconnected-(A1-Pad35)*%
X194319100Y-98765600D03*
%TO.P,A1,36,36*%
%TO.N,unconnected-(A1-Pad36)*%
X191779100Y-101305600D03*
%TO.P,A1,37,37*%
%TO.N,unconnected-(A1-Pad37)*%
X194319100Y-101305600D03*
%TO.P,A1,38,38*%
%TO.N,unconnected-(A1-Pad38)*%
X191779100Y-103845600D03*
%TO.P,A1,39,39*%
%TO.N,unconnected-(A1-Pad39)*%
X194319100Y-103845600D03*
%TO.P,A1,40,40*%
%TO.N,unconnected-(A1-Pad40)*%
X191779100Y-106385600D03*
%TO.P,A1,41,41*%
%TO.N,unconnected-(A1-Pad41)*%
X194319100Y-106385600D03*
%TO.P,A1,42,42*%
%TO.N,unconnected-(A1-Pad42)*%
X191779100Y-108925600D03*
%TO.P,A1,43,43*%
%TO.N,unconnected-(A1-Pad43)*%
X194319100Y-108925600D03*
%TO.P,A1,44,44*%
%TO.N,unconnected-(A1-Pad44)*%
X191779100Y-111465600D03*
%TO.P,A1,45,45*%
%TO.N,unconnected-(A1-Pad45)*%
X194319100Y-111465600D03*
%TO.P,A1,46,46*%
%TO.N,unconnected-(A1-Pad46)*%
X191779100Y-114005600D03*
%TO.P,A1,47,47*%
%TO.N,unconnected-(A1-Pad47)*%
X194319100Y-114005600D03*
%TO.P,A1,48,48*%
%TO.N,unconnected-(A1-Pad48)*%
X191779100Y-116545600D03*
%TO.P,A1,49,49*%
%TO.N,unconnected-(A1-Pad49)*%
X194319100Y-116545600D03*
%TO.P,A1,50,50*%
%TO.N,/SD_MISO*%
X191779100Y-119085600D03*
%TO.P,A1,51,51*%
%TO.N,/SD_MOSI*%
X194319100Y-119085600D03*
%TO.P,A1,52,52*%
%TO.N,/SD_CLK*%
X191779100Y-121625600D03*
%TO.P,A1,53,53*%
%TO.N,/SD_CS*%
X194319100Y-121625600D03*
%TO.P,A1,AD0,AD0*%
%TO.N,/CO_VGAS*%
X148599100Y-129245600D03*
%TO.P,A1,AD1,AD1*%
%TO.N,/CO_VTEMP*%
X151139100Y-129245600D03*
%TO.P,A1,AD2,AD2*%
%TO.N,/CO_VREF*%
X153679100Y-129245600D03*
%TO.P,A1,AD3,AD3*%
%TO.N,unconnected-(A1-PadAD3)*%
X156219100Y-129245600D03*
%TO.P,A1,AD4,AD4*%
%TO.N,unconnected-(A1-PadAD4)*%
X158759100Y-129245600D03*
%TO.P,A1,AD5,AD5*%
%TO.N,unconnected-(A1-PadAD5)*%
X161299100Y-129245600D03*
%TO.P,A1,AD6,AD6*%
%TO.N,unconnected-(A1-PadAD6)*%
X163839100Y-129245600D03*
%TO.P,A1,AD7,AD7*%
%TO.N,unconnected-(A1-PadAD7)*%
X166379100Y-129245600D03*
%TO.P,A1,AD8,AD8*%
%TO.N,/BAT_MEAS*%
X171459100Y-129245600D03*
%TO.P,A1,AD9,AD9*%
%TO.N,unconnected-(A1-PadAD9)*%
X173999100Y-129245600D03*
%TO.P,A1,AD10,AD10*%
%TO.N,unconnected-(A1-PadAD10)*%
X176539100Y-129245600D03*
%TO.P,A1,AD11,AD11*%
%TO.N,unconnected-(A1-PadAD11)*%
X179079100Y-129245600D03*
%TO.P,A1,AD12,AD12*%
%TO.N,unconnected-(A1-PadAD12)*%
X181619100Y-129245600D03*
%TO.P,A1,AD13,AD13*%
%TO.N,unconnected-(A1-PadAD13)*%
X184159100Y-129245600D03*
%TO.P,A1,AD14,AD14*%
%TO.N,unconnected-(A1-PadAD14)*%
X186699100Y-129245600D03*
%TO.P,A1,AD15,AD15*%
%TO.N,unconnected-(A1-PadAD15)*%
X189239100Y-129245600D03*
%TO.P,A1,AREF,AREF*%
%TO.N,unconnected-(A1-PadAREF)*%
X121675100Y-80985600D03*
%TO.P,A1,GND1,GND1*%
%TO.N,/GND*%
X138439100Y-129245600D03*
%TO.P,A1,GND2,GND2*%
X140979100Y-129245600D03*
%TO.P,A1,GND3,GND3*%
X124215100Y-80985600D03*
%TO.P,A1,GND4,GND4*%
X191779100Y-124165600D03*
%TO.P,A1,GND5,GND5*%
X194319100Y-124165600D03*
%TO.P,A1,IOREF,IOREF*%
%TO.N,unconnected-(A1-PadIOREF)*%
X128279100Y-129245600D03*
D19*
%TO.P,A1,NC,NC*%
%TO.N,unconnected-(A1-PadNC)*%
X125739100Y-129245600D03*
D18*
%TO.P,A1,RESET,RESET*%
%TO.N,unconnected-(A1-PadRESET)*%
X130819100Y-129245600D03*
%TO.P,A1,SCL,SCL*%
%TO.N,unconnected-(A1-PadSCL)*%
X116595100Y-80985600D03*
%TO.P,A1,SDA,SDA*%
%TO.N,unconnected-(A1-PadSDA)*%
X119135100Y-80985600D03*
%TO.P,A1,VIN,VIN*%
%TO.N,unconnected-(A1-PadVIN)*%
X143519100Y-129245600D03*
%TD*%
D15*
%TO.P,CO1,1,1*%
%TO.N,/CO_VGAS*%
X167039100Y-86485610D03*
D16*
%TO.P,CO1,2,2*%
%TO.N,/CO_VREF*%
X167039100Y-88985580D03*
%TO.P,CO1,3,3*%
%TO.N,/CO_VTEMP*%
X167039100Y-91485600D03*
%TO.P,CO1,4,4*%
%TO.N,/GND*%
X167039100Y-93985620D03*
%TO.P,CO1,5,5*%
%TO.N,/3.3V*%
X167039100Y-96485590D03*
%TD*%
D20*
%TO.P,R2,1*%
%TO.N,/GND*%
X187539100Y-105135600D03*
%TO.P,R2,2*%
%TO.N,/BAT_MEAS*%
X187539100Y-117835600D03*
%TD*%
%TO.P,R1,1*%
%TO.N,/BAT_MEAS*%
X183039100Y-117835600D03*
%TO.P,R1,2*%
%TO.N,/BAT_IN*%
X183039100Y-105135600D03*
%TD*%
D21*
%TO.N,/GND*%
X174039100Y-98985600D03*
X151539100Y-92485600D03*
X167539100Y-110985600D03*
X171039100Y-87985600D03*
X179539100Y-85985600D03*
X120039100Y-102485600D03*
%TO.N,/5V*%
X160539100Y-86485600D03*
%TO.N,/BTN2*%
X136539100Y-94985600D03*
%TO.N,/LCD_RES*%
X138539100Y-85485600D03*
%TO.N,/BTN1*%
X136539100Y-96485600D03*
%TO.N,/BAT_IN*%
X162039100Y-114985600D03*
X127539100Y-121485600D03*
%TD*%
D22*
%TO.N,/GND*%
X175039120Y-88985580D02*
X175039100Y-88985600D01*
%TO.N,/3.3V*%
X136119100Y-126485600D02*
X159539100Y-126485600D01*
X133359100Y-129245600D02*
X136119100Y-126485600D01*
X159539100Y-126485600D02*
X164039100Y-121985600D01*
X164039100Y-121985600D02*
X164039100Y-99485590D01*
X164039100Y-99485590D02*
X167039100Y-96485590D01*
%TO.N,/SD_CLK*%
X190039100Y-119885600D02*
X191779100Y-121625600D01*
X186039100Y-91485590D02*
X190039100Y-95485590D01*
X190039100Y-95485590D02*
X190039100Y-119885600D01*
%TO.N,/SDA*%
X155539100Y-100985600D02*
X133942100Y-100985600D01*
X133942100Y-100985600D02*
X129959100Y-97002600D01*
X175484100Y-95040620D02*
X161484080Y-95040620D01*
X161484080Y-95040620D02*
X155539100Y-100985600D01*
X176539100Y-93985620D02*
X175484100Y-95040620D01*
%TO.N,/5V*%
X188779100Y-83985600D02*
X191779100Y-80985600D01*
X188779100Y-83985600D02*
X188539100Y-83985600D01*
X188539100Y-83985600D02*
X186039100Y-86485600D01*
X176539100Y-86485610D02*
X179039110Y-83985600D01*
X129959100Y-99542600D02*
X132902100Y-102485600D01*
X186279100Y-86485600D02*
X186039100Y-86485600D01*
X162039100Y-84985600D02*
X160539100Y-86485600D01*
X132902100Y-102485600D02*
X149886600Y-102485600D01*
X176539100Y-86485610D02*
X175039090Y-84985600D01*
X149886600Y-102485600D02*
X153955100Y-106554100D01*
X179039110Y-83985600D02*
X188779100Y-83985600D01*
X175039090Y-84985600D02*
X162039100Y-84985600D01*
D23*
X191681100Y-80873600D02*
X194221100Y-80873600D01*
D22*
%TO.N,/RTC_SQW*%
X137088030Y-91922600D02*
X144539100Y-84471530D01*
X129959100Y-91922600D02*
X137088030Y-91922600D01*
X144539100Y-82485600D02*
X144539100Y-81119670D01*
X144539100Y-84471530D02*
X144539100Y-82485600D01*
X144539100Y-81119670D02*
X146173170Y-79485600D01*
X146173170Y-79485600D02*
X175039100Y-79485600D01*
X176539100Y-80985600D02*
X175039100Y-79485600D01*
%TO.N,/BTN2*%
X142219100Y-94985600D02*
X156219100Y-80985600D01*
X136539100Y-94985600D02*
X142219100Y-94985600D01*
%TO.N,/SD_CS*%
X194319100Y-121625600D02*
X192959100Y-122985600D01*
X189039100Y-121485600D02*
X189039100Y-102485600D01*
X192959100Y-122985600D02*
X190539100Y-122985600D01*
X190539100Y-122985600D02*
X189039100Y-121485600D01*
X186039100Y-99485600D02*
X186039100Y-98985600D01*
X189039100Y-102485600D02*
X186039100Y-99485600D01*
%TO.N,/SCL*%
X172484100Y-90430600D02*
X163094100Y-90430600D01*
X134482100Y-98985600D02*
X129959100Y-94462600D01*
X176539100Y-91485600D02*
X173539100Y-91485600D01*
X173539100Y-91485600D02*
X172484100Y-90430600D01*
X154539100Y-98985600D02*
X134482100Y-98985600D01*
X163094100Y-90430600D02*
X154539100Y-98985600D01*
%TO.N,/LCD_RES*%
X139455100Y-80985600D02*
X139455100Y-84569600D01*
X139455100Y-84569600D02*
X138539100Y-85485600D01*
%TO.N,/BTN1*%
X135539100Y-93985600D02*
X140679100Y-93985600D01*
X136539100Y-96485600D02*
X135039100Y-94985600D01*
X135039100Y-94485600D02*
X135539100Y-93985600D01*
X135039100Y-94985600D02*
X135039100Y-94485600D01*
X140679100Y-93985600D02*
X153679100Y-80985600D01*
D24*
%TO.N,/BAT_IN*%
X127539100Y-121485600D02*
X134039100Y-114985600D01*
X134039100Y-114985600D02*
X162039100Y-114985600D01*
%TD*%
%TA.AperFunction,Conductor*%
%TO.N,/GND*%
G36*
X165764084Y-91050785D02*
G01*
X165809839Y-91103589D01*
X165819783Y-91172747D01*
X165816456Y-91187052D01*
X165816628Y-91187094D01*
X165815490Y-91191833D01*
X165784600Y-91386863D01*
X165784600Y-91584336D01*
X165815489Y-91779363D01*
X165859234Y-91913994D01*
X165876509Y-91967161D01*
X165966156Y-92143101D01*
X165966158Y-92143104D01*
X166082215Y-92302846D01*
X166221853Y-92442484D01*
X166349390Y-92535143D01*
X166381599Y-92558544D01*
X166557539Y-92648191D01*
X166745337Y-92709210D01*
X166909805Y-92735259D01*
X166919003Y-92736716D01*
X166982138Y-92766645D01*
X167019069Y-92825957D01*
X167018071Y-92895819D01*
X166979461Y-92954052D01*
X166923797Y-92980806D01*
X166745082Y-93016355D01*
X166745076Y-93016357D01*
X166561635Y-93092340D01*
X166561626Y-93092345D01*
X166396538Y-93202654D01*
X166396534Y-93202657D01*
X166256137Y-93343054D01*
X166256134Y-93343058D01*
X166145825Y-93508146D01*
X166145820Y-93508155D01*
X166069837Y-93691596D01*
X166069835Y-93691604D01*
X166036614Y-93858620D01*
X166555492Y-93858620D01*
X166539100Y-93919794D01*
X166539100Y-94051446D01*
X166555492Y-94112620D01*
X166036614Y-94112620D01*
X166069834Y-94279630D01*
X166069981Y-94280115D01*
X166069983Y-94280381D01*
X166071025Y-94285618D01*
X166070032Y-94285815D01*
X166070610Y-94349982D01*
X166033367Y-94409098D01*
X165970075Y-94438694D01*
X165951323Y-94440120D01*
X161405020Y-94440120D01*
X161364099Y-94451084D01*
X161364099Y-94451085D01*
X161326831Y-94461071D01*
X161252294Y-94481043D01*
X161252289Y-94481046D01*
X161115370Y-94560095D01*
X161115362Y-94560101D01*
X161032353Y-94643111D01*
X161003560Y-94671904D01*
X161003558Y-94671906D01*
X158149568Y-97525897D01*
X155326684Y-100348781D01*
X155265361Y-100382266D01*
X155239003Y-100385100D01*
X134242198Y-100385100D01*
X134175159Y-100365415D01*
X134154517Y-100348781D01*
X131168291Y-97362556D01*
X131134806Y-97301233D01*
X131133499Y-97255481D01*
X131158600Y-97097003D01*
X131158600Y-96908197D01*
X131143614Y-96813580D01*
X131152568Y-96744289D01*
X131197564Y-96690837D01*
X131264316Y-96670197D01*
X131331630Y-96688922D01*
X131353768Y-96706503D01*
X133997239Y-99349974D01*
X133997249Y-99349985D01*
X134001579Y-99354315D01*
X134001580Y-99354316D01*
X134113384Y-99466120D01*
X134124844Y-99472736D01*
X134200195Y-99516239D01*
X134200197Y-99516241D01*
X134238251Y-99538211D01*
X134250315Y-99545177D01*
X134403043Y-99586101D01*
X134403046Y-99586101D01*
X134568753Y-99586101D01*
X134568769Y-99586100D01*
X154452431Y-99586100D01*
X154452447Y-99586101D01*
X154460043Y-99586101D01*
X154618154Y-99586101D01*
X154618157Y-99586101D01*
X154770885Y-99545177D01*
X154821004Y-99516239D01*
X154907816Y-99466120D01*
X155019620Y-99354316D01*
X155019620Y-99354314D01*
X155029828Y-99344107D01*
X155029829Y-99344104D01*
X163306516Y-91067419D01*
X163367839Y-91033934D01*
X163394197Y-91031100D01*
X165697045Y-91031100D01*
X165764084Y-91050785D01*
G37*
%TD.AperFunction*%
%TA.AperFunction,Conductor*%
G36*
X172251042Y-91050785D02*
G01*
X172271684Y-91067419D01*
X173054239Y-91849974D01*
X173054249Y-91849985D01*
X173058579Y-91854315D01*
X173058580Y-91854316D01*
X173170384Y-91966120D01*
X173257195Y-92016239D01*
X173257197Y-92016241D01*
X173307313Y-92045176D01*
X173307315Y-92045177D01*
X173460042Y-92086100D01*
X173460043Y-92086100D01*
X175361782Y-92086100D01*
X175428821Y-92105785D01*
X175462239Y-92139924D01*
X175463292Y-92139160D01*
X175582215Y-92302846D01*
X175721853Y-92442484D01*
X175849390Y-92535143D01*
X175881599Y-92558544D01*
X176012272Y-92625126D01*
X176063067Y-92673100D01*
X176079862Y-92740921D01*
X176057324Y-92807056D01*
X176012272Y-92846093D01*
X175890507Y-92908136D01*
X175881595Y-92912678D01*
X175721853Y-93028735D01*
X175582215Y-93168373D01*
X175466158Y-93328115D01*
X175376508Y-93504061D01*
X175315489Y-93691856D01*
X175284600Y-93886883D01*
X175284600Y-94084356D01*
X175316252Y-94284195D01*
X175314507Y-94284471D01*
X175314368Y-94287236D01*
X175317995Y-94296958D01*
X175312649Y-94321537D01*
X175311390Y-94346658D01*
X175304956Y-94356907D01*
X175303146Y-94365232D01*
X175281996Y-94393487D01*
X175271687Y-94403797D01*
X175210366Y-94437285D01*
X175184002Y-94440120D01*
X168126877Y-94440120D01*
X168059838Y-94420435D01*
X168014083Y-94367631D01*
X168004139Y-94298473D01*
X168008219Y-94280115D01*
X168008365Y-94279630D01*
X168041586Y-94112620D01*
X167522708Y-94112620D01*
X167539100Y-94051446D01*
X167539100Y-93919794D01*
X167522708Y-93858620D01*
X168041586Y-93858620D01*
X168008364Y-93691604D01*
X168008362Y-93691596D01*
X167932379Y-93508155D01*
X167932374Y-93508146D01*
X167822065Y-93343058D01*
X167822062Y-93343054D01*
X167681665Y-93202657D01*
X167681661Y-93202654D01*
X167516573Y-93092345D01*
X167516564Y-93092340D01*
X167333123Y-93016357D01*
X167333117Y-93016355D01*
X167154402Y-92980806D01*
X167092491Y-92948421D01*
X167057917Y-92887705D01*
X167061657Y-92817936D01*
X167102524Y-92761264D01*
X167159195Y-92736716D01*
X167332863Y-92709210D01*
X167520661Y-92648191D01*
X167696601Y-92558544D01*
X167801712Y-92482177D01*
X167856346Y-92442484D01*
X167856348Y-92442481D01*
X167856352Y-92442479D01*
X167995979Y-92302852D01*
X167995981Y-92302848D01*
X167995984Y-92302846D01*
X168046879Y-92232792D01*
X168112044Y-92143101D01*
X168201691Y-91967161D01*
X168262710Y-91779363D01*
X168265176Y-91763793D01*
X168293600Y-91584336D01*
X168293600Y-91386863D01*
X168262709Y-91191836D01*
X168262709Y-91191833D01*
X168261572Y-91187094D01*
X168263033Y-91186743D01*
X168261229Y-91123578D01*
X168297309Y-91063745D01*
X168360010Y-91032916D01*
X168381155Y-91031100D01*
X172184003Y-91031100D01*
X172251042Y-91050785D01*
G37*
%TD.AperFunction*%
%TA.AperFunction,Conductor*%
G36*
X174806032Y-85605785D02*
G01*
X174826674Y-85622419D01*
X175248281Y-86044026D01*
X175281766Y-86105349D01*
X175284600Y-86131707D01*
X175284600Y-87287480D01*
X175284601Y-87287486D01*
X175291008Y-87347093D01*
X175341302Y-87481938D01*
X175341306Y-87481945D01*
X175427552Y-87597154D01*
X175427555Y-87597157D01*
X175542764Y-87683403D01*
X175542771Y-87683407D01*
X175677617Y-87733701D01*
X175677616Y-87733701D01*
X175684544Y-87734445D01*
X175737227Y-87740110D01*
X176374672Y-87740109D01*
X176441709Y-87759793D01*
X176487464Y-87812597D01*
X176497408Y-87881756D01*
X176468383Y-87945312D01*
X176409605Y-87983086D01*
X176398862Y-87985726D01*
X176245082Y-88016315D01*
X176245076Y-88016317D01*
X176061635Y-88092300D01*
X176061626Y-88092305D01*
X175896538Y-88202614D01*
X175896534Y-88202617D01*
X175756137Y-88343014D01*
X175756134Y-88343018D01*
X175645825Y-88508106D01*
X175645820Y-88508115D01*
X175569837Y-88691556D01*
X175569835Y-88691562D01*
X175561079Y-88735579D01*
X175561080Y-88735580D01*
X176106088Y-88735580D01*
X176073175Y-88792587D01*
X176039100Y-88919754D01*
X176039100Y-89051406D01*
X176073175Y-89178573D01*
X176106088Y-89235580D01*
X175561080Y-89235580D01*
X175569835Y-89279597D01*
X175569837Y-89279603D01*
X175645820Y-89463044D01*
X175645825Y-89463053D01*
X175756134Y-89628141D01*
X175756137Y-89628145D01*
X175896534Y-89768542D01*
X175896538Y-89768545D01*
X176061626Y-89878854D01*
X176061635Y-89878859D01*
X176245076Y-89954842D01*
X176245084Y-89954844D01*
X176423796Y-89990393D01*
X176485707Y-90022778D01*
X176520281Y-90083493D01*
X176516542Y-90153263D01*
X176475675Y-90209935D01*
X176419003Y-90234483D01*
X176245336Y-90261989D01*
X176057541Y-90323008D01*
X175881595Y-90412658D01*
X175721853Y-90528715D01*
X175582215Y-90668353D01*
X175463292Y-90832040D01*
X175461861Y-90831000D01*
X175415693Y-90872767D01*
X175361782Y-90885100D01*
X173839197Y-90885100D01*
X173772158Y-90865415D01*
X173751516Y-90848781D01*
X172971690Y-90068955D01*
X172971688Y-90068952D01*
X172852817Y-89950081D01*
X172852816Y-89950080D01*
X172766004Y-89899960D01*
X172766004Y-89899959D01*
X172766000Y-89899958D01*
X172715885Y-89871023D01*
X172563157Y-89830099D01*
X172405043Y-89830099D01*
X172397447Y-89830099D01*
X172397431Y-89830100D01*
X168218857Y-89830100D01*
X168151818Y-89810415D01*
X168106063Y-89757611D01*
X168096119Y-89688453D01*
X168110753Y-89647891D01*
X168109832Y-89647422D01*
X168126659Y-89614398D01*
X168201691Y-89467141D01*
X168262710Y-89279343D01*
X168267467Y-89249307D01*
X168293600Y-89084316D01*
X168293600Y-88886843D01*
X168262710Y-88691816D01*
X168206771Y-88519655D01*
X168201691Y-88504019D01*
X168112044Y-88328079D01*
X168104586Y-88317814D01*
X167995984Y-88168333D01*
X167856346Y-88028695D01*
X167767887Y-87964427D01*
X167725221Y-87909098D01*
X167719242Y-87839484D01*
X167751847Y-87777689D01*
X167812686Y-87743332D01*
X167837671Y-87740464D01*
X167837673Y-87740463D01*
X167837664Y-87740286D01*
X167840598Y-87740128D01*
X167840772Y-87740109D01*
X167840971Y-87740109D01*
X167840972Y-87740109D01*
X167900583Y-87733701D01*
X168035431Y-87683406D01*
X168150646Y-87597156D01*
X168236896Y-87481941D01*
X168287191Y-87347093D01*
X168293600Y-87287483D01*
X168293599Y-85710099D01*
X168313284Y-85643061D01*
X168366087Y-85597306D01*
X168417599Y-85586100D01*
X174738993Y-85586100D01*
X174806032Y-85605785D01*
G37*
%TD.AperFunction*%
%TA.AperFunction,Conductor*%
G36*
X198997639Y-78599785D02*
G01*
X199043394Y-78652589D01*
X199054600Y-78704100D01*
X199054600Y-131303100D01*
X199034915Y-131370139D01*
X198982111Y-131415894D01*
X198930600Y-131427100D01*
X98071600Y-131427100D01*
X98004561Y-131407415D01*
X97958806Y-131354611D01*
X97947600Y-131303100D01*
X97947600Y-129124311D01*
X109918600Y-129124311D01*
X109918600Y-129366888D01*
X109947404Y-129585684D01*
X109950262Y-129607389D01*
X109971737Y-129687534D01*
X110013047Y-129841704D01*
X110091905Y-130032083D01*
X110105876Y-130065812D01*
X110227164Y-130275889D01*
X110227166Y-130275892D01*
X110227167Y-130275893D01*
X110374833Y-130468336D01*
X110374839Y-130468343D01*
X110546356Y-130639860D01*
X110546362Y-130639865D01*
X110738811Y-130787536D01*
X110948888Y-130908824D01*
X111173000Y-131001654D01*
X111407311Y-131064438D01*
X111587686Y-131088184D01*
X111647811Y-131096100D01*
X111647812Y-131096100D01*
X111890389Y-131096100D01*
X111938488Y-131089767D01*
X112130889Y-131064438D01*
X112365200Y-131001654D01*
X112589312Y-130908824D01*
X112799389Y-130787536D01*
X112991838Y-130639865D01*
X113163365Y-130468338D01*
X113311036Y-130275889D01*
X113432324Y-130065812D01*
X113525154Y-129841700D01*
X113587938Y-129607389D01*
X113619600Y-129366888D01*
X113619600Y-129124312D01*
X113587938Y-128883811D01*
X113525154Y-128649500D01*
X113516003Y-128627407D01*
X113489267Y-128562858D01*
X113470990Y-128518735D01*
X124559600Y-128518735D01*
X124559600Y-129972470D01*
X124559601Y-129972476D01*
X124566008Y-130032083D01*
X124616302Y-130166928D01*
X124616306Y-130166935D01*
X124702552Y-130282144D01*
X124702555Y-130282147D01*
X124817764Y-130368393D01*
X124817771Y-130368397D01*
X124952617Y-130418691D01*
X124952616Y-130418691D01*
X124959544Y-130419435D01*
X125012227Y-130425100D01*
X126465972Y-130425099D01*
X126525583Y-130418691D01*
X126660431Y-130368396D01*
X126775646Y-130282146D01*
X126861896Y-130166931D01*
X126912191Y-130032083D01*
X126918600Y-129972473D01*
X126918599Y-129658253D01*
X126938283Y-129591217D01*
X126991087Y-129545462D01*
X127060246Y-129535518D01*
X127123801Y-129564543D01*
X127160530Y-129619937D01*
X127186016Y-129698375D01*
X127258357Y-129840352D01*
X127270301Y-129863793D01*
X127379428Y-130013993D01*
X127510707Y-130145272D01*
X127660907Y-130254399D01*
X127826329Y-130338685D01*
X128002900Y-130396057D01*
X128071664Y-130406948D01*
X128186266Y-130425100D01*
X128186271Y-130425100D01*
X128371934Y-130425100D01*
X128473801Y-130408965D01*
X128555300Y-130396057D01*
X128731871Y-130338685D01*
X128897293Y-130254399D01*
X129047493Y-130145272D01*
X129178772Y-130013993D01*
X129287899Y-129863793D01*
X129372185Y-129698371D01*
X129429557Y-129521800D01*
X129429558Y-129521796D01*
X129431062Y-129517167D01*
X129433247Y-129517877D01*
X129463303Y-129465514D01*
X129525324Y-129433340D01*
X129594894Y-129439805D01*
X129649924Y-129482856D01*
X129665792Y-129517604D01*
X129667138Y-129517167D01*
X129668642Y-129521796D01*
X129668643Y-129521800D01*
X129726015Y-129698371D01*
X129810301Y-129863793D01*
X129919428Y-130013993D01*
X130050707Y-130145272D01*
X130200907Y-130254399D01*
X130366329Y-130338685D01*
X130542900Y-130396057D01*
X130611664Y-130406948D01*
X130726266Y-130425100D01*
X130726271Y-130425100D01*
X130911934Y-130425100D01*
X131013801Y-130408965D01*
X131095300Y-130396057D01*
X131271871Y-130338685D01*
X131437293Y-130254399D01*
X131587493Y-130145272D01*
X131718772Y-130013993D01*
X131827899Y-129863793D01*
X131912185Y-129698371D01*
X131969557Y-129521800D01*
X131969558Y-129521796D01*
X131971062Y-129517167D01*
X131973247Y-129517877D01*
X132003303Y-129465514D01*
X132065324Y-129433340D01*
X132134894Y-129439805D01*
X132189924Y-129482856D01*
X132205792Y-129517604D01*
X132207138Y-129517167D01*
X132208642Y-129521796D01*
X132208643Y-129521800D01*
X132266015Y-129698371D01*
X132350301Y-129863793D01*
X132459428Y-130013993D01*
X132590707Y-130145272D01*
X132740907Y-130254399D01*
X132906329Y-130338685D01*
X133082900Y-130396057D01*
X133151664Y-130406948D01*
X133266266Y-130425100D01*
X133266271Y-130425100D01*
X133451934Y-130425100D01*
X133553801Y-130408965D01*
X133635300Y-130396057D01*
X133811871Y-130338685D01*
X133977293Y-130254399D01*
X134127493Y-130145272D01*
X134258772Y-130013993D01*
X134367899Y-129863793D01*
X134452185Y-129698371D01*
X134509557Y-129521800D01*
X134509558Y-129521796D01*
X134511062Y-129517167D01*
X134513247Y-129517877D01*
X134543303Y-129465514D01*
X134605324Y-129433340D01*
X134674894Y-129439805D01*
X134729924Y-129482856D01*
X134745792Y-129517604D01*
X134747138Y-129517167D01*
X134748642Y-129521796D01*
X134748643Y-129521800D01*
X134806015Y-129698371D01*
X134890301Y-129863793D01*
X134999428Y-130013993D01*
X135130707Y-130145272D01*
X135280907Y-130254399D01*
X135446329Y-130338685D01*
X135622900Y-130396057D01*
X135691664Y-130406948D01*
X135806266Y-130425100D01*
X135806271Y-130425100D01*
X135991934Y-130425100D01*
X136093801Y-130408965D01*
X136175300Y-130396057D01*
X136351871Y-130338685D01*
X136517293Y-130254399D01*
X136667493Y-130145272D01*
X136798772Y-130013993D01*
X136907899Y-129863793D01*
X136992185Y-129698371D01*
X137049557Y-129521800D01*
X137074093Y-129366888D01*
X137078600Y-129338434D01*
X137078600Y-129152765D01*
X137073188Y-129118599D01*
X137513082Y-129118599D01*
X137513083Y-129118600D01*
X138033137Y-129118600D01*
X138014100Y-129189648D01*
X138014100Y-129301552D01*
X138033137Y-129372600D01*
X137513083Y-129372600D01*
X137541953Y-129517740D01*
X137541956Y-129517750D01*
X137612282Y-129687534D01*
X137612289Y-129687547D01*
X137714391Y-129840352D01*
X137714394Y-129840356D01*
X137844343Y-129970305D01*
X137844347Y-129970308D01*
X137997152Y-130072410D01*
X137997165Y-130072417D01*
X138166952Y-130142744D01*
X138166961Y-130142747D01*
X138312100Y-130171616D01*
X138312100Y-129651562D01*
X138383148Y-129670600D01*
X138495052Y-129670600D01*
X138566100Y-129651562D01*
X138566100Y-130171615D01*
X138711238Y-130142747D01*
X138711247Y-130142744D01*
X138881034Y-130072417D01*
X138881047Y-130072410D01*
X139033852Y-129970308D01*
X139033856Y-129970305D01*
X139163805Y-129840356D01*
X139163808Y-129840352D01*
X139265910Y-129687547D01*
X139265917Y-129687534D01*
X139336243Y-129517750D01*
X139336246Y-129517740D01*
X139365117Y-129372600D01*
X138845063Y-129372600D01*
X138864100Y-129301552D01*
X138864100Y-129189648D01*
X138845063Y-129118600D01*
X139365117Y-129118600D01*
X139365117Y-129118599D01*
X140053082Y-129118599D01*
X140053083Y-129118600D01*
X140573137Y-129118600D01*
X140554100Y-129189648D01*
X140554100Y-129301552D01*
X140573137Y-129372600D01*
X140053083Y-129372600D01*
X140081953Y-129517740D01*
X140081956Y-129517750D01*
X140152282Y-129687534D01*
X140152289Y-129687547D01*
X140254391Y-129840352D01*
X140254394Y-129840356D01*
X140384343Y-129970305D01*
X140384347Y-129970308D01*
X140537152Y-130072410D01*
X140537165Y-130072417D01*
X140706952Y-130142744D01*
X140706961Y-130142747D01*
X140852100Y-130171616D01*
X140852100Y-129651562D01*
X140923148Y-129670600D01*
X141035052Y-129670600D01*
X141106100Y-129651562D01*
X141106100Y-130171615D01*
X141251238Y-130142747D01*
X141251247Y-130142744D01*
X141421034Y-130072417D01*
X141421047Y-130072410D01*
X141573852Y-129970308D01*
X141573856Y-129970305D01*
X141703805Y-129840356D01*
X141703808Y-129840352D01*
X141805910Y-129687547D01*
X141805917Y-129687534D01*
X141876243Y-129517750D01*
X141876246Y-129517740D01*
X141905117Y-129372600D01*
X141385063Y-129372600D01*
X141404100Y-129301552D01*
X141404100Y-129189648D01*
X141394217Y-129152765D01*
X142339600Y-129152765D01*
X142339600Y-129338434D01*
X142368642Y-129521796D01*
X142368643Y-129521800D01*
X142426015Y-129698371D01*
X142510301Y-129863793D01*
X142619428Y-130013993D01*
X142750707Y-130145272D01*
X142900907Y-130254399D01*
X143066329Y-130338685D01*
X143242900Y-130396057D01*
X143311664Y-130406948D01*
X143426266Y-130425100D01*
X143426271Y-130425100D01*
X143611934Y-130425100D01*
X143713801Y-130408965D01*
X143795300Y-130396057D01*
X143971871Y-130338685D01*
X144137293Y-130254399D01*
X144287493Y-130145272D01*
X144418772Y-130013993D01*
X144527899Y-129863793D01*
X144612185Y-129698371D01*
X144669557Y-129521800D01*
X144694093Y-129366888D01*
X144698600Y-129338434D01*
X144698600Y-129152765D01*
X147419600Y-129152765D01*
X147419600Y-129338434D01*
X147448642Y-129521796D01*
X147448643Y-129521800D01*
X147506015Y-129698371D01*
X147590301Y-129863793D01*
X147699428Y-130013993D01*
X147830707Y-130145272D01*
X147980907Y-130254399D01*
X148146329Y-130338685D01*
X148322900Y-130396057D01*
X148391664Y-130406948D01*
X148506266Y-130425100D01*
X148506271Y-130425100D01*
X148691934Y-130425100D01*
X148793801Y-130408965D01*
X148875300Y-130396057D01*
X149051871Y-130338685D01*
X149217293Y-130254399D01*
X149367493Y-130145272D01*
X149498772Y-130013993D01*
X149607899Y-129863793D01*
X149692185Y-129698371D01*
X149749557Y-129521800D01*
X149749558Y-129521796D01*
X149751062Y-129517167D01*
X149753247Y-129517877D01*
X149783303Y-129465514D01*
X149845324Y-129433340D01*
X149914894Y-129439805D01*
X149969924Y-129482856D01*
X149985792Y-129517604D01*
X149987138Y-129517167D01*
X149988642Y-129521796D01*
X149988643Y-129521800D01*
X150046015Y-129698371D01*
X150130301Y-129863793D01*
X150239428Y-130013993D01*
X150370707Y-130145272D01*
X150520907Y-130254399D01*
X150686329Y-130338685D01*
X150862900Y-130396057D01*
X150931664Y-130406948D01*
X151046266Y-130425100D01*
X151046271Y-130425100D01*
X151231934Y-130425100D01*
X151333801Y-130408965D01*
X151415300Y-130396057D01*
X151591871Y-130338685D01*
X151757293Y-130254399D01*
X151907493Y-130145272D01*
X152038772Y-130013993D01*
X152147899Y-129863793D01*
X152232185Y-129698371D01*
X152289557Y-129521800D01*
X152289558Y-129521796D01*
X152291062Y-129517167D01*
X152293247Y-129517877D01*
X152323303Y-129465514D01*
X152385324Y-129433340D01*
X152454894Y-129439805D01*
X152509924Y-129482856D01*
X152525792Y-129517604D01*
X152527138Y-129517167D01*
X152528642Y-129521796D01*
X152528643Y-129521800D01*
X152586015Y-129698371D01*
X152670301Y-129863793D01*
X152779428Y-130013993D01*
X152910707Y-130145272D01*
X153060907Y-130254399D01*
X153226329Y-130338685D01*
X153402900Y-130396057D01*
X153471664Y-130406948D01*
X153586266Y-130425100D01*
X153586271Y-130425100D01*
X153771934Y-130425100D01*
X153873801Y-130408965D01*
X153955300Y-130396057D01*
X154131871Y-130338685D01*
X154297293Y-130254399D01*
X154447493Y-130145272D01*
X154578772Y-130013993D01*
X154687899Y-129863793D01*
X154772185Y-129698371D01*
X154829557Y-129521800D01*
X154829558Y-129521796D01*
X154831062Y-129517167D01*
X154833247Y-129517877D01*
X154863303Y-129465514D01*
X154925324Y-129433340D01*
X154994894Y-129439805D01*
X155049924Y-129482856D01*
X155065792Y-129517604D01*
X155067138Y-129517167D01*
X155068642Y-129521796D01*
X155068643Y-129521800D01*
X155126015Y-129698371D01*
X155210301Y-129863793D01*
X155319428Y-130013993D01*
X155450707Y-130145272D01*
X155600907Y-130254399D01*
X155766329Y-130338685D01*
X155942900Y-130396057D01*
X156011664Y-130406948D01*
X156126266Y-130425100D01*
X156126271Y-130425100D01*
X156311934Y-130425100D01*
X156413801Y-130408965D01*
X156495300Y-130396057D01*
X156671871Y-130338685D01*
X156837293Y-130254399D01*
X156987493Y-130145272D01*
X157118772Y-130013993D01*
X157227899Y-129863793D01*
X157312185Y-129698371D01*
X157369557Y-129521800D01*
X157369558Y-129521796D01*
X157371062Y-129517167D01*
X157373247Y-129517877D01*
X157403303Y-129465514D01*
X157465324Y-129433340D01*
X157534894Y-129439805D01*
X157589924Y-129482856D01*
X157605792Y-129517604D01*
X157607138Y-129517167D01*
X157608642Y-129521796D01*
X157608643Y-129521800D01*
X157666015Y-129698371D01*
X157750301Y-129863793D01*
X157859428Y-130013993D01*
X157990707Y-130145272D01*
X158140907Y-130254399D01*
X158306329Y-130338685D01*
X158482900Y-130396057D01*
X158551664Y-130406948D01*
X158666266Y-130425100D01*
X158666271Y-130425100D01*
X158851934Y-130425100D01*
X158953801Y-130408965D01*
X159035300Y-130396057D01*
X159211871Y-130338685D01*
X159377293Y-130254399D01*
X159527493Y-130145272D01*
X159658772Y-130013993D01*
X159767899Y-129863793D01*
X159852185Y-129698371D01*
X159909557Y-129521800D01*
X159909558Y-129521796D01*
X159911062Y-129517167D01*
X159913247Y-129517877D01*
X159943303Y-129465514D01*
X160005324Y-129433340D01*
X160074894Y-129439805D01*
X160129924Y-129482856D01*
X160145792Y-129517604D01*
X160147138Y-129517167D01*
X160148642Y-129521796D01*
X160148643Y-129521800D01*
X160206015Y-129698371D01*
X160290301Y-129863793D01*
X160399428Y-130013993D01*
X160530707Y-130145272D01*
X160680907Y-130254399D01*
X160846329Y-130338685D01*
X161022900Y-130396057D01*
X161091664Y-130406948D01*
X161206266Y-130425100D01*
X161206271Y-130425100D01*
X161391934Y-130425100D01*
X161493801Y-130408965D01*
X161575300Y-130396057D01*
X161751871Y-130338685D01*
X161917293Y-130254399D01*
X162067493Y-130145272D01*
X162198772Y-130013993D01*
X162307899Y-129863793D01*
X162392185Y-129698371D01*
X162449557Y-129521800D01*
X162449558Y-129521796D01*
X162451062Y-129517167D01*
X162453247Y-129517877D01*
X162483303Y-129465514D01*
X162545324Y-129433340D01*
X162614894Y-129439805D01*
X162669924Y-129482856D01*
X162685792Y-129517604D01*
X162687138Y-129517167D01*
X162688642Y-129521796D01*
X162688643Y-129521800D01*
X162746015Y-129698371D01*
X162830301Y-129863793D01*
X162939428Y-130013993D01*
X163070707Y-130145272D01*
X163220907Y-130254399D01*
X163386329Y-130338685D01*
X163562900Y-130396057D01*
X163631664Y-130406948D01*
X163746266Y-130425100D01*
X163746271Y-130425100D01*
X163931934Y-130425100D01*
X164033801Y-130408965D01*
X164115300Y-130396057D01*
X164291871Y-130338685D01*
X164457293Y-130254399D01*
X164607493Y-130145272D01*
X164738772Y-130013993D01*
X164847899Y-129863793D01*
X164932185Y-129698371D01*
X164989557Y-129521800D01*
X164989558Y-129521796D01*
X164991062Y-129517167D01*
X164993247Y-129517877D01*
X165023303Y-129465514D01*
X165085324Y-129433340D01*
X165154894Y-129439805D01*
X165209924Y-129482856D01*
X165225792Y-129517604D01*
X165227138Y-129517167D01*
X165228642Y-129521796D01*
X165228643Y-129521800D01*
X165286015Y-129698371D01*
X165370301Y-129863793D01*
X165479428Y-130013993D01*
X165610707Y-130145272D01*
X165760907Y-130254399D01*
X165926329Y-130338685D01*
X166102900Y-130396057D01*
X166171664Y-130406948D01*
X166286266Y-130425100D01*
X166286271Y-130425100D01*
X166471934Y-130425100D01*
X166573801Y-130408965D01*
X166655300Y-130396057D01*
X166831871Y-130338685D01*
X166997293Y-130254399D01*
X167147493Y-130145272D01*
X167278772Y-130013993D01*
X167387899Y-129863793D01*
X167472185Y-129698371D01*
X167529557Y-129521800D01*
X167554093Y-129366888D01*
X167558600Y-129338434D01*
X167558600Y-129152765D01*
X170279600Y-129152765D01*
X170279600Y-129338434D01*
X170308642Y-129521796D01*
X170308643Y-129521800D01*
X170366015Y-129698371D01*
X170450301Y-129863793D01*
X170559428Y-130013993D01*
X170690707Y-130145272D01*
X170840907Y-130254399D01*
X171006329Y-130338685D01*
X171182900Y-130396057D01*
X171251664Y-130406948D01*
X171366266Y-130425100D01*
X171366271Y-130425100D01*
X171551934Y-130425100D01*
X171653801Y-130408965D01*
X171735300Y-130396057D01*
X171911871Y-130338685D01*
X172077293Y-130254399D01*
X172227493Y-130145272D01*
X172358772Y-130013993D01*
X172467899Y-129863793D01*
X172552185Y-129698371D01*
X172609557Y-129521800D01*
X172609558Y-129521796D01*
X172611062Y-129517167D01*
X172613247Y-129517877D01*
X172643303Y-129465514D01*
X172705324Y-129433340D01*
X172774894Y-129439805D01*
X172829924Y-129482856D01*
X172845792Y-129517604D01*
X172847138Y-129517167D01*
X172848642Y-129521796D01*
X172848643Y-129521800D01*
X172906015Y-129698371D01*
X172990301Y-129863793D01*
X173099428Y-130013993D01*
X173230707Y-130145272D01*
X173380907Y-130254399D01*
X173546329Y-130338685D01*
X173722900Y-130396057D01*
X173791664Y-130406948D01*
X173906266Y-130425100D01*
X173906271Y-130425100D01*
X174091934Y-130425100D01*
X174193801Y-130408965D01*
X174275300Y-130396057D01*
X174451871Y-130338685D01*
X174617293Y-130254399D01*
X174767493Y-130145272D01*
X174898772Y-130013993D01*
X175007899Y-129863793D01*
X175092185Y-129698371D01*
X175149557Y-129521800D01*
X175149558Y-129521796D01*
X175151062Y-129517167D01*
X175153247Y-129517877D01*
X175183303Y-129465514D01*
X175245324Y-129433340D01*
X175314894Y-129439805D01*
X175369924Y-129482856D01*
X175385792Y-129517604D01*
X175387138Y-129517167D01*
X175388642Y-129521796D01*
X175388643Y-129521800D01*
X175446015Y-129698371D01*
X175530301Y-129863793D01*
X175639428Y-130013993D01*
X175770707Y-130145272D01*
X175920907Y-130254399D01*
X176086329Y-130338685D01*
X176262900Y-130396057D01*
X176331664Y-130406948D01*
X176446266Y-130425100D01*
X176446271Y-130425100D01*
X176631934Y-130425100D01*
X176733801Y-130408965D01*
X176815300Y-130396057D01*
X176991871Y-130338685D01*
X177157293Y-130254399D01*
X177307493Y-130145272D01*
X177438772Y-130013993D01*
X177547899Y-129863793D01*
X177632185Y-129698371D01*
X177689557Y-129521800D01*
X177689558Y-129521796D01*
X177691062Y-129517167D01*
X177693247Y-129517877D01*
X177723303Y-129465514D01*
X177785324Y-129433340D01*
X177854894Y-129439805D01*
X177909924Y-129482856D01*
X177925792Y-129517604D01*
X177927138Y-129517167D01*
X177928642Y-129521796D01*
X177928643Y-129521800D01*
X177986015Y-129698371D01*
X178070301Y-129863793D01*
X178179428Y-130013993D01*
X178310707Y-130145272D01*
X178460907Y-130254399D01*
X178626329Y-130338685D01*
X178802900Y-130396057D01*
X178871664Y-130406948D01*
X178986266Y-130425100D01*
X178986271Y-130425100D01*
X179171934Y-130425100D01*
X179273801Y-130408965D01*
X179355300Y-130396057D01*
X179531871Y-130338685D01*
X179697293Y-130254399D01*
X179847493Y-130145272D01*
X179978772Y-130013993D01*
X180087899Y-129863793D01*
X180172185Y-129698371D01*
X180229557Y-129521800D01*
X180229558Y-129521796D01*
X180231062Y-129517167D01*
X180233247Y-129517877D01*
X180263303Y-129465514D01*
X180325324Y-129433340D01*
X180394894Y-129439805D01*
X180449924Y-129482856D01*
X180465792Y-129517604D01*
X180467138Y-129517167D01*
X180468642Y-129521796D01*
X180468643Y-129521800D01*
X180526015Y-129698371D01*
X180610301Y-129863793D01*
X180719428Y-130013993D01*
X180850707Y-130145272D01*
X181000907Y-130254399D01*
X181166329Y-130338685D01*
X181342900Y-130396057D01*
X181411664Y-130406948D01*
X181526266Y-130425100D01*
X181526271Y-130425100D01*
X181711934Y-130425100D01*
X181813801Y-130408965D01*
X181895300Y-130396057D01*
X182071871Y-130338685D01*
X182237293Y-130254399D01*
X182387493Y-130145272D01*
X182518772Y-130013993D01*
X182627899Y-129863793D01*
X182712185Y-129698371D01*
X182769557Y-129521800D01*
X182769558Y-129521796D01*
X182771062Y-129517167D01*
X182773247Y-129517877D01*
X182803303Y-129465514D01*
X182865324Y-129433340D01*
X182934894Y-129439805D01*
X182989924Y-129482856D01*
X183005792Y-129517604D01*
X183007138Y-129517167D01*
X183008642Y-129521796D01*
X183008643Y-129521800D01*
X183066015Y-129698371D01*
X183150301Y-129863793D01*
X183259428Y-130013993D01*
X183390707Y-130145272D01*
X183540907Y-130254399D01*
X183706329Y-130338685D01*
X183882900Y-130396057D01*
X183951664Y-130406948D01*
X184066266Y-130425100D01*
X184066271Y-130425100D01*
X184251934Y-130425100D01*
X184353801Y-130408965D01*
X184435300Y-130396057D01*
X184611871Y-130338685D01*
X184777293Y-130254399D01*
X184927493Y-130145272D01*
X185058772Y-130013993D01*
X185167899Y-129863793D01*
X185252185Y-129698371D01*
X185309557Y-129521800D01*
X185309558Y-129521796D01*
X185311062Y-129517167D01*
X185313247Y-129517877D01*
X185343303Y-129465514D01*
X185405324Y-129433340D01*
X185474894Y-129439805D01*
X185529924Y-129482856D01*
X185545792Y-129517604D01*
X185547138Y-129517167D01*
X185548642Y-129521796D01*
X185548643Y-129521800D01*
X185606015Y-129698371D01*
X185690301Y-129863793D01*
X185799428Y-130013993D01*
X185930707Y-130145272D01*
X186080907Y-130254399D01*
X186246329Y-130338685D01*
X186422900Y-130396057D01*
X186491664Y-130406948D01*
X186606266Y-130425100D01*
X186606271Y-130425100D01*
X186791934Y-130425100D01*
X186893801Y-130408965D01*
X186975300Y-130396057D01*
X187151871Y-130338685D01*
X187317293Y-130254399D01*
X187467493Y-130145272D01*
X187598772Y-130013993D01*
X187707899Y-129863793D01*
X187792185Y-129698371D01*
X187849557Y-129521800D01*
X187849558Y-129521796D01*
X187851062Y-129517167D01*
X187853247Y-129517877D01*
X187883303Y-129465514D01*
X187945324Y-129433340D01*
X188014894Y-129439805D01*
X188069924Y-129482856D01*
X188085792Y-129517604D01*
X188087138Y-129517167D01*
X188088642Y-129521796D01*
X188088643Y-129521800D01*
X188146015Y-129698371D01*
X188230301Y-129863793D01*
X188339428Y-130013993D01*
X188470707Y-130145272D01*
X188620907Y-130254399D01*
X188786329Y-130338685D01*
X188962900Y-130396057D01*
X189031664Y-130406948D01*
X189146266Y-130425100D01*
X189146271Y-130425100D01*
X189331934Y-130425100D01*
X189433801Y-130408965D01*
X189515300Y-130396057D01*
X189691871Y-130338685D01*
X189857293Y-130254399D01*
X190007493Y-130145272D01*
X190138772Y-130013993D01*
X190247899Y-129863793D01*
X190332185Y-129698371D01*
X190389557Y-129521800D01*
X190414093Y-129366888D01*
X190418600Y-129338434D01*
X190418600Y-129152770D01*
X190416522Y-129139650D01*
X190416522Y-129139647D01*
X190414093Y-129124311D01*
X192468600Y-129124311D01*
X192468600Y-129366888D01*
X192497404Y-129585684D01*
X192500262Y-129607389D01*
X192521737Y-129687534D01*
X192563047Y-129841704D01*
X192641905Y-130032083D01*
X192655876Y-130065812D01*
X192777164Y-130275889D01*
X192777166Y-130275892D01*
X192777167Y-130275893D01*
X192924833Y-130468336D01*
X192924839Y-130468343D01*
X193096356Y-130639860D01*
X193096362Y-130639865D01*
X193288811Y-130787536D01*
X193498888Y-130908824D01*
X193723000Y-131001654D01*
X193957311Y-131064438D01*
X194137686Y-131088184D01*
X194197811Y-131096100D01*
X194197812Y-131096100D01*
X194440389Y-131096100D01*
X194488488Y-131089767D01*
X194680889Y-131064438D01*
X194915200Y-131001654D01*
X195139312Y-130908824D01*
X195349389Y-130787536D01*
X195541838Y-130639865D01*
X195713365Y-130468338D01*
X195861036Y-130275889D01*
X195982324Y-130065812D01*
X196075154Y-129841700D01*
X196137938Y-129607389D01*
X196169600Y-129366888D01*
X196169600Y-129124312D01*
X196137938Y-128883811D01*
X196075154Y-128649500D01*
X195982324Y-128425388D01*
X195861036Y-128215311D01*
X195790053Y-128122804D01*
X195713366Y-128022863D01*
X195713360Y-128022856D01*
X195541843Y-127851339D01*
X195541836Y-127851333D01*
X195349393Y-127703667D01*
X195349392Y-127703666D01*
X195349389Y-127703664D01*
X195139312Y-127582376D01*
X195139305Y-127582373D01*
X194915204Y-127489547D01*
X194680885Y-127426761D01*
X194440389Y-127395100D01*
X194440388Y-127395100D01*
X194197812Y-127395100D01*
X194197811Y-127395100D01*
X193957314Y-127426761D01*
X193722995Y-127489547D01*
X193498894Y-127582373D01*
X193498885Y-127582377D01*
X193288806Y-127703667D01*
X193096363Y-127851333D01*
X193096356Y-127851339D01*
X192924839Y-128022856D01*
X192924833Y-128022863D01*
X192777167Y-128215306D01*
X192655877Y-128425385D01*
X192655873Y-128425394D01*
X192563047Y-128649495D01*
X192500261Y-128883814D01*
X192468600Y-129124311D01*
X190414093Y-129124311D01*
X190401157Y-129042644D01*
X190389557Y-128969400D01*
X190332185Y-128792829D01*
X190247899Y-128627407D01*
X190138772Y-128477207D01*
X190007493Y-128345928D01*
X189857293Y-128236801D01*
X189691871Y-128152515D01*
X189515300Y-128095143D01*
X189515298Y-128095142D01*
X189515296Y-128095142D01*
X189331934Y-128066100D01*
X189331929Y-128066100D01*
X189146271Y-128066100D01*
X189146266Y-128066100D01*
X188962903Y-128095142D01*
X188786326Y-128152516D01*
X188620906Y-128236801D01*
X188535211Y-128299062D01*
X188470707Y-128345928D01*
X188470705Y-128345930D01*
X188470704Y-128345930D01*
X188339430Y-128477204D01*
X188339430Y-128477205D01*
X188339428Y-128477207D01*
X188292562Y-128541711D01*
X188230301Y-128627406D01*
X188146016Y-128792826D01*
X188146015Y-128792828D01*
X188146015Y-128792829D01*
X188092953Y-128956137D01*
X188087138Y-128974033D01*
X188084964Y-128973326D01*
X188054852Y-129025729D01*
X187992814Y-129057871D01*
X187923248Y-129051371D01*
X187868239Y-129008292D01*
X187852395Y-128973599D01*
X187851062Y-128974033D01*
X187849557Y-128969400D01*
X187792185Y-128792829D01*
X187707899Y-128627407D01*
X187598772Y-128477207D01*
X187467493Y-128345928D01*
X187317293Y-128236801D01*
X187151871Y-128152515D01*
X186975300Y-128095143D01*
X186975298Y-128095142D01*
X186975296Y-128095142D01*
X186791934Y-128066100D01*
X186791929Y-128066100D01*
X186606271Y-128066100D01*
X186606266Y-128066100D01*
X186422903Y-128095142D01*
X186246326Y-128152516D01*
X186080906Y-128236801D01*
X185995211Y-128299062D01*
X185930707Y-128345928D01*
X185930705Y-128345930D01*
X185930704Y-128345930D01*
X185799430Y-128477204D01*
X185799430Y-128477205D01*
X185799428Y-128477207D01*
X185752562Y-128541711D01*
X185690301Y-128627406D01*
X185606016Y-128792826D01*
X185606015Y-128792828D01*
X185606015Y-128792829D01*
X185552953Y-128956137D01*
X185547138Y-128974033D01*
X185544964Y-128973326D01*
X185514852Y-129025729D01*
X185452814Y-129057871D01*
X185383248Y-129051371D01*
X185328239Y-129008292D01*
X185312395Y-128973599D01*
X185311062Y-128974033D01*
X185309557Y-128969400D01*
X185252185Y-128792829D01*
X185167899Y-128627407D01*
X185058772Y-128477207D01*
X184927493Y-128345928D01*
X184777293Y-128236801D01*
X184611871Y-128152515D01*
X184435300Y-128095143D01*
X184435298Y-128095142D01*
X184435296Y-128095142D01*
X184251934Y-128066100D01*
X184251929Y-128066100D01*
X184066271Y-128066100D01*
X184066266Y-128066100D01*
X183882903Y-128095142D01*
X183706326Y-128152516D01*
X183540906Y-128236801D01*
X183455211Y-128299062D01*
X183390707Y-128345928D01*
X183390705Y-128345930D01*
X183390704Y-128345930D01*
X183259430Y-128477204D01*
X183259430Y-128477205D01*
X183259428Y-128477207D01*
X183212562Y-128541711D01*
X183150301Y-128627406D01*
X183066016Y-128792826D01*
X183066015Y-128792828D01*
X183066015Y-128792829D01*
X183012953Y-128956137D01*
X183007138Y-128974033D01*
X183004964Y-128973326D01*
X182974852Y-129025729D01*
X182912814Y-129057871D01*
X182843248Y-129051371D01*
X182788239Y-129008292D01*
X182772395Y-128973599D01*
X182771062Y-128974033D01*
X182769557Y-128969400D01*
X182712185Y-128792829D01*
X182627899Y-128627407D01*
X182518772Y-128477207D01*
X182387493Y-128345928D01*
X182237293Y-128236801D01*
X182071871Y-128152515D01*
X181895300Y-128095143D01*
X181895298Y-128095142D01*
X181895296Y-128095142D01*
X181711934Y-128066100D01*
X181711929Y-128066100D01*
X181526271Y-128066100D01*
X181526266Y-128066100D01*
X181342903Y-128095142D01*
X181166326Y-128152516D01*
X181000906Y-128236801D01*
X180915211Y-128299062D01*
X180850707Y-128345928D01*
X180850705Y-128345930D01*
X180850704Y-128345930D01*
X180719430Y-128477204D01*
X180719430Y-128477205D01*
X180719428Y-128477207D01*
X180672562Y-128541711D01*
X180610301Y-128627406D01*
X180526016Y-128792826D01*
X180526015Y-128792828D01*
X180526015Y-128792829D01*
X180472953Y-128956137D01*
X180467138Y-128974033D01*
X180464964Y-128973326D01*
X180434852Y-129025729D01*
X180372814Y-129057871D01*
X180303248Y-129051371D01*
X180248239Y-129008292D01*
X180232395Y-128973599D01*
X180231062Y-128974033D01*
X180229557Y-128969400D01*
X180172185Y-128792829D01*
X180087899Y-128627407D01*
X179978772Y-128477207D01*
X179847493Y-128345928D01*
X179697293Y-128236801D01*
X179531871Y-128152515D01*
X179355300Y-128095143D01*
X179355298Y-128095142D01*
X179355296Y-128095142D01*
X179171934Y-128066100D01*
X179171929Y-128066100D01*
X178986271Y-128066100D01*
X178986266Y-128066100D01*
X178802903Y-128095142D01*
X178626326Y-128152516D01*
X178460906Y-128236801D01*
X178375211Y-128299062D01*
X178310707Y-128345928D01*
X178310705Y-128345930D01*
X178310704Y-128345930D01*
X178179430Y-128477204D01*
X178179430Y-128477205D01*
X178179428Y-128477207D01*
X178132562Y-128541711D01*
X178070301Y-128627406D01*
X177986016Y-128792826D01*
X177986015Y-128792828D01*
X177986015Y-128792829D01*
X177932953Y-128956137D01*
X177927138Y-128974033D01*
X177924964Y-128973326D01*
X177894852Y-129025729D01*
X177832814Y-129057871D01*
X177763248Y-129051371D01*
X177708239Y-129008292D01*
X177692395Y-128973599D01*
X177691062Y-128974033D01*
X177689557Y-128969400D01*
X177632185Y-128792829D01*
X177547899Y-128627407D01*
X177438772Y-128477207D01*
X177307493Y-128345928D01*
X177157293Y-128236801D01*
X176991871Y-128152515D01*
X176815300Y-128095143D01*
X176815298Y-128095142D01*
X176815296Y-128095142D01*
X176631934Y-128066100D01*
X176631929Y-128066100D01*
X176446271Y-128066100D01*
X176446266Y-128066100D01*
X176262903Y-128095142D01*
X176086326Y-128152516D01*
X175920906Y-128236801D01*
X175835211Y-128299062D01*
X175770707Y-128345928D01*
X175770705Y-128345930D01*
X175770704Y-128345930D01*
X175639430Y-128477204D01*
X175639430Y-128477205D01*
X175639428Y-128477207D01*
X175592562Y-128541711D01*
X175530301Y-128627406D01*
X175446016Y-128792826D01*
X175446015Y-128792828D01*
X175446015Y-128792829D01*
X175392953Y-128956137D01*
X175387138Y-128974033D01*
X175384964Y-128973326D01*
X175354852Y-129025729D01*
X175292814Y-129057871D01*
X175223248Y-129051371D01*
X175168239Y-129008292D01*
X175152395Y-128973599D01*
X175151062Y-128974033D01*
X175149557Y-128969400D01*
X175092185Y-128792829D01*
X175007899Y-128627407D01*
X174898772Y-128477207D01*
X174767493Y-128345928D01*
X174617293Y-128236801D01*
X174451871Y-128152515D01*
X174275300Y-128095143D01*
X174275298Y-128095142D01*
X174275296Y-128095142D01*
X174091934Y-128066100D01*
X174091929Y-128066100D01*
X173906271Y-128066100D01*
X173906266Y-128066100D01*
X173722903Y-128095142D01*
X173546326Y-128152516D01*
X173380906Y-128236801D01*
X173295211Y-128299062D01*
X173230707Y-128345928D01*
X173230705Y-128345930D01*
X173230704Y-128345930D01*
X173099430Y-128477204D01*
X173099430Y-128477205D01*
X173099428Y-128477207D01*
X173052562Y-128541711D01*
X172990301Y-128627406D01*
X172906016Y-128792826D01*
X172906015Y-128792828D01*
X172906015Y-128792829D01*
X172852953Y-128956137D01*
X172847138Y-128974033D01*
X172844964Y-128973326D01*
X172814852Y-129025729D01*
X172752814Y-129057871D01*
X172683248Y-129051371D01*
X172628239Y-129008292D01*
X172612395Y-128973599D01*
X172611062Y-128974033D01*
X172609557Y-128969400D01*
X172552185Y-128792829D01*
X172467899Y-128627407D01*
X172358772Y-128477207D01*
X172227493Y-128345928D01*
X172077293Y-128236801D01*
X171911871Y-128152515D01*
X171735300Y-128095143D01*
X171735298Y-128095142D01*
X171735296Y-128095142D01*
X171551934Y-128066100D01*
X171551929Y-128066100D01*
X171366271Y-128066100D01*
X171366266Y-128066100D01*
X171182903Y-128095142D01*
X171006326Y-128152516D01*
X170840906Y-128236801D01*
X170755211Y-128299062D01*
X170690707Y-128345928D01*
X170690705Y-128345930D01*
X170690704Y-128345930D01*
X170559430Y-128477204D01*
X170559430Y-128477205D01*
X170559428Y-128477207D01*
X170512562Y-128541711D01*
X170450301Y-128627406D01*
X170366016Y-128792826D01*
X170308642Y-128969403D01*
X170279600Y-129152765D01*
X167558600Y-129152765D01*
X167531971Y-128984644D01*
X167529557Y-128969400D01*
X167472185Y-128792829D01*
X167387899Y-128627407D01*
X167278772Y-128477207D01*
X167147493Y-128345928D01*
X166997293Y-128236801D01*
X166831871Y-128152515D01*
X166655300Y-128095143D01*
X166655298Y-128095142D01*
X166655296Y-128095142D01*
X166471934Y-128066100D01*
X166471929Y-128066100D01*
X166286271Y-128066100D01*
X166286266Y-128066100D01*
X166102903Y-128095142D01*
X165926326Y-128152516D01*
X165760906Y-128236801D01*
X165675211Y-128299062D01*
X165610707Y-128345928D01*
X165610705Y-128345930D01*
X165610704Y-128345930D01*
X165479430Y-128477204D01*
X165479430Y-128477205D01*
X165479428Y-128477207D01*
X165432562Y-128541711D01*
X165370301Y-128627406D01*
X165286016Y-128792826D01*
X165286015Y-128792828D01*
X165286015Y-128792829D01*
X165232953Y-128956137D01*
X165227138Y-128974033D01*
X165224964Y-128973326D01*
X165194852Y-129025729D01*
X165132814Y-129057871D01*
X165063248Y-129051371D01*
X165008239Y-129008292D01*
X164992395Y-128973599D01*
X164991062Y-128974033D01*
X164989557Y-128969400D01*
X164932185Y-128792829D01*
X164847899Y-128627407D01*
X164738772Y-128477207D01*
X164607493Y-128345928D01*
X164457293Y-128236801D01*
X164291871Y-128152515D01*
X164115300Y-128095143D01*
X164115298Y-128095142D01*
X164115296Y-128095142D01*
X163931934Y-128066100D01*
X163931929Y-128066100D01*
X163746271Y-128066100D01*
X163746266Y-128066100D01*
X163562903Y-128095142D01*
X163386326Y-128152516D01*
X163220906Y-128236801D01*
X163135211Y-128299062D01*
X163070707Y-128345928D01*
X163070705Y-128345930D01*
X163070704Y-128345930D01*
X162939430Y-128477204D01*
X162939430Y-128477205D01*
X162939428Y-128477207D01*
X162892562Y-128541711D01*
X162830301Y-128627406D01*
X162746016Y-128792826D01*
X162746015Y-128792828D01*
X162746015Y-128792829D01*
X162692953Y-128956137D01*
X162687138Y-128974033D01*
X162684964Y-128973326D01*
X162654852Y-129025729D01*
X162592814Y-129057871D01*
X162523248Y-129051371D01*
X162468239Y-129008292D01*
X162452395Y-128973599D01*
X162451062Y-128974033D01*
X162449557Y-128969400D01*
X162392185Y-128792829D01*
X162307899Y-128627407D01*
X162198772Y-128477207D01*
X162067493Y-128345928D01*
X161917293Y-128236801D01*
X161751871Y-128152515D01*
X161575300Y-128095143D01*
X161575298Y-128095142D01*
X161575296Y-128095142D01*
X161391934Y-128066100D01*
X161391929Y-128066100D01*
X161206271Y-128066100D01*
X161206266Y-128066100D01*
X161022903Y-128095142D01*
X160846326Y-128152516D01*
X160680906Y-128236801D01*
X160595211Y-128299062D01*
X160530707Y-128345928D01*
X160530705Y-128345930D01*
X160530704Y-128345930D01*
X160399430Y-128477204D01*
X160399430Y-128477205D01*
X160399428Y-128477207D01*
X160352562Y-128541711D01*
X160290301Y-128627406D01*
X160206016Y-128792826D01*
X160206015Y-128792828D01*
X160206015Y-128792829D01*
X160152953Y-128956137D01*
X160147138Y-128974033D01*
X160144964Y-128973326D01*
X160114852Y-129025729D01*
X160052814Y-129057871D01*
X159983248Y-129051371D01*
X159928239Y-129008292D01*
X159912395Y-128973599D01*
X159911062Y-128974033D01*
X159909557Y-128969400D01*
X159852185Y-128792829D01*
X159767899Y-128627407D01*
X159658772Y-128477207D01*
X159527493Y-128345928D01*
X159377293Y-128236801D01*
X159211871Y-128152515D01*
X159035300Y-128095143D01*
X159035298Y-128095142D01*
X159035296Y-128095142D01*
X158851934Y-128066100D01*
X158851929Y-128066100D01*
X158666271Y-128066100D01*
X158666266Y-128066100D01*
X158482903Y-128095142D01*
X158306326Y-128152516D01*
X158140906Y-128236801D01*
X158055211Y-128299062D01*
X157990707Y-128345928D01*
X157990705Y-128345930D01*
X157990704Y-128345930D01*
X157859430Y-128477204D01*
X157859430Y-128477205D01*
X157859428Y-128477207D01*
X157812562Y-128541711D01*
X157750301Y-128627406D01*
X157666016Y-128792826D01*
X157666015Y-128792828D01*
X157666015Y-128792829D01*
X157612953Y-128956137D01*
X157607138Y-128974033D01*
X157604964Y-128973326D01*
X157574852Y-129025729D01*
X157512814Y-129057871D01*
X157443248Y-129051371D01*
X157388239Y-129008292D01*
X157372395Y-128973599D01*
X157371062Y-128974033D01*
X157369557Y-128969400D01*
X157312185Y-128792829D01*
X157227899Y-128627407D01*
X157118772Y-128477207D01*
X156987493Y-128345928D01*
X156837293Y-128236801D01*
X156671871Y-128152515D01*
X156495300Y-128095143D01*
X156495298Y-128095142D01*
X156495296Y-128095142D01*
X156311934Y-128066100D01*
X156311929Y-128066100D01*
X156126271Y-128066100D01*
X156126266Y-128066100D01*
X155942903Y-128095142D01*
X155766326Y-128152516D01*
X155600906Y-128236801D01*
X155515211Y-128299062D01*
X155450707Y-128345928D01*
X155450705Y-128345930D01*
X155450704Y-128345930D01*
X155319430Y-128477204D01*
X155319430Y-128477205D01*
X155319428Y-128477207D01*
X155272562Y-128541711D01*
X155210301Y-128627406D01*
X155126016Y-128792826D01*
X155126015Y-128792828D01*
X155126015Y-128792829D01*
X155072953Y-128956137D01*
X155067138Y-128974033D01*
X155064964Y-128973326D01*
X155034852Y-129025729D01*
X154972814Y-129057871D01*
X154903248Y-129051371D01*
X154848239Y-129008292D01*
X154832395Y-128973599D01*
X154831062Y-128974033D01*
X154829557Y-128969400D01*
X154772185Y-128792829D01*
X154687899Y-128627407D01*
X154578772Y-128477207D01*
X154447493Y-128345928D01*
X154297293Y-128236801D01*
X154131871Y-128152515D01*
X153955300Y-128095143D01*
X153955298Y-128095142D01*
X153955296Y-128095142D01*
X153771934Y-128066100D01*
X153771929Y-128066100D01*
X153586271Y-128066100D01*
X153586266Y-128066100D01*
X153402903Y-128095142D01*
X153226326Y-128152516D01*
X153060906Y-128236801D01*
X152975211Y-128299062D01*
X152910707Y-128345928D01*
X152910705Y-128345930D01*
X152910704Y-128345930D01*
X152779430Y-128477204D01*
X152779430Y-128477205D01*
X152779428Y-128477207D01*
X152732562Y-128541711D01*
X152670301Y-128627406D01*
X152586016Y-128792826D01*
X152586015Y-128792828D01*
X152586015Y-128792829D01*
X152532953Y-128956137D01*
X152527138Y-128974033D01*
X152524964Y-128973326D01*
X152494852Y-129025729D01*
X152432814Y-129057871D01*
X152363248Y-129051371D01*
X152308239Y-129008292D01*
X152292395Y-128973599D01*
X152291062Y-128974033D01*
X152289557Y-128969400D01*
X152232185Y-128792829D01*
X152147899Y-128627407D01*
X152038772Y-128477207D01*
X151907493Y-128345928D01*
X151757293Y-128236801D01*
X151591871Y-128152515D01*
X151415300Y-128095143D01*
X151415298Y-128095142D01*
X151415296Y-128095142D01*
X151231934Y-128066100D01*
X151231929Y-128066100D01*
X151046271Y-128066100D01*
X151046266Y-128066100D01*
X150862903Y-128095142D01*
X150686326Y-128152516D01*
X150520906Y-128236801D01*
X150435211Y-128299062D01*
X150370707Y-128345928D01*
X150370705Y-128345930D01*
X150370704Y-128345930D01*
X150239430Y-128477204D01*
X150239430Y-128477205D01*
X150239428Y-128477207D01*
X150192562Y-128541711D01*
X150130301Y-128627406D01*
X150046016Y-128792826D01*
X150046015Y-128792828D01*
X150046015Y-128792829D01*
X149992953Y-128956137D01*
X149987138Y-128974033D01*
X149984964Y-128973326D01*
X149954852Y-129025729D01*
X149892814Y-129057871D01*
X149823248Y-129051371D01*
X149768239Y-129008292D01*
X149752395Y-128973599D01*
X149751062Y-128974033D01*
X149749557Y-128969400D01*
X149692185Y-128792829D01*
X149607899Y-128627407D01*
X149498772Y-128477207D01*
X149367493Y-128345928D01*
X149217293Y-128236801D01*
X149051871Y-128152515D01*
X148875300Y-128095143D01*
X148875298Y-128095142D01*
X148875296Y-128095142D01*
X148691934Y-128066100D01*
X148691929Y-128066100D01*
X148506271Y-128066100D01*
X148506266Y-128066100D01*
X148322903Y-128095142D01*
X148146326Y-128152516D01*
X147980906Y-128236801D01*
X147895211Y-128299062D01*
X147830707Y-128345928D01*
X147830705Y-128345930D01*
X147830704Y-128345930D01*
X147699430Y-128477204D01*
X147699430Y-128477205D01*
X147699428Y-128477207D01*
X147652562Y-128541711D01*
X147590301Y-128627406D01*
X147506016Y-128792826D01*
X147448642Y-128969403D01*
X147419600Y-129152765D01*
X144698600Y-129152765D01*
X144671971Y-128984644D01*
X144669557Y-128969400D01*
X144612185Y-128792829D01*
X144527899Y-128627407D01*
X144418772Y-128477207D01*
X144287493Y-128345928D01*
X144137293Y-128236801D01*
X143971871Y-128152515D01*
X143795300Y-128095143D01*
X143795298Y-128095142D01*
X143795296Y-128095142D01*
X143611934Y-128066100D01*
X143611929Y-128066100D01*
X143426271Y-128066100D01*
X143426266Y-128066100D01*
X143242903Y-128095142D01*
X143066326Y-128152516D01*
X142900906Y-128236801D01*
X142815211Y-128299062D01*
X142750707Y-128345928D01*
X142750705Y-128345930D01*
X142750704Y-128345930D01*
X142619430Y-128477204D01*
X142619430Y-128477205D01*
X142619428Y-128477207D01*
X142572562Y-128541711D01*
X142510301Y-128627406D01*
X142426016Y-128792826D01*
X142368642Y-128969403D01*
X142339600Y-129152765D01*
X141394217Y-129152765D01*
X141385063Y-129118600D01*
X141905117Y-129118600D01*
X141905117Y-129118599D01*
X141876246Y-128973461D01*
X141876243Y-128973449D01*
X141805917Y-128803665D01*
X141805910Y-128803652D01*
X141703808Y-128650847D01*
X141703805Y-128650843D01*
X141573856Y-128520894D01*
X141573852Y-128520891D01*
X141421047Y-128418789D01*
X141421034Y-128418782D01*
X141251250Y-128348456D01*
X141251240Y-128348453D01*
X141106100Y-128319582D01*
X141106100Y-128839637D01*
X141035052Y-128820600D01*
X140923148Y-128820600D01*
X140852100Y-128839637D01*
X140852100Y-128319583D01*
X140852099Y-128319582D01*
X140706959Y-128348453D01*
X140706949Y-128348456D01*
X140537165Y-128418782D01*
X140537152Y-128418789D01*
X140384347Y-128520891D01*
X140384343Y-128520894D01*
X140254394Y-128650843D01*
X140254391Y-128650847D01*
X140152289Y-128803652D01*
X140152282Y-128803665D01*
X140081956Y-128973449D01*
X140081953Y-128973459D01*
X140053082Y-129118599D01*
X139365117Y-129118599D01*
X139336246Y-128973459D01*
X139336243Y-128973449D01*
X139265917Y-128803665D01*
X139265910Y-128803652D01*
X139163808Y-128650847D01*
X139163805Y-128650843D01*
X139033856Y-128520894D01*
X139033852Y-128520891D01*
X138881047Y-128418789D01*
X138881034Y-128418782D01*
X138711250Y-128348456D01*
X138711240Y-128348453D01*
X138566100Y-128319582D01*
X138566100Y-128839637D01*
X138495052Y-128820600D01*
X138383148Y-128820600D01*
X138312100Y-128839637D01*
X138312100Y-128319583D01*
X138312099Y-128319582D01*
X138166959Y-128348453D01*
X138166949Y-128348456D01*
X137997165Y-128418782D01*
X137997152Y-128418789D01*
X137844347Y-128520891D01*
X137844343Y-128520894D01*
X137714394Y-128650843D01*
X137714391Y-128650847D01*
X137612289Y-128803652D01*
X137612282Y-128803665D01*
X137541956Y-128973449D01*
X137541953Y-128973459D01*
X137513082Y-129118599D01*
X137073188Y-129118599D01*
X137051971Y-128984644D01*
X137049557Y-128969400D01*
X136992185Y-128792829D01*
X136907899Y-128627407D01*
X136798772Y-128477207D01*
X136667493Y-128345928D01*
X136517293Y-128236801D01*
X136351871Y-128152515D01*
X136175300Y-128095143D01*
X136175298Y-128095142D01*
X136175296Y-128095142D01*
X135991934Y-128066100D01*
X135991929Y-128066100D01*
X135806271Y-128066100D01*
X135806266Y-128066100D01*
X135686022Y-128085145D01*
X135616729Y-128076191D01*
X135563277Y-128031194D01*
X135542637Y-127964443D01*
X135561362Y-127897129D01*
X135578940Y-127874993D01*
X136331516Y-127122419D01*
X136392839Y-127088934D01*
X136419197Y-127086100D01*
X159452431Y-127086100D01*
X159452447Y-127086101D01*
X159460043Y-127086101D01*
X159618154Y-127086101D01*
X159618157Y-127086101D01*
X159770885Y-127045177D01*
X159821004Y-127016239D01*
X159907816Y-126966120D01*
X160019620Y-126854316D01*
X160019620Y-126854314D01*
X160029828Y-126844107D01*
X160029830Y-126844104D01*
X164407813Y-122466121D01*
X164407816Y-122466120D01*
X164519620Y-122354316D01*
X164583430Y-122243793D01*
X164598677Y-122217385D01*
X164639601Y-122064657D01*
X164639601Y-121906543D01*
X164639601Y-121898948D01*
X164639600Y-121898930D01*
X164639600Y-119951646D01*
X176116600Y-119951646D01*
X176116600Y-120141553D01*
X176146308Y-120329124D01*
X176204990Y-120509732D01*
X176204992Y-120509735D01*
X176291208Y-120678944D01*
X176383761Y-120806331D01*
X176383762Y-120806332D01*
X176891334Y-120298759D01*
X176923001Y-120353607D01*
X177016093Y-120446699D01*
X177070939Y-120478364D01*
X176563366Y-120985937D01*
X176690755Y-121078491D01*
X176859964Y-121164707D01*
X176859967Y-121164709D01*
X177011420Y-121213919D01*
X177069096Y-121253356D01*
X177096294Y-121317715D01*
X177084379Y-121386561D01*
X177037135Y-121438037D01*
X177011420Y-121449781D01*
X176859967Y-121498990D01*
X176859964Y-121498992D01*
X176690752Y-121585210D01*
X176563367Y-121677760D01*
X176563366Y-121677761D01*
X177070940Y-122185334D01*
X177016093Y-122217001D01*
X176923001Y-122310093D01*
X176891335Y-122364940D01*
X176383761Y-121857366D01*
X176383760Y-121857367D01*
X176291210Y-121984752D01*
X176204992Y-122153964D01*
X176204990Y-122153967D01*
X176146308Y-122334575D01*
X176116600Y-122522146D01*
X176116600Y-122712053D01*
X176146308Y-122899624D01*
X176204990Y-123080232D01*
X176204992Y-123080235D01*
X176291208Y-123249444D01*
X176383761Y-123376831D01*
X176383762Y-123376832D01*
X176891334Y-122869259D01*
X176923001Y-122924107D01*
X177016093Y-123017199D01*
X177070939Y-123048864D01*
X176563366Y-123556437D01*
X176690755Y-123648991D01*
X176859964Y-123735207D01*
X176859967Y-123735209D01*
X177040575Y-123793891D01*
X177228147Y-123823600D01*
X177418053Y-123823600D01*
X177605624Y-123793891D01*
X177786232Y-123735209D01*
X177786235Y-123735207D01*
X177955436Y-123648995D01*
X177955442Y-123648991D01*
X178082831Y-123556437D01*
X178082832Y-123556436D01*
X177575260Y-123048864D01*
X177630107Y-123017199D01*
X177723199Y-122924107D01*
X177754864Y-122869260D01*
X178262436Y-123376832D01*
X178262437Y-123376831D01*
X178354991Y-123249442D01*
X178354995Y-123249436D01*
X178441207Y-123080235D01*
X178441209Y-123080232D01*
X178499891Y-122899624D01*
X178529600Y-122712053D01*
X178529600Y-122522146D01*
X178499891Y-122334575D01*
X178441209Y-122153967D01*
X178441207Y-122153964D01*
X178354991Y-121984755D01*
X178262437Y-121857367D01*
X178262437Y-121857366D01*
X177754864Y-122364939D01*
X177723199Y-122310093D01*
X177630107Y-122217001D01*
X177575259Y-122185334D01*
X178082832Y-121677762D01*
X178082831Y-121677761D01*
X177955444Y-121585208D01*
X177786235Y-121498992D01*
X177786232Y-121498990D01*
X177634779Y-121449781D01*
X177577104Y-121410344D01*
X177549905Y-121345985D01*
X177561819Y-121277139D01*
X177609063Y-121225663D01*
X177634779Y-121213919D01*
X177786232Y-121164709D01*
X177786235Y-121164707D01*
X177955436Y-121078495D01*
X177955442Y-121078491D01*
X178082831Y-120985937D01*
X178082832Y-120985936D01*
X177575260Y-120478364D01*
X177630107Y-120446699D01*
X177723199Y-120353607D01*
X177754864Y-120298760D01*
X178262436Y-120806332D01*
X178262437Y-120806331D01*
X178354991Y-120678942D01*
X178354995Y-120678936D01*
X178441207Y-120509735D01*
X178441209Y-120509732D01*
X178499891Y-120329124D01*
X178529600Y-120141553D01*
X178529600Y-119951646D01*
X178499891Y-119764075D01*
X178441209Y-119583467D01*
X178441207Y-119583464D01*
X178354991Y-119414255D01*
X178262437Y-119286867D01*
X178262437Y-119286866D01*
X177754864Y-119794439D01*
X177723199Y-119739593D01*
X177630107Y-119646501D01*
X177575259Y-119614834D01*
X178082832Y-119107262D01*
X178082831Y-119107261D01*
X177955444Y-119014708D01*
X177786235Y-118928492D01*
X177786232Y-118928490D01*
X177605624Y-118869808D01*
X177418053Y-118840100D01*
X177228147Y-118840100D01*
X177040575Y-118869808D01*
X176859967Y-118928490D01*
X176859964Y-118928492D01*
X176690752Y-119014710D01*
X176563367Y-119107260D01*
X176563366Y-119107261D01*
X177070940Y-119614834D01*
X177016093Y-119646501D01*
X176923001Y-119739593D01*
X176891335Y-119794440D01*
X176383761Y-119286866D01*
X176383760Y-119286867D01*
X176291210Y-119414252D01*
X176204992Y-119583464D01*
X176204990Y-119583467D01*
X176146308Y-119764075D01*
X176116600Y-119951646D01*
X164639600Y-119951646D01*
X164639600Y-117733248D01*
X181738600Y-117733248D01*
X181738600Y-117937951D01*
X181770622Y-118140134D01*
X181833881Y-118334823D01*
X181926815Y-118517213D01*
X182047128Y-118682813D01*
X182191886Y-118827571D01*
X182288648Y-118897871D01*
X182357490Y-118947887D01*
X182445568Y-118992765D01*
X182539876Y-119040818D01*
X182539878Y-119040818D01*
X182539881Y-119040820D01*
X182644237Y-119074727D01*
X182734565Y-119104077D01*
X182835657Y-119120088D01*
X182936748Y-119136100D01*
X182936749Y-119136100D01*
X183141451Y-119136100D01*
X183141452Y-119136100D01*
X183343634Y-119104077D01*
X183538319Y-119040820D01*
X183720710Y-118947887D01*
X183813690Y-118880332D01*
X183886313Y-118827571D01*
X183886315Y-118827568D01*
X183886319Y-118827566D01*
X184031066Y-118682819D01*
X184031068Y-118682815D01*
X184031071Y-118682813D01*
X184083832Y-118610190D01*
X184151387Y-118517210D01*
X184244320Y-118334819D01*
X184307577Y-118140134D01*
X184339600Y-117937952D01*
X184339600Y-117733248D01*
X184333709Y-117696057D01*
X184307577Y-117531065D01*
X184244318Y-117336376D01*
X184196634Y-117242792D01*
X184151387Y-117153990D01*
X184143656Y-117143349D01*
X184031071Y-116988386D01*
X183886313Y-116843628D01*
X183720713Y-116723315D01*
X183720712Y-116723314D01*
X183720710Y-116723313D01*
X183663753Y-116694291D01*
X183538323Y-116630381D01*
X183343634Y-116567122D01*
X183169095Y-116539478D01*
X183141452Y-116535100D01*
X182936748Y-116535100D01*
X182912429Y-116538951D01*
X182734565Y-116567122D01*
X182539876Y-116630381D01*
X182357486Y-116723315D01*
X182191886Y-116843628D01*
X182047128Y-116988386D01*
X181926815Y-117153986D01*
X181833881Y-117336376D01*
X181770622Y-117531065D01*
X181738600Y-117733248D01*
X164639600Y-117733248D01*
X164639600Y-106439746D01*
X175870100Y-106439746D01*
X175870100Y-106668453D01*
X175905878Y-106894346D01*
X175905878Y-106894349D01*
X175976550Y-107111855D01*
X175998022Y-107153996D01*
X176080383Y-107315638D01*
X176214814Y-107500666D01*
X176376534Y-107662386D01*
X176430304Y-107701452D01*
X176482028Y-107739032D01*
X176524693Y-107794362D01*
X176530672Y-107863976D01*
X176498066Y-107925771D01*
X176482028Y-107939667D01*
X176376534Y-108016314D01*
X176376532Y-108016316D01*
X176376531Y-108016316D01*
X176214816Y-108178031D01*
X176214816Y-108178032D01*
X176214814Y-108178034D01*
X176157080Y-108257496D01*
X176080383Y-108363061D01*
X175976550Y-108566844D01*
X175905878Y-108784350D01*
X175905878Y-108784353D01*
X175870100Y-109010246D01*
X175870100Y-109238953D01*
X175905878Y-109464846D01*
X175905878Y-109464849D01*
X175976550Y-109682355D01*
X176049369Y-109825269D01*
X176080383Y-109886138D01*
X176214814Y-110071166D01*
X176376534Y-110232886D01*
X176561562Y-110367317D01*
X176765342Y-110471148D01*
X176765344Y-110471149D01*
X176982851Y-110541821D01*
X176982852Y-110541821D01*
X176982855Y-110541822D01*
X177208746Y-110577600D01*
X177208747Y-110577600D01*
X177437453Y-110577600D01*
X177437454Y-110577600D01*
X177663345Y-110541822D01*
X177663348Y-110541821D01*
X177663349Y-110541821D01*
X177880855Y-110471149D01*
X177880855Y-110471148D01*
X177880858Y-110471148D01*
X178084638Y-110367317D01*
X178269666Y-110232886D01*
X178431386Y-110071166D01*
X178565817Y-109886138D01*
X178669648Y-109682358D01*
X178689002Y-109622792D01*
X178740321Y-109464849D01*
X178740321Y-109464848D01*
X178740322Y-109464845D01*
X178776100Y-109238954D01*
X178776100Y-109010246D01*
X178740322Y-108784355D01*
X178740321Y-108784351D01*
X178740321Y-108784350D01*
X178669649Y-108566844D01*
X178565816Y-108363061D01*
X178525380Y-108307406D01*
X178431386Y-108178034D01*
X178269666Y-108016314D01*
X178164171Y-107939667D01*
X178121506Y-107884338D01*
X178115527Y-107814725D01*
X178148133Y-107752930D01*
X178164172Y-107739032D01*
X178215896Y-107701452D01*
X178269666Y-107662386D01*
X178431386Y-107500666D01*
X178565817Y-107315638D01*
X178669648Y-107111858D01*
X178740322Y-106894345D01*
X178776100Y-106668454D01*
X178776100Y-106439746D01*
X178740322Y-106213855D01*
X178740321Y-106213851D01*
X178740321Y-106213850D01*
X178669649Y-105996344D01*
X178643493Y-105945010D01*
X178565817Y-105792562D01*
X178431386Y-105607534D01*
X178269666Y-105445814D01*
X178084638Y-105311383D01*
X177880855Y-105207550D01*
X177692367Y-105146307D01*
X177663348Y-105136878D01*
X177493926Y-105110044D01*
X177437454Y-105101100D01*
X177208746Y-105101100D01*
X177133449Y-105113026D01*
X176982853Y-105136878D01*
X176982850Y-105136878D01*
X176765344Y-105207550D01*
X176561561Y-105311383D01*
X176556301Y-105315205D01*
X176376534Y-105445814D01*
X176376532Y-105445816D01*
X176376531Y-105445816D01*
X176214816Y-105607531D01*
X176214816Y-105607532D01*
X176214814Y-105607534D01*
X176161277Y-105681221D01*
X176080383Y-105792561D01*
X175976550Y-105996344D01*
X175905878Y-106213850D01*
X175905878Y-106213853D01*
X175870100Y-106439746D01*
X164639600Y-106439746D01*
X164639600Y-105033248D01*
X181738600Y-105033248D01*
X181738600Y-105237951D01*
X181770622Y-105440134D01*
X181833881Y-105634823D01*
X181926815Y-105817213D01*
X182047128Y-105982813D01*
X182191886Y-106127571D01*
X182346849Y-106240156D01*
X182357490Y-106247887D01*
X182445568Y-106292765D01*
X182539876Y-106340818D01*
X182539878Y-106340818D01*
X182539881Y-106340820D01*
X182644237Y-106374727D01*
X182734565Y-106404077D01*
X182835657Y-106420088D01*
X182936748Y-106436100D01*
X182936749Y-106436100D01*
X183141451Y-106436100D01*
X183141452Y-106436100D01*
X183343634Y-106404077D01*
X183538319Y-106340820D01*
X183720710Y-106247887D01*
X183857792Y-106148292D01*
X183886313Y-106127571D01*
X183886315Y-106127568D01*
X183886319Y-106127566D01*
X184031066Y-105982819D01*
X184031068Y-105982815D01*
X184031071Y-105982813D01*
X184107132Y-105878122D01*
X184151387Y-105817210D01*
X184244320Y-105634819D01*
X184307577Y-105440134D01*
X184339600Y-105237952D01*
X184339600Y-105033248D01*
X184327364Y-104955994D01*
X184307577Y-104831065D01*
X184244318Y-104636376D01*
X184166358Y-104483373D01*
X184151387Y-104453990D01*
X184134961Y-104431381D01*
X184031071Y-104288386D01*
X183886313Y-104143628D01*
X183720713Y-104023315D01*
X183720712Y-104023314D01*
X183720710Y-104023313D01*
X183663753Y-103994291D01*
X183538323Y-103930381D01*
X183343634Y-103867122D01*
X183169095Y-103839478D01*
X183141452Y-103835100D01*
X182936748Y-103835100D01*
X182912429Y-103838951D01*
X182734565Y-103867122D01*
X182539876Y-103930381D01*
X182357486Y-104023315D01*
X182191886Y-104143628D01*
X182047128Y-104288386D01*
X181926815Y-104453986D01*
X181833881Y-104636376D01*
X181770622Y-104831065D01*
X181738600Y-105033248D01*
X164639600Y-105033248D01*
X164639600Y-99785687D01*
X164659285Y-99718648D01*
X164675919Y-99698006D01*
X165612750Y-98761175D01*
X166631229Y-97742695D01*
X166692550Y-97709212D01*
X166740321Y-97709725D01*
X166740525Y-97708438D01*
X166940364Y-97740090D01*
X166940369Y-97740090D01*
X167137836Y-97740090D01*
X167332863Y-97709200D01*
X167381124Y-97693519D01*
X167520661Y-97648181D01*
X167696601Y-97558534D01*
X167828022Y-97463052D01*
X167856346Y-97442474D01*
X167856348Y-97442471D01*
X167856352Y-97442469D01*
X167995979Y-97302842D01*
X167995981Y-97302838D01*
X167995984Y-97302836D01*
X168046879Y-97232782D01*
X168112044Y-97143091D01*
X168201691Y-96967151D01*
X168262710Y-96779353D01*
X168271839Y-96721715D01*
X168293600Y-96584326D01*
X168293600Y-96386853D01*
X168262710Y-96191826D01*
X168224048Y-96072837D01*
X168201691Y-96004029D01*
X168112044Y-95828089D01*
X168112043Y-95828088D01*
X168109832Y-95823748D01*
X168111293Y-95823003D01*
X168094915Y-95762477D01*
X168116024Y-95695872D01*
X168169791Y-95651253D01*
X168218887Y-95641120D01*
X175397431Y-95641120D01*
X175397447Y-95641121D01*
X175405043Y-95641121D01*
X175563154Y-95641121D01*
X175563157Y-95641121D01*
X175715885Y-95600197D01*
X175777459Y-95564647D01*
X175852816Y-95521140D01*
X175964620Y-95409336D01*
X175964620Y-95409334D01*
X175974823Y-95399132D01*
X175974827Y-95399126D01*
X176131228Y-95242725D01*
X176192549Y-95209242D01*
X176240321Y-95209753D01*
X176240525Y-95208468D01*
X176440364Y-95240120D01*
X176440369Y-95240120D01*
X176637836Y-95240120D01*
X176832863Y-95209230D01*
X176835208Y-95208468D01*
X177020661Y-95148211D01*
X177196601Y-95058564D01*
X177305595Y-94979376D01*
X177356346Y-94942504D01*
X177356348Y-94942501D01*
X177356352Y-94942499D01*
X177495979Y-94802872D01*
X177495981Y-94802868D01*
X177495984Y-94802866D01*
X177559475Y-94715476D01*
X177612044Y-94643121D01*
X177701691Y-94467181D01*
X177762710Y-94279383D01*
X177778179Y-94181716D01*
X177793600Y-94084356D01*
X177793600Y-93886883D01*
X177762710Y-93691856D01*
X177728159Y-93585521D01*
X177701691Y-93504059D01*
X177612044Y-93328119D01*
X177590734Y-93298788D01*
X177495984Y-93168373D01*
X177356346Y-93028735D01*
X177196605Y-92912678D01*
X177191942Y-92910302D01*
X177065925Y-92846092D01*
X177015132Y-92798121D01*
X176998337Y-92730300D01*
X177020874Y-92664165D01*
X177065925Y-92625127D01*
X177196601Y-92558544D01*
X177228810Y-92535143D01*
X177356346Y-92442484D01*
X177356348Y-92442481D01*
X177356352Y-92442479D01*
X177495979Y-92302852D01*
X177495981Y-92302848D01*
X177495984Y-92302846D01*
X177546879Y-92232792D01*
X177612044Y-92143101D01*
X177701691Y-91967161D01*
X177762710Y-91779363D01*
X177765176Y-91763793D01*
X177793600Y-91584336D01*
X177793600Y-91386863D01*
X177762710Y-91191836D01*
X177740531Y-91123578D01*
X177701691Y-91004039D01*
X177612044Y-90828099D01*
X177599606Y-90810980D01*
X177495984Y-90668353D01*
X177356346Y-90528715D01*
X177196604Y-90412658D01*
X177196603Y-90412657D01*
X177196601Y-90412656D01*
X177020661Y-90323009D01*
X177020627Y-90322998D01*
X176832863Y-90261989D01*
X176659196Y-90234483D01*
X176596061Y-90204554D01*
X176559130Y-90145242D01*
X176560128Y-90075379D01*
X176598738Y-90017147D01*
X176654403Y-89990393D01*
X176833115Y-89954844D01*
X176833123Y-89954842D01*
X177016564Y-89878859D01*
X177016573Y-89878854D01*
X177181661Y-89768545D01*
X177181665Y-89768542D01*
X177322062Y-89628145D01*
X177322065Y-89628141D01*
X177432374Y-89463053D01*
X177432379Y-89463044D01*
X177508362Y-89279603D01*
X177508364Y-89279597D01*
X177517120Y-89235580D01*
X176972112Y-89235580D01*
X177005025Y-89178573D01*
X177039100Y-89051406D01*
X177039100Y-88919754D01*
X177022719Y-88858619D01*
X185142650Y-88858619D01*
X185142651Y-88858620D01*
X185555492Y-88858620D01*
X185539100Y-88919794D01*
X185539100Y-89051446D01*
X185555492Y-89112620D01*
X185142651Y-89112620D01*
X185169838Y-89249299D01*
X185169840Y-89249307D01*
X185237984Y-89413822D01*
X185237989Y-89413831D01*
X185336916Y-89561885D01*
X185336919Y-89561889D01*
X185462830Y-89687800D01*
X185462834Y-89687803D01*
X185610888Y-89786730D01*
X185610897Y-89786735D01*
X185775410Y-89854878D01*
X185775420Y-89854881D01*
X185912099Y-89882068D01*
X185912100Y-89882068D01*
X185912100Y-89469228D01*
X185973274Y-89485620D01*
X186104926Y-89485620D01*
X186166100Y-89469228D01*
X186166100Y-89882068D01*
X186302779Y-89854881D01*
X186302789Y-89854878D01*
X186467302Y-89786735D01*
X186467311Y-89786730D01*
X186615365Y-89687803D01*
X186615369Y-89687800D01*
X186741280Y-89561889D01*
X186741283Y-89561885D01*
X186840210Y-89413831D01*
X186840215Y-89413822D01*
X186908359Y-89249307D01*
X186908361Y-89249299D01*
X186935549Y-89112620D01*
X186522708Y-89112620D01*
X186539100Y-89051446D01*
X186539100Y-88919794D01*
X186522708Y-88858620D01*
X186935549Y-88858620D01*
X186935549Y-88858619D01*
X186908361Y-88721940D01*
X186908359Y-88721932D01*
X186840215Y-88557417D01*
X186840210Y-88557408D01*
X186741283Y-88409354D01*
X186741280Y-88409350D01*
X186615369Y-88283439D01*
X186615365Y-88283436D01*
X186467311Y-88184509D01*
X186467302Y-88184504D01*
X186302787Y-88116360D01*
X186302779Y-88116358D01*
X186166100Y-88089170D01*
X186166100Y-88502011D01*
X186104926Y-88485620D01*
X185973274Y-88485620D01*
X185912100Y-88502011D01*
X185912100Y-88089171D01*
X185912099Y-88089170D01*
X185775420Y-88116358D01*
X185775412Y-88116360D01*
X185610897Y-88184504D01*
X185610888Y-88184509D01*
X185462834Y-88283436D01*
X185462830Y-88283439D01*
X185336919Y-88409350D01*
X185336916Y-88409354D01*
X185237989Y-88557408D01*
X185237984Y-88557417D01*
X185169840Y-88721932D01*
X185169838Y-88721940D01*
X185142650Y-88858619D01*
X177022719Y-88858619D01*
X177005025Y-88792587D01*
X176972112Y-88735580D01*
X177517120Y-88735580D01*
X177517120Y-88735579D01*
X177508364Y-88691562D01*
X177508362Y-88691556D01*
X177432379Y-88508115D01*
X177432374Y-88508106D01*
X177322065Y-88343018D01*
X177322062Y-88343014D01*
X177181665Y-88202617D01*
X177181661Y-88202614D01*
X177016573Y-88092305D01*
X177016564Y-88092300D01*
X176833123Y-88016317D01*
X176833115Y-88016315D01*
X176679336Y-87985726D01*
X176617425Y-87953341D01*
X176582850Y-87892625D01*
X176586590Y-87822856D01*
X176627457Y-87766184D01*
X176692475Y-87740603D01*
X176703518Y-87740109D01*
X177340972Y-87740109D01*
X177400583Y-87733701D01*
X177535431Y-87683406D01*
X177650646Y-87597156D01*
X177736896Y-87481941D01*
X177787191Y-87347093D01*
X177793600Y-87287483D01*
X177793599Y-86131705D01*
X177813284Y-86064667D01*
X177829913Y-86044030D01*
X179251526Y-84622419D01*
X179312849Y-84588934D01*
X179339207Y-84586100D01*
X186790003Y-84586100D01*
X186857042Y-84605785D01*
X186902797Y-84658589D01*
X186912741Y-84727747D01*
X186883716Y-84791303D01*
X186877684Y-84797781D01*
X186446971Y-85228492D01*
X186385648Y-85261977D01*
X186337878Y-85261468D01*
X186337675Y-85262752D01*
X186137836Y-85231100D01*
X186137831Y-85231100D01*
X185940369Y-85231100D01*
X185940364Y-85231100D01*
X185745336Y-85261989D01*
X185557541Y-85323008D01*
X185381595Y-85412658D01*
X185221853Y-85528715D01*
X185082215Y-85668353D01*
X184966158Y-85828095D01*
X184876508Y-86004041D01*
X184815489Y-86191836D01*
X184784600Y-86386863D01*
X184784600Y-86584336D01*
X184815489Y-86779363D01*
X184874022Y-86959507D01*
X184876509Y-86967161D01*
X184966156Y-87143101D01*
X184966158Y-87143104D01*
X185082215Y-87302846D01*
X185221853Y-87442484D01*
X185318246Y-87512516D01*
X185381599Y-87558544D01*
X185557539Y-87648191D01*
X185665911Y-87683403D01*
X185745336Y-87709210D01*
X185940364Y-87740100D01*
X185940369Y-87740100D01*
X186137836Y-87740100D01*
X186332863Y-87709210D01*
X186342964Y-87705928D01*
X186520661Y-87648191D01*
X186696601Y-87558544D01*
X186786292Y-87493379D01*
X186856346Y-87442484D01*
X186856348Y-87442481D01*
X186856352Y-87442479D01*
X186995979Y-87302852D01*
X186995981Y-87302848D01*
X186995984Y-87302846D01*
X187046879Y-87232792D01*
X187112044Y-87143101D01*
X187201691Y-86967161D01*
X187262710Y-86779363D01*
X187277847Y-86683793D01*
X187293600Y-86584336D01*
X187293600Y-86386863D01*
X187261948Y-86187025D01*
X187263694Y-86186748D01*
X187266804Y-86124573D01*
X187296205Y-86077728D01*
X188751515Y-84622420D01*
X188812838Y-84588935D01*
X188839196Y-84586101D01*
X188858154Y-84586101D01*
X188858157Y-84586101D01*
X189010885Y-84545177D01*
X189080333Y-84505081D01*
X189147816Y-84466120D01*
X189259620Y-84354316D01*
X189259620Y-84354314D01*
X189269824Y-84344111D01*
X189269828Y-84344106D01*
X190408493Y-83205440D01*
X190469814Y-83171957D01*
X190539506Y-83176941D01*
X190595439Y-83218813D01*
X190619856Y-83284277D01*
X190618645Y-83312521D01*
X190599600Y-83432765D01*
X190599600Y-83618434D01*
X190628642Y-83801796D01*
X190628643Y-83801800D01*
X190686015Y-83978371D01*
X190770301Y-84143793D01*
X190879428Y-84293993D01*
X191010707Y-84425272D01*
X191160907Y-84534399D01*
X191326329Y-84618685D01*
X191502900Y-84676057D01*
X191502902Y-84676057D01*
X191507533Y-84677562D01*
X191506826Y-84679735D01*
X191559229Y-84709848D01*
X191591371Y-84771886D01*
X191584871Y-84841452D01*
X191541792Y-84896461D01*
X191507099Y-84912304D01*
X191507533Y-84913638D01*
X191502902Y-84915142D01*
X191502900Y-84915143D01*
X191389310Y-84952051D01*
X191326326Y-84972516D01*
X191160906Y-85056801D01*
X191075211Y-85119062D01*
X191010707Y-85165928D01*
X191010705Y-85165930D01*
X191010704Y-85165930D01*
X190879430Y-85297204D01*
X190879430Y-85297205D01*
X190879428Y-85297207D01*
X190860682Y-85323009D01*
X190770301Y-85447406D01*
X190686016Y-85612826D01*
X190628642Y-85789403D01*
X190599600Y-85972765D01*
X190599600Y-86158434D01*
X190628642Y-86341796D01*
X190628643Y-86341800D01*
X190686015Y-86518371D01*
X190770301Y-86683793D01*
X190879428Y-86833993D01*
X191010707Y-86965272D01*
X191160907Y-87074399D01*
X191326329Y-87158685D01*
X191502900Y-87216057D01*
X191502902Y-87216057D01*
X191507533Y-87217562D01*
X191506826Y-87219735D01*
X191559229Y-87249848D01*
X191591371Y-87311886D01*
X191584871Y-87381452D01*
X191541792Y-87436461D01*
X191507099Y-87452304D01*
X191507533Y-87453638D01*
X191502902Y-87455142D01*
X191502900Y-87455143D01*
X191326329Y-87512515D01*
X191326326Y-87512516D01*
X191160906Y-87596801D01*
X191090175Y-87648191D01*
X191010707Y-87705928D01*
X191010705Y-87705930D01*
X191010704Y-87705930D01*
X190879430Y-87837204D01*
X190879430Y-87837205D01*
X190879428Y-87837207D01*
X190877774Y-87839484D01*
X190770301Y-87987406D01*
X190686016Y-88152826D01*
X190628642Y-88329403D01*
X190599600Y-88512765D01*
X190599600Y-88698434D01*
X190628642Y-88881796D01*
X190628643Y-88881800D01*
X190686015Y-89058371D01*
X190770301Y-89223793D01*
X190879428Y-89373993D01*
X191010707Y-89505272D01*
X191160907Y-89614399D01*
X191326329Y-89698685D01*
X191502900Y-89756057D01*
X191502902Y-89756057D01*
X191507533Y-89757562D01*
X191506826Y-89759735D01*
X191559229Y-89789848D01*
X191591371Y-89851886D01*
X191584871Y-89921452D01*
X191541792Y-89976461D01*
X191507099Y-89992304D01*
X191507533Y-89993638D01*
X191502902Y-89995142D01*
X191502900Y-89995143D01*
X191326329Y-90052515D01*
X191326326Y-90052516D01*
X191160906Y-90136801D01*
X191075211Y-90199062D01*
X191010707Y-90245928D01*
X191010705Y-90245930D01*
X191010704Y-90245930D01*
X190879430Y-90377204D01*
X190879430Y-90377205D01*
X190879428Y-90377207D01*
X190832562Y-90441711D01*
X190770301Y-90527406D01*
X190686016Y-90692826D01*
X190628642Y-90869403D01*
X190599600Y-91052765D01*
X190599600Y-91238434D01*
X190628642Y-91421796D01*
X190628643Y-91421800D01*
X190686015Y-91598371D01*
X190770301Y-91763793D01*
X190879428Y-91913993D01*
X191010707Y-92045272D01*
X191160907Y-92154399D01*
X191326329Y-92238685D01*
X191502900Y-92296057D01*
X191502902Y-92296057D01*
X191507533Y-92297562D01*
X191506826Y-92299735D01*
X191559229Y-92329848D01*
X191591371Y-92391886D01*
X191584871Y-92461452D01*
X191541792Y-92516461D01*
X191507099Y-92532304D01*
X191507533Y-92533638D01*
X191502902Y-92535142D01*
X191502900Y-92535143D01*
X191382653Y-92574214D01*
X191326326Y-92592516D01*
X191160906Y-92676801D01*
X191087272Y-92730300D01*
X191010707Y-92785928D01*
X191010705Y-92785930D01*
X191010704Y-92785930D01*
X190879430Y-92917204D01*
X190879430Y-92917205D01*
X190879428Y-92917207D01*
X190833220Y-92980806D01*
X190770301Y-93067406D01*
X190686016Y-93232826D01*
X190628642Y-93409403D01*
X190599600Y-93592765D01*
X190599600Y-93778434D01*
X190628642Y-93961796D01*
X190628643Y-93961800D01*
X190686015Y-94138371D01*
X190770301Y-94303793D01*
X190879428Y-94453993D01*
X191010707Y-94585272D01*
X191160907Y-94694399D01*
X191326329Y-94778685D01*
X191502900Y-94836057D01*
X191502902Y-94836057D01*
X191507533Y-94837562D01*
X191506826Y-94839735D01*
X191559229Y-94869848D01*
X191591371Y-94931886D01*
X191584871Y-95001452D01*
X191541792Y-95056461D01*
X191507099Y-95072304D01*
X191507533Y-95073638D01*
X191502902Y-95075142D01*
X191502900Y-95075143D01*
X191374467Y-95116874D01*
X191326326Y-95132516D01*
X191160906Y-95216801D01*
X191075211Y-95279062D01*
X191010707Y-95325928D01*
X191010705Y-95325930D01*
X191010704Y-95325930D01*
X190879427Y-95457207D01*
X190863917Y-95478556D01*
X190808587Y-95521221D01*
X190738973Y-95527199D01*
X190677179Y-95494592D01*
X190642822Y-95433753D01*
X190640385Y-95412514D01*
X190639600Y-95406538D01*
X190639600Y-95406533D01*
X190639306Y-95405433D01*
X190598677Y-95253805D01*
X190537706Y-95148201D01*
X190519620Y-95116874D01*
X190407816Y-95005070D01*
X190407813Y-95005068D01*
X187296207Y-91893462D01*
X187262722Y-91832139D01*
X187263238Y-91784369D01*
X187261948Y-91784165D01*
X187293600Y-91584326D01*
X187293600Y-91386853D01*
X187262710Y-91191826D01*
X187234040Y-91103589D01*
X187201691Y-91004029D01*
X187112044Y-90828089D01*
X187035766Y-90723100D01*
X186995984Y-90668343D01*
X186856346Y-90528705D01*
X186696604Y-90412648D01*
X186696603Y-90412647D01*
X186696601Y-90412646D01*
X186520661Y-90322999D01*
X186520658Y-90322998D01*
X186332863Y-90261979D01*
X186137836Y-90231090D01*
X186137831Y-90231090D01*
X185940369Y-90231090D01*
X185940364Y-90231090D01*
X185745336Y-90261979D01*
X185557541Y-90322998D01*
X185381595Y-90412648D01*
X185221853Y-90528705D01*
X185082215Y-90668343D01*
X184966158Y-90828085D01*
X184876508Y-91004031D01*
X184815489Y-91191826D01*
X184784600Y-91386853D01*
X184784600Y-91584326D01*
X184815489Y-91779353D01*
X184876174Y-91966120D01*
X184876509Y-91967151D01*
X184966156Y-92143091D01*
X184966158Y-92143094D01*
X185082215Y-92302836D01*
X185221853Y-92442474D01*
X185344457Y-92531549D01*
X185381599Y-92558534D01*
X185512272Y-92625116D01*
X185563067Y-92673090D01*
X185579862Y-92740911D01*
X185557324Y-92807046D01*
X185512272Y-92846083D01*
X185430587Y-92887705D01*
X185381595Y-92912668D01*
X185221853Y-93028725D01*
X185082215Y-93168363D01*
X184966158Y-93328105D01*
X184876508Y-93504051D01*
X184815489Y-93691846D01*
X184784600Y-93886873D01*
X184784600Y-94084346D01*
X184815489Y-94279373D01*
X184872228Y-94453995D01*
X184876509Y-94467171D01*
X184966156Y-94643111D01*
X184966158Y-94643114D01*
X185082215Y-94802856D01*
X185221853Y-94942494D01*
X185357984Y-95041397D01*
X185381599Y-95058554D01*
X185512272Y-95125136D01*
X185563067Y-95173110D01*
X185579862Y-95240931D01*
X185557324Y-95307066D01*
X185512272Y-95346103D01*
X185408200Y-95399132D01*
X185381595Y-95412688D01*
X185221853Y-95528745D01*
X185082215Y-95668383D01*
X184966158Y-95828125D01*
X184876508Y-96004071D01*
X184815489Y-96191866D01*
X184784600Y-96386893D01*
X184784600Y-96584366D01*
X184815489Y-96779393D01*
X184876495Y-96967148D01*
X184876509Y-96967191D01*
X184966156Y-97143131D01*
X184966158Y-97143134D01*
X185082215Y-97302876D01*
X185221851Y-97442512D01*
X185310312Y-97506781D01*
X185352979Y-97562111D01*
X185358959Y-97631724D01*
X185326353Y-97693519D01*
X185265515Y-97727877D01*
X185240526Y-97730748D01*
X185240536Y-97730924D01*
X185237650Y-97731078D01*
X185237463Y-97731100D01*
X185237247Y-97731100D01*
X185237223Y-97731101D01*
X185177616Y-97737508D01*
X185042771Y-97787802D01*
X185042764Y-97787806D01*
X184927555Y-97874052D01*
X184927552Y-97874055D01*
X184841306Y-97989264D01*
X184841302Y-97989271D01*
X184791008Y-98124117D01*
X184785800Y-98172564D01*
X184784601Y-98183723D01*
X184784600Y-98183735D01*
X184784600Y-99787470D01*
X184784601Y-99787476D01*
X184791008Y-99847083D01*
X184841302Y-99981928D01*
X184841306Y-99981935D01*
X184927552Y-100097144D01*
X184927555Y-100097147D01*
X185042764Y-100183393D01*
X185042771Y-100183397D01*
X185087718Y-100200161D01*
X185177617Y-100233691D01*
X185237227Y-100240100D01*
X185893002Y-100240099D01*
X185960041Y-100259783D01*
X185980683Y-100276418D01*
X188402281Y-102698016D01*
X188435766Y-102759339D01*
X188438600Y-102785697D01*
X188438600Y-104364342D01*
X188418915Y-104431381D01*
X188402281Y-104452023D01*
X187897660Y-104956643D01*
X187859180Y-104889994D01*
X187784706Y-104815520D01*
X187718055Y-104777039D01*
X188190600Y-104304494D01*
X188190600Y-104303283D01*
X188038362Y-104201560D01*
X188038352Y-104201555D01*
X187846541Y-104122104D01*
X187846533Y-104122102D01*
X187642914Y-104081600D01*
X187435285Y-104081600D01*
X187231666Y-104122102D01*
X187231658Y-104122104D01*
X187039845Y-104201555D01*
X186886873Y-104303767D01*
X186886873Y-104303768D01*
X187360144Y-104777039D01*
X187293494Y-104815520D01*
X187219020Y-104889994D01*
X187180539Y-104956644D01*
X186707268Y-104483373D01*
X186707267Y-104483373D01*
X186605055Y-104636345D01*
X186525604Y-104828158D01*
X186525602Y-104828166D01*
X186485100Y-105031785D01*
X186485100Y-105239414D01*
X186525602Y-105443033D01*
X186525604Y-105443041D01*
X186605055Y-105634852D01*
X186605060Y-105634862D01*
X186707268Y-105787825D01*
X187180539Y-105314554D01*
X187219020Y-105381206D01*
X187293494Y-105455680D01*
X187360144Y-105494160D01*
X186886873Y-105967430D01*
X186886873Y-105967431D01*
X187039837Y-106069639D01*
X187039847Y-106069644D01*
X187231658Y-106149095D01*
X187231666Y-106149097D01*
X187435285Y-106189599D01*
X187435289Y-106189600D01*
X187642911Y-106189600D01*
X187642914Y-106189599D01*
X187846533Y-106149097D01*
X187846541Y-106149095D01*
X188038353Y-106069644D01*
X188191326Y-105967430D01*
X187718056Y-105494160D01*
X187784706Y-105455680D01*
X187859180Y-105381206D01*
X187897660Y-105314555D01*
X188402281Y-105819176D01*
X188416984Y-105846103D01*
X188433577Y-105871922D01*
X188434468Y-105878122D01*
X188435766Y-105880499D01*
X188438600Y-105906857D01*
X188438600Y-105915342D01*
X188429888Y-105945010D01*
X188436428Y-105957788D01*
X188438600Y-105980894D01*
X188438600Y-116638255D01*
X188418915Y-116705294D01*
X188366111Y-116751049D01*
X188296953Y-116760993D01*
X188241715Y-116738574D01*
X188220709Y-116723312D01*
X188038323Y-116630381D01*
X187843634Y-116567122D01*
X187669095Y-116539478D01*
X187641452Y-116535100D01*
X187436748Y-116535100D01*
X187412429Y-116538951D01*
X187234565Y-116567122D01*
X187039876Y-116630381D01*
X186857486Y-116723315D01*
X186691886Y-116843628D01*
X186547128Y-116988386D01*
X186426815Y-117153986D01*
X186333881Y-117336376D01*
X186270622Y-117531065D01*
X186238600Y-117733248D01*
X186238600Y-117937951D01*
X186270622Y-118140134D01*
X186333881Y-118334823D01*
X186426815Y-118517213D01*
X186547128Y-118682813D01*
X186691886Y-118827571D01*
X186788648Y-118897871D01*
X186857490Y-118947887D01*
X186945568Y-118992765D01*
X187039876Y-119040818D01*
X187039878Y-119040818D01*
X187039881Y-119040820D01*
X187144237Y-119074727D01*
X187234565Y-119104077D01*
X187335657Y-119120088D01*
X187436748Y-119136100D01*
X187436749Y-119136100D01*
X187641451Y-119136100D01*
X187641452Y-119136100D01*
X187843634Y-119104077D01*
X188038319Y-119040820D01*
X188220710Y-118947887D01*
X188241714Y-118932626D01*
X188307519Y-118909146D01*
X188375573Y-118924970D01*
X188424269Y-118975075D01*
X188438600Y-119032944D01*
X188438600Y-121398930D01*
X188438599Y-121398948D01*
X188438599Y-121564654D01*
X188438598Y-121564654D01*
X188479523Y-121717385D01*
X188500420Y-121753578D01*
X188500421Y-121753582D01*
X188558575Y-121854309D01*
X188558581Y-121854317D01*
X188677449Y-121973185D01*
X188677455Y-121973190D01*
X190054239Y-123349974D01*
X190054249Y-123349985D01*
X190058579Y-123354315D01*
X190058580Y-123354316D01*
X190170384Y-123466120D01*
X190170386Y-123466121D01*
X190170390Y-123466124D01*
X190307309Y-123545173D01*
X190307316Y-123545177D01*
X190419119Y-123575134D01*
X190460042Y-123586100D01*
X190460043Y-123586100D01*
X190823686Y-123586100D01*
X190890725Y-123605785D01*
X190936480Y-123658589D01*
X190946424Y-123727747D01*
X190938247Y-123757553D01*
X190881955Y-123893453D01*
X190881953Y-123893459D01*
X190853082Y-124038599D01*
X190853083Y-124038600D01*
X191373137Y-124038600D01*
X191354100Y-124109648D01*
X191354100Y-124221552D01*
X191373137Y-124292600D01*
X190853083Y-124292600D01*
X190881953Y-124437740D01*
X190881956Y-124437750D01*
X190952282Y-124607534D01*
X190952289Y-124607547D01*
X191054391Y-124760352D01*
X191054394Y-124760356D01*
X191184343Y-124890305D01*
X191184347Y-124890308D01*
X191337152Y-124992410D01*
X191337165Y-124992417D01*
X191506952Y-125062744D01*
X191506961Y-125062747D01*
X191652100Y-125091616D01*
X191652100Y-124571562D01*
X191723148Y-124590600D01*
X191835052Y-124590600D01*
X191906100Y-124571562D01*
X191906100Y-125091615D01*
X192051238Y-125062747D01*
X192051247Y-125062744D01*
X192221034Y-124992417D01*
X192221047Y-124992410D01*
X192373852Y-124890308D01*
X192373856Y-124890305D01*
X192503805Y-124760356D01*
X192503808Y-124760352D01*
X192605910Y-124607547D01*
X192605917Y-124607534D01*
X192676243Y-124437750D01*
X192676246Y-124437740D01*
X192705117Y-124292600D01*
X192185063Y-124292600D01*
X192204100Y-124221552D01*
X192204100Y-124109648D01*
X192185063Y-124038600D01*
X192705117Y-124038600D01*
X192705117Y-124038599D01*
X193393082Y-124038599D01*
X193393083Y-124038600D01*
X193913137Y-124038600D01*
X193894100Y-124109648D01*
X193894100Y-124221552D01*
X193913137Y-124292600D01*
X193393083Y-124292600D01*
X193421953Y-124437740D01*
X193421956Y-124437750D01*
X193492282Y-124607534D01*
X193492289Y-124607547D01*
X193594391Y-124760352D01*
X193594394Y-124760356D01*
X193724343Y-124890305D01*
X193724347Y-124890308D01*
X193877152Y-124992410D01*
X193877165Y-124992417D01*
X194046952Y-125062744D01*
X194046961Y-125062747D01*
X194192100Y-125091616D01*
X194192100Y-124571562D01*
X194263148Y-124590600D01*
X194375052Y-124590600D01*
X194446100Y-124571562D01*
X194446100Y-125091615D01*
X194591238Y-125062747D01*
X194591247Y-125062744D01*
X194761034Y-124992417D01*
X194761047Y-124992410D01*
X194913852Y-124890308D01*
X194913856Y-124890305D01*
X195043805Y-124760356D01*
X195043808Y-124760352D01*
X195145910Y-124607547D01*
X195145917Y-124607534D01*
X195216243Y-124437750D01*
X195216246Y-124437740D01*
X195245117Y-124292600D01*
X194725063Y-124292600D01*
X194744100Y-124221552D01*
X194744100Y-124109648D01*
X194725063Y-124038600D01*
X195245117Y-124038600D01*
X195245117Y-124038599D01*
X195216246Y-123893459D01*
X195216243Y-123893449D01*
X195145917Y-123723665D01*
X195145910Y-123723652D01*
X195043808Y-123570847D01*
X195043805Y-123570843D01*
X194913856Y-123440894D01*
X194913852Y-123440891D01*
X194761047Y-123338789D01*
X194761034Y-123338782D01*
X194591250Y-123268456D01*
X194591240Y-123268453D01*
X194446100Y-123239582D01*
X194446100Y-123759637D01*
X194375052Y-123740600D01*
X194263148Y-123740600D01*
X194192100Y-123759637D01*
X194192100Y-123239583D01*
X194192099Y-123239582D01*
X194046959Y-123268453D01*
X194046949Y-123268456D01*
X193877165Y-123338782D01*
X193877152Y-123338789D01*
X193724347Y-123440891D01*
X193724343Y-123440894D01*
X193594394Y-123570843D01*
X193594391Y-123570847D01*
X193492289Y-123723652D01*
X193492282Y-123723665D01*
X193421956Y-123893449D01*
X193421953Y-123893459D01*
X193393082Y-124038599D01*
X192705117Y-124038599D01*
X192676246Y-123893459D01*
X192676244Y-123893453D01*
X192619953Y-123757553D01*
X192616445Y-123724924D01*
X192611776Y-123692453D01*
X192612729Y-123690365D01*
X192612484Y-123688083D01*
X192627172Y-123658739D01*
X192640801Y-123628897D01*
X192642731Y-123627656D01*
X192643759Y-123625604D01*
X192671974Y-123608863D01*
X192699579Y-123591123D01*
X192702608Y-123590687D01*
X192703848Y-123589952D01*
X192734514Y-123586100D01*
X192872431Y-123586100D01*
X192872447Y-123586101D01*
X192880043Y-123586101D01*
X193038154Y-123586101D01*
X193038157Y-123586101D01*
X193190885Y-123545177D01*
X193241004Y-123516239D01*
X193327816Y-123466120D01*
X193439620Y-123354316D01*
X193439620Y-123354314D01*
X193449828Y-123344107D01*
X193449830Y-123344104D01*
X193976624Y-122817309D01*
X194037945Y-122783826D01*
X194083699Y-122782519D01*
X194136866Y-122790939D01*
X194226267Y-122805100D01*
X194226271Y-122805100D01*
X194411934Y-122805100D01*
X194513801Y-122788965D01*
X194595300Y-122776057D01*
X194771871Y-122718685D01*
X194937293Y-122634399D01*
X195087493Y-122525272D01*
X195218772Y-122393993D01*
X195327899Y-122243793D01*
X195412185Y-122078371D01*
X195469557Y-121901800D01*
X195487882Y-121786100D01*
X195498600Y-121718434D01*
X195498600Y-121532765D01*
X195479210Y-121410344D01*
X195469557Y-121349400D01*
X195412185Y-121172829D01*
X195327899Y-121007407D01*
X195218772Y-120857207D01*
X195087493Y-120725928D01*
X194937293Y-120616801D01*
X194799515Y-120546600D01*
X194771873Y-120532516D01*
X194771872Y-120532515D01*
X194771871Y-120532515D01*
X194595300Y-120475143D01*
X194595297Y-120475142D01*
X194590667Y-120473638D01*
X194591377Y-120471452D01*
X194539014Y-120441397D01*
X194506840Y-120379376D01*
X194513305Y-120309806D01*
X194556356Y-120254776D01*
X194591104Y-120238907D01*
X194590667Y-120237562D01*
X194595297Y-120236057D01*
X194595300Y-120236057D01*
X194771871Y-120178685D01*
X194937293Y-120094399D01*
X195087493Y-119985272D01*
X195218772Y-119853993D01*
X195327899Y-119703793D01*
X195412185Y-119538371D01*
X195469557Y-119361800D01*
X195483568Y-119273340D01*
X195498600Y-119178434D01*
X195498600Y-118992765D01*
X195472419Y-118827473D01*
X195469557Y-118809400D01*
X195412185Y-118632829D01*
X195327899Y-118467407D01*
X195218772Y-118317207D01*
X195087493Y-118185928D01*
X194937293Y-118076801D01*
X194771871Y-117992515D01*
X194595300Y-117935143D01*
X194595297Y-117935142D01*
X194590667Y-117933638D01*
X194591377Y-117931452D01*
X194539014Y-117901397D01*
X194506840Y-117839376D01*
X194513305Y-117769806D01*
X194556356Y-117714776D01*
X194591104Y-117698907D01*
X194590667Y-117697562D01*
X194595297Y-117696057D01*
X194595300Y-117696057D01*
X194771871Y-117638685D01*
X194937293Y-117554399D01*
X195087493Y-117445272D01*
X195218772Y-117313993D01*
X195327899Y-117163793D01*
X195412185Y-116998371D01*
X195469557Y-116821800D01*
X195483568Y-116733340D01*
X195498600Y-116638434D01*
X195498600Y-116452765D01*
X195471176Y-116279625D01*
X195469557Y-116269400D01*
X195412185Y-116092829D01*
X195327899Y-115927407D01*
X195218772Y-115777207D01*
X195087493Y-115645928D01*
X194937293Y-115536801D01*
X194771871Y-115452515D01*
X194595300Y-115395143D01*
X194595297Y-115395142D01*
X194590667Y-115393638D01*
X194591377Y-115391452D01*
X194539014Y-115361397D01*
X194506840Y-115299376D01*
X194513305Y-115229806D01*
X194556356Y-115174776D01*
X194591104Y-115158907D01*
X194590667Y-115157562D01*
X194595297Y-115156057D01*
X194595300Y-115156057D01*
X194771871Y-115098685D01*
X194937293Y-115014399D01*
X195087493Y-114905272D01*
X195218772Y-114773993D01*
X195327899Y-114623793D01*
X195412185Y-114458371D01*
X195469557Y-114281800D01*
X195483568Y-114193340D01*
X195498600Y-114098434D01*
X195498600Y-113912765D01*
X195475717Y-113768292D01*
X195469557Y-113729400D01*
X195412185Y-113552829D01*
X195327899Y-113387407D01*
X195218772Y-113237207D01*
X195087493Y-113105928D01*
X194937293Y-112996801D01*
X194771871Y-112912515D01*
X194595300Y-112855143D01*
X194595297Y-112855142D01*
X194590667Y-112853638D01*
X194591377Y-112851452D01*
X194539014Y-112821397D01*
X194506840Y-112759376D01*
X194513305Y-112689806D01*
X194556356Y-112634776D01*
X194591104Y-112618907D01*
X194590667Y-112617562D01*
X194595297Y-112616057D01*
X194595300Y-112616057D01*
X194771871Y-112558685D01*
X194937293Y-112474399D01*
X195087493Y-112365272D01*
X195218772Y-112233993D01*
X195327899Y-112083793D01*
X195412185Y-111918371D01*
X195469557Y-111741800D01*
X195483568Y-111653340D01*
X195498600Y-111558434D01*
X195498600Y-111372765D01*
X195475717Y-111228292D01*
X195469557Y-111189400D01*
X195412185Y-111012829D01*
X195327899Y-110847407D01*
X195218772Y-110697207D01*
X195087493Y-110565928D01*
X194937293Y-110456801D01*
X194771871Y-110372515D01*
X194595300Y-110315143D01*
X194595297Y-110315142D01*
X194590667Y-110313638D01*
X194591377Y-110311452D01*
X194539014Y-110281397D01*
X194506840Y-110219376D01*
X194513305Y-110149806D01*
X194556356Y-110094776D01*
X194591104Y-110078907D01*
X194590667Y-110077562D01*
X194595297Y-110076057D01*
X194595300Y-110076057D01*
X194771871Y-110018685D01*
X194937293Y-109934399D01*
X195087493Y-109825272D01*
X195218772Y-109693993D01*
X195327899Y-109543793D01*
X195412185Y-109378371D01*
X195469557Y-109201800D01*
X195483568Y-109113340D01*
X195498600Y-109018434D01*
X195498600Y-108832765D01*
X195475717Y-108688292D01*
X195469557Y-108649400D01*
X195412185Y-108472829D01*
X195327899Y-108307407D01*
X195218772Y-108157207D01*
X195087493Y-108025928D01*
X194937293Y-107916801D01*
X194771871Y-107832515D01*
X194595300Y-107775143D01*
X194595297Y-107775142D01*
X194590667Y-107773638D01*
X194591377Y-107771452D01*
X194539014Y-107741397D01*
X194506840Y-107679376D01*
X194513305Y-107609806D01*
X194556356Y-107554776D01*
X194591104Y-107538907D01*
X194590667Y-107537562D01*
X194595297Y-107536057D01*
X194595300Y-107536057D01*
X194771871Y-107478685D01*
X194937293Y-107394399D01*
X195087493Y-107285272D01*
X195218772Y-107153993D01*
X195327899Y-107003793D01*
X195412185Y-106838371D01*
X195469557Y-106661800D01*
X195483568Y-106573340D01*
X195498600Y-106478434D01*
X195498600Y-106292765D01*
X195470322Y-106114231D01*
X195469557Y-106109400D01*
X195412185Y-105932829D01*
X195327899Y-105767407D01*
X195218772Y-105617207D01*
X195087493Y-105485928D01*
X194937293Y-105376801D01*
X194771871Y-105292515D01*
X194595300Y-105235143D01*
X194595297Y-105235142D01*
X194590667Y-105233638D01*
X194591377Y-105231452D01*
X194539014Y-105201397D01*
X194506840Y-105139376D01*
X194513305Y-105069806D01*
X194556356Y-105014776D01*
X194591104Y-104998907D01*
X194590667Y-104997562D01*
X194595297Y-104996057D01*
X194595300Y-104996057D01*
X194771871Y-104938685D01*
X194937293Y-104854399D01*
X195087493Y-104745272D01*
X195218772Y-104613993D01*
X195327899Y-104463793D01*
X195412185Y-104298371D01*
X195469557Y-104121800D01*
X195483568Y-104033340D01*
X195498600Y-103938434D01*
X195498600Y-103752765D01*
X195475717Y-103608292D01*
X195469557Y-103569400D01*
X195412185Y-103392829D01*
X195327899Y-103227407D01*
X195218772Y-103077207D01*
X195087493Y-102945928D01*
X194937293Y-102836801D01*
X194771871Y-102752515D01*
X194595300Y-102695143D01*
X194595297Y-102695142D01*
X194590667Y-102693638D01*
X194591377Y-102691452D01*
X194539014Y-102661397D01*
X194506840Y-102599376D01*
X194513305Y-102529806D01*
X194556356Y-102474776D01*
X194591104Y-102458907D01*
X194590667Y-102457562D01*
X194595297Y-102456057D01*
X194595300Y-102456057D01*
X194771871Y-102398685D01*
X194937293Y-102314399D01*
X195087493Y-102205272D01*
X195218772Y-102073993D01*
X195327899Y-101923793D01*
X195412185Y-101758371D01*
X195469557Y-101581800D01*
X195487879Y-101466118D01*
X195498600Y-101398434D01*
X195498600Y-101212765D01*
X195472651Y-101048934D01*
X195469557Y-101029400D01*
X195412185Y-100852829D01*
X195327899Y-100687407D01*
X195218772Y-100537207D01*
X195087493Y-100405928D01*
X194937293Y-100296801D01*
X194771871Y-100212515D01*
X194595300Y-100155143D01*
X194595297Y-100155142D01*
X194590667Y-100153638D01*
X194591377Y-100151452D01*
X194539014Y-100121397D01*
X194506840Y-100059376D01*
X194513305Y-99989806D01*
X194556356Y-99934776D01*
X194591104Y-99918907D01*
X194590667Y-99917562D01*
X194595297Y-99916057D01*
X194595300Y-99916057D01*
X194771871Y-99858685D01*
X194937293Y-99774399D01*
X195087493Y-99665272D01*
X195218772Y-99533993D01*
X195327899Y-99383793D01*
X195412185Y-99218371D01*
X195469557Y-99041800D01*
X195483568Y-98953340D01*
X195498600Y-98858434D01*
X195498600Y-98672765D01*
X195473880Y-98516696D01*
X195469557Y-98489400D01*
X195412185Y-98312829D01*
X195327899Y-98147407D01*
X195218772Y-97997207D01*
X195087493Y-97865928D01*
X194937293Y-97756801D01*
X194844900Y-97709725D01*
X194771873Y-97672516D01*
X194771872Y-97672515D01*
X194771871Y-97672515D01*
X194595300Y-97615143D01*
X194595297Y-97615142D01*
X194590667Y-97613638D01*
X194591377Y-97611452D01*
X194539014Y-97581397D01*
X194506840Y-97519376D01*
X194513305Y-97449806D01*
X194556356Y-97394776D01*
X194591104Y-97378907D01*
X194590667Y-97377562D01*
X194595297Y-97376057D01*
X194595300Y-97376057D01*
X194771871Y-97318685D01*
X194937293Y-97234399D01*
X195087493Y-97125272D01*
X195218772Y-96993993D01*
X195327899Y-96843793D01*
X195412185Y-96678371D01*
X195469557Y-96501800D01*
X195487731Y-96387056D01*
X195498600Y-96318434D01*
X195498600Y-96132765D01*
X195473880Y-95976696D01*
X195469557Y-95949400D01*
X195412185Y-95772829D01*
X195327899Y-95607407D01*
X195218772Y-95457207D01*
X195087493Y-95325928D01*
X194937293Y-95216801D01*
X194771871Y-95132515D01*
X194595300Y-95075143D01*
X194595297Y-95075142D01*
X194590667Y-95073638D01*
X194591377Y-95071452D01*
X194539014Y-95041397D01*
X194506840Y-94979376D01*
X194513305Y-94909806D01*
X194556356Y-94854776D01*
X194591104Y-94838907D01*
X194590667Y-94837562D01*
X194595297Y-94836057D01*
X194595300Y-94836057D01*
X194771871Y-94778685D01*
X194937293Y-94694399D01*
X195087493Y-94585272D01*
X195218772Y-94453993D01*
X195327899Y-94303793D01*
X195412185Y-94138371D01*
X195469557Y-93961800D01*
X195485899Y-93858620D01*
X195498600Y-93778434D01*
X195498600Y-93592765D01*
X195472190Y-93426026D01*
X195469557Y-93409400D01*
X195412185Y-93232829D01*
X195327899Y-93067407D01*
X195218772Y-92917207D01*
X195087493Y-92785928D01*
X194937293Y-92676801D01*
X194771871Y-92592515D01*
X194595300Y-92535143D01*
X194595297Y-92535142D01*
X194590667Y-92533638D01*
X194591377Y-92531452D01*
X194539014Y-92501397D01*
X194506840Y-92439376D01*
X194513305Y-92369806D01*
X194556356Y-92314776D01*
X194591104Y-92298907D01*
X194590667Y-92297562D01*
X194595297Y-92296057D01*
X194595300Y-92296057D01*
X194771871Y-92238685D01*
X194937293Y-92154399D01*
X195087493Y-92045272D01*
X195218772Y-91913993D01*
X195327899Y-91763793D01*
X195412185Y-91598371D01*
X195469557Y-91421800D01*
X195488466Y-91302415D01*
X195498600Y-91238434D01*
X195498600Y-91052765D01*
X195473880Y-90896696D01*
X195469557Y-90869400D01*
X195412185Y-90692829D01*
X195327899Y-90527407D01*
X195218772Y-90377207D01*
X195087493Y-90245928D01*
X194937293Y-90136801D01*
X194771871Y-90052515D01*
X194595300Y-89995143D01*
X194595297Y-89995142D01*
X194590667Y-89993638D01*
X194591377Y-89991452D01*
X194539014Y-89961397D01*
X194506840Y-89899376D01*
X194513305Y-89829806D01*
X194556356Y-89774776D01*
X194591104Y-89758907D01*
X194590667Y-89757562D01*
X194595297Y-89756057D01*
X194595300Y-89756057D01*
X194771871Y-89698685D01*
X194937293Y-89614399D01*
X195087493Y-89505272D01*
X195218772Y-89373993D01*
X195327899Y-89223793D01*
X195412185Y-89058371D01*
X195469557Y-88881800D01*
X195492716Y-88735580D01*
X195498600Y-88698434D01*
X195498600Y-88512765D01*
X195471713Y-88343014D01*
X195469557Y-88329400D01*
X195412185Y-88152829D01*
X195327899Y-87987407D01*
X195218772Y-87837207D01*
X195087493Y-87705928D01*
X194937293Y-87596801D01*
X194771871Y-87512515D01*
X194595300Y-87455143D01*
X194595297Y-87455142D01*
X194590667Y-87453638D01*
X194591377Y-87451452D01*
X194539014Y-87421397D01*
X194506840Y-87359376D01*
X194513305Y-87289806D01*
X194556356Y-87234776D01*
X194591104Y-87218907D01*
X194590667Y-87217562D01*
X194595297Y-87216057D01*
X194595300Y-87216057D01*
X194771871Y-87158685D01*
X194937293Y-87074399D01*
X195087493Y-86965272D01*
X195218772Y-86833993D01*
X195327899Y-86683793D01*
X195412185Y-86518371D01*
X195469557Y-86341800D01*
X195493003Y-86193770D01*
X195498600Y-86158434D01*
X195498600Y-85972765D01*
X195475686Y-85828099D01*
X195469557Y-85789400D01*
X195412185Y-85612829D01*
X195327899Y-85447407D01*
X195218772Y-85297207D01*
X195087493Y-85165928D01*
X194937293Y-85056801D01*
X194771871Y-84972515D01*
X194595300Y-84915143D01*
X194595297Y-84915142D01*
X194590667Y-84913638D01*
X194591377Y-84911452D01*
X194539014Y-84881397D01*
X194506840Y-84819376D01*
X194513305Y-84749806D01*
X194556356Y-84694776D01*
X194591104Y-84678907D01*
X194590667Y-84677562D01*
X194595297Y-84676057D01*
X194595300Y-84676057D01*
X194771871Y-84618685D01*
X194937293Y-84534399D01*
X195087493Y-84425272D01*
X195218772Y-84293993D01*
X195327899Y-84143793D01*
X195412185Y-83978371D01*
X195469557Y-83801800D01*
X195483568Y-83713340D01*
X195498600Y-83618434D01*
X195498600Y-83432765D01*
X195475081Y-83284277D01*
X195469557Y-83249400D01*
X195412185Y-83072829D01*
X195327899Y-82907407D01*
X195218772Y-82757207D01*
X195087493Y-82625928D01*
X194937293Y-82516801D01*
X194771871Y-82432515D01*
X194595300Y-82375143D01*
X194595297Y-82375142D01*
X194590667Y-82373638D01*
X194591377Y-82371452D01*
X194539014Y-82341397D01*
X194506840Y-82279376D01*
X194513305Y-82209806D01*
X194556356Y-82154776D01*
X194591104Y-82138907D01*
X194590667Y-82137562D01*
X194595297Y-82136057D01*
X194595300Y-82136057D01*
X194771871Y-82078685D01*
X194937293Y-81994399D01*
X195087493Y-81885272D01*
X195218772Y-81753993D01*
X195327899Y-81603793D01*
X195412185Y-81438371D01*
X195469557Y-81261800D01*
X195494093Y-81106888D01*
X195498600Y-81078434D01*
X195498600Y-80892765D01*
X195471971Y-80724644D01*
X195469557Y-80709400D01*
X195412185Y-80532829D01*
X195327899Y-80367407D01*
X195218772Y-80217207D01*
X195087493Y-80085928D01*
X194937293Y-79976801D01*
X194771871Y-79892515D01*
X194595300Y-79835143D01*
X194595298Y-79835142D01*
X194595296Y-79835142D01*
X194411934Y-79806100D01*
X194411929Y-79806100D01*
X194226271Y-79806100D01*
X194226266Y-79806100D01*
X194042903Y-79835142D01*
X193866326Y-79892516D01*
X193700906Y-79976801D01*
X193615211Y-80039062D01*
X193550707Y-80085928D01*
X193550705Y-80085930D01*
X193550704Y-80085930D01*
X193426854Y-80209781D01*
X193365531Y-80243266D01*
X193339173Y-80246100D01*
X192759027Y-80246100D01*
X192691988Y-80226415D01*
X192671346Y-80209781D01*
X192547495Y-80085930D01*
X192547493Y-80085928D01*
X192397293Y-79976801D01*
X192231871Y-79892515D01*
X192055300Y-79835143D01*
X192055298Y-79835142D01*
X192055296Y-79835142D01*
X191871934Y-79806100D01*
X191871929Y-79806100D01*
X191686271Y-79806100D01*
X191686266Y-79806100D01*
X191502903Y-79835142D01*
X191326326Y-79892516D01*
X191160906Y-79976801D01*
X191075211Y-80039062D01*
X191010707Y-80085928D01*
X191010705Y-80085930D01*
X191010704Y-80085930D01*
X190879430Y-80217204D01*
X190879430Y-80217205D01*
X190879428Y-80217207D01*
X190832562Y-80281711D01*
X190770301Y-80367406D01*
X190686016Y-80532826D01*
X190628642Y-80709403D01*
X190599600Y-80892765D01*
X190599600Y-81078434D01*
X190622180Y-81220996D01*
X190613226Y-81290289D01*
X190587388Y-81328075D01*
X189567438Y-82348025D01*
X189506115Y-82381510D01*
X189436423Y-82376526D01*
X189380490Y-82334654D01*
X189356073Y-82269190D01*
X189370925Y-82200917D01*
X189381372Y-82184870D01*
X189511036Y-82015889D01*
X189632324Y-81805812D01*
X189725154Y-81581700D01*
X189787938Y-81347389D01*
X189819600Y-81106888D01*
X189819600Y-80864312D01*
X189787938Y-80623811D01*
X189725154Y-80389500D01*
X189632324Y-80165388D01*
X189511036Y-79955311D01*
X189413869Y-79828680D01*
X189363366Y-79762863D01*
X189363360Y-79762856D01*
X189191843Y-79591339D01*
X189191836Y-79591333D01*
X188999393Y-79443667D01*
X188999392Y-79443666D01*
X188999389Y-79443664D01*
X188789312Y-79322376D01*
X188789305Y-79322373D01*
X188565204Y-79229547D01*
X188330885Y-79166761D01*
X188090389Y-79135100D01*
X188090388Y-79135100D01*
X187847812Y-79135100D01*
X187847811Y-79135100D01*
X187607314Y-79166761D01*
X187372995Y-79229547D01*
X187148894Y-79322373D01*
X187148885Y-79322377D01*
X186938806Y-79443667D01*
X186746363Y-79591333D01*
X186746356Y-79591339D01*
X186574839Y-79762856D01*
X186574833Y-79762863D01*
X186427167Y-79955306D01*
X186305877Y-80165385D01*
X186305873Y-80165394D01*
X186213047Y-80389495D01*
X186150261Y-80623814D01*
X186118600Y-80864311D01*
X186118600Y-81106888D01*
X186147404Y-81325684D01*
X186150262Y-81347389D01*
X186171737Y-81427534D01*
X186213047Y-81581704D01*
X186284412Y-81753993D01*
X186305876Y-81805812D01*
X186427164Y-82015889D01*
X186427166Y-82015892D01*
X186427167Y-82015893D01*
X186574833Y-82208336D01*
X186574839Y-82208343D01*
X186746356Y-82379860D01*
X186746363Y-82379866D01*
X186814977Y-82432515D01*
X186938811Y-82527536D01*
X187148888Y-82648824D01*
X187373000Y-82741654D01*
X187607311Y-82804438D01*
X187787686Y-82828184D01*
X187847811Y-82836100D01*
X187847812Y-82836100D01*
X188090389Y-82836100D01*
X188138488Y-82829767D01*
X188330889Y-82804438D01*
X188565200Y-82741654D01*
X188789312Y-82648824D01*
X188999389Y-82527536D01*
X189168359Y-82397880D01*
X189233528Y-82372687D01*
X189301973Y-82386725D01*
X189351962Y-82435539D01*
X189367626Y-82503631D01*
X189343989Y-82569381D01*
X189331526Y-82583938D01*
X188566685Y-83348780D01*
X188539757Y-83363483D01*
X188513943Y-83380075D01*
X188507738Y-83380967D01*
X188505362Y-83382265D01*
X188479009Y-83385099D01*
X188460043Y-83385099D01*
X188460040Y-83385099D01*
X188452436Y-83385100D01*
X188452435Y-83385099D01*
X188452431Y-83385100D01*
X179125779Y-83385100D01*
X179125763Y-83385099D01*
X179118167Y-83385099D01*
X178960053Y-83385099D01*
X178852697Y-83413865D01*
X178807320Y-83426024D01*
X178807319Y-83426025D01*
X178757206Y-83454959D01*
X178757205Y-83454960D01*
X178713799Y-83480020D01*
X178670395Y-83505079D01*
X178670392Y-83505081D01*
X176980683Y-85194791D01*
X176919360Y-85228276D01*
X176893002Y-85231110D01*
X176185197Y-85231110D01*
X176118158Y-85211425D01*
X176097516Y-85194791D01*
X175526680Y-84623955D01*
X175526678Y-84623952D01*
X175407806Y-84505080D01*
X175407804Y-84505079D01*
X175407797Y-84505075D01*
X175314309Y-84451100D01*
X175270875Y-84426023D01*
X175118147Y-84385099D01*
X174960033Y-84385099D01*
X174952437Y-84385099D01*
X174952421Y-84385100D01*
X161960040Y-84385100D01*
X161919119Y-84396064D01*
X161919119Y-84396065D01*
X161881851Y-84406051D01*
X161807314Y-84426023D01*
X161807309Y-84426026D01*
X161670390Y-84505075D01*
X161670384Y-84505080D01*
X160726683Y-85448781D01*
X160665360Y-85482266D01*
X160639002Y-85485100D01*
X160440557Y-85485100D01*
X160247270Y-85523547D01*
X160247260Y-85523550D01*
X160065192Y-85598964D01*
X160065179Y-85598971D01*
X159901318Y-85708460D01*
X159901314Y-85708463D01*
X159761963Y-85847814D01*
X159761960Y-85847818D01*
X159652471Y-86011679D01*
X159652464Y-86011692D01*
X159577050Y-86193760D01*
X159577047Y-86193770D01*
X159538600Y-86387056D01*
X159538600Y-86387059D01*
X159538600Y-86584141D01*
X159538600Y-86584143D01*
X159538599Y-86584143D01*
X159577047Y-86777429D01*
X159577050Y-86777439D01*
X159652464Y-86959507D01*
X159652471Y-86959520D01*
X159761960Y-87123381D01*
X159761963Y-87123385D01*
X159901314Y-87262736D01*
X159901318Y-87262739D01*
X160065179Y-87372228D01*
X160065192Y-87372235D01*
X160247260Y-87447649D01*
X160247265Y-87447651D01*
X160247269Y-87447651D01*
X160247270Y-87447652D01*
X160440556Y-87486100D01*
X160440559Y-87486100D01*
X160637643Y-87486100D01*
X160767682Y-87460232D01*
X160830935Y-87447651D01*
X161013014Y-87372232D01*
X161176882Y-87262739D01*
X161316239Y-87123382D01*
X161425732Y-86959514D01*
X161501151Y-86777435D01*
X161519778Y-86683793D01*
X161539600Y-86584143D01*
X161539600Y-86385696D01*
X161559285Y-86318657D01*
X161575919Y-86298015D01*
X162251516Y-85622419D01*
X162312839Y-85588934D01*
X162339197Y-85586100D01*
X165660600Y-85586100D01*
X165727639Y-85605785D01*
X165773394Y-85658589D01*
X165784600Y-85710100D01*
X165784600Y-87287480D01*
X165784601Y-87287486D01*
X165791008Y-87347093D01*
X165841302Y-87481938D01*
X165841306Y-87481945D01*
X165927552Y-87597154D01*
X165927555Y-87597157D01*
X166042764Y-87683403D01*
X166042771Y-87683407D01*
X166087718Y-87700171D01*
X166177617Y-87733701D01*
X166237227Y-87740110D01*
X166237394Y-87740109D01*
X166237429Y-87740120D01*
X166240553Y-87740288D01*
X166240513Y-87741024D01*
X166304436Y-87759775D01*
X166350206Y-87812565D01*
X166360169Y-87881721D01*
X166331162Y-87945285D01*
X166310312Y-87964427D01*
X166221849Y-88028699D01*
X166082215Y-88168333D01*
X165966158Y-88328075D01*
X165876508Y-88504021D01*
X165815489Y-88691816D01*
X165784600Y-88886843D01*
X165784600Y-89084316D01*
X165815489Y-89279343D01*
X165875178Y-89463044D01*
X165876509Y-89467141D01*
X165895938Y-89505272D01*
X165968368Y-89647422D01*
X165966924Y-89648157D01*
X165983314Y-89708767D01*
X165962192Y-89775368D01*
X165908416Y-89819976D01*
X165859343Y-89830100D01*
X163180769Y-89830100D01*
X163180753Y-89830099D01*
X163173157Y-89830099D01*
X163015043Y-89830099D01*
X162922568Y-89854878D01*
X162862310Y-89871024D01*
X162862309Y-89871025D01*
X162812196Y-89899959D01*
X162812195Y-89899960D01*
X162774970Y-89921452D01*
X162725385Y-89950079D01*
X162725382Y-89950081D01*
X162613578Y-90061886D01*
X154326684Y-98348781D01*
X154265361Y-98382266D01*
X154239003Y-98385100D01*
X134782197Y-98385100D01*
X134715158Y-98365415D01*
X134694516Y-98348781D01*
X131168291Y-94822556D01*
X131134806Y-94761233D01*
X131133499Y-94715481D01*
X131158600Y-94557003D01*
X131158600Y-94368197D01*
X131129064Y-94181716D01*
X131129063Y-94181714D01*
X131129064Y-94181714D01*
X131071671Y-94005080D01*
X131070720Y-94002152D01*
X131070718Y-94002149D01*
X131070718Y-94002147D01*
X131012907Y-93888687D01*
X130985004Y-93833925D01*
X130874027Y-93681178D01*
X130740522Y-93547673D01*
X130587775Y-93436696D01*
X130566828Y-93426023D01*
X130419552Y-93350981D01*
X130295059Y-93310531D01*
X130237384Y-93271093D01*
X130210186Y-93206734D01*
X130222101Y-93137888D01*
X130269345Y-93086412D01*
X130295059Y-93074669D01*
X130317412Y-93067406D01*
X130419548Y-93034220D01*
X130587775Y-92948504D01*
X130740522Y-92837527D01*
X130874027Y-92704022D01*
X130968338Y-92574214D01*
X131023668Y-92531549D01*
X131068656Y-92523100D01*
X137001361Y-92523100D01*
X137001377Y-92523101D01*
X137008973Y-92523101D01*
X137167084Y-92523101D01*
X137167087Y-92523101D01*
X137319815Y-92482177D01*
X137379615Y-92447651D01*
X137456746Y-92403120D01*
X137568550Y-92291316D01*
X137568550Y-92291314D01*
X137578754Y-92281111D01*
X137578758Y-92281106D01*
X144897606Y-84962258D01*
X144897611Y-84962254D01*
X144907814Y-84952050D01*
X144907816Y-84952050D01*
X145019620Y-84840246D01*
X145091432Y-84715863D01*
X145098677Y-84703315D01*
X145139600Y-84550588D01*
X145139600Y-84392473D01*
X145139600Y-82406543D01*
X145139600Y-82018850D01*
X145159285Y-81951811D01*
X145212089Y-81906056D01*
X145281247Y-81896112D01*
X145336484Y-81918531D01*
X145440907Y-81994399D01*
X145606329Y-82078685D01*
X145782900Y-82136057D01*
X145846025Y-82146055D01*
X145966266Y-82165100D01*
X145966271Y-82165100D01*
X146151934Y-82165100D01*
X146253801Y-82148965D01*
X146335300Y-82136057D01*
X146511871Y-82078685D01*
X146677293Y-81994399D01*
X146827493Y-81885272D01*
X146958772Y-81753993D01*
X147067899Y-81603793D01*
X147152185Y-81438371D01*
X147209557Y-81261800D01*
X147209558Y-81261796D01*
X147211062Y-81257167D01*
X147213247Y-81257877D01*
X147243303Y-81205514D01*
X147305324Y-81173340D01*
X147374894Y-81179805D01*
X147429924Y-81222856D01*
X147445792Y-81257604D01*
X147447138Y-81257167D01*
X147448642Y-81261796D01*
X147448643Y-81261800D01*
X147506015Y-81438371D01*
X147590301Y-81603793D01*
X147699428Y-81753993D01*
X147830707Y-81885272D01*
X147980907Y-81994399D01*
X148146329Y-82078685D01*
X148322900Y-82136057D01*
X148386025Y-82146055D01*
X148506266Y-82165100D01*
X148506271Y-82165100D01*
X148691934Y-82165100D01*
X148793801Y-82148965D01*
X148875300Y-82136057D01*
X149051871Y-82078685D01*
X149217293Y-81994399D01*
X149367493Y-81885272D01*
X149498772Y-81753993D01*
X149607899Y-81603793D01*
X149692185Y-81438371D01*
X149749557Y-81261800D01*
X149749558Y-81261796D01*
X149751062Y-81257167D01*
X149753247Y-81257877D01*
X149783303Y-81205514D01*
X149845324Y-81173340D01*
X149914894Y-81179805D01*
X149969924Y-81222856D01*
X149985792Y-81257604D01*
X149987138Y-81257167D01*
X149988642Y-81261796D01*
X149988643Y-81261800D01*
X150046015Y-81438371D01*
X150130301Y-81603793D01*
X150239428Y-81753993D01*
X150370707Y-81885272D01*
X150520907Y-81994399D01*
X150686329Y-82078685D01*
X150862900Y-82136057D01*
X150926025Y-82146055D01*
X151046266Y-82165100D01*
X151046271Y-82165100D01*
X151231933Y-82165100D01*
X151330768Y-82149445D01*
X151352174Y-82146055D01*
X151421468Y-82155009D01*
X151474920Y-82200005D01*
X151495560Y-82266757D01*
X151476835Y-82334070D01*
X151459254Y-82356209D01*
X140466684Y-93348781D01*
X140405361Y-93382266D01*
X140379003Y-93385100D01*
X135625770Y-93385100D01*
X135625754Y-93385099D01*
X135618158Y-93385099D01*
X135460043Y-93385099D01*
X135383679Y-93405561D01*
X135307314Y-93426023D01*
X135307309Y-93426026D01*
X135170390Y-93505075D01*
X135170382Y-93505081D01*
X134663317Y-94012146D01*
X134663314Y-94012148D01*
X134663315Y-94012149D01*
X134558578Y-94116886D01*
X134521151Y-94181714D01*
X134521150Y-94181716D01*
X134479523Y-94253814D01*
X134471309Y-94284471D01*
X134438599Y-94406543D01*
X134438599Y-94406545D01*
X134438599Y-94574646D01*
X134438600Y-94574659D01*
X134438600Y-94898930D01*
X134438599Y-94898948D01*
X134438599Y-95064654D01*
X134438598Y-95064654D01*
X134438599Y-95064657D01*
X134479523Y-95217385D01*
X134493117Y-95240931D01*
X134494901Y-95244020D01*
X134494902Y-95244022D01*
X134558577Y-95354312D01*
X134558581Y-95354317D01*
X134677449Y-95473185D01*
X134677455Y-95473190D01*
X135502281Y-96298016D01*
X135535766Y-96359339D01*
X135538600Y-96385697D01*
X135538600Y-96387059D01*
X135538600Y-96584141D01*
X135538600Y-96584143D01*
X135538599Y-96584143D01*
X135577047Y-96777429D01*
X135577050Y-96777439D01*
X135652464Y-96959507D01*
X135652471Y-96959520D01*
X135761960Y-97123381D01*
X135761963Y-97123385D01*
X135901314Y-97262736D01*
X135901318Y-97262739D01*
X136065179Y-97372228D01*
X136065192Y-97372235D01*
X136234851Y-97442509D01*
X136247265Y-97447651D01*
X136247269Y-97447651D01*
X136247270Y-97447652D01*
X136440556Y-97486100D01*
X136440559Y-97486100D01*
X136637643Y-97486100D01*
X136767682Y-97460232D01*
X136830935Y-97447651D01*
X137013014Y-97372232D01*
X137176882Y-97262739D01*
X137316239Y-97123382D01*
X137425732Y-96959514D01*
X137501151Y-96777435D01*
X137522482Y-96670197D01*
X137539600Y-96584143D01*
X137539600Y-96387056D01*
X137501152Y-96193770D01*
X137501151Y-96193769D01*
X137501151Y-96193765D01*
X137475884Y-96132765D01*
X137425735Y-96011692D01*
X137425728Y-96011679D01*
X137316240Y-95847819D01*
X137307209Y-95838788D01*
X137291701Y-95823280D01*
X137287362Y-95815334D01*
X137280114Y-95809908D01*
X137270881Y-95785151D01*
X137258217Y-95761960D01*
X137258862Y-95752927D01*
X137255699Y-95744444D01*
X137261315Y-95718628D01*
X137263200Y-95692268D01*
X137269020Y-95683211D01*
X137270552Y-95676171D01*
X137291700Y-95647920D01*
X137316239Y-95623382D01*
X137316239Y-95623381D01*
X137317204Y-95622417D01*
X137378528Y-95588933D01*
X137404884Y-95586100D01*
X142132431Y-95586100D01*
X142132447Y-95586101D01*
X142140043Y-95586101D01*
X142298154Y-95586101D01*
X142298157Y-95586101D01*
X142450885Y-95545177D01*
X142517499Y-95506717D01*
X142538501Y-95494592D01*
X142587809Y-95466124D01*
X142587808Y-95466124D01*
X142587816Y-95466120D01*
X142699620Y-95354316D01*
X142699620Y-95354314D01*
X142709824Y-95344111D01*
X142709828Y-95344106D01*
X155876624Y-82177309D01*
X155937945Y-82143826D01*
X155983699Y-82142519D01*
X156036866Y-82150939D01*
X156126267Y-82165100D01*
X156126271Y-82165100D01*
X156311934Y-82165100D01*
X156413801Y-82148965D01*
X156495300Y-82136057D01*
X156671871Y-82078685D01*
X156837293Y-81994399D01*
X156987493Y-81885272D01*
X157118772Y-81753993D01*
X157227899Y-81603793D01*
X157312185Y-81438371D01*
X157369557Y-81261800D01*
X157369558Y-81261796D01*
X157371062Y-81257167D01*
X157373247Y-81257877D01*
X157403303Y-81205514D01*
X157465324Y-81173340D01*
X157534894Y-81179805D01*
X157589924Y-81222856D01*
X157605792Y-81257604D01*
X157607138Y-81257167D01*
X157608642Y-81261796D01*
X157608643Y-81261800D01*
X157666015Y-81438371D01*
X157750301Y-81603793D01*
X157859428Y-81753993D01*
X157990707Y-81885272D01*
X158140907Y-81994399D01*
X158306329Y-82078685D01*
X158482900Y-82136057D01*
X158546025Y-82146055D01*
X158666266Y-82165100D01*
X158666271Y-82165100D01*
X158851934Y-82165100D01*
X158953801Y-82148965D01*
X159035300Y-82136057D01*
X159211871Y-82078685D01*
X159377293Y-81994399D01*
X159527493Y-81885272D01*
X159658772Y-81753993D01*
X159767899Y-81603793D01*
X159852185Y-81438371D01*
X159909557Y-81261800D01*
X159909558Y-81261796D01*
X159911062Y-81257167D01*
X159913247Y-81257877D01*
X159943303Y-81205514D01*
X160005324Y-81173340D01*
X160074894Y-81179805D01*
X160129924Y-81222856D01*
X160145792Y-81257604D01*
X160147138Y-81257167D01*
X160148642Y-81261796D01*
X160148643Y-81261800D01*
X160206015Y-81438371D01*
X160290301Y-81603793D01*
X160399428Y-81753993D01*
X160530707Y-81885272D01*
X160680907Y-81994399D01*
X160846329Y-82078685D01*
X161022900Y-82136057D01*
X161086025Y-82146055D01*
X161206266Y-82165100D01*
X161206271Y-82165100D01*
X161391934Y-82165100D01*
X161493801Y-82148965D01*
X161575300Y-82136057D01*
X161751871Y-82078685D01*
X161917293Y-81994399D01*
X162067493Y-81885272D01*
X162198772Y-81753993D01*
X162307899Y-81603793D01*
X162392185Y-81438371D01*
X162449557Y-81261800D01*
X162474093Y-81106888D01*
X162478600Y-81078434D01*
X162478600Y-80892765D01*
X162451971Y-80724644D01*
X162449557Y-80709400D01*
X162392185Y-80532829D01*
X162307899Y-80367407D01*
X162246562Y-80282984D01*
X162223083Y-80217179D01*
X162238908Y-80149126D01*
X162289014Y-80100431D01*
X162346881Y-80086100D01*
X165331319Y-80086100D01*
X165398358Y-80105785D01*
X165444113Y-80158589D01*
X165454057Y-80227747D01*
X165431637Y-80282986D01*
X165370301Y-80367406D01*
X165286016Y-80532826D01*
X165228642Y-80709403D01*
X165199600Y-80892765D01*
X165199600Y-81078434D01*
X165228642Y-81261796D01*
X165228643Y-81261800D01*
X165286015Y-81438371D01*
X165370301Y-81603793D01*
X165479428Y-81753993D01*
X165610707Y-81885272D01*
X165760907Y-81994399D01*
X165926329Y-82078685D01*
X166102900Y-82136057D01*
X166166025Y-82146055D01*
X166286266Y-82165100D01*
X166286271Y-82165100D01*
X166471934Y-82165100D01*
X166573801Y-82148965D01*
X166655300Y-82136057D01*
X166831871Y-82078685D01*
X166997293Y-81994399D01*
X167147493Y-81885272D01*
X167278772Y-81753993D01*
X167387899Y-81603793D01*
X167472185Y-81438371D01*
X167529557Y-81261800D01*
X167529558Y-81261796D01*
X167531062Y-81257167D01*
X167533247Y-81257877D01*
X167563303Y-81205514D01*
X167625324Y-81173340D01*
X167694894Y-81179805D01*
X167749924Y-81222856D01*
X167765792Y-81257604D01*
X167767138Y-81257167D01*
X167768642Y-81261796D01*
X167768643Y-81261800D01*
X167826015Y-81438371D01*
X167910301Y-81603793D01*
X168019428Y-81753993D01*
X168150707Y-81885272D01*
X168300907Y-81994399D01*
X168466329Y-82078685D01*
X168642900Y-82136057D01*
X168706025Y-82146055D01*
X168826266Y-82165100D01*
X168826271Y-82165100D01*
X169011934Y-82165100D01*
X169113801Y-82148965D01*
X169195300Y-82136057D01*
X169371871Y-82078685D01*
X169537293Y-81994399D01*
X169687493Y-81885272D01*
X169818772Y-81753993D01*
X169927899Y-81603793D01*
X170012185Y-81438371D01*
X170069557Y-81261800D01*
X170069558Y-81261796D01*
X170071062Y-81257167D01*
X170073247Y-81257877D01*
X170103303Y-81205514D01*
X170165324Y-81173340D01*
X170234894Y-81179805D01*
X170289924Y-81222856D01*
X170305792Y-81257604D01*
X170307138Y-81257167D01*
X170308642Y-81261796D01*
X170308643Y-81261800D01*
X170366015Y-81438371D01*
X170450301Y-81603793D01*
X170559428Y-81753993D01*
X170690707Y-81885272D01*
X170840907Y-81994399D01*
X171006329Y-82078685D01*
X171182900Y-82136057D01*
X171246025Y-82146055D01*
X171366266Y-82165100D01*
X171366271Y-82165100D01*
X171551934Y-82165100D01*
X171653801Y-82148965D01*
X171735300Y-82136057D01*
X171911871Y-82078685D01*
X172077293Y-81994399D01*
X172227493Y-81885272D01*
X172358772Y-81753993D01*
X172467899Y-81603793D01*
X172552185Y-81438371D01*
X172609557Y-81261800D01*
X172609558Y-81261796D01*
X172611062Y-81257167D01*
X172613247Y-81257877D01*
X172643303Y-81205514D01*
X172705324Y-81173340D01*
X172774894Y-81179805D01*
X172829924Y-81222856D01*
X172845792Y-81257604D01*
X172847138Y-81257167D01*
X172848642Y-81261796D01*
X172848643Y-81261800D01*
X172906015Y-81438371D01*
X172990301Y-81603793D01*
X173099428Y-81753993D01*
X173230707Y-81885272D01*
X173380907Y-81994399D01*
X173546329Y-82078685D01*
X173722900Y-82136057D01*
X173786025Y-82146055D01*
X173906266Y-82165100D01*
X173906271Y-82165100D01*
X174091934Y-82165100D01*
X174193801Y-82148965D01*
X174275300Y-82136057D01*
X174451871Y-82078685D01*
X174617293Y-81994399D01*
X174767493Y-81885272D01*
X174898772Y-81753993D01*
X175007899Y-81603793D01*
X175092185Y-81438371D01*
X175149557Y-81261800D01*
X175149558Y-81261796D01*
X175151062Y-81257167D01*
X175153247Y-81257877D01*
X175183303Y-81205514D01*
X175245324Y-81173340D01*
X175314894Y-81179805D01*
X175369924Y-81222856D01*
X175385792Y-81257604D01*
X175387138Y-81257167D01*
X175388642Y-81261796D01*
X175388643Y-81261800D01*
X175446015Y-81438371D01*
X175530301Y-81603793D01*
X175639428Y-81753993D01*
X175770707Y-81885272D01*
X175920907Y-81994399D01*
X176086329Y-82078685D01*
X176262900Y-82136057D01*
X176326025Y-82146055D01*
X176446266Y-82165100D01*
X176446271Y-82165100D01*
X176631934Y-82165100D01*
X176733801Y-82148965D01*
X176815300Y-82136057D01*
X176991871Y-82078685D01*
X177157293Y-81994399D01*
X177307493Y-81885272D01*
X177438772Y-81753993D01*
X177547899Y-81603793D01*
X177632185Y-81438371D01*
X177689557Y-81261800D01*
X177689558Y-81261796D01*
X177691062Y-81257167D01*
X177693247Y-81257877D01*
X177723303Y-81205514D01*
X177785324Y-81173340D01*
X177854894Y-81179805D01*
X177909924Y-81222856D01*
X177925792Y-81257604D01*
X177927138Y-81257167D01*
X177928642Y-81261796D01*
X177928643Y-81261800D01*
X177986015Y-81438371D01*
X178070301Y-81603793D01*
X178179428Y-81753993D01*
X178310707Y-81885272D01*
X178460907Y-81994399D01*
X178626329Y-82078685D01*
X178802900Y-82136057D01*
X178866025Y-82146055D01*
X178986266Y-82165100D01*
X178986271Y-82165100D01*
X179171934Y-82165100D01*
X179273801Y-82148965D01*
X179355300Y-82136057D01*
X179531871Y-82078685D01*
X179697293Y-81994399D01*
X179847493Y-81885272D01*
X179978772Y-81753993D01*
X180087899Y-81603793D01*
X180172185Y-81438371D01*
X180229557Y-81261800D01*
X180229558Y-81261796D01*
X180231062Y-81257167D01*
X180233247Y-81257877D01*
X180263303Y-81205514D01*
X180325324Y-81173340D01*
X180394894Y-81179805D01*
X180449924Y-81222856D01*
X180465792Y-81257604D01*
X180467138Y-81257167D01*
X180468642Y-81261796D01*
X180468643Y-81261800D01*
X180526015Y-81438371D01*
X180610301Y-81603793D01*
X180719428Y-81753993D01*
X180850707Y-81885272D01*
X181000907Y-81994399D01*
X181166329Y-82078685D01*
X181342900Y-82136057D01*
X181406025Y-82146055D01*
X181526266Y-82165100D01*
X181526271Y-82165100D01*
X181711934Y-82165100D01*
X181813801Y-82148965D01*
X181895300Y-82136057D01*
X182071871Y-82078685D01*
X182237293Y-81994399D01*
X182387493Y-81885272D01*
X182518772Y-81753993D01*
X182627899Y-81603793D01*
X182712185Y-81438371D01*
X182769557Y-81261800D01*
X182769558Y-81261796D01*
X182771062Y-81257167D01*
X182773247Y-81257877D01*
X182803303Y-81205514D01*
X182865324Y-81173340D01*
X182934894Y-81179805D01*
X182989924Y-81222856D01*
X183005792Y-81257604D01*
X183007138Y-81257167D01*
X183008642Y-81261796D01*
X183008643Y-81261800D01*
X183066015Y-81438371D01*
X183150301Y-81603793D01*
X183259428Y-81753993D01*
X183390707Y-81885272D01*
X183540907Y-81994399D01*
X183706329Y-82078685D01*
X183882900Y-82136057D01*
X183946025Y-82146055D01*
X184066266Y-82165100D01*
X184066271Y-82165100D01*
X184251934Y-82165100D01*
X184353801Y-82148965D01*
X184435300Y-82136057D01*
X184611871Y-82078685D01*
X184777293Y-81994399D01*
X184927493Y-81885272D01*
X185058772Y-81753993D01*
X185167899Y-81603793D01*
X185252185Y-81438371D01*
X185309557Y-81261800D01*
X185334093Y-81106888D01*
X185338600Y-81078434D01*
X185338600Y-80892765D01*
X185311971Y-80724644D01*
X185309557Y-80709400D01*
X185252185Y-80532829D01*
X185167899Y-80367407D01*
X185058772Y-80217207D01*
X184927493Y-80085928D01*
X184777293Y-79976801D01*
X184611871Y-79892515D01*
X184435300Y-79835143D01*
X184435298Y-79835142D01*
X184435296Y-79835142D01*
X184251934Y-79806100D01*
X184251929Y-79806100D01*
X184066271Y-79806100D01*
X184066266Y-79806100D01*
X183882903Y-79835142D01*
X183706326Y-79892516D01*
X183540906Y-79976801D01*
X183455211Y-80039062D01*
X183390707Y-80085928D01*
X183390705Y-80085930D01*
X183390704Y-80085930D01*
X183259430Y-80217204D01*
X183259430Y-80217205D01*
X183259428Y-80217207D01*
X183212562Y-80281711D01*
X183150301Y-80367406D01*
X183066016Y-80532826D01*
X183066015Y-80532828D01*
X183066015Y-80532829D01*
X183014780Y-80690514D01*
X183007138Y-80714033D01*
X183004964Y-80713326D01*
X182974852Y-80765729D01*
X182912814Y-80797871D01*
X182843248Y-80791371D01*
X182788239Y-80748292D01*
X182772395Y-80713599D01*
X182771062Y-80714033D01*
X182769557Y-80709400D01*
X182712185Y-80532829D01*
X182627899Y-80367407D01*
X182518772Y-80217207D01*
X182387493Y-80085928D01*
X182237293Y-79976801D01*
X182071871Y-79892515D01*
X181895300Y-79835143D01*
X181895298Y-79835142D01*
X181895296Y-79835142D01*
X181711934Y-79806100D01*
X181711929Y-79806100D01*
X181526271Y-79806100D01*
X181526266Y-79806100D01*
X181342903Y-79835142D01*
X181166326Y-79892516D01*
X181000906Y-79976801D01*
X180915211Y-80039062D01*
X180850707Y-80085928D01*
X180850705Y-80085930D01*
X180850704Y-80085930D01*
X180719430Y-80217204D01*
X180719430Y-80217205D01*
X180719428Y-80217207D01*
X180672562Y-80281711D01*
X180610301Y-80367406D01*
X180526016Y-80532826D01*
X180526015Y-80532828D01*
X180526015Y-80532829D01*
X180474780Y-80690514D01*
X180467138Y-80714033D01*
X180464964Y-80713326D01*
X180434852Y-80765729D01*
X180372814Y-80797871D01*
X180303248Y-80791371D01*
X180248239Y-80748292D01*
X180232395Y-80713599D01*
X180231062Y-80714033D01*
X180229557Y-80709400D01*
X180172185Y-80532829D01*
X180087899Y-80367407D01*
X179978772Y-80217207D01*
X179847493Y-80085928D01*
X179697293Y-79976801D01*
X179531871Y-79892515D01*
X179355300Y-79835143D01*
X179355298Y-79835142D01*
X179355296Y-79835142D01*
X179171934Y-79806100D01*
X179171929Y-79806100D01*
X178986271Y-79806100D01*
X178986266Y-79806100D01*
X178802903Y-79835142D01*
X178626326Y-79892516D01*
X178460906Y-79976801D01*
X178375211Y-80039062D01*
X178310707Y-80085928D01*
X178310705Y-80085930D01*
X178310704Y-80085930D01*
X178179430Y-80217204D01*
X178179430Y-80217205D01*
X178179428Y-80217207D01*
X178132562Y-80281711D01*
X178070301Y-80367406D01*
X177986016Y-80532826D01*
X177986015Y-80532828D01*
X177986015Y-80532829D01*
X177934780Y-80690514D01*
X177927138Y-80714033D01*
X177924964Y-80713326D01*
X177894852Y-80765729D01*
X177832814Y-80797871D01*
X177763248Y-80791371D01*
X177708239Y-80748292D01*
X177692395Y-80713599D01*
X177691062Y-80714033D01*
X177689557Y-80709400D01*
X177632185Y-80532829D01*
X177547899Y-80367407D01*
X177438772Y-80217207D01*
X177307493Y-80085928D01*
X177157293Y-79976801D01*
X176991871Y-79892515D01*
X176815300Y-79835143D01*
X176815298Y-79835142D01*
X176815296Y-79835142D01*
X176631934Y-79806100D01*
X176631929Y-79806100D01*
X176446271Y-79806100D01*
X176446266Y-79806100D01*
X176303702Y-79828680D01*
X176234409Y-79819725D01*
X176196623Y-79793888D01*
X175526690Y-79123955D01*
X175526688Y-79123952D01*
X175407817Y-79005081D01*
X175407816Y-79005080D01*
X175321004Y-78954960D01*
X175321004Y-78954959D01*
X175321000Y-78954958D01*
X175270885Y-78926023D01*
X175118157Y-78885099D01*
X174960043Y-78885099D01*
X174952447Y-78885099D01*
X174952431Y-78885100D01*
X146259839Y-78885100D01*
X146259823Y-78885099D01*
X146252227Y-78885099D01*
X146094113Y-78885099D01*
X145986757Y-78913865D01*
X145941380Y-78926024D01*
X145941379Y-78926025D01*
X145891266Y-78954959D01*
X145891265Y-78954960D01*
X145847859Y-78980020D01*
X145804455Y-79005079D01*
X145804452Y-79005081D01*
X145692648Y-79116886D01*
X144593230Y-80216303D01*
X144531907Y-80249788D01*
X144462215Y-80244804D01*
X144417868Y-80216303D01*
X144287495Y-80085930D01*
X144287493Y-80085928D01*
X144137293Y-79976801D01*
X143971871Y-79892515D01*
X143795300Y-79835143D01*
X143795298Y-79835142D01*
X143795296Y-79835142D01*
X143611934Y-79806100D01*
X143611929Y-79806100D01*
X143426271Y-79806100D01*
X143426266Y-79806100D01*
X143242903Y-79835142D01*
X143066326Y-79892516D01*
X142900906Y-79976801D01*
X142815211Y-80039062D01*
X142750707Y-80085928D01*
X142750705Y-80085930D01*
X142750704Y-80085930D01*
X142619430Y-80217204D01*
X142619430Y-80217205D01*
X142619428Y-80217207D01*
X142572562Y-80281711D01*
X142510301Y-80367406D01*
X142426016Y-80532826D01*
X142368642Y-80709403D01*
X142339600Y-80892765D01*
X142339600Y-81078434D01*
X142368642Y-81261796D01*
X142368643Y-81261800D01*
X142426015Y-81438371D01*
X142510301Y-81603793D01*
X142619428Y-81753993D01*
X142750707Y-81885272D01*
X142900907Y-81994399D01*
X143066329Y-82078685D01*
X143242900Y-82136057D01*
X143306025Y-82146055D01*
X143426266Y-82165100D01*
X143426271Y-82165100D01*
X143611933Y-82165100D01*
X143700325Y-82151099D01*
X143795203Y-82136072D01*
X143864495Y-82145026D01*
X143917947Y-82190022D01*
X143938587Y-82256774D01*
X143938600Y-82258545D01*
X143938600Y-84171433D01*
X143918915Y-84238472D01*
X143902281Y-84259114D01*
X136875614Y-91285781D01*
X136814291Y-91319266D01*
X136787933Y-91322100D01*
X131068656Y-91322100D01*
X131001617Y-91302415D01*
X130968338Y-91270986D01*
X130944684Y-91238429D01*
X130874027Y-91141178D01*
X130740522Y-91007673D01*
X130587775Y-90896696D01*
X130565017Y-90885100D01*
X130419552Y-90810981D01*
X130239984Y-90752635D01*
X130078999Y-90727138D01*
X130053503Y-90723100D01*
X129864697Y-90723100D01*
X129842267Y-90726652D01*
X129678215Y-90752635D01*
X129498647Y-90810981D01*
X129330424Y-90896696D01*
X129177675Y-91007675D01*
X129044175Y-91141175D01*
X128933196Y-91293924D01*
X128847481Y-91462147D01*
X128789135Y-91641715D01*
X128759600Y-91828197D01*
X128759600Y-92017002D01*
X128789135Y-92203484D01*
X128847481Y-92383052D01*
X128923096Y-92531452D01*
X128933196Y-92551275D01*
X129044173Y-92704022D01*
X129177678Y-92837527D01*
X129330425Y-92948504D01*
X129341314Y-92954052D01*
X129498647Y-93034218D01*
X129498649Y-93034218D01*
X129498652Y-93034220D01*
X129566447Y-93056248D01*
X129623140Y-93074669D01*
X129680815Y-93114107D01*
X129708013Y-93178466D01*
X129696098Y-93247312D01*
X129648854Y-93298788D01*
X129623140Y-93310531D01*
X129498647Y-93350981D01*
X129330424Y-93436696D01*
X129177675Y-93547675D01*
X129044175Y-93681175D01*
X128933196Y-93833924D01*
X128847481Y-94002147D01*
X128789136Y-94181714D01*
X128773668Y-94279373D01*
X128759600Y-94368197D01*
X128759600Y-94557003D01*
X128763638Y-94582499D01*
X128789135Y-94743484D01*
X128847481Y-94923052D01*
X128889271Y-95005068D01*
X128933196Y-95091275D01*
X129044173Y-95244022D01*
X129177678Y-95377527D01*
X129330425Y-95488504D01*
X129366172Y-95506718D01*
X129498647Y-95574218D01*
X129498649Y-95574218D01*
X129498652Y-95574220D01*
X129535215Y-95586100D01*
X129623140Y-95614669D01*
X129680815Y-95654107D01*
X129708013Y-95718466D01*
X129696098Y-95787312D01*
X129648854Y-95838788D01*
X129623140Y-95850531D01*
X129498647Y-95890981D01*
X129330424Y-95976696D01*
X129177675Y-96087675D01*
X129044175Y-96221175D01*
X128933196Y-96373924D01*
X128847481Y-96542147D01*
X128789135Y-96721715D01*
X128759600Y-96908197D01*
X128759600Y-97097002D01*
X128789135Y-97283484D01*
X128847481Y-97463052D01*
X128915457Y-97596461D01*
X128933196Y-97631275D01*
X129044173Y-97784022D01*
X129177678Y-97917527D01*
X129330425Y-98028504D01*
X129394636Y-98061221D01*
X129498647Y-98114218D01*
X129498649Y-98114218D01*
X129498652Y-98114220D01*
X129529109Y-98124116D01*
X129623140Y-98154669D01*
X129680815Y-98194107D01*
X129708013Y-98258466D01*
X129696098Y-98327312D01*
X129648854Y-98378788D01*
X129623140Y-98390531D01*
X129498647Y-98430981D01*
X129330424Y-98516696D01*
X129177675Y-98627675D01*
X129044175Y-98761175D01*
X128933196Y-98913924D01*
X128847481Y-99082147D01*
X128789135Y-99261715D01*
X128759600Y-99448197D01*
X128759600Y-99637002D01*
X128789135Y-99823484D01*
X128847481Y-100003052D01*
X128907782Y-100121397D01*
X128933196Y-100171275D01*
X129044173Y-100324022D01*
X129177678Y-100457527D01*
X129330425Y-100568504D01*
X129394636Y-100601221D01*
X129498647Y-100654218D01*
X129498649Y-100654218D01*
X129498652Y-100654220D01*
X129594902Y-100685493D01*
X129678215Y-100712564D01*
X129738606Y-100722129D01*
X129864697Y-100742100D01*
X129864698Y-100742100D01*
X130053501Y-100742100D01*
X130053503Y-100742100D01*
X130211979Y-100716999D01*
X130217402Y-100717700D01*
X130222529Y-100715788D01*
X130251679Y-100722129D01*
X130281270Y-100725953D01*
X130286875Y-100729785D01*
X130290802Y-100730640D01*
X130319056Y-100751791D01*
X130485184Y-100917919D01*
X130518669Y-100979242D01*
X130513685Y-101048934D01*
X130471813Y-101104867D01*
X130406349Y-101129284D01*
X130397503Y-101129600D01*
X130086100Y-101129600D01*
X130086100Y-101588638D01*
X130026243Y-101572600D01*
X129891957Y-101572600D01*
X129832100Y-101588638D01*
X129832100Y-101129600D01*
X129235085Y-101129600D01*
X129160993Y-101144337D01*
X129160990Y-101144338D01*
X129076976Y-101200476D01*
X129020836Y-101284495D01*
X129020835Y-101284496D01*
X129006100Y-101358578D01*
X129006100Y-101955600D01*
X129465138Y-101955600D01*
X129449100Y-102015457D01*
X129449100Y-102149743D01*
X129465138Y-102209600D01*
X129006101Y-102209600D01*
X129006101Y-102806614D01*
X129020837Y-102880706D01*
X129020838Y-102880709D01*
X129076976Y-102964723D01*
X129160995Y-103020863D01*
X129160996Y-103020864D01*
X129235080Y-103035599D01*
X129832099Y-103035599D01*
X129832100Y-103035598D01*
X129832100Y-102576561D01*
X129891957Y-102592600D01*
X130026243Y-102592600D01*
X130086100Y-102576561D01*
X130086100Y-103035599D01*
X130683115Y-103035599D01*
X130757206Y-103020862D01*
X130757209Y-103020861D01*
X130841223Y-102964723D01*
X130897363Y-102880704D01*
X130897364Y-102880703D01*
X130912099Y-102806621D01*
X130912100Y-102806618D01*
X130912100Y-102209600D01*
X130453062Y-102209600D01*
X130469100Y-102149743D01*
X130469100Y-102015457D01*
X130453062Y-101955600D01*
X130912099Y-101955600D01*
X130912099Y-101644196D01*
X130931784Y-101577157D01*
X130984588Y-101531402D01*
X131053746Y-101521458D01*
X131117302Y-101550483D01*
X131123774Y-101556509D01*
X132533384Y-102966120D01*
X132533386Y-102966121D01*
X132533390Y-102966124D01*
X132653726Y-103035599D01*
X132670316Y-103045177D01*
X132823043Y-103086101D01*
X132823045Y-103086101D01*
X132988754Y-103086101D01*
X132988770Y-103086100D01*
X149586503Y-103086100D01*
X149653542Y-103105785D01*
X149674184Y-103122419D01*
X152539997Y-105988232D01*
X152573482Y-106049555D01*
X152570247Y-106114231D01*
X152537878Y-106213853D01*
X152502100Y-106439746D01*
X152502100Y-106668453D01*
X152537878Y-106894346D01*
X152537878Y-106894349D01*
X152608550Y-107111855D01*
X152630022Y-107153996D01*
X152712383Y-107315638D01*
X152846814Y-107500666D01*
X153008534Y-107662386D01*
X153062304Y-107701452D01*
X153114028Y-107739032D01*
X153156693Y-107794362D01*
X153162672Y-107863976D01*
X153130066Y-107925771D01*
X153114028Y-107939667D01*
X153008534Y-108016314D01*
X153008532Y-108016316D01*
X153008531Y-108016316D01*
X152846816Y-108178031D01*
X152846816Y-108178032D01*
X152846814Y-108178034D01*
X152789080Y-108257496D01*
X152712383Y-108363061D01*
X152608550Y-108566844D01*
X152537878Y-108784350D01*
X152537878Y-108784353D01*
X152502100Y-109010246D01*
X152502100Y-109238953D01*
X152537878Y-109464846D01*
X152537878Y-109464849D01*
X152608550Y-109682355D01*
X152681369Y-109825269D01*
X152712383Y-109886138D01*
X152846814Y-110071166D01*
X153008534Y-110232886D01*
X153193562Y-110367317D01*
X153397342Y-110471148D01*
X153397344Y-110471149D01*
X153614851Y-110541821D01*
X153614852Y-110541821D01*
X153614855Y-110541822D01*
X153840746Y-110577600D01*
X153840747Y-110577600D01*
X154069453Y-110577600D01*
X154069454Y-110577600D01*
X154295345Y-110541822D01*
X154295348Y-110541821D01*
X154295349Y-110541821D01*
X154512855Y-110471149D01*
X154512855Y-110471148D01*
X154512858Y-110471148D01*
X154716638Y-110367317D01*
X154901666Y-110232886D01*
X155063386Y-110071166D01*
X155197817Y-109886138D01*
X155301648Y-109682358D01*
X155321002Y-109622792D01*
X155372321Y-109464849D01*
X155372321Y-109464848D01*
X155372322Y-109464845D01*
X155408100Y-109238954D01*
X155408100Y-109010246D01*
X155372322Y-108784355D01*
X155372321Y-108784351D01*
X155372321Y-108784350D01*
X155301649Y-108566844D01*
X155197816Y-108363061D01*
X155157380Y-108307406D01*
X155063386Y-108178034D01*
X154901666Y-108016314D01*
X154796171Y-107939667D01*
X154753506Y-107884338D01*
X154747527Y-107814725D01*
X154780133Y-107752930D01*
X154796172Y-107739032D01*
X154847896Y-107701452D01*
X154901666Y-107662386D01*
X155063386Y-107500666D01*
X155197817Y-107315638D01*
X155301648Y-107111858D01*
X155372322Y-106894345D01*
X155408100Y-106668454D01*
X155408100Y-106439746D01*
X155372322Y-106213855D01*
X155372321Y-106213851D01*
X155372321Y-106213850D01*
X155301649Y-105996344D01*
X155275493Y-105945010D01*
X155197817Y-105792562D01*
X155063386Y-105607534D01*
X154901666Y-105445814D01*
X154716638Y-105311383D01*
X154512855Y-105207550D01*
X154295348Y-105136878D01*
X154125926Y-105110044D01*
X154069454Y-105101100D01*
X153840746Y-105101100D01*
X153765449Y-105113026D01*
X153614853Y-105136878D01*
X153515231Y-105169247D01*
X153445389Y-105171242D01*
X153389232Y-105138997D01*
X150374190Y-102123955D01*
X150374188Y-102123952D01*
X150255317Y-102005081D01*
X150255316Y-102005080D01*
X150168504Y-101954960D01*
X150168504Y-101954959D01*
X150168500Y-101954958D01*
X150118385Y-101926023D01*
X149965657Y-101885099D01*
X149807543Y-101885099D01*
X149799947Y-101885099D01*
X149799931Y-101885100D01*
X133202198Y-101885100D01*
X133135159Y-101865415D01*
X133114517Y-101848781D01*
X131168291Y-99902556D01*
X131134806Y-99841233D01*
X131133499Y-99795481D01*
X131158600Y-99637003D01*
X131158600Y-99448197D01*
X131143614Y-99353581D01*
X131152568Y-99284290D01*
X131197564Y-99230838D01*
X131264316Y-99210198D01*
X131331630Y-99228923D01*
X131353768Y-99246504D01*
X133573384Y-101466120D01*
X133573386Y-101466121D01*
X133573390Y-101466124D01*
X133669233Y-101521458D01*
X133710316Y-101545177D01*
X133863043Y-101586101D01*
X133863045Y-101586101D01*
X134028754Y-101586101D01*
X134028770Y-101586100D01*
X155452431Y-101586100D01*
X155452447Y-101586101D01*
X155460043Y-101586101D01*
X155618154Y-101586101D01*
X155618157Y-101586101D01*
X155770885Y-101545177D01*
X155821004Y-101516239D01*
X155907816Y-101466120D01*
X156019620Y-101354316D01*
X156019620Y-101354314D01*
X156029828Y-101344107D01*
X156029829Y-101344104D01*
X161696496Y-95677439D01*
X161757819Y-95643954D01*
X161784177Y-95641120D01*
X165859313Y-95641120D01*
X165926352Y-95660805D01*
X165972107Y-95713609D01*
X165982051Y-95782767D01*
X165967433Y-95823271D01*
X165968368Y-95823748D01*
X165966156Y-95828088D01*
X165966156Y-95828089D01*
X165876509Y-96004029D01*
X165876508Y-96004031D01*
X165815489Y-96191826D01*
X165784600Y-96386853D01*
X165784600Y-96584326D01*
X165816252Y-96784165D01*
X165814504Y-96784441D01*
X165811394Y-96846615D01*
X165781992Y-96893460D01*
X163670386Y-99005068D01*
X163558581Y-99116872D01*
X163558579Y-99116875D01*
X163525667Y-99173882D01*
X163525666Y-99173884D01*
X163479523Y-99253804D01*
X163479523Y-99253805D01*
X163438599Y-99406533D01*
X163438599Y-99406535D01*
X163438599Y-99574636D01*
X163438600Y-99574649D01*
X163438600Y-121685503D01*
X163418915Y-121752542D01*
X163402281Y-121773184D01*
X159326684Y-125848781D01*
X159265361Y-125882266D01*
X159239003Y-125885100D01*
X136040040Y-125885100D01*
X135999119Y-125896064D01*
X135999119Y-125896065D01*
X135961851Y-125906051D01*
X135887314Y-125926023D01*
X135887309Y-125926026D01*
X135750390Y-126005075D01*
X135750382Y-126005081D01*
X135638578Y-126116886D01*
X133701575Y-128053888D01*
X133640252Y-128087373D01*
X133594496Y-128088680D01*
X133451934Y-128066100D01*
X133451929Y-128066100D01*
X133266271Y-128066100D01*
X133266266Y-128066100D01*
X133082903Y-128095142D01*
X132906326Y-128152516D01*
X132740906Y-128236801D01*
X132655211Y-128299062D01*
X132590707Y-128345928D01*
X132590705Y-128345930D01*
X132590704Y-128345930D01*
X132459430Y-128477204D01*
X132459430Y-128477205D01*
X132459428Y-128477207D01*
X132412562Y-128541711D01*
X132350301Y-128627406D01*
X132266016Y-128792826D01*
X132266015Y-128792828D01*
X132266015Y-128792829D01*
X132212953Y-128956137D01*
X132207138Y-128974033D01*
X132204964Y-128973326D01*
X132174852Y-129025729D01*
X132112814Y-129057871D01*
X132043248Y-129051371D01*
X131988239Y-129008292D01*
X131972395Y-128973599D01*
X131971062Y-128974033D01*
X131969557Y-128969400D01*
X131912185Y-128792829D01*
X131827899Y-128627407D01*
X131718772Y-128477207D01*
X131587493Y-128345928D01*
X131437293Y-128236801D01*
X131271871Y-128152515D01*
X131095300Y-128095143D01*
X131095298Y-128095142D01*
X131095296Y-128095142D01*
X130911934Y-128066100D01*
X130911929Y-128066100D01*
X130726271Y-128066100D01*
X130726266Y-128066100D01*
X130542903Y-128095142D01*
X130366326Y-128152516D01*
X130200906Y-128236801D01*
X130115211Y-128299062D01*
X130050707Y-128345928D01*
X130050705Y-128345930D01*
X130050704Y-128345930D01*
X129919430Y-128477204D01*
X129919430Y-128477205D01*
X129919428Y-128477207D01*
X129872562Y-128541711D01*
X129810301Y-128627406D01*
X129726016Y-128792826D01*
X129726015Y-128792828D01*
X129726015Y-128792829D01*
X129672953Y-128956137D01*
X129667138Y-128974033D01*
X129664964Y-128973326D01*
X129634852Y-129025729D01*
X129572814Y-129057871D01*
X129503248Y-129051371D01*
X129448239Y-129008292D01*
X129432395Y-128973599D01*
X129431062Y-128974033D01*
X129429557Y-128969400D01*
X129372185Y-128792829D01*
X129287899Y-128627407D01*
X129178772Y-128477207D01*
X129047493Y-128345928D01*
X128897293Y-128236801D01*
X128731871Y-128152515D01*
X128555300Y-128095143D01*
X128555298Y-128095142D01*
X128555296Y-128095142D01*
X128371934Y-128066100D01*
X128371929Y-128066100D01*
X128186271Y-128066100D01*
X128186266Y-128066100D01*
X128002903Y-128095142D01*
X127826326Y-128152516D01*
X127660906Y-128236801D01*
X127575211Y-128299062D01*
X127510707Y-128345928D01*
X127510705Y-128345930D01*
X127510704Y-128345930D01*
X127379430Y-128477204D01*
X127379430Y-128477205D01*
X127379428Y-128477207D01*
X127332562Y-128541711D01*
X127270301Y-128627406D01*
X127186016Y-128792824D01*
X127160530Y-128871264D01*
X127121092Y-128928939D01*
X127056733Y-128956137D01*
X126987887Y-128944222D01*
X126936411Y-128896978D01*
X126918599Y-128832945D01*
X126918599Y-128518729D01*
X126918598Y-128518723D01*
X126918597Y-128518716D01*
X126912191Y-128459117D01*
X126869974Y-128345928D01*
X126861897Y-128324271D01*
X126861893Y-128324264D01*
X126775647Y-128209055D01*
X126775644Y-128209052D01*
X126660435Y-128122806D01*
X126660428Y-128122802D01*
X126525582Y-128072508D01*
X126525583Y-128072508D01*
X126465983Y-128066101D01*
X126465981Y-128066100D01*
X126465973Y-128066100D01*
X126465964Y-128066100D01*
X125012229Y-128066100D01*
X125012223Y-128066101D01*
X124952616Y-128072508D01*
X124817771Y-128122802D01*
X124817764Y-128122806D01*
X124702555Y-128209052D01*
X124702552Y-128209055D01*
X124616306Y-128324264D01*
X124616302Y-128324271D01*
X124566008Y-128459117D01*
X124559601Y-128518716D01*
X124559601Y-128518723D01*
X124559600Y-128518735D01*
X113470990Y-128518735D01*
X113432327Y-128425394D01*
X113432322Y-128425385D01*
X113387907Y-128348456D01*
X113311036Y-128215311D01*
X113240053Y-128122804D01*
X113163366Y-128022863D01*
X113163360Y-128022856D01*
X112991843Y-127851339D01*
X112991836Y-127851333D01*
X112799393Y-127703667D01*
X112799392Y-127703666D01*
X112799389Y-127703664D01*
X112589312Y-127582376D01*
X112589305Y-127582373D01*
X112365204Y-127489547D01*
X112130885Y-127426761D01*
X111890389Y-127395100D01*
X111890388Y-127395100D01*
X111647812Y-127395100D01*
X111647811Y-127395100D01*
X111407314Y-127426761D01*
X111172995Y-127489547D01*
X110948894Y-127582373D01*
X110948885Y-127582377D01*
X110738806Y-127703667D01*
X110546363Y-127851333D01*
X110546356Y-127851339D01*
X110374839Y-128022856D01*
X110374833Y-128022863D01*
X110227167Y-128215306D01*
X110105877Y-128425385D01*
X110105873Y-128425394D01*
X110013047Y-128649495D01*
X109950261Y-128883814D01*
X109918600Y-129124311D01*
X97947600Y-129124311D01*
X97947600Y-119761041D01*
X106638600Y-119761041D01*
X106638600Y-120010158D01*
X106638601Y-120010175D01*
X106668804Y-120239593D01*
X106671118Y-120257165D01*
X106724519Y-120456461D01*
X106735598Y-120497807D01*
X106830930Y-120727961D01*
X106830937Y-120727976D01*
X106955500Y-120943726D01*
X107107160Y-121141374D01*
X107107166Y-121141381D01*
X107283318Y-121317533D01*
X107283325Y-121317539D01*
X107480973Y-121469199D01*
X107696723Y-121593762D01*
X107696738Y-121593769D01*
X107795925Y-121634853D01*
X107926893Y-121689102D01*
X108167535Y-121753582D01*
X108414535Y-121786100D01*
X108414542Y-121786100D01*
X108663658Y-121786100D01*
X108663665Y-121786100D01*
X108910665Y-121753582D01*
X109151307Y-121689102D01*
X109381473Y-121593764D01*
X109398137Y-121584143D01*
X126538599Y-121584143D01*
X126577047Y-121777429D01*
X126577050Y-121777439D01*
X126652464Y-121959507D01*
X126652471Y-121959520D01*
X126761960Y-122123381D01*
X126761963Y-122123385D01*
X126901314Y-122262736D01*
X126901318Y-122262739D01*
X127065179Y-122372228D01*
X127065192Y-122372235D01*
X127247260Y-122447649D01*
X127247265Y-122447651D01*
X127247269Y-122447651D01*
X127247270Y-122447652D01*
X127440556Y-122486100D01*
X127440559Y-122486100D01*
X127637643Y-122486100D01*
X127767682Y-122460232D01*
X127830935Y-122447651D01*
X127887776Y-122424107D01*
X127939427Y-122402713D01*
X128013007Y-122372235D01*
X128013007Y-122372234D01*
X128013014Y-122372232D01*
X128176882Y-122262739D01*
X128316239Y-122123382D01*
X128425732Y-121959514D01*
X128501151Y-121777435D01*
X128519438Y-121685503D01*
X128539600Y-121584143D01*
X128539600Y-121527119D01*
X128559285Y-121460080D01*
X128575919Y-121439438D01*
X130063711Y-119951646D01*
X152748600Y-119951646D01*
X152748600Y-120141553D01*
X152778308Y-120329124D01*
X152836990Y-120509732D01*
X152836992Y-120509735D01*
X152923208Y-120678944D01*
X153015761Y-120806331D01*
X153015762Y-120806332D01*
X153523334Y-120298759D01*
X153555001Y-120353607D01*
X153648093Y-120446699D01*
X153702939Y-120478364D01*
X153195366Y-120985937D01*
X153322755Y-121078491D01*
X153491964Y-121164707D01*
X153491967Y-121164709D01*
X153643420Y-121213919D01*
X153701096Y-121253356D01*
X153728294Y-121317715D01*
X153716379Y-121386561D01*
X153669135Y-121438037D01*
X153643420Y-121449781D01*
X153491967Y-121498990D01*
X153491964Y-121498992D01*
X153322752Y-121585210D01*
X153195367Y-121677760D01*
X153195366Y-121677761D01*
X153702940Y-122185334D01*
X153648093Y-122217001D01*
X153555001Y-122310093D01*
X153523335Y-122364940D01*
X153015761Y-121857366D01*
X153015760Y-121857367D01*
X152923210Y-121984752D01*
X152836992Y-122153964D01*
X152836990Y-122153967D01*
X152778308Y-122334575D01*
X152748600Y-122522146D01*
X152748600Y-122712053D01*
X152778308Y-122899624D01*
X152836990Y-123080232D01*
X152836992Y-123080235D01*
X152923208Y-123249444D01*
X153015761Y-123376831D01*
X153015762Y-123376832D01*
X153523334Y-122869259D01*
X153555001Y-122924107D01*
X153648093Y-123017199D01*
X153702939Y-123048864D01*
X153195366Y-123556437D01*
X153322755Y-123648991D01*
X153491964Y-123735207D01*
X153491967Y-123735209D01*
X153672575Y-123793891D01*
X153860147Y-123823600D01*
X154050053Y-123823600D01*
X154237624Y-123793891D01*
X154418232Y-123735209D01*
X154418235Y-123735207D01*
X154587436Y-123648995D01*
X154587442Y-123648991D01*
X154714831Y-123556437D01*
X154714832Y-123556436D01*
X154207260Y-123048864D01*
X154262107Y-123017199D01*
X154355199Y-122924107D01*
X154386864Y-122869260D01*
X154894436Y-123376832D01*
X154894437Y-123376831D01*
X154986991Y-123249442D01*
X154986995Y-123249436D01*
X155073207Y-123080235D01*
X155073209Y-123080232D01*
X155131891Y-122899624D01*
X155161600Y-122712053D01*
X155161600Y-122522146D01*
X155131891Y-122334575D01*
X155073209Y-122153967D01*
X155073207Y-122153964D01*
X154986991Y-121984755D01*
X154894437Y-121857367D01*
X154894437Y-121857366D01*
X154386864Y-122364939D01*
X154355199Y-122310093D01*
X154262107Y-122217001D01*
X154207259Y-122185334D01*
X154714832Y-121677762D01*
X154714831Y-121677761D01*
X154587444Y-121585208D01*
X154418235Y-121498992D01*
X154418232Y-121498990D01*
X154266779Y-121449781D01*
X154209104Y-121410344D01*
X154181905Y-121345985D01*
X154193819Y-121277139D01*
X154241063Y-121225663D01*
X154266779Y-121213919D01*
X154418232Y-121164709D01*
X154418235Y-121164707D01*
X154587436Y-121078495D01*
X154587442Y-121078491D01*
X154714831Y-120985937D01*
X154714832Y-120985936D01*
X154207260Y-120478364D01*
X154262107Y-120446699D01*
X154355199Y-120353607D01*
X154386864Y-120298760D01*
X154894436Y-120806332D01*
X154894437Y-120806331D01*
X154986991Y-120678942D01*
X154986995Y-120678936D01*
X155073207Y-120509735D01*
X155073209Y-120509732D01*
X155131891Y-120329124D01*
X155161600Y-120141553D01*
X155161600Y-119951646D01*
X155131891Y-119764075D01*
X155073209Y-119583467D01*
X155073207Y-119583464D01*
X154986991Y-119414255D01*
X154894437Y-119286867D01*
X154894437Y-119286866D01*
X154386864Y-119794439D01*
X154355199Y-119739593D01*
X154262107Y-119646501D01*
X154207259Y-119614834D01*
X154714832Y-119107262D01*
X154714831Y-119107261D01*
X154587444Y-119014708D01*
X154418235Y-118928492D01*
X154418232Y-118928490D01*
X154237624Y-118869808D01*
X154050053Y-118840100D01*
X153860147Y-118840100D01*
X153672575Y-118869808D01*
X153491967Y-118928490D01*
X153491964Y-118928492D01*
X153322752Y-119014710D01*
X153195367Y-119107260D01*
X153195366Y-119107261D01*
X153702940Y-119614834D01*
X153648093Y-119646501D01*
X153555001Y-119739593D01*
X153523335Y-119794440D01*
X153015761Y-119286866D01*
X153015760Y-119286867D01*
X152923210Y-119414252D01*
X152836992Y-119583464D01*
X152836990Y-119583467D01*
X152778308Y-119764075D01*
X152748600Y-119951646D01*
X130063711Y-119951646D01*
X134292938Y-115722419D01*
X134354261Y-115688934D01*
X134380619Y-115686100D01*
X161273317Y-115686100D01*
X161340356Y-115705785D01*
X161360999Y-115722420D01*
X161401314Y-115762736D01*
X161401318Y-115762739D01*
X161565179Y-115872228D01*
X161565192Y-115872235D01*
X161698391Y-115927407D01*
X161747265Y-115947651D01*
X161747269Y-115947651D01*
X161747270Y-115947652D01*
X161940556Y-115986100D01*
X161940559Y-115986100D01*
X162137643Y-115986100D01*
X162267682Y-115960232D01*
X162330935Y-115947651D01*
X162513014Y-115872232D01*
X162676882Y-115762739D01*
X162816239Y-115623382D01*
X162925732Y-115459514D01*
X163001151Y-115277435D01*
X163024728Y-115158907D01*
X163039600Y-115084143D01*
X163039600Y-114887056D01*
X163001152Y-114693770D01*
X163001151Y-114693769D01*
X163001151Y-114693765D01*
X162953080Y-114577710D01*
X162925735Y-114511692D01*
X162925728Y-114511679D01*
X162816239Y-114347818D01*
X162816236Y-114347814D01*
X162676885Y-114208463D01*
X162676881Y-114208460D01*
X162513020Y-114098971D01*
X162513007Y-114098964D01*
X162330939Y-114023550D01*
X162330929Y-114023547D01*
X162137643Y-113985100D01*
X162137641Y-113985100D01*
X161940559Y-113985100D01*
X161940557Y-113985100D01*
X161747270Y-114023547D01*
X161747260Y-114023550D01*
X161565192Y-114098964D01*
X161565179Y-114098971D01*
X161401318Y-114208460D01*
X161401314Y-114208463D01*
X161360999Y-114248780D01*
X161299676Y-114282266D01*
X161273317Y-114285100D01*
X133970103Y-114285100D01*
X133861690Y-114306665D01*
X133861689Y-114306665D01*
X133834771Y-114312020D01*
X133707290Y-114364824D01*
X133592554Y-114441487D01*
X133592553Y-114441488D01*
X127585262Y-120448781D01*
X127523939Y-120482266D01*
X127497581Y-120485100D01*
X127440557Y-120485100D01*
X127247270Y-120523547D01*
X127247260Y-120523550D01*
X127065192Y-120598964D01*
X127065179Y-120598971D01*
X126901318Y-120708460D01*
X126901314Y-120708463D01*
X126761963Y-120847814D01*
X126761960Y-120847818D01*
X126652471Y-121011679D01*
X126652464Y-121011692D01*
X126577050Y-121193760D01*
X126577047Y-121193770D01*
X126538600Y-121387056D01*
X126538600Y-121387059D01*
X126538600Y-121584141D01*
X126538600Y-121584143D01*
X126538599Y-121584143D01*
X109398137Y-121584143D01*
X109597227Y-121469199D01*
X109794876Y-121317538D01*
X109794881Y-121317533D01*
X109819129Y-121293286D01*
X109971033Y-121141381D01*
X109971038Y-121141376D01*
X110122699Y-120943727D01*
X110247264Y-120727973D01*
X110342602Y-120497807D01*
X110407082Y-120257165D01*
X110439600Y-120010165D01*
X110439600Y-119761035D01*
X110407082Y-119514035D01*
X110342602Y-119273393D01*
X110273788Y-119107261D01*
X110247269Y-119043238D01*
X110247262Y-119043223D01*
X110122699Y-118827473D01*
X109971039Y-118629825D01*
X109971033Y-118629818D01*
X109794881Y-118453666D01*
X109794874Y-118453660D01*
X109597226Y-118302000D01*
X109381476Y-118177437D01*
X109381461Y-118177430D01*
X109151307Y-118082098D01*
X108910661Y-118017617D01*
X108663675Y-117985101D01*
X108663670Y-117985100D01*
X108663665Y-117985100D01*
X108414535Y-117985100D01*
X108414529Y-117985100D01*
X108414524Y-117985101D01*
X108167538Y-118017617D01*
X107926892Y-118082098D01*
X107696738Y-118177430D01*
X107696723Y-118177437D01*
X107480973Y-118302000D01*
X107283325Y-118453660D01*
X107283318Y-118453666D01*
X107107166Y-118629818D01*
X107107160Y-118629825D01*
X106955500Y-118827473D01*
X106830937Y-119043223D01*
X106830930Y-119043238D01*
X106735598Y-119273392D01*
X106671117Y-119514038D01*
X106638601Y-119761024D01*
X106638600Y-119761041D01*
X97947600Y-119761041D01*
X97947600Y-113687373D01*
X106885100Y-113687373D01*
X106885100Y-114758600D01*
X107901628Y-114758600D01*
X107889100Y-114821581D01*
X107889100Y-114949619D01*
X107901628Y-115012600D01*
X106885100Y-115012600D01*
X106885100Y-116083826D01*
X106891553Y-116143835D01*
X106891553Y-116143837D01*
X106942201Y-116279625D01*
X107029054Y-116395645D01*
X107145074Y-116482498D01*
X107280863Y-116533146D01*
X107340873Y-116539599D01*
X107340890Y-116539600D01*
X108412100Y-116539600D01*
X108412100Y-115523072D01*
X108475081Y-115535600D01*
X108603119Y-115535600D01*
X108666100Y-115523072D01*
X108666100Y-116539600D01*
X109737310Y-116539600D01*
X109737326Y-116539599D01*
X109797335Y-116533146D01*
X109797337Y-116533146D01*
X109933125Y-116482498D01*
X110049145Y-116395645D01*
X110135998Y-116279625D01*
X110186646Y-116143837D01*
X110186646Y-116143835D01*
X110193099Y-116083826D01*
X110193100Y-116083809D01*
X110193100Y-115012600D01*
X109176572Y-115012600D01*
X109189100Y-114949619D01*
X109189100Y-114821581D01*
X109176572Y-114758600D01*
X110193100Y-114758600D01*
X110193100Y-113687390D01*
X110193099Y-113687373D01*
X110186646Y-113627364D01*
X110186646Y-113627362D01*
X110135998Y-113491574D01*
X110049145Y-113375554D01*
X109933125Y-113288701D01*
X109797336Y-113238053D01*
X109737326Y-113231600D01*
X108666100Y-113231600D01*
X108666100Y-114248127D01*
X108603119Y-114235600D01*
X108475081Y-114235600D01*
X108412100Y-114248127D01*
X108412100Y-113231600D01*
X107340873Y-113231600D01*
X107280864Y-113238053D01*
X107280862Y-113238053D01*
X107145074Y-113288701D01*
X107029054Y-113375554D01*
X106942201Y-113491574D01*
X106891553Y-113627362D01*
X106891553Y-113627364D01*
X106885100Y-113687373D01*
X97947600Y-113687373D01*
X97947600Y-80864311D01*
X111188600Y-80864311D01*
X111188600Y-81106888D01*
X111217404Y-81325684D01*
X111220262Y-81347389D01*
X111241737Y-81427534D01*
X111283047Y-81581704D01*
X111354412Y-81753993D01*
X111375876Y-81805812D01*
X111497164Y-82015889D01*
X111497166Y-82015892D01*
X111497167Y-82015893D01*
X111644833Y-82208336D01*
X111644839Y-82208343D01*
X111816356Y-82379860D01*
X111816363Y-82379866D01*
X111884977Y-82432515D01*
X112008811Y-82527536D01*
X112218888Y-82648824D01*
X112443000Y-82741654D01*
X112677311Y-82804438D01*
X112857686Y-82828184D01*
X112917811Y-82836100D01*
X112917812Y-82836100D01*
X113160389Y-82836100D01*
X113208488Y-82829767D01*
X113400889Y-82804438D01*
X113635200Y-82741654D01*
X113859312Y-82648824D01*
X114069389Y-82527536D01*
X114261838Y-82379865D01*
X114433365Y-82208338D01*
X114581036Y-82015889D01*
X114702324Y-81805812D01*
X114795154Y-81581700D01*
X114857938Y-81347389D01*
X114889600Y-81106888D01*
X114889600Y-80892765D01*
X115415600Y-80892765D01*
X115415600Y-81078434D01*
X115444642Y-81261796D01*
X115444643Y-81261800D01*
X115502015Y-81438371D01*
X115586301Y-81603793D01*
X115695428Y-81753993D01*
X115826707Y-81885272D01*
X115976907Y-81994399D01*
X116142329Y-82078685D01*
X116318900Y-82136057D01*
X116382025Y-82146055D01*
X116502266Y-82165100D01*
X116502271Y-82165100D01*
X116687934Y-82165100D01*
X116789801Y-82148965D01*
X116871300Y-82136057D01*
X117047871Y-82078685D01*
X117213293Y-81994399D01*
X117363493Y-81885272D01*
X117494772Y-81753993D01*
X117603899Y-81603793D01*
X117688185Y-81438371D01*
X117745557Y-81261800D01*
X117745558Y-81261796D01*
X117747062Y-81257167D01*
X117749247Y-81257877D01*
X117779303Y-81205514D01*
X117841324Y-81173340D01*
X117910894Y-81179805D01*
X117965924Y-81222856D01*
X117981792Y-81257604D01*
X117983138Y-81257167D01*
X117984642Y-81261796D01*
X117984643Y-81261800D01*
X118042015Y-81438371D01*
X118126301Y-81603793D01*
X118235428Y-81753993D01*
X118366707Y-81885272D01*
X118516907Y-81994399D01*
X118682329Y-82078685D01*
X118858900Y-82136057D01*
X118922025Y-82146055D01*
X119042266Y-82165100D01*
X119042271Y-82165100D01*
X119227934Y-82165100D01*
X119329801Y-82148965D01*
X119411300Y-82136057D01*
X119587871Y-82078685D01*
X119753293Y-81994399D01*
X119903493Y-81885272D01*
X120034772Y-81753993D01*
X120143899Y-81603793D01*
X120228185Y-81438371D01*
X120285557Y-81261800D01*
X120285558Y-81261796D01*
X120287062Y-81257167D01*
X120289247Y-81257877D01*
X120319303Y-81205514D01*
X120381324Y-81173340D01*
X120450894Y-81179805D01*
X120505924Y-81222856D01*
X120521792Y-81257604D01*
X120523138Y-81257167D01*
X120524642Y-81261796D01*
X120524643Y-81261800D01*
X120582015Y-81438371D01*
X120666301Y-81603793D01*
X120775428Y-81753993D01*
X120906707Y-81885272D01*
X121056907Y-81994399D01*
X121222329Y-82078685D01*
X121398900Y-82136057D01*
X121462025Y-82146055D01*
X121582266Y-82165100D01*
X121582271Y-82165100D01*
X121767934Y-82165100D01*
X121869801Y-82148965D01*
X121951300Y-82136057D01*
X122127871Y-82078685D01*
X122293293Y-81994399D01*
X122443493Y-81885272D01*
X122574772Y-81753993D01*
X122683899Y-81603793D01*
X122768185Y-81438371D01*
X122825557Y-81261800D01*
X122850093Y-81106888D01*
X122854600Y-81078434D01*
X122854600Y-80892765D01*
X122849188Y-80858599D01*
X123289082Y-80858599D01*
X123289083Y-80858600D01*
X123809137Y-80858600D01*
X123790100Y-80929648D01*
X123790100Y-81041552D01*
X123809137Y-81112600D01*
X123289083Y-81112600D01*
X123317953Y-81257740D01*
X123317956Y-81257750D01*
X123388282Y-81427534D01*
X123388289Y-81427547D01*
X123490391Y-81580352D01*
X123490394Y-81580356D01*
X123620343Y-81710305D01*
X123620347Y-81710308D01*
X123773152Y-81812410D01*
X123773165Y-81812417D01*
X123942952Y-81882744D01*
X123942961Y-81882747D01*
X124088100Y-81911616D01*
X124088100Y-81391562D01*
X124159148Y-81410600D01*
X124271052Y-81410600D01*
X124342100Y-81391562D01*
X124342100Y-81911615D01*
X124487238Y-81882747D01*
X124487247Y-81882744D01*
X124657034Y-81812417D01*
X124657047Y-81812410D01*
X124809852Y-81710308D01*
X124809856Y-81710305D01*
X124939805Y-81580356D01*
X124939808Y-81580352D01*
X125041910Y-81427547D01*
X125041917Y-81427534D01*
X125112243Y-81257750D01*
X125112246Y-81257740D01*
X125141117Y-81112600D01*
X124621063Y-81112600D01*
X124640100Y-81041552D01*
X124640100Y-80929648D01*
X124630217Y-80892765D01*
X125575600Y-80892765D01*
X125575600Y-81078434D01*
X125604642Y-81261796D01*
X125604643Y-81261800D01*
X125662015Y-81438371D01*
X125746301Y-81603793D01*
X125855428Y-81753993D01*
X125986707Y-81885272D01*
X126136907Y-81994399D01*
X126302329Y-82078685D01*
X126478900Y-82136057D01*
X126542025Y-82146055D01*
X126662266Y-82165100D01*
X126662271Y-82165100D01*
X126847934Y-82165100D01*
X126949801Y-82148965D01*
X127031300Y-82136057D01*
X127207871Y-82078685D01*
X127373293Y-81994399D01*
X127523493Y-81885272D01*
X127654772Y-81753993D01*
X127763899Y-81603793D01*
X127848185Y-81438371D01*
X127905557Y-81261800D01*
X127905558Y-81261796D01*
X127907062Y-81257167D01*
X127909247Y-81257877D01*
X127939303Y-81205514D01*
X128001324Y-81173340D01*
X128070894Y-81179805D01*
X128125924Y-81222856D01*
X128141792Y-81257604D01*
X128143138Y-81257167D01*
X128144642Y-81261796D01*
X128144643Y-81261800D01*
X128202015Y-81438371D01*
X128286301Y-81603793D01*
X128395428Y-81753993D01*
X128526707Y-81885272D01*
X128676907Y-81994399D01*
X128842329Y-82078685D01*
X129018900Y-82136057D01*
X129082025Y-82146055D01*
X129202266Y-82165100D01*
X129202271Y-82165100D01*
X129387934Y-82165100D01*
X129489801Y-82148965D01*
X129571300Y-82136057D01*
X129747871Y-82078685D01*
X129913293Y-81994399D01*
X130063493Y-81885272D01*
X130194772Y-81753993D01*
X130303899Y-81603793D01*
X130388185Y-81438371D01*
X130445557Y-81261800D01*
X130445558Y-81261796D01*
X130447062Y-81257167D01*
X130449247Y-81257877D01*
X130479303Y-81205514D01*
X130541324Y-81173340D01*
X130610894Y-81179805D01*
X130665924Y-81222856D01*
X130681792Y-81257604D01*
X130683138Y-81257167D01*
X130684642Y-81261796D01*
X130684643Y-81261800D01*
X130742015Y-81438371D01*
X130826301Y-81603793D01*
X130935428Y-81753993D01*
X131066707Y-81885272D01*
X131216907Y-81994399D01*
X131382329Y-82078685D01*
X131558900Y-82136057D01*
X131622025Y-82146055D01*
X131742266Y-82165100D01*
X131742271Y-82165100D01*
X131927934Y-82165100D01*
X132029801Y-82148965D01*
X132111300Y-82136057D01*
X132287871Y-82078685D01*
X132453293Y-81994399D01*
X132603493Y-81885272D01*
X132734772Y-81753993D01*
X132843899Y-81603793D01*
X132928185Y-81438371D01*
X132985557Y-81261800D01*
X132985558Y-81261796D01*
X132987062Y-81257167D01*
X132989247Y-81257877D01*
X133019303Y-81205514D01*
X133081324Y-81173340D01*
X133150894Y-81179805D01*
X133205924Y-81222856D01*
X133221792Y-81257604D01*
X133223138Y-81257167D01*
X133224642Y-81261796D01*
X133224643Y-81261800D01*
X133282015Y-81438371D01*
X133366301Y-81603793D01*
X133475428Y-81753993D01*
X133606707Y-81885272D01*
X133756907Y-81994399D01*
X133922329Y-82078685D01*
X134098900Y-82136057D01*
X134162025Y-82146055D01*
X134282266Y-82165100D01*
X134282271Y-82165100D01*
X134467934Y-82165100D01*
X134569801Y-82148965D01*
X134651300Y-82136057D01*
X134827871Y-82078685D01*
X134993293Y-81994399D01*
X135143493Y-81885272D01*
X135274772Y-81753993D01*
X135383899Y-81603793D01*
X135468185Y-81438371D01*
X135525557Y-81261800D01*
X135525558Y-81261796D01*
X135527062Y-81257167D01*
X135529247Y-81257877D01*
X135559303Y-81205514D01*
X135621324Y-81173340D01*
X135690894Y-81179805D01*
X135745924Y-81222856D01*
X135761792Y-81257604D01*
X135763138Y-81257167D01*
X135764642Y-81261796D01*
X135764643Y-81261800D01*
X135822015Y-81438371D01*
X135906301Y-81603793D01*
X136015428Y-81753993D01*
X136146707Y-81885272D01*
X136296907Y-81994399D01*
X136462329Y-82078685D01*
X136638900Y-82136057D01*
X136702025Y-82146055D01*
X136822266Y-82165100D01*
X136822271Y-82165100D01*
X137007934Y-82165100D01*
X137109801Y-82148965D01*
X137191300Y-82136057D01*
X137367871Y-82078685D01*
X137533293Y-81994399D01*
X137683493Y-81885272D01*
X137814772Y-81753993D01*
X137923899Y-81603793D01*
X138008185Y-81438371D01*
X138065557Y-81261800D01*
X138065558Y-81261796D01*
X138067062Y-81257167D01*
X138069247Y-81257877D01*
X138099303Y-81205514D01*
X138161324Y-81173340D01*
X138230894Y-81179805D01*
X138285924Y-81222856D01*
X138301792Y-81257604D01*
X138303138Y-81257167D01*
X138304642Y-81261796D01*
X138304643Y-81261800D01*
X138362015Y-81438371D01*
X138446301Y-81603793D01*
X138555428Y-81753993D01*
X138686707Y-81885272D01*
X138778290Y-81951811D01*
X138803486Y-81970117D01*
X138846151Y-82025447D01*
X138854600Y-82070435D01*
X138854600Y-84269501D01*
X138845955Y-84298941D01*
X138839432Y-84328928D01*
X138835677Y-84333943D01*
X138834915Y-84336540D01*
X138818281Y-84357182D01*
X138726682Y-84448781D01*
X138665359Y-84482266D01*
X138639001Y-84485100D01*
X138440557Y-84485100D01*
X138247270Y-84523547D01*
X138247260Y-84523550D01*
X138065192Y-84598964D01*
X138065179Y-84598971D01*
X137901318Y-84708460D01*
X137901314Y-84708463D01*
X137761963Y-84847814D01*
X137761960Y-84847818D01*
X137652471Y-85011679D01*
X137652464Y-85011692D01*
X137577050Y-85193760D01*
X137577047Y-85193770D01*
X137538600Y-85387056D01*
X137538600Y-85387059D01*
X137538600Y-85584141D01*
X137538600Y-85584143D01*
X137538599Y-85584143D01*
X137577047Y-85777429D01*
X137577050Y-85777439D01*
X137652464Y-85959507D01*
X137652471Y-85959520D01*
X137761960Y-86123381D01*
X137761963Y-86123385D01*
X137901314Y-86262736D01*
X137901318Y-86262739D01*
X138065179Y-86372228D01*
X138065192Y-86372235D01*
X138247260Y-86447649D01*
X138247265Y-86447651D01*
X138247269Y-86447651D01*
X138247270Y-86447652D01*
X138440556Y-86486100D01*
X138440559Y-86486100D01*
X138637643Y-86486100D01*
X138767682Y-86460232D01*
X138830935Y-86447651D01*
X139013014Y-86372232D01*
X139176882Y-86262739D01*
X139316239Y-86123382D01*
X139425732Y-85959514D01*
X139501151Y-85777435D01*
X139536651Y-85598968D01*
X139539600Y-85584143D01*
X139539600Y-85385697D01*
X139559285Y-85318658D01*
X139575919Y-85298016D01*
X139708007Y-85165928D01*
X139935620Y-84938316D01*
X140014677Y-84801384D01*
X140055601Y-84648657D01*
X140055601Y-84490542D01*
X140055601Y-84482947D01*
X140055600Y-84482929D01*
X140055600Y-82070435D01*
X140075285Y-82003396D01*
X140106714Y-81970117D01*
X140223493Y-81885272D01*
X140354772Y-81753993D01*
X140463899Y-81603793D01*
X140548185Y-81438371D01*
X140605557Y-81261800D01*
X140630093Y-81106888D01*
X140634600Y-81078434D01*
X140634600Y-80892765D01*
X140607971Y-80724644D01*
X140605557Y-80709400D01*
X140548185Y-80532829D01*
X140463899Y-80367407D01*
X140354772Y-80217207D01*
X140223493Y-80085928D01*
X140073293Y-79976801D01*
X139907871Y-79892515D01*
X139731300Y-79835143D01*
X139731298Y-79835142D01*
X139731296Y-79835142D01*
X139547934Y-79806100D01*
X139547929Y-79806100D01*
X139362271Y-79806100D01*
X139362266Y-79806100D01*
X139178903Y-79835142D01*
X139002326Y-79892516D01*
X138836906Y-79976801D01*
X138751211Y-80039062D01*
X138686707Y-80085928D01*
X138686705Y-80085930D01*
X138686704Y-80085930D01*
X138555430Y-80217204D01*
X138555430Y-80217205D01*
X138555428Y-80217207D01*
X138508562Y-80281711D01*
X138446301Y-80367406D01*
X138362016Y-80532826D01*
X138362015Y-80532828D01*
X138362015Y-80532829D01*
X138310780Y-80690514D01*
X138303138Y-80714033D01*
X138300964Y-80713326D01*
X138270852Y-80765729D01*
X138208814Y-80797871D01*
X138139248Y-80791371D01*
X138084239Y-80748292D01*
X138068395Y-80713599D01*
X138067062Y-80714033D01*
X138065557Y-80709400D01*
X138008185Y-80532829D01*
X137923899Y-80367407D01*
X137814772Y-80217207D01*
X137683493Y-80085928D01*
X137533293Y-79976801D01*
X137367871Y-79892515D01*
X137191300Y-79835143D01*
X137191298Y-79835142D01*
X137191296Y-79835142D01*
X137007934Y-79806100D01*
X137007929Y-79806100D01*
X136822271Y-79806100D01*
X136822266Y-79806100D01*
X136638903Y-79835142D01*
X136462326Y-79892516D01*
X136296906Y-79976801D01*
X136211211Y-80039062D01*
X136146707Y-80085928D01*
X136146705Y-80085930D01*
X136146704Y-80085930D01*
X136015430Y-80217204D01*
X136015430Y-80217205D01*
X136015428Y-80217207D01*
X135968562Y-80281711D01*
X135906301Y-80367406D01*
X135822016Y-80532826D01*
X135822015Y-80532828D01*
X135822015Y-80532829D01*
X135770780Y-80690514D01*
X135763138Y-80714033D01*
X135760964Y-80713326D01*
X135730852Y-80765729D01*
X135668814Y-80797871D01*
X135599248Y-80791371D01*
X135544239Y-80748292D01*
X135528395Y-80713599D01*
X135527062Y-80714033D01*
X135525557Y-80709400D01*
X135468185Y-80532829D01*
X135383899Y-80367407D01*
X135274772Y-80217207D01*
X135143493Y-80085928D01*
X134993293Y-79976801D01*
X134827871Y-79892515D01*
X134651300Y-79835143D01*
X134651298Y-79835142D01*
X134651296Y-79835142D01*
X134467934Y-79806100D01*
X134467929Y-79806100D01*
X134282271Y-79806100D01*
X134282266Y-79806100D01*
X134098903Y-79835142D01*
X133922326Y-79892516D01*
X133756906Y-79976801D01*
X133671211Y-80039062D01*
X133606707Y-80085928D01*
X133606705Y-80085930D01*
X133606704Y-80085930D01*
X133475430Y-80217204D01*
X133475430Y-80217205D01*
X133475428Y-80217207D01*
X133428562Y-80281711D01*
X133366301Y-80367406D01*
X133282016Y-80532826D01*
X133282015Y-80532828D01*
X133282015Y-80532829D01*
X133230780Y-80690514D01*
X133223138Y-80714033D01*
X133220964Y-80713326D01*
X133190852Y-80765729D01*
X133128814Y-80797871D01*
X133059248Y-80791371D01*
X133004239Y-80748292D01*
X132988395Y-80713599D01*
X132987062Y-80714033D01*
X132985557Y-80709400D01*
X132928185Y-80532829D01*
X132843899Y-80367407D01*
X132734772Y-80217207D01*
X132603493Y-80085928D01*
X132453293Y-79976801D01*
X132287871Y-79892515D01*
X132111300Y-79835143D01*
X132111298Y-79835142D01*
X132111296Y-79835142D01*
X131927934Y-79806100D01*
X131927929Y-79806100D01*
X131742271Y-79806100D01*
X131742266Y-79806100D01*
X131558903Y-79835142D01*
X131382326Y-79892516D01*
X131216906Y-79976801D01*
X131131211Y-80039062D01*
X131066707Y-80085928D01*
X131066705Y-80085930D01*
X131066704Y-80085930D01*
X130935430Y-80217204D01*
X130935430Y-80217205D01*
X130935428Y-80217207D01*
X130888562Y-80281711D01*
X130826301Y-80367406D01*
X130742016Y-80532826D01*
X130742015Y-80532828D01*
X130742015Y-80532829D01*
X130690780Y-80690514D01*
X130683138Y-80714033D01*
X130680964Y-80713326D01*
X130650852Y-80765729D01*
X130588814Y-80797871D01*
X130519248Y-80791371D01*
X130464239Y-80748292D01*
X130448395Y-80713599D01*
X130447062Y-80714033D01*
X130445557Y-80709400D01*
X130388185Y-80532829D01*
X130303899Y-80367407D01*
X130194772Y-80217207D01*
X130063493Y-80085928D01*
X129913293Y-79976801D01*
X129747871Y-79892515D01*
X129571300Y-79835143D01*
X129571298Y-79835142D01*
X129571296Y-79835142D01*
X129387934Y-79806100D01*
X129387929Y-79806100D01*
X129202271Y-79806100D01*
X129202266Y-79806100D01*
X129018903Y-79835142D01*
X128842326Y-79892516D01*
X128676906Y-79976801D01*
X128591211Y-80039062D01*
X128526707Y-80085928D01*
X128526705Y-80085930D01*
X128526704Y-80085930D01*
X128395430Y-80217204D01*
X128395430Y-80217205D01*
X128395428Y-80217207D01*
X128348562Y-80281711D01*
X128286301Y-80367406D01*
X128202016Y-80532826D01*
X128202015Y-80532828D01*
X128202015Y-80532829D01*
X128150780Y-80690514D01*
X128143138Y-80714033D01*
X128140964Y-80713326D01*
X128110852Y-80765729D01*
X128048814Y-80797871D01*
X127979248Y-80791371D01*
X127924239Y-80748292D01*
X127908395Y-80713599D01*
X127907062Y-80714033D01*
X127905557Y-80709400D01*
X127848185Y-80532829D01*
X127763899Y-80367407D01*
X127654772Y-80217207D01*
X127523493Y-80085928D01*
X127373293Y-79976801D01*
X127207871Y-79892515D01*
X127031300Y-79835143D01*
X127031298Y-79835142D01*
X127031296Y-79835142D01*
X126847934Y-79806100D01*
X126847929Y-79806100D01*
X126662271Y-79806100D01*
X126662266Y-79806100D01*
X126478903Y-79835142D01*
X126302326Y-79892516D01*
X126136906Y-79976801D01*
X126051211Y-80039062D01*
X125986707Y-80085928D01*
X125986705Y-80085930D01*
X125986704Y-80085930D01*
X125855430Y-80217204D01*
X125855430Y-80217205D01*
X125855428Y-80217207D01*
X125808562Y-80281711D01*
X125746301Y-80367406D01*
X125662016Y-80532826D01*
X125604642Y-80709403D01*
X125575600Y-80892765D01*
X124630217Y-80892765D01*
X124621063Y-80858600D01*
X125141117Y-80858600D01*
X125141117Y-80858599D01*
X125112246Y-80713461D01*
X125112243Y-80713449D01*
X125041917Y-80543665D01*
X125041910Y-80543652D01*
X124939808Y-80390847D01*
X124939805Y-80390843D01*
X124809856Y-80260894D01*
X124809852Y-80260891D01*
X124657047Y-80158789D01*
X124657034Y-80158782D01*
X124487250Y-80088456D01*
X124487240Y-80088453D01*
X124342100Y-80059582D01*
X124342100Y-80579637D01*
X124271052Y-80560600D01*
X124159148Y-80560600D01*
X124088100Y-80579637D01*
X124088100Y-80059583D01*
X124088099Y-80059582D01*
X123942959Y-80088453D01*
X123942949Y-80088456D01*
X123773165Y-80158782D01*
X123773152Y-80158789D01*
X123620347Y-80260891D01*
X123620343Y-80260894D01*
X123490394Y-80390843D01*
X123490391Y-80390847D01*
X123388289Y-80543652D01*
X123388282Y-80543665D01*
X123317956Y-80713449D01*
X123317953Y-80713459D01*
X123289082Y-80858599D01*
X122849188Y-80858599D01*
X122827971Y-80724644D01*
X122825557Y-80709400D01*
X122768185Y-80532829D01*
X122683899Y-80367407D01*
X122574772Y-80217207D01*
X122443493Y-80085928D01*
X122293293Y-79976801D01*
X122127871Y-79892515D01*
X121951300Y-79835143D01*
X121951298Y-79835142D01*
X121951296Y-79835142D01*
X121767934Y-79806100D01*
X121767929Y-79806100D01*
X121582271Y-79806100D01*
X121582266Y-79806100D01*
X121398903Y-79835142D01*
X121222326Y-79892516D01*
X121056906Y-79976801D01*
X120971211Y-80039062D01*
X120906707Y-80085928D01*
X120906705Y-80085930D01*
X120906704Y-80085930D01*
X120775430Y-80217204D01*
X120775430Y-80217205D01*
X120775428Y-80217207D01*
X120728562Y-80281711D01*
X120666301Y-80367406D01*
X120582016Y-80532826D01*
X120582015Y-80532828D01*
X120582015Y-80532829D01*
X120530780Y-80690514D01*
X120523138Y-80714033D01*
X120520964Y-80713326D01*
X120490852Y-80765729D01*
X120428814Y-80797871D01*
X120359248Y-80791371D01*
X120304239Y-80748292D01*
X120288395Y-80713599D01*
X120287062Y-80714033D01*
X120285557Y-80709400D01*
X120228185Y-80532829D01*
X120143899Y-80367407D01*
X120034772Y-80217207D01*
X119903493Y-80085928D01*
X119753293Y-79976801D01*
X119587871Y-79892515D01*
X119411300Y-79835143D01*
X119411298Y-79835142D01*
X119411296Y-79835142D01*
X119227934Y-79806100D01*
X119227929Y-79806100D01*
X119042271Y-79806100D01*
X119042266Y-79806100D01*
X118858903Y-79835142D01*
X118682326Y-79892516D01*
X118516906Y-79976801D01*
X118431211Y-80039062D01*
X118366707Y-80085928D01*
X118366705Y-80085930D01*
X118366704Y-80085930D01*
X118235430Y-80217204D01*
X118235430Y-80217205D01*
X118235428Y-80217207D01*
X118188562Y-80281711D01*
X118126301Y-80367406D01*
X118042016Y-80532826D01*
X118042015Y-80532828D01*
X118042015Y-80532829D01*
X117990780Y-80690514D01*
X117983138Y-80714033D01*
X117980964Y-80713326D01*
X117950852Y-80765729D01*
X117888814Y-80797871D01*
X117819248Y-80791371D01*
X117764239Y-80748292D01*
X117748395Y-80713599D01*
X117747062Y-80714033D01*
X117745557Y-80709400D01*
X117688185Y-80532829D01*
X117603899Y-80367407D01*
X117494772Y-80217207D01*
X117363493Y-80085928D01*
X117213293Y-79976801D01*
X117047871Y-79892515D01*
X116871300Y-79835143D01*
X116871298Y-79835142D01*
X116871296Y-79835142D01*
X116687934Y-79806100D01*
X116687929Y-79806100D01*
X116502271Y-79806100D01*
X116502266Y-79806100D01*
X116318903Y-79835142D01*
X116142326Y-79892516D01*
X115976906Y-79976801D01*
X115891211Y-80039062D01*
X115826707Y-80085928D01*
X115826705Y-80085930D01*
X115826704Y-80085930D01*
X115695430Y-80217204D01*
X115695430Y-80217205D01*
X115695428Y-80217207D01*
X115648562Y-80281711D01*
X115586301Y-80367406D01*
X115502016Y-80532826D01*
X115444642Y-80709403D01*
X115415600Y-80892765D01*
X114889600Y-80892765D01*
X114889600Y-80864312D01*
X114857938Y-80623811D01*
X114795154Y-80389500D01*
X114702324Y-80165388D01*
X114581036Y-79955311D01*
X114483869Y-79828680D01*
X114433366Y-79762863D01*
X114433360Y-79762856D01*
X114261843Y-79591339D01*
X114261836Y-79591333D01*
X114069393Y-79443667D01*
X114069392Y-79443666D01*
X114069389Y-79443664D01*
X113859312Y-79322376D01*
X113859305Y-79322373D01*
X113635204Y-79229547D01*
X113400885Y-79166761D01*
X113160389Y-79135100D01*
X113160388Y-79135100D01*
X112917812Y-79135100D01*
X112917811Y-79135100D01*
X112677314Y-79166761D01*
X112442995Y-79229547D01*
X112218894Y-79322373D01*
X112218885Y-79322377D01*
X112008806Y-79443667D01*
X111816363Y-79591333D01*
X111816356Y-79591339D01*
X111644839Y-79762856D01*
X111644833Y-79762863D01*
X111497167Y-79955306D01*
X111375877Y-80165385D01*
X111375873Y-80165394D01*
X111283047Y-80389495D01*
X111220261Y-80623814D01*
X111188600Y-80864311D01*
X97947600Y-80864311D01*
X97947600Y-78704100D01*
X97967285Y-78637061D01*
X98020089Y-78591306D01*
X98071600Y-78580100D01*
X198930600Y-78580100D01*
X198997639Y-78599785D01*
G37*
%TD.AperFunction*%
%TD*%
M02*
